<?xml version="1.0"?>
<svg xmlns="http://www.w3.org/2000/svg" xmlns:xlink="http://www.w3.org/1999/xlink" version="1.1" viewBox="0 0 210 210" width="30px" height="30px"><g fill="none" fill-rule="nonzero" stroke="none" stroke-width="1" stroke-linecap="butt" stroke-linejoin="miter" stroke-miterlimit="10" stroke-dasharray="" stroke-dashoffset="0" font-family="none" font-weight="none" font-size="none" text-anchor="none" style="mix-blend-mode: normal"><path d="M0,210v-210h210v210z" fill="none"/><g fill="#ffffff"><path d="M45.70508,17.60938c-1.88952,-0.02538 -3.70903,0.71426 -5.04492,2.05078c-2.73296,2.73355 -2.73296,7.16489 0,9.89844c2.73355,2.73296 7.16489,2.73296 9.89844,0c2.73296,-2.73355 2.73296,-7.16489 0,-9.89844c-1.289,-1.28963 -3.03033,-2.0254 -4.85352,-2.05078zM164.5,17.60938c-1.89423,-0.02909 -3.71937,0.71083 -5.05859,2.05078c-2.73296,2.73355 -2.73296,7.16489 0,9.89844c2.73355,2.73296 7.16489,2.73296 9.89843,0c2.73296,-2.73355 2.73296,-7.16489 0,-9.89844c-1.28562,-1.28636 -3.02141,-2.02186 -4.83984,-2.05078zM105,21c-34.797,0 -63,28.203 -63,63c0,35 28,49 42,77h42c14,-28 42,-42 42,-77c0,-34.797 -28.203,-63 -63,-63zM105,42v35h28l-28,49v-35h-28zM21,77c-3.86599,0 -7,3.13401 -7,7c0,3.86599 3.13401,7 7,7c3.86599,0 7,-3.13401 7,-7c0,-3.86599 -3.13401,-7 -7,-7zM189,77c-3.86599,0 -7,3.13401 -7,7c0,3.86599 3.13401,7 7,7c3.86599,0 7,-3.13401 7,-7c0,-3.86599 -3.13401,-7 -7,-7zM45.70508,136.39063c-1.89424,-0.02909 -3.71938,0.71083 -5.05859,2.05078c-2.73296,2.73355 -2.73296,7.16489 0,9.89843c1.31326,1.31662 3.09645,2.05657 4.95605,2.05657c1.85961,0 3.64279,-0.73995 4.95605,-2.05657c2.73296,-2.73355 2.73296,-7.16489 0,-9.89843c-1.289,-1.28963 -3.03033,-2.0254 -4.85352,-2.05078zM164.48633,136.4043c-1.88753,-0.029 -3.70676,0.7056 -5.04492,2.03711c-1.31662,1.31326 -2.05657,3.09645 -2.05657,4.95605c0,1.85961 0.73995,3.64279 2.05657,4.95605c2.73355,2.73296 7.16489,2.73296 9.89843,0c1.31662,-1.31326 2.05657,-3.09645 2.05657,-4.95605c0,-1.85961 -0.73995,-3.64279 -2.05657,-4.95605c-1.2912,-1.28461 -3.03226,-2.01537 -4.85351,-2.03711zM84,175v7c0,7.735 6.265,14 14,14c0,3.86599 3.13401,7 7,7c3.86599,0 7,-3.13401 7,-7c7.735,0 14,-6.265 14,-14v-7z"/></g></g></svg>
