<?xml version="1.0" encoding="utf-8"?>
<!--Designed by Vexels.com - 2018 All Rights Reserved - https://vexels.com/terms-and-conditions/-->
<svg version="1.1" id="Layer_1" xmlns="http://www.w3.org/2000/svg" xmlns:xlink="http://www.w3.org/1999/xlink" x="0px" y="0px"
	 viewBox="0 0 1200 1200" enable-background="new 0 0 1200 1200" fill="#FFFFFF" xml:space="preserve">
<path fill="#1E1E1E" d="M832.752,664.59c-0.908,6.964-2.423,12.415-9.084,32.098c-6.662,19.682-40.879,27.252-57.836,33.005
	c-16.957,5.753-111.129,4.542-126.875,5.451c-15.746,0.908-19.077-11.809-21.499-19.682c-2.423-7.873-0.606-54.505,9.993-63.892
	c10.598-9.387,62.075-6.056,103.256-8.478c0,0,46.632,0.908,75.701,2.422C835.477,647.027,833.66,657.626,832.752,664.59z
	 M469.294,643.091c0,0-46.632,0.908-75.701,2.422c-29.069,1.514-27.252,12.112-26.344,19.077s2.423,12.415,9.084,32.098
	c6.662,19.682,40.879,27.252,57.836,33.005c16.957,5.753,111.129,4.542,126.875,5.451c15.746,0.908,19.077-11.809,21.499-19.682
	c2.423-7.873,0.606-54.505-9.993-63.892C561.952,642.183,510.475,645.513,469.294,643.091z M251.99,820.269
	c-81.449-12.626-85.075-16.252-86.815-17.992c-1.671-1.671-4.785-5.864-10.146-13.129c-5.017-6.799-13.282-18.011-15.949-20.333
	c-1.698-0.298-6.003-0.251-10.388-0.005c0.424,13.12,1.801,50.896,3.98,64.467c0.465,2.886,0.936,6.232,1.447,9.848
	c2.262,16.014,5.678,40.206,12.356,46.884c8.759,8.759,66.003,13.208,84.815,14.67c28.203,2.192,77.126-18.919,83.618-23.065
	c3.151-4.872,21.264-36.055,28.022-48.439c-10.522-1.722-34.095-4.961-52.315-7.465C274.787,823.536,259.837,821.484,251.99,820.269
	z M824.266,866.092c-8.851-12.892-17.216-25.067-26.872-28.138c-12.422-3.951-95.841-7.651-128.461-7.651
	c-29.516,0-63.462-1.032-68.508-1.193c-5.047,0.16-38.992,1.193-68.509,1.193c-32.62,0-116.039,3.7-128.46,7.651
	c-9.658,3.072-18.021,15.246-26.872,28.138c-1.797,2.615-3.626,5.273-5.507,7.926c-15.2,21.432-12.444,28.511-11.281,30.121
	c4.221,4.542,39.215,7.418,62.369,9.322l7.19,0.596c31.097,2.586,161.047,5.5,171.07,5.72c10.021-0.219,139.972-3.134,171.068-5.72
	l7.191-0.596c23.154-1.904,58.148-4.78,62.368-9.322c1.165-1.61,3.919-8.689-11.281-30.121
	C827.891,871.365,826.062,868.708,824.266,866.092z M1149.485,446.262c-1.816,4.542-11.809,12.718-19.985,14.535
	c-8.175,1.817-96.291,6.359-96.291,6.359s19.077,18.168,28.708,27.252c9.63,9.084,9.445,33.611,11.263,36.337
	c1.816,2.725,53.596,43.604,63.589,57.23c9.993,13.626,5.43,228.921,5.43,228.921v170.226c0,16.361-13.265,29.624-29.625,29.624
	h-101.313c-16.361,0-29.624-13.262-29.624-29.624v-25.635c-51.667,2.48-107.746,4.697-114.667,3.027
	c-13.171-3.18-59.502-18.169-59.502-18.169s-0.908,10.447-9.083,10.901c-8.079,0.449-193.939,0.011-198.383,0
	c-4.445,0.011-190.305,0.449-198.383,0c-8.175-0.454-9.084-10.901-9.084-10.901s-46.329,14.989-59.5,18.169
	c-6.921,1.67-63-0.547-114.667-3.027v25.635c0,16.361-13.263,29.624-29.624,29.624H87.426c-16.361,0-29.624-13.262-29.624-29.624
	V816.896c0,0-4.563-215.294,5.43-228.921s61.772-54.505,63.588-57.23c1.818-2.725,1.633-27.252,11.263-36.337
	c9.63-9.084,28.708-27.252,28.708-27.252s-88.116-4.542-96.292-6.359c-8.175-1.817-18.168-9.993-19.984-14.535
	c-1.818-4.542-0.444-39.47,31.794-50.871c37.245-13.172,101.287-12.945,101.287-12.945l9.098,0c2.401,0,4.256,2.11,3.947,4.491
	c-0.565,4.356-3.501,8.056-7.645,9.515c-6.029,2.123-14.457,6.595-17.663,15.518c-5.223,14.535-7.04,20.894-4.314,23.392
	c2.725,2.498,13.171-0.454,13.171-0.454s41.561-89.479,46.103-97.2c0,0,35.882-62.226,51.022-81.001
	c15.141-18.774,34.52-37.547,41.182-40.576c6.662-3.028,11.506,0,11.506,0l51.478-1.346c0,0,1.552-14.531,4.239-16.822
	c20.577-17.55,116.445-11.084,214.175-14.7v-0.008c0.034,0.001,0.07,0.003,0.106,0.004c0.036-0.001,0.07-0.003,0.106-0.004v0.008
	c97.729,3.617,193.598-2.85,214.175,14.7c2.686,2.292,4.239,16.822,4.239,16.822l51.476,1.346c0,0,4.845-3.028,11.507,0
	c6.662,3.028,26.041,21.802,41.182,40.576c15.14,18.774,51.022,81.001,51.022,81.001c4.542,7.721,46.101,97.2,46.101,97.2
	s10.448,2.953,13.173,0.454c2.726-2.498,0.908-8.857-4.314-23.392c-3.206-8.923-11.635-13.395-17.664-15.518
	c-4.143-1.459-7.079-5.159-7.644-9.515c-0.309-2.381,1.546-4.491,3.947-4.491l9.098,0c0,0,64.043-0.227,101.287,12.945
	C1149.93,406.793,1151.303,441.721,1149.485,446.262z M214.028,443.991c1.818,3.18,205.756,0.454,240.276,0
	c33.925-0.446,141.981-2.647,145.696-2.723c3.715,0.076,111.771,2.277,145.694,2.723c34.52,0.454,238.46,3.18,240.276,0
	c1.818-3.179-14.079-42.695-29.522-73.581s-55.414-108.102-55.414-108.102s-219.009-15.416-300.929-15.442v-0.001
	c-0.034,0-0.071,0.001-0.106,0.001s-0.071-0.001-0.106-0.001v0.001c-81.919,0.026-300.929,15.442-300.929,15.442
	s-39.971,77.216-55.414,108.102C228.109,401.296,212.212,440.812,214.028,443.991z M152.842,696.633l2.281,0.399
	c47.597,8.325,82.329,14.162,102.087,14.162c7.977,0,13.516-0.953,16.472-3.076l1.557-1.12c8.857-6.382,27.289-19.661,35.074-20.957
	c7.001-1.164,29.747,1.519,37.921,2.653l3.107,0.43c5.132,7.643,11.857,15.89,20.524,24.144
	c23.846,22.71,66.314,26.117,108.782,27.706c24.755,0.927,57.071,0.773,79.724,0.484c16.362-0.209,29.607-13.249,30.195-29.602
	c0.115-3.194,0.195-6.659,0.228-10.397c0.082-9.805-0.169-20.522-0.521-30.171c-0.624-17.104-14.26-30.864-31.361-31.599
	c-26.414-1.136-64.41-2.59-88.484-2.727c0,0-90.842,2.498-99.245,4.088s-17.259,7.949-21.121,9.993
	c-1.491,0.79-3.865,0.497-6.151,0.414c-5.551-1.37-92.175-22.76-118.349-29.739c-27.766-7.404-75.129-23.083-77.857-24.323
	c-4.378-1.991-40.6-2.03-49.678,8.504c-8.844,10.26-10.382,46.159-5.535,54.47c0.46,0.786,0.885,1.889,1.379,3.167
	C97.404,672.673,103.315,687.972,152.842,696.633z M354.547,828.637c-0.973-3.9-0.973-3.9-62.634-12.366
	c-15.786-2.169-30.698-4.217-38.461-5.422c-54.446-8.438-77.949-13.618-81.775-15.563c-1.48-1.634-5.449-7.014-8.977-11.798
	c-13.738-18.625-17.136-22.6-20.208-23.628c-4.118-1.368-14.743-0.614-19.128-0.223l-4.464,0.4l0.122,4.477
	c0.06,2.164,1.498,53.2,4.239,70.275c0.457,2.835,0.922,6.12,1.42,9.671c3.351,23.722,6.799,44.032,15.056,52.288
	c7.986,7.991,34.299,13.041,90.819,17.434c1.549,0.121,3.15,0.177,4.807,0.177c32.532,0,83.629-22.255,86.885-26.598
	C322.602,887.287,355.761,833.486,354.547,828.637z M837.543,868.507c-1.852-2.615-3.648-5.236-5.422-7.814
	c-9.806-14.274-19.062-27.756-31.842-31.824c-14.432-4.594-100.638-8.098-131.346-8.098c-29.28,0-62.956-1.022-68.138-1.182v-0.023
	c-0.018,0-0.192,0.006-0.37,0.011c-0.178-0.005-0.353-0.011-0.37-0.011v0.023c-5.183,0.161-38.859,1.182-68.139,1.182
	c-30.708,0-116.914,3.504-131.346,8.098c-12.78,4.068-22.036,17.55-31.842,31.824c-1.774,2.578-3.57,5.198-5.422,7.814
	c-13.693,19.3-17.346,32.806-11.174,41.286c5.23,7.195,25.117,9.536,69.252,13.166l7.18,0.591
	c31.519,2.624,158.75,5.472,171.435,5.752v0.019c0.084-0.002,0.287-0.006,0.427-0.009c0.139,0.003,0.342,0.008,0.425,0.009v-0.019
	c12.684-0.28,139.916-3.128,171.435-5.752l7.182-0.591c44.134-3.63,64.021-5.971,69.252-13.166
	C854.889,901.314,851.236,887.808,837.543,868.507z M1090.634,760.037l-4.463-0.4c-4.376-0.391-14.996-1.15-19.137,0.228
	c-3.062,1.024-6.46,4.998-20.199,23.623c-3.527,4.784-7.501,10.169-8.978,11.798c-3.83,1.945-27.333,7.125-81.779,15.563
	c-7.763,1.205-22.684,3.253-38.481,5.422c-61.636,8.465-61.636,8.465-62.609,12.366c-1.215,4.85,31.94,58.65,32.303,59.129
	c3.258,4.342,54.372,26.593,86.89,26.593c1.648,0,3.254-0.056,4.799-0.177c56.514-4.393,82.827-9.443,90.814-17.434
	c8.264-8.265,11.709-28.59,15.06-52.33c0.497-3.537,0.963-6.809,1.414-9.629c2.745-17.076,4.183-68.111,4.245-70.275
	L1090.634,760.037z M974.436,621.715c-26.865,7.165-115.538,29.283-116.416,29.476l-1.097,0.242
	c-2.526,0.013-5.312,0.493-6.987-0.394c-3.86-2.044-12.717-8.403-21.12-9.993c-8.404-1.59-99.245-4.088-99.245-4.088
	c-24.073,0.137-62.07,1.591-88.485,2.727c-17.1,0.735-30.737,14.495-31.359,31.599c-0.353,9.649-0.604,20.366-0.521,30.171
	c0.033,3.738,0.112,7.203,0.228,10.397c0.587,16.353,13.832,29.393,30.195,29.602c22.652,0.289,54.969,0.443,79.723-0.484
	c42.469-1.59,84.937-4.996,108.783-27.706c8.666-8.254,15.391-16.5,20.524-24.143l3.107-0.43c8.174-1.134,30.924-3.817,37.921-2.653
	c7.785,1.297,26.218,14.575,35.074,20.957l1.556,1.12c2.956,2.124,8.492,3.076,16.471,3.076c19.76,0,54.497-5.839,102.088-14.162
	l2.283-0.399c49.526-8.66,55.438-23.96,58.971-33.1c0.492-1.278,0.919-2.381,1.377-3.167c4.848-8.311,3.309-44.209-5.534-54.47
	c-9.079-10.534-45.303-10.498-49.677-8.504C1049.566,598.632,1002.204,614.311,974.436,621.715z M1070.454,768.814
	c-2.671,2.332-10.932,13.534-15.949,20.333c-5.361,7.265-8.474,11.458-10.145,13.129c-1.746,1.745-5.376,5.371-86.821,17.992
	c-7.847,1.215-22.804,3.272-38.643,5.445c-18.206,2.499-41.769,5.738-52.293,7.461c6.74,12.352,24.779,43.417,28.027,48.443
	c6.511,4.161,55.545,25.22,83.614,23.061c18.807-1.461,76.05-5.911,84.81-14.67c6.684-6.683,10.1-30.898,12.362-46.926
	c0.512-3.597,0.981-6.93,1.442-9.806c2.183-13.576,3.56-51.348,3.984-64.467C1076.466,768.558,1072.175,768.516,1070.454,768.814z"
	/>
</svg>
