<?xml version="1.0" encoding="utf-8"?>
<!--Designed by Vexels.com - 2018 All Rights Reserved - https://vexels.com/terms-and-conditions/-->
<svg version="1.1" id="Layer_1" xmlns="http://www.w3.org/2000/svg" xmlns:xlink="http://www.w3.org/1999/xlink" x="0px" y="0px"
	width="200" height="200" viewBox="0 0 1200 1200" enable-background="new 0 0 1200 1200" xml:space="preserve">
<path fill="#FFFFFF" d="M888.179,310.782v-30.01h94.563c13.496,0,24.437-10.943,24.437-24.44V74.44
	c0-13.497-10.941-24.44-24.437-24.44H217.262c-13.496,0-24.437,10.943-24.437,24.44v181.892c0,13.497,10.941,24.44,24.437,24.44
	h94.563v30.01c-97.29,10.072-173.421,92.534-173.421,192.445v542.61c0,57.437,46.728,104.163,104.163,104.163h714.867
	c57.438,0,104.163-46.726,104.163-104.163v-542.61C1061.596,403.315,985.469,320.854,888.179,310.782z M911.534,98.879h46.767
	v133.013h-46.767V98.879z M288.47,231.892h-46.767V98.879h46.767V231.892z M837.465,98.879h43.516v133.013h-43.516V98.879z
	 M839.298,280.772v28.969H360.706v-28.969H839.298z M763.405,98.879h43.513v133.013h-43.513V98.879z M689.34,98.879h43.516v133.013
	H689.34V98.879z M615.28,98.879h43.509v133.013H615.28V98.879z M541.215,98.879h43.513v133.013h-43.513V98.879z M467.147,98.879
	h43.517v133.013h-43.517V98.879z M393.087,98.879h43.513v133.013h-43.513V98.879z M319.022,98.879h43.517v133.013h-43.517V98.879z
	 M1012.715,1045.837c0,30.484-24.796,55.283-55.282,55.283H242.566c-30.481,0-55.282-24.798-55.282-55.283v-542.61
	c0-79.734,64.87-144.606,144.608-144.606h536.218c79.734,0,144.604,64.872,144.604,144.606V1045.837z M670.39,614.765
	c-21.635,0-42.364,6.789-59.701,18.687c-1.329-7.756-3.091-15.424-5.244-22.984c1.649,0.081,3.302,0.187,4.955,0.187
	c15.243,0,30.485-3.45,44.22-10.239c22.913-11.337,40.984-31.648,49.577-55.731c1.528-4.284,1.071-9.022-1.254-12.935
	c-2.325-3.909-6.267-6.582-10.761-7.286c-38.773-6.104-80.082,9.758-106.335,38.833c-7.928-14.154-17.4-27.466-28.383-39.531
	c-5.674-6.228-15.34-6.694-21.584-1.008c-6.232,5.681-6.689,15.34-1.008,21.582c21.198,23.28,35.909,51.884,43.173,82.327
	c-14.77-7.643-31.318-11.9-48.428-11.9c-58.255,0-105.648,47.395-105.648,105.648l0.023,1.182c-0.012,0.471-0.023,0.943-0.023,1.414
	c0,34.923,20.482,96.811,32.697,130.595c14.997,41.45,54.543,69.304,98.403,69.304h89.866c43.864,0,83.411-27.854,98.407-69.311
	c12.211-33.777,32.697-95.665,32.697-130.589c0-0.43-0.004-0.86-0.023-1.349c0.012-0.37,0.023-1.003,0.023-1.247
	C776.037,662.16,728.645,614.765,670.39,614.765z M664.208,554.392c-6.248,7.77-14.156,14.195-23.136,18.634
	c-9.096,4.499-19.146,6.887-29.243,7.082C625.806,566.171,644.636,556.928,664.208,554.392z M727.156,723.009
	c0,19.475-11.413,63.153-29.786,113.971c-8.014,22.161-29.087,37.049-52.437,37.049h-89.866c-23.347,0-44.423-14.888-52.433-37.042
	c-18.373-50.825-29.79-94.503-29.782-114.056l0.035-1.348c0.008-0.555-0.004-1.104-0.043-1.653
	c0.266-31.081,25.629-56.286,56.77-56.286c20.229,0,39.082,10.919,49.214,28.498c4.368,7.565,12.441,12.231,21.178,12.231
	c8.741,0,16.813-4.666,21.174-12.238c10.128-17.572,28.981-28.492,49.21-28.492c31.224,0,56.641,25.341,56.766,56.214
	c-0.027,0.567-0.047,1.146-0.039,1.725L727.156,723.009z M600.006,450.856c-153.849,0-279.014,125.165-279.014,279.014
	c0,153.848,125.165,279.014,279.014,279.014c153.845,0,279.007-125.166,279.007-279.014
	C879.012,576.021,753.851,450.856,600.006,450.856z M600.006,978.335c-137.004,0-248.466-111.46-248.466-248.464
	s111.462-248.465,248.466-248.465c136.997,0,248.455,111.46,248.455,248.465S737.003,978.335,600.006,978.335z"/>
</svg>
