<?xml version="1.0" encoding="UTF-8"?>
<!DOCTYPE svg PUBLIC "-//W3C//DTD SVG 1.1//EN" "http://www.w3.org/Graphics/SVG/1.1/DTD/svg11.dtd">
<!-- Creator: CorelDRAW X6 -->
<svg xmlns="http://www.w3.org/2000/svg" xml:space="preserve" width="100%" height="100%" version="1.1" style="shape-rendering:geometricPrecision; text-rendering:geometricPrecision; image-rendering:optimizeQuality; fill-rule:evenodd; clip-rule:evenodd"
viewBox="0 0 500 500"
 xmlns:xlink="http://www.w3.org/1999/xlink">
 <defs>
  <style type="text/css">
   <![CDATA[
    .str3 {stroke:#505050;stroke-width:20;stroke-linecap:round}
    .str1 {stroke:#303030;stroke-width:25;stroke-linecap:round}
    .str2 {stroke:#0099FF;stroke-width:30}
    .fil1 {fill:none}
   ]]>
  </style>
 </defs>
 <g id="Layer_x0020_1">
  <metadata id="CorelCorpID_0Corel-Layer"/>
  <path class="fil1 str1" d="M155 98l0 -48m47 48l0 -48m48 48l0 -48m48 48l0 -48m47 48l0 -48m-190 400l0 -48m47 48l0 -48m48 48l0 -48m48 48l0 -48m47 48l0 -48m57 -247l48 0m-48 47l48 0m-48 48l48 0m-48 48l48 0m-48 47l48 0m-400 -190l48 0m-48 47l48 0m-48 48l48 0m-48 48l48 0m-48 47l48 0"/>
  <rect class="fil1 str2" x="98" y="98" width="305" height="305" rx="24" ry="24"/>
  <path class="fil1 str3" d="M155 345l95 0m-95 -33l143 0"/>
 </g>
</svg>
