<?xml version="1.0" encoding="utf-8"?>
<!-- Generator: Adobe Illustrator 16.0.0, SVG Export Plug-In . SVG Version: 6.00 Build 0)  -->
<!DOCTYPE svg PUBLIC "-//W3C//DTD SVG 1.1//EN" "http://www.w3.org/Graphics/SVG/1.1/DTD/svg11.dtd">
<svg version="1.1" id="Layer_1" xmlns="http://www.w3.org/2000/svg" xmlns:xlink="http://www.w3.org/1999/xlink" x="0px" y="0px"
	 width="700px" height="490px" viewBox="0 0 700 490" enable-background="new 0 0 700 490" xml:space="preserve">
<g>
	<g>
		<path fill="#333333" d="M588,319.8c-0.1-15.3-0.7-30.6-2.6-45.8c-3.1-25.5-8.9-52.5-21.9-74.9c-9.2-15.8-26.3-31.4-44.9-19.2
			c-16.4,10.8-6.8,35.6-0.5,49.2c6,12.9,13.2,25.1,18,38.6c5.3,14.8,6.8,31.1,7.3,46.7c1,27.9-0.7,56.4-13.3,81.8
			c-4.7,9.5-11.1,18.1-18.7,25.5c-1.9-22.6-4.4-45.2-8.8-67.4c-5.4-26.9-11.3-53.8-17.1-80.6c-5.8-26.7-11.3-53.7-19.1-79.9
			c-7.2-24-19.7-45.8-31.9-67.6c-0.3-0.5-0.9-0.6-1.3-0.2c-8.7,9.1-19,16.9-26.9,26.8c-3.7,4.7-6.7,9.7-9.3,15
			c-1.2,2.5-4.8,8.5-3.5,11.1c-0.1-0.2-0.2-0.3-0.3-0.3c-9.8-13.9-32.5-15.8-47.9-15.9c-10.1,0-20.4,1.3-30.1,4.4
			c-7,2.2-14.2,5.6-18.8,11.4c-0.3,0-0.6,0.1-0.7,0.4c1.3-2.5-2.2-8.5-3.5-11.1c-2.6-5.3-5.6-10.3-9.3-15
			c-7.9-9.9-18.1-17.7-26.9-26.8c-0.4-0.4-1.1-0.3-1.3,0.2c-12.2,21.8-24.8,43.5-31.9,67.6c-7.8,26.2-13.2,53.2-19.1,79.9
			c-5.9,26.8-11.7,53.7-17.1,80.6c-5.2,26.1-7.7,52.7-9.8,79.2c-1.4,18.3-3.8,37.1,1.4,55c-0.3,0.5,0,1.3,0.7,1.3h331.2
			c0.5,0,0.8-0.4,0.8-0.8c0.3-1.1,0.6-2.1,0.9-3.2c4-3.2,8.7-5.7,12.8-8.4c5.4-3.6,10.7-7.3,15.8-11.2c9.4-7.1,18.1-15,25.5-24.1
			c17-21.1,21.1-48.6,22.2-75C588.7,351.3,588.1,335.5,588,319.8z"/>
		<path fill="#FFFFFF" d="M286.7,180.8c-2.1-4.8-3.8-9.7-6.1-14.3c-2-3.9-5.1-7.4-7.8-10.9c-3.7-4.8-8.8-11.7-15.4-11.9
			c-0.4,0-0.6,0.2-0.7,0.5c-1.7-0.3-2.6,2.4-3.2,3.6c-2.5,5.2-5.6,9.9-7.6,15.3c-2.3,6-4.2,12.4-5.2,18.8
			c-0.9,5.9,0.7,11.9,0.8,17.8c0,0.8,0.9,1.1,1.4,0.6c11.9-10.9,26.8-18.1,43.2-18.3C286.7,182,287,181.3,286.7,180.8z"/>
		<path fill="#FFFFFF" d="M404.1,182c16.3,0.2,31.2,7.4,43.2,18.3c0.5,0.5,1.4,0.2,1.4-0.6c0.1-5.9,1.7-11.9,0.8-17.8
			c-1-6.4-2.9-12.8-5.2-18.8c-2.1-5.4-5.1-10.2-7.6-15.3c-0.6-1.2-1.6-3.9-3.2-3.6c-0.1-0.3-0.4-0.5-0.7-0.5
			c-6.6,0.2-11.8,7.2-15.4,11.9c-2.7,3.5-5.7,7-7.8,10.9c-2.4,4.6-4.1,9.5-6.1,14.3C403.1,181.3,403.4,182,404.1,182z"/>
		<g>
			<path fill="#FFFFFF" d="M326.1,377.9c0,0,1-0.2,1.6,0.2c0.7,0.5,0.4,1.9,0.4,1.9c-4,15.1-14.9,21.7-22.7,24.1
				c-8.2,2.5-17.1-7.8-17-17.8c0.2-29.9,17.5-22.7,20.9-20.8c5.2,2.9,3.4,8.7,1.7,12c-1.1,2-2,0.3-2.7,0.3
				c3.1-10.2-0.5-10.1-1.3-10.9c-8.6,0.6-10.1,32.9-0.8,32.3C319.9,398.6,326.1,377.9,326.1,377.9z"/>
			<path fill="#FFFFFF" d="M345.4,381.1c-0.7-13.4-4.2-10.9-4.2-10.9c-8.8,8.8-9.6,30.3-7.2,30.4c2.8-0.2,6.5-5.1,7.2-8.7
				c1.3-6.9,3.5-7.8,5-6.3c2.3,1.7,3.8,4,2.9,6.5c-1.9,14.6,1.1,13.7,2,13.1c4.7-2.8,11.1-12.8,14.6-27.5c0,0,1.1-1.3,1.8-0.2
				c1.2,0.7,0.7,2.3,0.7,2.3c-6.5,25.9-15.5,27-17.7,29.2c-8.3,3.7-8.9-8-9.7-9.8c-5.1,6.1-10.3,5.7-11.8,4.9
				c-10.9-1.7-4.2-33.1,4.7-37.1c10.9-4.9,14.2,10.3,13.6,13.1L345.4,381.1z"/>
			<path fill="#FFFFFF" d="M358.1,356.4c5.7-1,8.4,0.5,9.3,1.1c0.6-1.9,3.6-29.9,15.9-29.2c2,0.1,2.5,0.2,3.8,2
				c4.4,7.3-7.8,30.3-9,32.2c4.7,2.4,19.6,3,25.9-6.1c2.6-1.6,1.6,2.4,1.6,2.4c-4.7,8.8-25.8,10-28.4,7.2
				c-2.5,22.4-0.2,41.9,2.9,45.6c3.5,3.4,15.1,5.2,21.3-33.5c0,0,0.3-1.2,1.6-0.5c1.4,0.5,1,2.6,1,2.6
				c-9.5,58.2-31.8,34.4-34.1,29.5c-7.6-17-3.4-41.6-2.9-48.4c-2.7-1-4-1.8-7.6-2C354.4,359.5,358.1,356.4,358.1,356.4z
				 M384.3,331.8c-2.5-1.7-3.8,2.5-3.8,2.5c-2.4,7.4-2.8,19.3-3.1,23C376.8,358,389,336.8,384.3,331.8z"/>
		</g>
		<path fill="#FFFFFF" d="M370.2,273.9c-0.3-1-2-0.6-1.6,0.4c2.8,8.9-12.5,5.7-16,3.8c-4.9-2.7-5.9-7.3-6.1-12.1
			c6.6-8.4,11.8-17.7,17.3-26.9c0.3-0.6-0.1-1.3-0.7-1.3c-10.6-0.1-21.2-2-31.8-0.4c-0.6,0.1-0.7,0.8-0.5,1.2
			c4.5,8.5,9.8,16.7,13,25.9c0,0.1,0.1,0.1,0.1,0.2c0,0.1,0,0.1,0.1,0.2c0,0.1,0.1,0.2,0.1,0.3c0.1,0.2,0.1,0.5,0.2,0.7
			c0,0.1,0.1,0.2,0.2,0.3c-0.3,5.6-0.9,12.6-6.8,14.7c-4,1.4-7.2-0.6-10.1-3c-1.6-1.3-4.5-3.9-3.1-6.4c0.5-0.9-0.9-1.8-1.5-0.8
			c-3.4,6,6.9,11.9,11.5,12.3c7.3,0.7,9.9-5.4,11-11.5c0.3,1.1,0.8,2.2,1.4,3.3c2.2,3.7,6.2,5.8,10.3,6.8
			C362.2,283,372.7,281.6,370.2,273.9z"/>
		<path fill="#FFFFFF" d="M433.8,223.6c-2.2,24.2-39.5,20.3-48.3,2.9c-0.5-1-1.9-0.1-1.5,0.8c9.7,19.1,49.1,22,51.5-3.8
			C435.6,222.5,433.9,222.5,433.8,223.6z"/>
		<path fill="#FFFFFF" d="M305.7,223.6c-2.2,24.2-39.5,20.3-48.3,2.9c-0.5-1-1.9-0.1-1.5,0.8c9.7,19.1,49.1,22,51.5-3.8
			C307.4,222.5,305.8,222.5,305.7,223.6z"/>
		<circle fill="#EB969C" cx="413.8" cy="277.2" r="17.2"/>
		<path fill="#FFFFFF" d="M459.3,269.3c-8-3.1-17.1-3.3-25.5-2.2c-8.2,1.1-17.3,4.4-21.4,12.1c-0.5,1,0.9,1.8,1.5,0.8
			c4-7.4,12.6-10.1,20.4-11.3c8-1.3,17-0.8,24.7,2.2C459.8,271.3,460.3,269.7,459.3,269.3z"/>
		<path fill="#FFFFFF" d="M450.2,309.5c-2.9-6.8-7.1-12.5-13.4-16.5c-6.2-3.9-13.8-5.4-20.8-7.5c-1-0.3-1.5,1.3-0.4,1.6
			c6.3,1.9,12.8,3.4,18.8,6.4c6.9,3.5,11.3,9.7,14.4,16.8C449.2,311.3,450.7,310.5,450.2,309.5z"/>
		<path fill="#FFFFFF" d="M450.5,283.9c-8.9-5-18.9-4.6-28.7-2.9c-1.1,0.2-0.6,1.8,0.4,1.6c9.3-1.6,18.9-2.1,27.4,2.7
			C450.6,285.9,451.4,284.5,450.5,283.9z"/>
		<circle fill="#EB969C" cx="278" cy="277.2" r="17.2"/>
		<path fill="#FFFFFF" d="M232.6,269.3c8-3.1,17.1-3.3,25.5-2.2c8.2,1.1,17.3,4.4,21.4,12.1c0.5,1-0.9,1.8-1.5,0.8
			c-4-7.4-12.6-10.1-20.4-11.3c-8-1.3-17-0.8-24.7,2.2C232,271.3,231.6,269.7,232.6,269.3z"/>
		<path fill="#FFFFFF" d="M241.6,309.5c2.9-6.8,7.1-12.5,13.4-16.5c6.2-3.9,13.8-5.4,20.8-7.5c1-0.3,1.5,1.3,0.4,1.6
			c-6.3,1.9-12.8,3.4-18.8,6.4c-6.9,3.5-11.3,9.7-14.4,16.8C242.6,311.3,241.2,310.5,241.6,309.5z"/>
		<path fill="#FFFFFF" d="M241.3,283.9c8.9-5,18.9-4.6,28.7-2.9c1.1,0.2,0.6,1.8-0.4,1.6c-9.3-1.6-18.9-2.1-27.4,2.7
			C241.2,285.9,240.4,284.5,241.3,283.9z"/>
		<path fill="#FFFFFF" d="M542.4,297.7c15.2-4.7,30.5-11.3,43.3-20.8c0.1,0.8,0.2,1.5,0.3,2.3c-12.9,9.4-28.2,15.9-43.4,20.6
			C542.6,299.1,542.5,298.4,542.4,297.7z M248.5,347.5c-19-5.4-38.7-13.5-55.3-25.2c-0.1,0.7-0.3,1.4-0.4,2.1
			c16.7,11.5,36.3,19.6,55.3,25C249.2,349.8,249.7,347.9,248.5,347.5z M499.9,340.8c-17.1,12.5-37.6,21.1-57.5,26.7
			c-1.2,0.3-0.7,2.3,0.5,1.9c19.8-5.6,40.2-14.2,57.4-26.5C500.2,342.3,500,341.5,499.9,340.8z M244.3,367.5
			c-19-5.4-38.7-13.5-55.3-25.2c-0.1,0.7-0.3,1.4-0.4,2.1c16.7,11.5,36.2,19.6,55.2,25C245,369.8,245.5,367.9,244.3,367.5z
			 M504.9,366.5c-17,12.3-37.4,20.9-57.1,26.5c-1.2,0.3-0.7,2.3,0.5,1.9c19.6-5.5,39.9-14,57-26.2C505.1,368,505,367.2,504.9,366.5z
			 M557.3,227.3c5.2-2.7,10.6-5.7,15.1-9.5c-0.3-0.7-0.5-1.3-0.8-2c-4.9,4.2-10.8,7.4-16.5,10.3c-10.3,5.3-20.6,10.2-31.5,14.1
			c0.3,0.6,0.6,1.2,0.9,1.8C535.9,237.9,546.6,232.8,557.3,227.3z M239,393c-18.9-5.3-38.4-13.4-54.9-24.9c-0.1,0.7-0.2,1.4-0.4,2.2
			c16.6,11.3,35.9,19.4,54.8,24.7C239.7,395.2,240.2,393.3,239,393z M236.3,416.6c-19.1-5.4-38.8-13.6-55.5-25.3
			c-0.1,0.7-0.2,1.5-0.3,2.2c16.7,11.5,36.2,19.6,55.2,25C237,418.8,237.5,416.9,236.3,416.6z M495.7,320.8
			c-17.1,12.5-37.6,21.1-57.5,26.7c-1.2,0.3-0.7,2.3,0.5,1.9c19.8-5.6,40.3-14.2,57.4-26.5C496,322.2,495.8,321.5,495.7,320.8z
			 M552.2,244.2c-4.7,1.9-9.5,3.6-14.2,5.7c-2.4,1.1-5.1,2.5-7.9,3.5c0.3,0.6,0.5,1.1,0.8,1.7c1.1-0.4,2.2-0.9,3.2-1.3
			c7.2-3.1,14.5-5.9,21.8-9c6.4-2.7,12.3-6.2,18.2-9.7c1.1-0.6,2.2-1.3,3.3-2c-0.2-0.7-0.4-1.3-0.6-2c-1.9,1.3-4,2.4-5.9,3.5
			C564.9,238.3,558.9,241.5,552.2,244.2z M539.6,368.9c-0.1,0.6-0.3,1.3-0.5,1.9c8.5,0.4,17.4-0.9,25.7-1.8
			c7.8-0.8,15.6-1.9,23.3-3.6c0-0.7,0-1.4,0.1-2.1c-7.7,1.7-15.5,2.8-23.3,3.7C556.8,367.9,548,369.3,539.6,368.9z M450.5,416.6
			c-1.2,0.3-0.7,2.3,0.5,1.9c19.9-5.6,40.3-14.2,57.5-26.6c-0.1-0.8-0.2-1.5-0.3-2.3C491.1,402.2,470.4,410.9,450.5,416.6z
			 M542.2,353.8c15.5-2.5,31.1-4.3,46.1-8.4c0-0.7,0-1.4,0-2.1c-15,4.2-30.5,6-45.9,8.5C542.4,352.4,542.3,353.1,542.2,353.8z
			 M523.2,407.9c-0.4,0.6-0.8,1.1-1.2,1.7c8,7.4,16.4,14.3,24.3,21.7c5.3,5,10.5,10.1,15.7,15.1c0.4-0.5,0.9-1,1.3-1.5
			c-5.2-5-10.3-10.1-15.6-15.1C539.8,422.3,531.3,415.3,523.2,407.9z M530.2,396.1c-0.2,0.5-0.5,0.9-0.7,1.4
			c15.9,8.6,31.7,17.2,48,25.1c0.3-0.6,0.5-1.2,0.8-1.8c-16.2-7.9-32-16.5-47.8-25.1C530.3,395.9,530.2,396,530.2,396.1z
			 M543.4,313.4c0,0.3,0,0.6,0,0.9c0,0.4,0,0.8,0,1.1c9.4-2.9,18.6-7.4,27.6-11.1c5.5-2.3,11-4.8,16.2-7.7c0-0.7-0.1-1.5-0.1-2.2
			c-5.8,3.3-12,6.1-18.1,8.6C560.7,306.5,552.2,310.6,543.4,313.4z"/>
		<path fill="#FFFFFF" d="M414.3,317.7v5.3c0,1.3,2,1.3,2,0v-5.3C416.3,316.4,414.3,316.4,414.3,317.7z"/>
		<path fill="#FFFFFF" d="M419,316.4c-0.3-1.3-2.2-0.7-1.9,0.5c0.3,1.3,0.3,2.7,0.3,4.1c0,1.3,2,1.3,2,0
			C419.3,319.5,419.3,317.9,419,316.4z"/>
		<path fill="#FFFFFF" d="M421,317v5c0,1.3,2,1.3,2,0v-5C423,315.7,421,315.7,421,317z"/>
		<path fill="#FFFFFF" d="M244.7,318.7c-0.3,1.6-0.6,3.1-1,4.7c-0.3,1.3,1.6,1.8,1.9,0.5c0.4-1.5,0.7-3.1,1-4.7
			C246.9,318,245,317.5,244.7,318.7z"/>
		<path fill="#FFFFFF" d="M248.7,318.7c0,1.2-0.3,2.4-0.3,3.7c0,1.3,2,1.3,2,0c0-1.2,0.3-2.4,0.3-3.7
			C250.7,317.4,248.7,317.4,248.7,318.7z"/>
		<path fill="#FFFFFF" d="M252.3,320.3c0,0.8-0.3,1.5-0.3,2.3c0,1.3,2,1.3,2,0c0-0.8,0.3-1.5,0.3-2.3
			C254.4,319,252.4,319,252.3,320.3z"/>
		<path fill="#FFFFFF" d="M331.6,328.7c-0.2-1.3-2.1-0.7-1.9,0.5c0.3,1.5,0,3-0.3,4.5c-0.3,1.3,1.7,1.8,1.9,0.5
			C331.7,332.4,332,330.6,331.6,328.7z"/>
		<path fill="#FFFFFF" d="M333.7,329.3v2.3c0,1.3,2,1.3,2,0v-2.3C335.7,328,333.7,328,333.7,329.3z"/>
		<path fill="#FFFFFF" d="M336.7,330.3c0,0.6,0.1,1.3-0.2,1.8c-0.2,0.5-0.1,1.1,0.4,1.4c0.4,0.3,1.1,0.1,1.4-0.4
			c0.4-0.9,0.5-1.9,0.5-2.8C338.7,329,336.7,329,336.7,330.3z"/>
		<path fill="#FFFFFF" d="M331.6,428.1c-0.2-1.3-2.1-0.7-1.9,0.5c0.3,1.9,0.3,3.8,0.3,5.7c0,1.3,2,1.3,2,0
			C332,432.2,332,430.1,331.6,428.1z"/>
		<path fill="#FFFFFF" d="M335.3,432.1c-0.3-0.8-0.3-1.6-0.3-2.4c0-1.3-2-1.3-2,0c0,1,0.1,2,0.4,2.9
			C333.8,433.8,335.7,433.3,335.3,432.1z"/>
		<path fill="#FFFFFF" d="M337.5,429.8c-0.2-0.5-0.9-0.6-1.4-0.4c-0.5,0.3-0.6,0.9-0.4,1.4c0.3,0.6,0.2,1.2,0.2,1.8c0,1.3,2,1.3,2,0
			C338,431.7,338,430.7,337.5,429.8z"/>
		<path fill="#FFFFFF" d="M471.3,457.7c0-1.3-2-1.3-2,0c0,1.9,0,3.7,0.4,5.6c0.2,1.3,2.2,0.7,1.9-0.5
			C471.3,461.1,471.3,459.4,471.3,457.7z"/>
		<path fill="#FFFFFF" d="M476,457.3c0.2-1.3-1.7-1.8-1.9-0.5c-0.3,1.9-0.3,3.7,0,5.5c0.2,1.3,2.2,0.7,1.9-0.5
			C475.7,460.2,475.7,458.8,476,457.3z"/>
		<path fill="#FFFFFF" d="M481,456.1c-0.3,2.1-0.4,4.2-0.4,6.3c0,1.3,2,1.3,2,0c0-1.9,0-3.8,0.3-5.7
			C483.2,455.3,481.2,454.8,481,456.1z"/>
		<path fill="#FFFFFF" d="M211.7,458v4.7c0,1.3,2,1.3,2,0V458C213.7,456.7,211.7,456.7,211.7,458z"/>
		<path fill="#FFFFFF" d="M217,458.7c-0.3,1.4-0.4,2.8-0.4,4.3c0,1.3,2,1.3,2,0c0-1.3,0-2.5,0.3-3.7
			C219.3,458,217.3,457.5,217,458.7z"/>
		<path fill="#FFFFFF" d="M222.6,459.1c-0.3-1.3-2.2-0.7-1.9,0.5c0.3,1.4,0.3,2.9,0.3,4.4c0,1.3,2,1.3,2,0
			C223,462.3,223,460.7,222.6,459.1z"/>
		<path fill="#FFFFFF" d="M527.6,209.4c-1.1-3.8-2.4-7.7-4.8-10.9c-0.8-1-2.5,0-1.7,1c2.3,3.1,3.5,6.7,4.6,10.4
			C526,211.2,528,210.6,527.6,209.4z"/>
		<path fill="#FFFFFF" d="M530.3,205.4c-0.7-2-1.3-4-2-6c-0.4-1.2-2.3-0.7-1.9,0.5c0.7,2,1.3,4,2,6
			C528.8,207.1,530.7,206.6,530.3,205.4z"/>
		<path fill="#FFFFFF" d="M534.3,207.4c-0.4-1.6-0.7-3.1-1.4-4.6c-0.6-1.2-2.3-0.1-1.7,1c0.6,1.3,0.9,2.7,1.2,4.1
			C532.7,209.2,534.6,208.7,534.3,207.4z"/>
		<path fill="#FFFFFF" d="M568.6,276.1c-0.6-3.1-1.3-6.2-2-9.3c-0.3-1.3-2.2-0.7-1.9,0.5c0.7,3.1,1.4,6.2,2,9.3
			C567,277.9,568.9,277.3,568.6,276.1z"/>
		<path fill="#FFFFFF" d="M570,270.3c-0.4-0.4-1.1-0.4-1.4,0c-0.4,0.4-0.4,1,0,1.4c0.1,0.1,0,0.8,0,1c0,1.3,2,1.3,2,0
			C570.7,271.8,570.6,271,570,270.3z"/>
		<path fill="#FFFFFF" d="M558.3,399.6c-0.7,0.7-1.3,1.6-2,2.3c-0.9,0.9,0.5,2.3,1.4,1.4c0.7-0.7,1.3-1.6,2-2.3
			C560.6,400.1,559.2,398.7,558.3,399.6z"/>
		<path fill="#FFFFFF" d="M561.6,402c-0.1,0.1-0.3,0.3-0.4,0.4c-0.4-0.1-0.9,0.1-1.1,0.5c-0.3,0.5-0.1,1,0.4,1.4
			c0.9,0.7,1.9-0.2,2.5-0.8C564,402.5,562.5,401,561.6,402z"/>
		<path fill="#FFFFFF" d="M532.5,448.5c-0.9,0.6-1.8,1.1-2.7,1.7c-1.1,0.7-0.1,2.4,1,1.7c0.9-0.6,1.8-1.1,2.7-1.7
			C534.6,449.5,533.6,447.8,532.5,448.5z"/>
		<path fill="#FFFFFF" d="M534.7,452c-1.2,0.1-2.3,0.8-2.9,1.8c-0.6,1.1,1.1,2.1,1.7,1c0.1-0.2,0.3-0.4,0.5-0.5
			c0.2-0.1,0.6-0.3,0.7-0.3C536,453.9,536,451.9,534.7,452z"/>
	</g>
	<g>
		<path fill="#333333" d="M256,35.6c0.3,0,0.5,0,0.8,0c0.2,0,0.5,0,0.8,0l0.7,0l0.8,0l0.7,0l0.9,0c0.3,0,0.6-0.2,0.8-0.5
			c0.2-0.3,0.3-0.6,0.2-0.8c-0.1-0.6-0.6-1-1.2-1l-0.1,0l-0.1,0c-0.2,0-0.4,0.1-0.6,0.1l-0.7,0.1l-1.6,0.2c-0.5,0-0.9,0.1-1.3,0.1
			l-1.5,0.1h-0.1l0,0c-0.5,0.1-0.8,0.5-0.8,0.9v0.8c0,0.2,0,0.3,0,0.4c0,0.1,0,0.3,0,0.4c0,0.3,0,0.6,0,0.9c0,0.1,0,0.3,0,0.4
			c0,0.1,0,0.3,0,0.4l0,1.7l0,3.4c0,0.5,0,1.1,0,1.6s0,1.1-0.1,1.6c0,0.6-0.1,1.1-0.1,1.7c0,0.6,0,1.2,0,1.7c0,0.3,0,0.6,0,0.8
			c0,0.3,0,0.5,0,0.8c0,0.5,0,1.1,0,1.6v3.3l-0.1,5.2c0,0.5,0.4,1,0.9,1l6.4,0c0.6,0,1.1-0.5,1.1-1c0-0.6-0.5-1.1-1-1.1l-5.4,0.1
			v-5.9c0-0.5,0-1.1,0-1.7c0-0.3,0-0.5,0-0.8c0-0.3,0-0.6,0-0.8l0.1-1.6c0-0.2,0-0.4,0-0.6l0.1,0c0,0,0.1,0,0.1,0c0.1,0,0.1,0,0.2,0
			c0.1,0,0.2,0,0.4,0c0.1,0,0.3,0,0.4,0c0.1,0,0.3,0,0.4,0c0.3,0,0.6,0,0.8,0h0.7c0.4,0,0.7,0,0.7,0c0.3,0,0.6-0.1,0.8-0.4
			c0.2-0.2,0.3-0.5,0.2-0.7c0-0.6-0.5-1-1.1-1c0,0,0,0,0,0c0,0-0.3,0-0.7,0c-0.2,0-0.5,0-0.7,0c-0.1,0-0.3,0-0.4,0
			c-0.1,0-0.3,0-0.4,0c-0.2,0-0.3,0-0.5,0c-0.1,0-0.2,0-0.3,0h-0.3c-0.1,0-0.2,0-0.3,0c0-0.2,0-0.4,0-0.6c0-0.5,0-1.1,0-1.6
			c0-0.5,0-1.1,0.1-1.7c0-0.3,0-0.5,0-0.8c0-0.3,0-0.6,0-0.8v-4.2c0-0.3,0-0.6,0-0.8v-0.8L256,35.6z"/>
		<path fill="#333333" d="M270.2,33.2l-0.1,0c-0.6,0-1.1,0.5-1.2,1.1c0,0.3,0,0.6-0.1,0.9c0,0.3-0.1,0.6-0.1,0.9l-0.1,0.8l-0.1,0.9
			l-0.2,1.7c0,0.5-0.1,1.1-0.2,1.7l-0.4,3.4l-0.2,1.7c-0.1,0.6-0.2,1.1-0.3,1.7l-0.7,5.1c-0.1,0.4-0.1,0.8-0.1,1.2
			c-0.1-0.4-0.4-2.8-0.4-2.8l-0.4-3.4c-0.1-1.1-0.2-2.3-0.4-3.4l-0.2-1.7l-0.2-1.7l-0.2-1.7l-0.2-1.7l-0.2-1.7l-0.1-1.8
			c-0.1-0.6-0.6-1-1.2-1l-0.1,0c-0.6,0.1-1.1,0.6-1,1.3c0,0.3,0.1,0.6,0.1,0.8c0,0.3,0.1,0.6,0.1,0.8l0.2,1.7l0.2,1.7l1.4,10.2
			l0.3,1.7l0.3,1.9c0.1,0.5,0.1,1,0.2,1.5l0.2,1.7c0,0.3,0,0.5,0.1,0.8c0,0.3,0.1,0.6,0.1,0.9l0.2,1.7l0.2,1.7c0.1,0.5,0.4,0.9,1,1
			l0.1,0c0.6,0,1.1-0.4,1.2-0.9l0-0.1c0-0.2,0-0.3,0-0.5l0.1-1.3c0-0.3,0-0.6,0.1-0.8c0-0.3,0.1-0.6,0.1-0.8l0.2-1.7
			c0-0.3,0.1-0.6,0.1-0.9c0-0.3,0.1-0.5,0.1-0.8c0.1-0.6,0.2-1.2,0.3-1.7l0.2-1.7l0.4-3.4c0-0.3,0.1-0.6,0.1-0.9
			c0-0.3,0.1-0.6,0.1-0.9c0-0.5,0.1-1.1,0.2-1.7l0.7-5.1l0.3-1.7l0.1-0.8l0.2-0.9c0.1-0.5,0.2-1.1,0.3-1.8c0-0.3-0.1-0.6-0.3-0.9
			C270.8,33.4,270.5,33.2,270.2,33.2z"/>
		<path fill="#333333" d="M274.2,35.6c0.3,0,0.5,0,0.8,0c0.2,0,0.5,0,0.8,0l0.7,0l0.8,0l0.7,0l0.9,0c0.3,0,0.6-0.2,0.8-0.5
			c0.2-0.3,0.3-0.6,0.2-0.8c-0.1-0.6-0.6-1-1.2-1l-0.1,0l-0.1,0c-0.2,0-0.4,0.1-0.6,0.1l-0.7,0.1l-1.6,0.2c-0.5,0-0.9,0.1-1.3,0.1
			l-1.5,0.1h-0.1l0,0c-0.5,0.1-0.8,0.5-0.8,0.9v0.8c0,0.2,0,0.3,0,0.4c0,0.1,0,0.3,0,0.4c0,0.3,0,0.6,0,0.9c0,0.1,0,0.3,0,0.4
			c0,0.1,0,0.3,0,0.4l0,1.7l0,3.4c0,0.5,0,1.1,0,1.6c0,0.5,0,1.1-0.1,1.7c0,0.5-0.1,1.1-0.1,1.6c0,0.6,0,1.2,0,1.7
			c0,0.3,0,0.6,0,0.8c0,0.3,0,0.5,0,0.8c0,0.5,0,1.1,0,1.6v3.3l-0.1,5.2c0,0.5,0.4,1,0.9,1l6.4,0c0.6,0,1.1-0.5,1.1-1
			c0-0.6-0.5-1.1-1-1.1l-5.4,0.1v-5.9c0-0.5,0-1.1,0-1.7c0-0.3,0-0.5,0-0.8c0-0.3,0-0.6,0-0.8l0.1-1.6c0-0.2,0-0.4,0-0.6l0.1,0
			c0,0,0.1,0,0.1,0c0.1,0,0.1,0,0.2,0c0.1,0,0.2,0,0.4,0c0.1,0,0.3,0,0.4,0c0.1,0,0.3,0,0.4,0c0.3,0,0.6,0,0.8,0h0.7
			c0.4,0,0.7,0,0.7,0c0.3,0,0.6-0.1,0.8-0.4c0.2-0.2,0.3-0.5,0.2-0.7c0-0.6-0.5-1-1.1-1c0,0,0,0,0,0c0,0-0.3,0-0.7,0
			c-0.2,0-0.5,0-0.7,0c-0.1,0-0.3,0-0.4,0c-0.1,0-0.3,0-0.4,0c-0.2,0-0.3,0-0.5,0c-0.1,0-0.2,0-0.3,0h-0.3c-0.1,0-0.2,0-0.3,0
			c0-0.2,0-0.4,0-0.6c0-0.5,0-1.1,0-1.6c0-0.5,0-1.1,0.1-1.7c0-0.3,0-0.5,0-0.8c0-0.3,0-0.6,0-0.8v-4.2c0-0.3,0-0.6,0-0.8v-0.8
			L274.2,35.6z"/>
		<path fill="#333333" d="M282.3,58.2l-0.1-5.1v-1.7c0-0.3,0-0.6,0-0.9c0-0.3,0-0.6,0-0.8c0-0.2,0-0.5,0-0.7h0.6c0.2,0,0.4,0,0.6,0
			c0,0.1,0.1,0.5,0.1,0.5c0,0.1,0.1,0.2,0.1,0.3c0.1,0.2,0.1,0.4,0.2,0.5l0.1,0.5l0.1,0.6c0.1,0.3,0.2,0.7,0.3,1.1
			c0.1,0.2,0.1,0.4,0.2,0.6c0,0.2,0.1,0.4,0.2,0.6l0.1,0.7c0.1,0.2,0.1,0.4,0.1,0.6l0.6,2.5c0,0.2,0.1,0.5,0.2,0.7
			c0,0.2,0.1,0.3,0.1,0.4c0,0.2,0.1,0.4,0.2,0.6c0,0.1,0.1,0.3,0.1,0.4c0.1,0.3,0.2,0.7,0.2,0.9l0.2,0.7c0,0.1,0.1,0.2,0.1,0.3
			l0,0.1c0,0.1,0.1,0.2,0.1,0.2c0.2,0.3,0.5,0.6,0.9,0.6c0,0,0,0,0,0c0.3,0,0.6-0.1,0.8-0.4c0.2-0.2,0.3-0.5,0.2-0.7v-0.2
			c0-0.1,0-0.2,0-0.2c0-0.1,0-0.1,0-0.3l-0.1-0.7c-0.1-0.3-0.2-0.5-0.2-0.8l-0.3-1.1c-0.1-0.2-0.1-0.4-0.2-0.6
			c0-0.2-0.1-0.4-0.1-0.5l-0.7-2.5c0-0.1-0.1-0.2-0.1-0.3c0-0.1-0.1-0.2-0.1-0.3c-0.1-0.3-0.1-0.5-0.2-0.7c-0.1-0.4-0.2-0.8-0.3-1.2
			l-0.3-1.2c0-0.1-0.1-0.3-0.1-0.5l-0.1-0.5c0-0.1-0.1-0.2-0.1-0.4c0-0.2-0.1-0.4-0.1-0.5c0-0.1-0.1-0.3-0.1-0.4
			c0.2-0.1,0.4-0.1,0.5-0.2c0.3-0.2,0.6-0.3,0.8-0.5c0.3-0.3,0.5-0.5,0.6-0.7c0.4-0.5,0.6-1,0.8-1.6l0-0.2c0.1-0.5,0.2-0.9,0.2-1.4
			c0.1-0.5,0.1-1,0.2-1.5c0-0.5,0-1,0-1.5l0-1.5l0-0.1c0-0.5-0.1-0.9-0.2-1.5c0-0.1-0.1-0.2-0.1-0.2v-0.1l-0.1-0.4
			c0-0.2-0.1-0.4-0.2-0.6c0-0.1-0.1-0.1-0.1-0.2c-0.2-0.6-0.6-1.1-0.9-1.5c-0.3-0.4-0.7-0.7-1.4-1.1c-0.2-0.1-0.5-0.3-0.8-0.3
			c-0.3-0.1-0.5-0.2-0.8-0.2c-0.5-0.1-1-0.2-1.6-0.2c-0.3,0-0.6,0-0.8,0c-0.1,0-0.2,0-0.4,0c-0.1,0-0.2,0-0.2,0h-0.1l-0.2,0
			l-0.1,0.1c-0.4,0.1-0.7,0.5-0.7,1c0,0.3,0,0.5,0,0.8c0,0.3,0,0.6,0,0.9c0,0.6,0,1.1,0,1.7c0,0.5,0.1,1.1,0.1,1.7v1.7
			c0,0.3,0,0.5,0,0.8c0,0.3,0,0.6,0,0.8c0,0.6,0,1.2,0,1.7v1.7l0,1.7c0,0.6,0,1.2,0,1.7c0,0.3,0,0.6,0,0.8c0,0.3,0,0.6,0,0.9
			c0,0.5,0,1.1,0,1.7v1.7l-0.1,3.4c0,0.3,0,0.6,0,0.9c0,0.3,0,0.6,0,0.8c0,0.3,0,0.6,0,0.9c0,0.3,0,0.6,0,0.8l0,0.1
			c0,0.3,0.1,0.6,0.4,0.8c0.2,0.2,0.5,0.3,0.8,0.3v-0.5l0.1,0.5c0.7,0,1.2-0.5,1.2-1.3c0-0.5-0.1-1.1-0.1-1.7
			C282.3,59.3,282.3,58.8,282.3,58.2z M282.3,36.2v-0.9c0,0,0,0,0.1,0c0.1,0,0.2,0,0.3,0c0.2,0,0.3,0,0.5,0c0.2,0,0.5,0,0.7,0.1
			c0.2,0,0.4,0.1,0.7,0.2c0.1,0,0.3,0.1,0.4,0.2c0.3,0.2,0.6,0.4,0.9,0.7c0.3,0.3,0.4,0.6,0.6,0.9c0.1,0.4,0.3,0.8,0.3,1.2
			c0.1,0.4,0.1,0.8,0.1,1.2v0.7c0,0.1,0,0.2,0,0.3c0,0.1,0,0.3,0,0.4c0,0.9-0.1,1.9-0.2,2.7c-0.1,0.4-0.2,0.8-0.3,1.3
			c-0.1,0.4-0.3,0.7-0.5,1c-0.1,0.1-0.2,0.3-0.3,0.3c-0.1,0.1-0.3,0.2-0.5,0.3c-0.3,0.2-0.7,0.2-1,0.3c-0.4,0-0.9,0.1-1.3,0.1
			l-0.6,0l0-4.1c0-0.5,0-1.1,0-1.7c0-0.5,0-1.1,0-1.6l0.1-1.7c0-0.2,0-0.4,0-0.6C282.3,36.9,282.3,36.5,282.3,36.2z"/>
		<path fill="#333333" d="M288.7,35.4c0.1,0.1,0.1,0.3,0.2,0.7c0.1,0.2,0.1,0.4,0.2,0.6l0.1,0.3c0,0.1,0.1,0.1,0.1,0.2
			c0,0.1,0.1,0.2,0.1,0.2c0,0.1,0.1,0.2,0.1,0.3c0,0.1,0,0.1,0.1,0.3l0.3,1.1c0.1,0.4,0.2,0.9,0.4,1.2c0,0.2,0.1,0.5,0.2,0.7
			c0,0.2,0.1,0.4,0.2,0.6l0,0.1c0.2,0.8,0.5,1.7,0.8,2.5c0.1,0.4,0.2,0.8,0.4,1.2l0.4,1c0,0.1,0.1,0.2,0.1,0.3
			c0.1,0.2,0.1,0.4,0.2,0.5c0,0.2,0.1,0.3,0.1,0.4c0,0.1,0.1,0.2,0.1,0.2l0.1,0.2c0,0.1,0.1,0.1,0.1,0.2c0,0,0,0.1,0,0.1l-1.1,4.6
			c-0.1,0.4-0.2,0.7-0.3,1.1c-0.1,0.4-0.2,0.8-0.3,1.3l-0.2,1.1l-0.2,1l-0.4,1.7c-0.2,0.6-0.3,1-0.4,1.4l-0.3,1.2
			c-0.1,0.6,0.3,1.1,0.9,1.3l0.1,0c0.5,0,1-0.3,1.1-0.8c0,0,0.1-0.4,0.3-1.2l0.4-2c0.1-0.4,0.2-0.7,0.3-1.2c0-0.3,0.1-0.6,0.2-1
			l0.2-1l0.6-2.3c0.3-1.1,0.6-2.2,0.8-3.3c0.1-0.6,0.3-1.2,0.4-1.8l0.4-1.3c0.1-0.4,0.2-0.7,0.3-1.2l0.6-2.5
			c0.1-0.5,0.3-0.9,0.4-1.4c0.1-0.3,0.2-0.6,0.2-1c0.2-0.7,0.3-1.4,0.5-2.1l0.1-0.5c0.1-0.5,0.2-0.9,0.3-1.3
			c0.1-0.3,0.1-0.6,0.2-0.9c0-0.2,0.1-0.3,0.1-0.5l0.1-0.6v-0.1c0-0.1,0-0.1,0-0.2c0-0.1,0-0.1,0-0.1c0,0,0,0,0,0c0-0.1,0-0.2,0-0.2
			l0-0.1l0-0.1c0.1-0.5-0.2-0.9-0.6-1.1l0,0l-0.1,0c-0.1,0-0.2,0-0.3,0c-0.4,0-0.8,0.2-1,0.6l-0.1,0.1v0.2c0,0,0,0.1-0.1,0.2l0,0.1
			v0.1c0,0,0,0.1,0,0.1l-0.1,0.1v0.2c0,0,0,0.1,0,0.1c0,0.1-0.1,0.2-0.1,0.3l0,0.1c-0.1,0.3-0.3,0.7-0.4,1.2
			c-0.1,0.3-0.2,0.7-0.3,1.1c0,0.2-0.1,0.4-0.1,0.6l-0.2,0.6c-0.1,0.5-0.2,1-0.4,1.4c-0.2,0.7-0.4,1.5-0.5,2.3
			c-0.1,0.4-0.2,0.8-0.3,1.2c-0.1-0.2-0.1-0.4-0.2-0.5l-0.3-0.7c-0.2-0.6-0.4-1.2-0.6-1.7l-0.2-0.7l-0.2-0.6l-0.1-0.3
			c-0.1-0.3-0.2-0.6-0.3-1l-0.1-0.3c-0.1-0.3-0.2-0.6-0.3-0.8c0-0.2-0.1-0.4-0.2-0.6c0-0.2-0.1-0.4-0.2-0.5
			c-0.1-0.3-0.2-0.6-0.2-0.8c-0.1-0.3-0.2-0.6-0.2-0.7c-0.1-0.3-0.1-0.5-0.1-0.5c0,0,0,0,0,0l0-0.5h-0.2c-0.2-0.2-0.5-0.4-0.8-0.4
			c-0.1,0-0.3,0-0.4,0.1c-0.6,0.2-0.9,0.8-0.6,1.4C288.5,34.8,288.5,35,288.7,35.4z"/>
		<path fill="#333333" d="M306.3,62.4l0.3,0.1h0.1l0.1,0h0l0.1,0h0c0.1,0,0.2,0,0.2,0c0,0,0,0,0,0c0.2,0,0.4,0.1,0.6,0.1
			c0,0,0,0,0,0c0.1,0,0.3,0,0.4,0c0.3,0,0.6,0,1-0.1c0.9-0.2,1.7-0.6,2.4-1.2c0.6-0.5,1.1-1.2,1.5-2c0.2-0.3,0.4-0.7,0.5-1.1
			l0.4-1.1c0.2-0.7,0.4-1.4,0.5-2.2l0-0.3c0.1-0.7,0.1-1.3,0.2-2c0-0.7,0-1.5,0-2.2c0-0.7,0-1.4-0.1-2.2v-0.6l0-0.1l0-0.4l-0.1-1.1
			c0-0.5-0.1-1-0.2-1.5c0-0.2-0.1-0.5-0.1-0.7c0-0.2-0.1-0.4-0.1-0.6c0-0.2-0.1-0.3-0.1-0.5c0-0.4-0.1-0.8-0.2-1.2
			c0-0.1,0-0.1,0-0.2c0-0.1,0-0.2,0-0.3l-0.1-0.6l-0.1-0.2l0-0.3l-0.1-0.5c0-0.1-0.1-0.2-0.1-0.3c0-0.1,0-0.1-0.1-0.3l-0.1-0.5
			c0-0.2-0.1-0.3-0.2-0.5l0-0.1c-0.1-0.3-0.2-0.5-0.2-0.6l-0.5-1.1c-0.2-0.4-0.5-0.7-0.7-1c-0.3-0.4-0.6-0.7-0.9-0.9
			c-0.2-0.2-0.3-0.3-0.5-0.4l0,0c-0.2-0.2-0.5-0.3-0.7-0.3c-0.2-0.1-0.4-0.1-0.7-0.2l-0.1,0c-0.2,0-0.4-0.1-0.6-0.1
			c-0.1,0-0.3,0-0.4,0h-0.2l-0.2,0l-0.1,0c-0.1,0-0.1,0-0.2,0l-0.1,0l-0.2,0l0,0l-0.4,0V34c-0.2,0.2-0.3,0.4-0.3,0.7
			c0,0.3,0,0.5,0,0.8c0,0.3,0,0.6,0,0.8l0,1.7c0,0.6,0,1.2,0,1.7v3.4l0,1.7l0,1.7l0.1,1.6v1.7l0,1.7v1.6l0,1.7c0,0.6,0,1.1,0,1.7
			c0,0.6,0,1.1,0,1.7l-0.1,3.4C305.7,61.9,306,62.3,306.3,62.4z M307.9,36.3c0-0.3,0-0.5,0-0.8h0c0.3,0,0.5,0.1,0.7,0.2
			c0.4,0.2,0.9,0.6,1.2,1.1c0.2,0.2,0.4,0.5,0.5,0.7l0.5,0.9c0.3,0.6,0.6,1.3,0.8,2c0.1,0.1,0.1,0.2,0.1,0.4l0,0.1l0,0v0.1l0.1,0.3
			l0.2,1c0.1,0.3,0.1,0.7,0.2,1.1c0.1,0.3,0.1,0.7,0.2,1c0.1,0.7,0.2,1.4,0.2,2.1c0,0.3,0.1,0.7,0.1,1.1l0,0.2l0,0.3l0,0.5
			c0,0.4,0,0.7,0,1.1s0,0.7,0,1.1c0,0.4,0,0.7,0,1.1c0,0.3,0,0.7,0,1l-0.2,2.1c-0.1,0.7-0.3,1.3-0.5,2c-0.1,0.3-0.2,0.6-0.3,0.9
			c-0.1,0.1-0.1,0.3-0.2,0.4c-0.1,0.2-0.1,0.3-0.2,0.5c-0.4,0.7-0.7,1.1-1.1,1.4c-0.5,0.4-0.9,0.6-1.4,0.7c-0.2,0-0.4,0.1-0.6,0.1
			c-0.1,0-0.1,0-0.2,0l-0.1-2.5c0-0.6,0-1.1,0-1.7c0-0.6,0-1.1,0-1.7l-0.1-3.3v-3.4l0-1.7c0-0.3,0-0.6,0-0.9c0-0.3,0-0.6,0-0.8V38
			L307.9,36.3z"/>
		<path fill="#333333" d="M323.7,50.6c0-0.8,0-1.5,0-2.2c0-1.4,0-2.9-0.1-4.4l0-0.5l0-1.1c-0.1-1.3-0.1-2.7-0.3-4.2
			c-0.1-0.9-0.2-1.9-0.6-2.8c-0.1-0.2-0.2-0.5-0.3-0.8c-0.1-0.2-0.2-0.4-0.3-0.5l-0.2-0.3c-0.3-0.3-0.5-0.5-0.9-0.7
			c-0.3-0.1-0.8-0.2-1.1-0.2h-0.2l-0.1,0l-0.1,0.1h-0.1l-0.1,0c-0.2,0.1-0.4,0.2-0.5,0.2c-0.4,0.2-0.6,0.4-0.9,0.6
			c-0.3,0.4-0.6,0.8-0.9,1.5l-0.3,0.8c-0.1,0.2-0.1,0.4-0.2,0.5l-0.2,0.7c0,0.1,0,0.2-0.1,0.2c0,0.1-0.1,0.3-0.1,0.4
			c-0.1,0.4-0.2,0.9-0.3,1.3c-0.1,0.4-0.2,0.9-0.3,1.4c-0.1,0.9-0.2,1.7-0.3,2.6c0,0.4-0.1,0.8-0.1,1.2c0,0.4-0.1,0.9-0.1,1.3l0,0.2
			c0,0.8-0.1,1.5-0.1,2.2c0,0.4,0,0.8,0,1.2v2.2c0,0.3,0,0.6,0,1c0,0.7,0,1.4,0,2c0,0.6,0,1.1,0,1.7l0,5.5c0.1,0.6,0.6,1.1,1.2,1.1
			h0l0,0c0.6-0.1,1.1-0.6,1.1-1.3l-0.1-0.6c0-0.3,0-0.6-0.1-0.9c0-0.3,0-0.6-0.1-0.9l-0.1-2.8c0-1.1-0.1-2.3-0.1-3.6v-1
			c0-0.3,0-0.7,0-1.1c0-0.2,0-0.3,0-0.5c0-0.2,0-0.4,0-0.5c0-0.1,0-0.2,0-0.3c0,0,0.1,0,0.1,0l1,0c0.3,0,0.6,0,1,0c0,0,0.6,0,0.6,0
			c0.2,0,0.4,0,0.6,0h0.9c0.1,0,0.2,0,0.2,0l0.1,0h0.1l0,0h0.1c0,0,0.1,0,0.1,0c0,0,0,1.4,0,1.4c0,0.4,0,0.7,0,1.1c0,0.3,0,0.7,0,1
			c0,0.7,0,1.3,0,1.9l0,1.7c0,0.6,0,1.1,0,1.5c0,0.5,0,0.9,0,1.3l0,0.5c0,0.6-0.1,1-0.1,1.3c0,0.4,0,0.6,0,0.7
			c0,0.6,0.5,1.1,1.1,1.1c0.6,0,1.1-0.5,1.1-1l0-0.6c0-0.5,0-1,0-1.9c0-0.4,0-0.8,0-1.3l0-3.3c0-0.6,0-1.3,0-2
			C323.7,52,323.7,51.3,323.7,50.6z M317.8,40.3c0-0.2,0.1-0.4,0.1-0.6l0.2-1.2c0.1-0.2,0.1-0.4,0.2-0.6c0.1-0.1,0.1-0.3,0.1-0.4
			c0-0.1,0-0.2,0.1-0.2c0.1-0.4,0.3-0.8,0.5-1.1c0.2-0.4,0.4-0.6,0.6-0.8c0.1-0.1,0.1-0.1,0.2-0.2l0.1-0.1l0.2,0c0,0,0.1,0,0.1,0
			c0.1,0.1,0.2,0.1,0.2,0.2c0.2,0.2,0.3,0.4,0.5,0.8c0.1,0.4,0.3,0.7,0.4,1.2c0.1,0.4,0.2,0.8,0.3,1.2l0.1,0.5c0,0.2,0,0.4,0.1,0.7
			c0,0.4,0.1,0.8,0.1,1.3c0.1,0.6,0.1,1.1,0.1,1.7c0,0.3,0,0.6,0,0.8V46c0,0.2,0,0.5,0,0.7c0,0.1,0,0.1,0,0.2h-0.1l0,0.1l-0.2,0
			c0,0-0.9,0-0.9,0c-0.1,0-0.2,0-0.5,0h-1.1c0,0,0,0,0,0c-0.3,0-0.6,0-1,0c0,0-0.9,0-0.9,0c0.1-1.1,0.2-2.3,0.3-3.4l0.3-2.5
			C317.7,40.8,317.8,40.5,317.8,40.3z"/>
		<path fill="#333333" d="M330.3,48.3l0.4-1.3c0.1-0.4,0.2-0.7,0.3-1.2l0.6-2.5c0.1-0.5,0.2-0.9,0.4-1.4c0.1-0.3,0.2-0.6,0.2-1
			c0.2-0.7,0.3-1.4,0.5-2.1l0.1-0.5c0.1-0.5,0.2-0.9,0.3-1.3c0.1-0.3,0.1-0.6,0.2-0.9c0-0.2,0.1-0.3,0.1-0.5l0.1-0.6v-0.1
			c0-0.1,0-0.1,0-0.2c0-0.1,0-0.1,0-0.1c0,0,0,0,0,0c0-0.1,0-0.2,0-0.2l0-0.1l0-0.1c0.1-0.5-0.2-0.9-0.6-1.1l-0.1,0l-0.1,0
			c-0.1,0-0.2,0-0.3,0c-0.4,0-0.8,0.2-1,0.6l-0.1,0v0.2c0,0,0,0.1-0.1,0.2l0,0.1v0.1c0,0,0,0.1,0,0.1l-0.1,0.1v0.2c0,0,0,0.1,0,0.1
			c0,0.1-0.1,0.2-0.1,0.3l0,0.1c-0.1,0.3-0.2,0.7-0.3,1.2c-0.1,0.3-0.2,0.7-0.3,1.1c0,0.2-0.1,0.4-0.2,0.6l-0.2,0.6
			c-0.1,0.5-0.3,1-0.4,1.5c-0.2,0.7-0.3,1.5-0.5,2.3c-0.1,0.4-0.2,0.8-0.3,1.2c-0.1-0.2-0.1-0.4-0.2-0.5l-0.3-0.7
			c-0.2-0.6-0.4-1.2-0.6-1.7l-0.2-0.7l-0.2-0.6l-0.1-0.2c-0.1-0.3-0.2-0.6-0.4-1l-0.1-0.3c-0.1-0.3-0.2-0.5-0.3-0.8
			c-0.1-0.3-0.2-0.5-0.2-0.6c0-0.2-0.1-0.4-0.1-0.5c-0.1-0.3-0.2-0.6-0.2-0.9c-0.1-0.3-0.2-0.6-0.2-0.7c-0.1-0.3-0.1-0.5-0.1-0.5
			l0-0.5h-0.2c-0.2-0.2-0.5-0.4-0.8-0.4c-0.1,0-0.3,0-0.4,0.1c-0.6,0.2-0.9,0.8-0.6,1.4c0,0,0.1,0.2,0.2,0.6
			c0.1,0.1,0.1,0.3,0.2,0.7c0.1,0.2,0.1,0.4,0.2,0.6l0.1,0.3c0,0.1,0.1,0.1,0.1,0.2c0,0.1,0.1,0.1,0.1,0.2c0,0.1,0.1,0.2,0.1,0.3
			c0,0.1,0,0.1,0.1,0.3l0.4,1.1c0.1,0.4,0.2,0.9,0.4,1.2c0,0.2,0.1,0.5,0.2,0.7c0,0.2,0.1,0.4,0.2,0.6l0,0.1
			c0.2,0.8,0.5,1.7,0.8,2.6c0.1,0.4,0.2,0.8,0.4,1.1c0,0,0.4,1.3,0.5,1.4c0.1,0.2,0.1,0.4,0.2,0.5c0,0.1,0.1,0.3,0.1,0.4
			c0,0.1,0.1,0.2,0.1,0.2l0.1,0.2c0,0.1,0.1,0.1,0.1,0.2c0,0,0,0.1,0,0.1l-1.1,4.6c-0.1,0.4-0.2,0.7-0.3,1.1
			c-0.1,0.4-0.2,0.8-0.3,1.3l-0.2,1.1l-0.2,1l-0.4,1.7c-0.2,0.6-0.3,1-0.4,1.4l-0.3,1.2c-0.1,0.6,0.3,1.1,0.9,1.3l0.1,0
			c0.5,0,1-0.3,1.1-0.8c0,0,0.1-0.4,0.3-1.2l0.3-1.4l0.1-0.6c0.1-0.4,0.2-0.8,0.3-1.2c0-0.3,0.1-0.6,0.2-1l0.2-1l0.6-2.3
			c0.3-1.1,0.6-2.2,0.8-3.3L330.3,48.3z"/>
		<path fill="#333333" d="M342.1,35.7l0.1,0l0.1-0.1c0.1,0,0.1,0,0.2,0c0.1,0,0.2,0,0.3,0h0.1l0.1,0c0.1,0,0.2,0,0.3,0
			c0.1,0,0.1,0,0.2,0c0,0.1,0,0.2,0,0.4c0,0.3,0.1,0.8,0.1,1.3c0,0.2,0,0.5,0,0.8c0,0.1,0,0.3,0,0.4c0,0.2,0,0.3,0,0.4v1l0,0.1
			c0,0,0,0.1,0,0.2c0,0.1,0,0.1,0,0.2l0,0.5c0,0.4,0,0.7,0,1.2l0,2.4l0.1,1.2c0,0.4,0,0.8,0,1.2c0,0.4-0.1,0.9-0.1,1.3
			c0,0.4,0,0.8,0.1,1.2l0.1,1.3c0,0.4,0,0.8,0,1.2c0,0.4,0,0.8,0,1.1c0,0.4,0,0.8,0,1.2c0,0.4,0,0.7,0,1.1v5.2c-0.2,0-0.3,0-0.5,0
			c-0.1,0-0.2,0-0.3,0h-1l-0.1,0c-0.3,0.1-0.6,0.2-0.7,0.5c-0.2,0.3-0.3,0.6-0.2,0.8c0.1,0.6,0.6,1,1.2,1l0.1,0l0.2,0l0,0
			c0.1,0,0.2,0,0.3,0c0.1,0,0.2,0,0.4,0c0.2,0,0.5,0,0.7,0h0.1l0.1,0c0.1,0,0.3,0,0.4,0c0.1,0,0.2,0,0.3,0c0.1,0,0.1,0,0.2,0
			c0.4,0,0.7,0,1-0.1l1.8,0c0.6-0.1,1-0.6,1-1.2c0-0.6-0.5-1.2-1.2-1.2c0,0-0.1,0-0.3,0h-0.2c-0.1,0-0.1,0-0.2,0l-0.2,0
			c-0.1,0-0.3,0-0.4,0c-0.1,0-0.3,0-0.4,0c0-0.5,0-1.1,0-1.8l0-1.3c0-0.3,0-0.7,0-1c0-0.3,0-0.7,0-1c0-0.3,0-0.7,0-1.1
			c0-0.4,0-0.8,0-1.2c0-0.4,0-0.8,0-1.1c0-0.4,0-0.8,0-1.2c0-0.4,0-0.7,0.1-1.1l0-0.2c0-0.2,0-0.4,0-0.6c0-0.2,0-0.4,0-0.6
			c0-0.3,0-0.6-0.1-0.9c0-0.1,0-0.3,0-0.4c0-0.4,0-0.8,0-1.2c0-0.2,0-0.4,0-0.6c0-0.2,0-0.4,0-0.6v-1.2c0-0.2,0-0.4,0-0.6
			c0-0.2,0-0.4,0-0.5c0-0.4,0-0.8-0.1-1.2c0-0.2,0-0.3,0-0.5v-0.1l0-0.1c0-0.1,0-0.2,0-0.4c0-0.3,0-0.6,0-0.9V38c0-0.3,0-0.5,0-0.8
			c0-0.4,0-0.9,0-1.3c0-0.2,0-0.3,0-0.4l1.1,0l0,0h0.3c0.1,0,0.1,0,0.2,0c0.1,0,0.2,0,0.3-0.1c0.3-0.1,0.5-0.2,0.7-0.5
			c0.2-0.3,0.2-0.6,0.2-0.9c-0.1-0.5-0.6-0.9-1.2-0.9c-0.1,0-0.1,0-0.2,0c-0.1,0-0.1,0-0.2,0c-0.1,0-0.1,0-0.2,0c-0.1,0-0.2,0-0.4,0
			c-0.1,0-0.2,0-0.2,0c0,0-0.1,0-0.1,0l-0.5,0c-0.2,0-0.5,0-0.8,0c0,0-2.8,0-2.8,0c-0.3,0-0.6,0.2-0.8,0.4c-0.2,0.2-0.3,0.6-0.3,0.9
			C340.9,35.2,341.5,35.7,342.1,35.7z"/>
		<path fill="#333333" d="M348.3,37.6c-0.1,0.7-0.1,1.4-0.1,2.1v1.1c0,0.3,0,0.7,0.1,1.1l0,0.1c0,0.7,0.2,1.6,0.5,2.3
			c0.1,0.4,0.3,0.7,0.4,1.1l0.2,0.4l0.1,0.2c0.1,0.2,0.2,0.4,0.3,0.5c0.1,0.3,0.3,0.5,0.4,0.8l0.2,0.3l0.2,0.2
			c0.2,0.2,0.3,0.5,0.5,0.7l0.4,0.5c0.1,0.1,0.1,0.1,0.2,0.2c0.1,0.1,0.1,0.2,0.2,0.2c0.3,0.3,0.5,0.5,0.7,0.8l0.7,0.7l0.2,0.2
			c0.1,0.2,0.3,0.4,0.4,0.6c0.2,0.2,0.3,0.5,0.4,0.7c0.1,0.3,0.2,0.6,0.2,0.9c0,0.3,0,0.7,0,1c0,0.3,0,0.7,0,1c0,0.7,0,1.4,0,2
			c0,0.7-0.1,1.2-0.3,1.8c-0.2,0.6-0.3,1-0.5,1.3c0,0-0.1,0.1-0.2,0.2l-0.1,0l-0.1,0.1c0,0,0,0-0.1,0.1l0,0l-0.3,0.1l-0.1,0l0,0
			h-0.1l-0.1,0c0,0-0.1,0-0.2,0h-0.2l0,0.5c0,0,0,0,0,0h0l0-0.5h-0.1c0,0-0.1,0-0.1,0c0,0-0.2-0.1-0.2-0.1l0,0
			c-0.2-0.1-0.5-0.3-0.7-0.6c-0.2-0.3-0.3-0.5-0.4-0.9c-0.1-0.3-0.2-0.6-0.3-0.9c-0.1-0.5-0.1-0.9-0.1-1.3v-0.5c0-0.6-0.4-1-1-1
			c0,0,0,0,0,0c-0.6,0-1.1,0.5-1.1,1.1v0.5l0,0c0,0.4,0,0.9,0.2,1.7c0.1,0.3,0.2,0.7,0.4,1.2c0.2,0.5,0.4,0.9,0.7,1.3
			c0.2,0.2,0.3,0.4,0.7,0.7c0.2,0.2,0.5,0.4,0.8,0.5c0.1,0,0.2,0.1,0.2,0.1c0,0,0.1,0,0.1,0.1l0.1,0.1h0.2c0,0,0.1,0,0.2,0
			c0,0,0.4,0,0.4,0h0.4c0.2,0,0.4,0,0.5-0.1c0.2,0,0.4-0.1,0.6-0.1c0.2,0,0.4-0.1,0.6-0.3c0.4-0.2,0.7-0.5,0.9-0.8
			c0.3-0.3,0.4-0.7,0.6-1.1c0.1-0.3,0.2-0.6,0.3-1c0.2-0.6,0.2-1.3,0.3-2.2v-2c0-0.2,0-0.4,0-0.6c0-0.2,0-0.3,0-0.5
			c0-0.4,0-0.8-0.1-1.1c0-0.2,0-0.4-0.1-0.6l-0.1-0.7c-0.1-0.4-0.3-0.8-0.5-1.2l-0.1-0.2c-0.2-0.3-0.3-0.5-0.5-0.8l-0.7-0.9
			c-0.2-0.3-0.5-0.6-0.7-0.9l-0.4-0.5c0-0.1-0.1-0.1-0.1-0.2c-0.1-0.1-0.1-0.2-0.2-0.2c-0.1-0.2-0.3-0.4-0.4-0.5
			c-0.3-0.4-0.6-0.7-0.9-1.2c-0.2-0.2-0.3-0.5-0.5-0.8c-0.2-0.3-0.3-0.6-0.4-0.8c-0.2-0.5-0.2-1.1-0.3-1.9c0-0.7,0-1.4,0-2
			c0-0.7,0-1.4,0-2c0-0.3,0-0.6,0.1-0.9c0-0.2,0.1-0.5,0.2-0.8c0.1-0.2,0.1-0.4,0.3-0.5c0.1-0.1,0.2-0.2,0.4-0.3
			c0.4-0.2,0.8-0.2,1.2-0.2c0.3,0,0.6,0.1,0.8,0.3c0.2,0.2,0.4,0.5,0.5,0.8c0.1,0.3,0.2,0.7,0.3,1l0.1,1c0,0.5,0,1,0,1.3
			c0,0.2,0,0.3,0,0.4v0.2c0,0.6,0.5,1.1,1.2,1.2c0.6,0,1.2-0.5,1.2-1.2v-0.2l0,0v-0.3c0-0.3,0-0.9-0.2-1.6c0-0.3-0.1-0.7-0.2-1
			l0-0.1l0-0.1c-0.1-0.4-0.2-0.8-0.4-1.2c-0.1-0.3-0.3-0.6-0.4-0.8c-0.2-0.3-0.4-0.6-0.7-0.8l-0.1-0.1c-0.1-0.1-0.2-0.2-0.3-0.2
			c-0.1-0.1-0.3-0.2-0.5-0.3c-0.2-0.1-0.4-0.1-0.6-0.1c-0.2,0-0.4,0-0.5,0H352l-0.1,0c-0.1,0-0.1,0-0.2,0c-0.1,0-0.2,0-0.2,0
			c-0.3,0-0.7,0.2-1.1,0.4c-0.2,0.1-0.4,0.2-0.5,0.3l-0.5,0.4c-0.3,0.3-0.5,0.7-0.7,1.1c-0.1,0.3-0.3,0.7-0.3,1.1
			C348.3,36.8,348.3,37.2,348.3,37.6z"/>
		<path fill="#333333" d="M365.2,62.8L365.2,62.8L365.2,62.8c0.7-0.1,1.1-0.6,1.1-1.3l-0.1-0.6c0-0.3,0-0.6-0.1-0.9
			c0-0.3,0-0.6-0.1-0.9l-0.1-2.8c0-1.1-0.1-2.3-0.1-3.6v-1c0-0.3,0-0.7,0-1.1c0-0.2,0-0.3,0-0.5c0-0.2,0-0.4,0-0.5
			c0-0.1,0-0.2,0-0.3c0,0,0.1,0,0.1,0l1,0c0.3,0,0.6,0,1,0c0,0,0.6,0,0.6,0c0.2,0,0.4,0,0.6,0h0.9c0.1,0,0.2,0,0.2,0l0.1,0h0.1l0,0
			h0.1c0,0,0.1,0,0.1,0v1.4c0,0.4,0,0.7,0,1.1c0,0.3,0,0.7,0,1c0,0.7,0,1.3,0,1.9l0,1.7c0,0.6,0,1.1,0,1.5c0,0.5,0,0.9,0,1.3l0,0.5
			c0,0.6-0.1,1-0.1,1.3c0,0.4,0,0.6,0,0.7c0,0.6,0.5,1.1,1.1,1.1c0.6,0,1.1-0.5,1.1-1l0-0.6c0-0.5,0-1,0-1.9c0-0.4,0-0.8,0-1.3
			l0-3.3c0-0.6,0-1.3,0-2c0-0.7,0-1.4,0-2.1c0-0.8,0-1.5,0-2.2c0-1.5,0-3-0.1-4.6l0-0.3l-0.1-1.1c-0.1-1.3-0.1-2.7-0.3-4.1
			c-0.1-0.9-0.2-1.9-0.6-2.8c-0.1-0.3-0.2-0.5-0.3-0.8c-0.1-0.2-0.2-0.4-0.3-0.5l-0.2-0.3c-0.3-0.3-0.5-0.5-0.9-0.7
			c-0.3-0.1-0.8-0.2-1.1-0.2h-0.2l-0.1,0l-0.1,0.1h-0.1l-0.1,0c-0.2,0.1-0.4,0.2-0.5,0.2c-0.4,0.2-0.6,0.4-0.9,0.6
			c-0.3,0.4-0.6,0.8-0.9,1.4l-0.3,0.8c-0.1,0.2-0.1,0.4-0.2,0.5l-0.2,0.7c0,0.1,0,0.2-0.1,0.2c0,0.1-0.1,0.3-0.1,0.4
			c-0.1,0.4-0.2,0.9-0.3,1.3c-0.1,0.4-0.2,0.9-0.3,1.4c-0.1,0.9-0.2,1.7-0.3,2.6c0,0.4-0.1,0.8-0.1,1.2c0,0.4-0.1,0.8-0.1,1.3
			c0,0.8-0.1,1.6-0.1,2.3c0,0.4,0,0.8,0,1.2v2.2c0,0.3,0,0.6,0,1c0,0.7,0,1.4,0,2c0,0.6,0,1.1,0,1.7l0,5.5
			C364,62.3,364.5,62.8,365.2,62.8z M366.8,40.3c0-0.2,0.1-0.4,0.1-0.6l0.2-1.2c0.1-0.2,0.1-0.4,0.2-0.6c0.1-0.1,0.1-0.3,0.1-0.4
			c0-0.1,0-0.2,0.1-0.2c0.1-0.4,0.3-0.8,0.5-1.1c0.2-0.4,0.4-0.6,0.6-0.8c0.1-0.1,0.1-0.1,0.2-0.1l0.1-0.1l0.2,0c0,0,0.1,0,0.1,0
			c0.1,0.1,0.2,0.1,0.2,0.2c0.2,0.2,0.3,0.4,0.5,0.8c0.2,0.4,0.3,0.7,0.4,1.2c0.1,0.4,0.2,0.8,0.3,1.2l0.1,0.5c0,0.2,0,0.4,0.1,0.7
			l0,0.1c0,0.4,0.1,0.8,0.1,1.3c0.1,0.6,0.1,1.1,0.1,1.7c0,0.3,0,0.6,0,0.8V46c0,0.2,0,0.5,0,0.7c0,0.1,0,0.1,0,0.2h-0.1l0,0l-0.2,0
			c0,0-0.8,0-0.9,0c-0.1,0-0.2,0-0.5,0h-1.1c0,0,0,0,0,0c-0.3,0-0.6,0-1,0c0,0-0.9,0-0.9,0c0.1-1.1,0.2-2.3,0.3-3.4l0.3-2.5
			C366.7,40.8,366.7,40.5,366.8,40.3z"/>
		<path fill="#333333" d="M380.3,55.2l0.2,1.7c0,0.3,0.1,0.6,0.1,0.8c0,0.2,0.1,0.3,0.1,0.5c0,0.1,0,0.2,0.1,0.4
			c0.2,0.6,0.3,1.1,0.6,1.7c0.1,0.3,0.3,0.7,0.5,0.9c0.2,0.2,0.4,0.5,0.8,0.8c0.3,0.2,0.6,0.4,1.1,0.5c0.4,0.1,0.7,0.1,1,0.1h0.2
			c0,0,0.1,0,0.3,0c0.1,0,0.2,0,0.3-0.1c0.2,0,0.3-0.1,0.5-0.2c0.4-0.2,0.7-0.5,0.9-0.7c0.4-0.4,0.7-1,1-1.7
			c0.2-0.5,0.4-1.1,0.5-1.7c0.3-1.1,0.4-2.2,0.5-3.3l0-0.1c0.1-1.1,0.1-2.2,0.2-3.3c0-1.1,0-2.3,0-3.3V48l0,0
			c-0.1-0.5-0.5-0.9-1-0.9c0,0-0.1,0-0.2,0l-3.8,0.4c-0.6,0.1-1,0.6-0.9,1.2c0.1,0.5,0.5,0.9,1,0.9l0.1,0l2.7-0.3v2.1
			c0,1.1,0,2.1-0.1,3.2c-0.1,1-0.2,2.1-0.4,3.1c-0.1,0.5-0.3,1-0.5,1.5c-0.1,0.4-0.3,0.8-0.7,1.1c-0.1,0.1-0.2,0.2-0.3,0.2l0,0
			l-0.1,0.1l-0.1,0l-0.1,0.1c-0.1,0-0.2,0-0.2,0c-0.2,0-0.4,0-0.4,0l0,0l-0.1,0c-0.2,0-0.3-0.1-0.5-0.2c-0.1-0.1-0.2-0.2-0.3-0.3
			l-0.3-0.6c-0.2-0.4-0.3-0.9-0.4-1.4c-0.2-1.1-0.3-2.2-0.3-3.1c0-1.1-0.1-2.2-0.1-3.3c0-0.5-0.1-1.1-0.1-1.6c0-0.6-0.1-1.1-0.1-1.6
			c0-1.1,0-2.2,0.1-3.3c0-0.3,0-0.5,0-0.8c0-0.3,0-0.6,0-0.8l0-1.8c0-1,0.1-2.1,0.1-3.1c0-0.2,0-0.3,0.1-0.5c0-0.3,0.1-0.7,0.2-1.1
			c0.1-0.5,0.2-0.9,0.4-1.2c0.1-0.1,0.2-0.3,0.3-0.3c0.1-0.1,0.3-0.2,0.5-0.2l0.6-0.1l0.5,0c0.1,0,0.1,0,0.2,0c0,0,0,0,0,0
			c0.3,0.1,0.6,0.2,0.9,0.4c0.2,0.3,0.4,0.6,0.6,1c0.1,0.4,0.3,0.9,0.4,1.4c0,0.2,0.1,0.5,0.1,0.7l0,0.3l0,0.5
			c0.1,0.6,0.6,1.1,1.1,1.1l0.1,0c0.6-0.1,1.1-0.6,1.1-1.2l0-0.1l-0.1-0.1l0-0.1l0-0.2c0-0.1,0-0.2,0-0.3c0,0,0-0.1,0-0.2l-0.2-0.9
			c-0.1-0.3-0.2-0.6-0.3-0.8c-0.1-0.3-0.2-0.6-0.3-0.9c-0.3-0.7-0.7-1.3-1.1-1.7c-0.3-0.3-0.6-0.5-0.9-0.7c-0.3-0.2-0.7-0.3-1-0.3
			c-0.2-0.1-0.4-0.1-0.6-0.1c-0.1,0-0.2,0-0.3,0c0,0-0.1,0-0.2,0c-0.3,0-0.7,0.1-1,0.2c-0.4,0.1-0.7,0.3-1,0.5
			c-0.3,0.2-0.6,0.5-0.7,0.8c-0.1,0.2-0.2,0.3-0.2,0.4l0,0c-0.1,0.1-0.1,0.2-0.1,0.3c0,0,0,0.1-0.1,0.1l0,0.1c0,0-0.1,0.3-0.1,0.3
			c-0.1,0.2-0.1,0.4-0.2,0.6c-0.2,0.6-0.3,1.2-0.4,1.8c-0.1,0.6-0.1,1.1-0.2,1.7c0,0.6-0.1,1.1-0.1,1.7c0,0.6,0,1.1,0,1.7v1.7
			c0,0.6,0,1.1,0,1.7c0,0.5,0,1.1,0,1.6c0,0.5,0,0.9,0,1.4c0,0.6-0.1,1.3,0,1.9C380.1,53.1,380.2,54.2,380.3,55.2z"/>
		<path fill="#333333" d="M389.6,52c0,0.9,0,1.8,0,2.7c0,1,0,1.9,0.1,3c0,0.5,0.1,1,0.2,1.4c0,0.3,0.1,0.6,0.2,0.8
			c0.1,0.3,0.2,0.6,0.3,0.9c0.1,0.2,0.3,0.6,0.6,0.9c0.1,0.1,0.2,0.2,0.4,0.3c0.2,0.1,0.3,0.2,0.5,0.3c0.2,0.1,0.5,0.2,0.7,0.2
			l0.3,0.1c0.1,0,0.3,0,0.4,0c0.1,0,0.3,0,0.4,0l0.1,0l0.1,0c0.6,0,1.2-0.1,1.8-0.4c0.3-0.1,0.6-0.3,0.9-0.6
			c0.2-0.3,0.4-0.5,0.6-0.8c0.3-0.5,0.4-1.1,0.6-1.6c0.1-0.4,0.2-0.9,0.3-1.3l0-0.2c0-0.2,0-0.5,0.1-0.7c0-0.2,0.1-0.5,0.1-0.8
			c0-0.5,0.1-0.9,0.1-1.3c0-0.3,0-0.5,0-0.8l0-0.6c0-0.5,0-0.9,0-1.4l0-2.7c0-0.4,0-0.8,0-1.2l0-1.3l0-0.2c0-0.8-0.1-1.5-0.1-2.2
			v-4.3c0-0.7,0-1.3-0.1-1.9c0-0.6-0.1-1.2-0.2-1.7c-0.1-0.6-0.3-1.2-0.6-1.7l-0.2-0.2c-0.1-0.2-0.2-0.3-0.4-0.5
			c-0.2-0.2-0.4-0.4-0.7-0.5c-0.4-0.2-0.7-0.3-1.1-0.4c-0.3,0-0.5,0-0.7,0h-0.4c-0.1,0-0.2,0-0.4,0l-0.2,0c-0.4,0.1-0.8,0.2-1.1,0.4
			c-0.2,0.1-0.4,0.3-0.7,0.5c-0.2,0.2-0.4,0.4-0.5,0.6c-0.3,0.4-0.5,0.9-0.7,1.6c-0.1,0.6-0.2,1.1-0.3,1.7c-0.2,1.4-0.2,2.9-0.2,4
			c0,1.5,0,3,0,4.6C389.6,48.5,389.6,50.2,389.6,52z M393.1,35.7c0.1-0.1,0.2-0.1,0.3-0.1h0.1l0.1,0c0.1,0,0.2,0,0.3,0h0.3
			c0.1,0,0.2,0,0.3,0l0.1,0h0.1c0.1,0,0.3,0,0.4,0c0.1,0.1,0.2,0.2,0.4,0.3c0.2,0.3,0.3,0.6,0.4,1c0.1,0.4,0.2,0.9,0.2,1.5
			c0.1,0.5,0.1,1.2,0.2,1.8c0,0.3,0,0.7,0,1c0,0.3,0,0.7,0,1l0,2.3c0,0.8,0,1.5,0,2.4c0,0.4,0,0.8,0,1.3v1.3c0,0.9,0,1.7,0,2.6v1.3
			c0,0.5,0,0.9,0,1.4c0,0.9,0,1.8-0.1,2.7c0,0.4-0.1,0.8-0.2,1.3c-0.1,0.4-0.2,0.8-0.4,1.1c0,0.1,0,0.1-0.1,0.1l0,0l0,0.1l-0.1,0
			l-0.1,0.1c-0.1,0.1-0.2,0.1-0.3,0.2c-0.1,0-0.2,0.1-0.3,0.1c-0.1,0-0.2,0-0.3,0h-0.3c-0.6,0-0.9-0.1-1-0.1c0,0-0.1,0-0.1,0
			c0,0,0,0,0,0l-0.1-0.1l-0.1,0c0,0-0.1,0-0.1-0.1c0,0-0.1-0.1-0.2-0.2l-0.1-0.1c-0.1-0.3-0.3-0.6-0.3-1.1c-0.1-0.3-0.1-0.6-0.2-0.9
			l-0.1-0.4c-0.1-0.8-0.1-1.7-0.1-2.6l0-0.1V52c0-1.8,0-3.5,0-5.2c0-1.6,0-3.2,0.1-4.6c0-1.6,0.1-2.8,0.3-3.8c0.1-0.5,0.1-1,0.3-1.4
			c0.1-0.4,0.3-0.7,0.4-0.9C392.7,35.9,392.9,35.8,393.1,35.7z"/>
		<path fill="#333333" d="M407.7,49.3c0-0.4,0-0.8,0-1.2l0-1.3c0-0.8-0.1-1.6-0.1-2.3v-4.3c0-0.7,0-1.3-0.1-1.9
			c0-0.6-0.1-1.2-0.2-1.7c-0.1-0.6-0.3-1.2-0.6-1.7l-0.1-0.2c-0.1-0.2-0.2-0.3-0.4-0.5c-0.2-0.2-0.5-0.4-0.7-0.5
			c-0.4-0.2-0.7-0.3-1.1-0.4c-0.3,0-0.5,0-0.7,0h-0.4c-0.1,0-0.2,0-0.4,0l-0.2,0c-0.4,0.1-0.8,0.2-1.1,0.4c-0.2,0.1-0.4,0.3-0.7,0.5
			c-0.2,0.2-0.4,0.4-0.5,0.6c-0.3,0.4-0.5,0.9-0.7,1.6c-0.1,0.6-0.2,1.1-0.3,1.7c-0.2,1.4-0.2,2.9-0.2,4c0,1.5,0,3,0,4.6
			c0,1.7,0,3.4,0,5.2c0,0.9,0,1.8,0,2.7c0,0.9,0,1.9,0.1,2.9l0,0.1c0,0.5,0.1,0.9,0.2,1.4c0,0.3,0.1,0.5,0.2,0.8
			c0.1,0.3,0.2,0.5,0.3,0.9c0.1,0.2,0.3,0.6,0.6,0.9c0.1,0.1,0.2,0.2,0.4,0.3c0.2,0.1,0.3,0.2,0.5,0.3c0.2,0.1,0.5,0.2,0.7,0.2
			l0.3,0.1c0.1,0,0.3,0,0.4,0c0.1,0,0.3,0,0.4,0l0.1,0l0.1,0c0.6,0,1.2-0.1,1.8-0.4c0.3-0.1,0.6-0.3,0.9-0.6
			c0.2-0.2,0.4-0.5,0.6-0.8c0.3-0.5,0.4-1.1,0.6-1.6c0.1-0.4,0.2-0.9,0.3-1.3l0-0.2c0-0.2,0-0.4,0.1-0.7c0-0.2,0.1-0.5,0.1-0.8
			c0-0.5,0.1-1,0.1-1.4c0-0.3,0-0.5,0-0.8l0-0.6c0-0.5,0-0.9,0-1.4L407.7,49.3z M404.7,59.8c0,0.1,0,0.1-0.1,0.1l0,0l0,0.1l-0.1,0
			l-0.1,0.1c-0.1,0.1-0.2,0.1-0.3,0.2c-0.1,0-0.2,0.1-0.3,0.1c-0.1,0-0.2,0-0.3,0h-0.3c-0.6,0-0.9-0.1-1-0.1c0,0,0,0-0.1,0
			c0,0,0,0,0,0l-0.1-0.1l-0.1,0c0,0-0.1,0-0.1-0.1c0,0-0.1-0.1-0.2-0.2l-0.1-0.1c-0.1-0.3-0.3-0.6-0.3-1.1c-0.1-0.3-0.1-0.6-0.2-0.9
			l-0.1-0.4c-0.1-0.9-0.1-1.8-0.2-2.7V52c0-1.8,0-3.5,0-5.2c0-1.6,0-3.2,0.1-4.6c0-1.6,0.1-2.8,0.3-3.8c0.1-0.5,0.1-1,0.3-1.4
			c0.1-0.4,0.3-0.7,0.4-0.9c0.1-0.2,0.3-0.3,0.5-0.4c0.1-0.1,0.2-0.1,0.3-0.1h0.1l0.1,0c0.1,0,0.2,0,0.3,0h0.3c0.1,0,0.2,0,0.3,0
			l0.1,0h0.1c0.1,0,0.3,0,0.4,0c0.1,0.1,0.3,0.2,0.4,0.3c0.2,0.3,0.3,0.6,0.4,1c0.1,0.4,0.2,0.9,0.2,1.5c0.1,0.5,0.1,1.2,0.2,1.8
			c0,0.3,0,0.7,0,1c0,0.3,0,0.7,0,1l0,2.3c0,0.8,0,1.5,0,2.4c0,0.4,0,0.8,0,1.3v1.3c0,0.9,0,1.7,0,2.6v1.3c0,0.5,0,0.9,0,1.4
			c0,0.9,0,1.8-0.1,2.7c0,0.5-0.1,0.9-0.2,1.2C405,59.1,404.9,59.5,404.7,59.8z"/>
		<path fill="#333333" d="M416.8,48.4v-0.6l0-0.1l0-0.4l-0.1-1.1c0-0.5-0.1-1-0.2-1.5c0-0.2-0.1-0.5-0.1-0.7c0-0.2-0.1-0.4-0.1-0.6
			c0-0.2-0.1-0.3-0.1-0.5c0-0.4-0.1-0.8-0.2-1.2c0-0.1,0-0.1,0-0.2c0-0.1,0-0.2,0-0.3l-0.1-0.6l-0.1-0.2l0-0.3l-0.1-0.5
			c0-0.1-0.1-0.2-0.1-0.3c0-0.1,0-0.1-0.1-0.3l-0.1-0.5c0-0.2-0.1-0.4-0.2-0.5l0-0.1c0-0.2-0.1-0.4-0.2-0.6l-0.5-1.1
			c-0.2-0.4-0.5-0.7-0.7-1c-0.3-0.4-0.6-0.7-0.9-0.9c-0.2-0.2-0.3-0.3-0.5-0.4l-0.1,0c-0.2-0.2-0.4-0.3-0.7-0.3
			c-0.2-0.1-0.4-0.1-0.7-0.2l-0.1,0c-0.2,0-0.4-0.1-0.6-0.1c-0.1,0-0.3,0-0.4,0h-0.3l-0.1,0c0,0-0.1,0-0.1,0c-0.1,0-0.1,0-0.2,0
			l-0.1,0l-0.2,0l0,0l-0.4,0V34c-0.2,0.2-0.3,0.4-0.3,0.7c0,0.3,0,0.5,0,0.8c0,0.3,0,0.6,0,0.8l0,1.7c0,0.6,0,1.2,0,1.7v3.4l0,1.7
			l0,1.7l0.1,1.6v1.7l0,1.7v1.6l0,1.7c0,0.6,0,1.1,0,1.7c0,0.6,0,1.1,0,1.7l-0.1,3.4c0,0.4,0.3,0.8,0.6,0.9l0.3,0.1h0.1l0.1,0h0
			l0.1,0h0c0.1,0,0.2,0,0.2,0c0,0,0,0,0,0c0.2,0,0.4,0.1,0.6,0.1c0,0,0,0,0,0c0.1,0,0.3,0,0.4,0c0.3,0,0.6,0,1-0.1
			c0.9-0.2,1.7-0.6,2.4-1.2c0.6-0.5,1.1-1.2,1.5-2c0.2-0.3,0.4-0.7,0.5-1.1l0.4-1.1c0.2-0.7,0.4-1.4,0.5-2.2l0-0.3
			c0.1-0.7,0.1-1.3,0.2-2c0-0.7,0-1.5,0-2.2C416.9,49.9,416.9,49.2,416.8,48.4L416.8,48.4z M414.3,56.8c-0.1,0.3-0.2,0.6-0.3,0.9
			c-0.1,0.1-0.1,0.3-0.2,0.4c-0.1,0.2-0.1,0.3-0.2,0.5c-0.4,0.7-0.8,1.1-1.1,1.4c-0.5,0.4-0.9,0.6-1.4,0.7c-0.2,0-0.4,0.1-0.6,0.1
			c-0.1,0-0.1,0-0.2,0l-0.1-2.5c0-0.6,0-1.1,0-1.7c0-0.6,0-1.1,0-1.7l-0.1-3.3v-3.4l0-1.7c0-0.3,0-0.6,0-0.9c0-0.3,0-0.6,0-0.8V38
			l0-1.7c0-0.3,0-0.5,0-0.8h0c0.3,0,0.5,0.1,0.7,0.2c0.4,0.2,0.9,0.6,1.2,1.1c0.2,0.2,0.4,0.5,0.5,0.7l0.5,0.9
			c0.3,0.6,0.6,1.3,0.8,2c0.1,0.1,0.1,0.2,0.1,0.4l0,0.1l0,0v0.1l0.1,0.3l0.2,1c0.1,0.3,0.1,0.7,0.2,1c0.1,0.3,0.1,0.7,0.2,1
			c0.1,0.7,0.2,1.4,0.2,2.1c0,0.3,0.1,0.7,0.1,1.1l0,0.2l0,0.3l0,0.5c0,0.4,0,0.7,0,1.1c0,0.4,0,0.7,0,1.1c0,0.4,0,0.7,0,1.1
			c0,0.4,0,0.7,0,1l-0.2,2.1C414.6,55.4,414.5,56.1,414.3,56.8z"/>
		<path fill="#333333" d="M433.1,47.8l0-0.1l0-0.4l-0.1-1.1c0-0.5-0.1-1-0.2-1.5c0-0.2-0.1-0.5-0.1-0.7c0-0.2-0.1-0.4-0.1-0.6
			c0-0.2-0.1-0.3-0.1-0.5c0-0.4-0.1-0.8-0.2-1.2c0-0.1,0-0.1,0-0.2c0-0.1,0-0.2,0-0.3l-0.1-0.6l-0.1-0.2l0-0.3l-0.1-0.5
			c0-0.1-0.1-0.2-0.1-0.3c0-0.1,0-0.1-0.1-0.3l-0.1-0.5c0-0.2-0.1-0.3-0.2-0.5l0,0c0-0.2-0.1-0.4-0.2-0.6l-0.5-1.1
			c-0.2-0.4-0.4-0.7-0.7-1c-0.3-0.4-0.6-0.7-0.9-0.9c-0.2-0.2-0.3-0.3-0.5-0.4l0,0c-0.2-0.2-0.5-0.3-0.7-0.3
			c-0.2-0.1-0.4-0.1-0.7-0.2l-0.1,0c-0.2,0-0.4-0.1-0.6-0.1c-0.1,0-0.3,0-0.4,0h-0.2l-0.2,0l-0.1,0c-0.1,0-0.1,0-0.2,0l-0.1,0
			l-0.2,0l0,0l-0.4,0V34c-0.2,0.2-0.3,0.4-0.3,0.7c0,0.3,0,0.5,0,0.8c0,0.3,0,0.6,0,0.8l0,1.7c0,0.6,0,1.2,0,1.7v3.4l0,1.7l0,1.7
			l0.1,1.6v1.7l0,1.7v1.6l0,1.7c0,0.5,0,1.1,0,1.7c0,0.6,0,1.1,0,1.7l-0.1,3.4c0,0.4,0.3,0.7,0.6,0.9l0.3,0.1h0.1l0.1,0h0l0.1,0h0
			c0.1,0,0.2,0,0.3,0c0,0,0,0,0,0c0.2,0,0.4,0.1,0.6,0.1c0,0,0,0,0,0c0.1,0,0.3,0,0.4,0c0.3,0,0.6,0,1-0.1c0.9-0.2,1.7-0.6,2.4-1.2
			c0.6-0.5,1.1-1.2,1.5-2c0.2-0.3,0.4-0.7,0.5-1.1l0.4-1.1c0.2-0.7,0.4-1.4,0.5-2.2l0-0.2c0.1-0.7,0.1-1.4,0.2-2.1
			c0-0.7,0-1.5,0-2.2c0-0.7,0-1.4-0.1-2.2V47.8z M430.6,56.8c-0.1,0.3-0.2,0.6-0.3,0.9c-0.1,0.1-0.1,0.3-0.2,0.4
			c-0.1,0.2-0.1,0.3-0.2,0.5c-0.4,0.7-0.8,1.1-1.1,1.4c-0.5,0.4-0.9,0.6-1.4,0.7c-0.2,0-0.4,0.1-0.6,0.1c-0.1,0-0.1,0-0.2,0
			l-0.1-2.5c0-0.6,0-1.1,0-1.7c0-0.6,0-1.1,0-1.7l-0.1-3.3v-3.4l0-1.7c0-0.3,0-0.6,0-0.9c0-0.3,0-0.6,0-0.8V38l0-1.7
			c0-0.3,0-0.5,0-0.8h0c0.3,0,0.5,0.1,0.7,0.2c0.4,0.2,0.9,0.6,1.2,1.1c0.2,0.2,0.4,0.5,0.5,0.7l0.5,0.9c0.3,0.6,0.6,1.3,0.8,2
			c0.1,0.1,0.1,0.2,0.1,0.4l0,0.1l0,0.1v0.1l0.1,0.3l0.2,1c0.1,0.3,0.1,0.7,0.2,1.1c0.1,0.3,0.1,0.7,0.2,1c0.1,0.7,0.2,1.4,0.2,2.1
			c0,0.3,0.1,0.7,0.1,1.1l0,0.2l0,0.3l0,0.5c0,0.4,0,0.7,0,1.1c0,0.4,0,0.7,0,1.1c0,0.4,0,0.7,0,1.1c0,0.4,0,0.7,0,1l-0.2,2.1
			C430.9,55.4,430.8,56.1,430.6,56.8z"/>
		<path fill="#333333" d="M442.2,50.6c0-0.8,0-1.5,0-2.2c0-1.5,0-3.1-0.1-4.8l-0.1-1.2c-0.1-1.3-0.1-2.7-0.3-4.1
			c-0.1-0.9-0.2-1.9-0.6-2.8c-0.1-0.3-0.2-0.5-0.3-0.8c-0.1-0.2-0.2-0.4-0.3-0.5l-0.2-0.3c-0.3-0.3-0.5-0.5-0.9-0.7
			c-0.3-0.1-0.8-0.2-1.1-0.2h-0.2l-0.1,0l-0.1,0.1h-0.1l-0.1,0c-0.2,0.1-0.4,0.2-0.5,0.2c-0.4,0.2-0.6,0.4-0.9,0.6
			c-0.3,0.4-0.6,0.8-0.9,1.5l-0.3,0.8c-0.1,0.2-0.1,0.4-0.2,0.6l-0.2,0.7c0,0.1,0,0.2-0.1,0.2c0,0.1-0.1,0.3-0.1,0.4
			c-0.1,0.4-0.2,0.9-0.3,1.3c-0.1,0.4-0.2,0.9-0.3,1.4c-0.1,0.9-0.2,1.7-0.3,2.6c0,0.4-0.1,0.8-0.1,1.2c0,0.4-0.1,0.9-0.1,1.3l0,0.1
			c0,0.8-0.1,1.6-0.1,2.3c0,0.4,0,0.8,0,1.2v2.2c0,0.3,0,0.6,0,1c0,0.7,0,1.4,0,2c0,0.6,0,1.1,0,1.7l0,5.5c0.1,0.6,0.6,1.1,1.2,1.1
			h0l0,0c0.6-0.1,1.1-0.6,1.1-1.3l-0.1-0.6c0-0.3,0-0.6-0.1-0.9c0-0.3,0-0.6-0.1-0.9l-0.1-2.8c0-1.1-0.1-2.3-0.1-3.6v-1
			c0-0.3,0-0.7,0-1.1c0-0.2,0-0.3,0-0.5c0-0.2,0-0.4,0-0.5c0-0.1,0-0.2,0-0.3c0,0,0.1,0,0.1,0l1,0c0.3,0,0.6,0,1,0c0,0,0.6,0,0.6,0
			c0.2,0,0.4,0,0.6,0h0.9c0.1,0,0.2,0,0.2,0l0.1,0h0.1l0,0h0.1c0,0,0.1,0,0.1,0v1.4c0,0.4,0,0.7,0,1.1c0,0.3,0,0.7,0,1
			c0,0.6,0,1.3,0,1.9l0,1.7c0,0.6,0,1.1,0,1.5c0,0.5,0,0.9,0,1.3l0,0.5c0,0.6-0.1,1-0.1,1.3c0,0.4,0,0.6,0,0.7
			c0,0.6,0.5,1.1,1.1,1.1c0.6,0,1.1-0.5,1.1-1l0-0.6c0-0.5,0-1,0-1.9c0-0.4,0-0.8,0-1.3l0-3.3c0-0.6,0-1.3,0-2
			C442.2,52,442.2,51.3,442.2,50.6z M436.2,40.3c0-0.2,0.1-0.5,0.1-0.6l0.2-1.2c0.1-0.2,0.1-0.4,0.2-0.6c0.1-0.1,0.1-0.3,0.1-0.4
			c0-0.1,0-0.2,0.1-0.2c0.1-0.4,0.3-0.8,0.5-1.1c0.2-0.4,0.4-0.6,0.6-0.8c0.1-0.1,0.1-0.1,0.2-0.1l0.1-0.1l0.2,0c0,0,0.1,0,0.1,0
			c0.1,0.1,0.2,0.1,0.2,0.2c0.2,0.2,0.3,0.4,0.5,0.8c0.2,0.4,0.3,0.7,0.4,1.2c0.1,0.4,0.2,0.8,0.3,1.2L440,39c0,0.2,0,0.4,0.1,0.7
			c0,0.4,0.1,0.8,0.1,1.3c0,0.6,0.1,1.1,0.1,1.6c0,0.3,0,0.6,0,0.9V46c0,0.2,0,0.5,0,0.7c0,0.1,0,0.1,0,0.2h-0.1l0,0l-0.2,0
			c0,0-0.9,0-0.9,0c-0.1,0-0.2,0-0.5,0h-1.1c0,0,0,0,0,0c-0.3,0-0.6,0-1,0c0,0-0.9,0-0.9,0c0.1-1.1,0.2-2.2,0.3-3.3l0.3-2.6
			C436.2,40.8,436.2,40.5,436.2,40.3z"/>
		<path fill="#333333" d="M451.4,33.4L451.4,33.4l-0.1,0c-0.1,0-0.2,0-0.3,0c-0.4,0-0.8,0.2-1,0.6l-0.1,0v0.2c0,0,0,0.1-0.1,0.2
			l0,0.1v0.1c0,0,0,0.1,0,0.1l-0.1,0.1v0.2c0,0,0,0.1,0,0.1c0,0.1-0.1,0.2-0.1,0.3l0,0.1c-0.1,0.3-0.3,0.7-0.3,1.2
			c-0.1,0.3-0.2,0.7-0.3,1.1c0,0.2-0.1,0.4-0.2,0.6l-0.2,0.6c-0.1,0.5-0.2,1-0.4,1.4c-0.1,0.7-0.3,1.4-0.5,2.1l0,0.2
			c-0.1,0.4-0.2,0.8-0.3,1.2c-0.1-0.2-0.1-0.4-0.2-0.5l-0.3-0.7c-0.2-0.6-0.4-1.2-0.6-1.7l-0.2-0.7l-0.2-0.6l-0.1-0.3
			c-0.1-0.3-0.2-0.6-0.3-1l-0.1-0.3c-0.1-0.3-0.2-0.5-0.3-0.8c-0.1-0.2-0.2-0.5-0.2-0.6c0-0.1-0.1-0.3-0.2-0.5
			c-0.1-0.3-0.2-0.6-0.2-0.8c-0.1-0.4-0.2-0.6-0.2-0.7c-0.1-0.3-0.1-0.5-0.1-0.5c0,0,0,0,0,0l0-0.5h-0.2c-0.2-0.2-0.5-0.4-0.8-0.4
			c-0.1,0-0.3,0-0.4,0.1c-0.6,0.2-0.9,0.8-0.6,1.4c0,0,0.1,0.2,0.2,0.6c0.1,0.1,0.1,0.3,0.2,0.7c0.1,0.2,0.1,0.4,0.2,0.6l0.1,0.3
			c0,0.1,0.1,0.1,0.1,0.2c0,0.1,0.1,0.2,0.1,0.2c0,0.1,0.1,0.2,0.1,0.3c0,0.1,0,0.1,0.1,0.3l0.3,1.1c0.1,0.4,0.2,0.9,0.4,1.2
			c0,0.2,0.1,0.4,0.2,0.7c0,0.2,0.1,0.4,0.2,0.6l0,0.1c0.2,0.8,0.5,1.7,0.8,2.6c0.1,0.4,0.2,0.8,0.3,1.1c0,0,0.4,1.3,0.5,1.4
			c0.1,0.2,0.1,0.4,0.2,0.5c0,0.2,0.1,0.3,0.1,0.4c0,0.1,0.1,0.2,0.1,0.2l0.1,0.2c0,0.1,0.1,0.1,0.1,0.2c0,0,0,0.1,0,0.1l-1.1,4.6
			c-0.1,0.4-0.2,0.7-0.3,1.1c-0.1,0.4-0.2,0.8-0.3,1.3l-0.2,1.1l-0.2,1l-0.4,1.7c-0.2,0.6-0.3,1-0.4,1.4l-0.3,1.2
			c-0.1,0.6,0.3,1.1,0.9,1.3l0.1,0c0.5,0,1-0.3,1.1-0.8c0,0,0.1-0.4,0.3-1.2l0.5-2c0.1-0.4,0.2-0.7,0.3-1.2c0-0.3,0.1-0.6,0.2-1
			l0.2-1l0.6-2.3c0.3-1.1,0.6-2.1,0.8-3.3c0.1-0.6,0.3-1.2,0.4-1.8l0.4-1.3c0.1-0.4,0.2-0.8,0.3-1.2l0.6-2.5
			c0.1-0.5,0.3-0.9,0.4-1.4c0.1-0.3,0.2-0.6,0.2-0.9c0.2-0.7,0.3-1.4,0.5-2.1l0.1-0.4c0.1-0.5,0.2-0.9,0.3-1.4
			c0.1-0.3,0.1-0.6,0.2-0.8c0-0.2,0.1-0.4,0.1-0.5l0.1-0.6v-0.1c0-0.1,0-0.1,0-0.2c0-0.1,0-0.1,0-0.1c0,0,0,0,0,0c0-0.1,0-0.2,0-0.2
			l0-0.1l0-0.1C452.1,34.1,451.9,33.6,451.4,33.4z"/>
		<path fill="#333333" d="M293.3,73.9c0,0-0.1,0-0.1,0c-0.6,0-1,0.5-1,1l-0.2,3.4l-0.1,1.7l-0.1,1.7l-0.4,6.8l-0.2,3.8
			c0-0.2-0.1-0.5-0.2-0.7c-0.1-0.4-0.2-0.8-0.3-1.1c0-0.2-0.1-0.4-0.1-0.6c0-0.2-0.1-0.4-0.1-0.6l0-0.2c-0.1-0.3-0.1-0.7-0.2-1
			l-0.5-2.3l-0.3-1l0-0.3l0-0.1l0-0.1v-0.1l-0.1-0.3l0-0.1l0-0.1l-0.1-0.3l0,0l0-0.2h-0.4c-0.1,0-0.2,0-0.2,0
			c-0.3,0-0.5,0.2-0.6,0.4c-0.1,0.2-0.1,0.3-0.2,0.4l-0.1,0.2c0,0.1,0,0.1-0.1,0.2l-0.1,0.2v0.1c0,0.1,0,0.1,0,0.2l-0.2,1.1
			c-0.1,0.4-0.2,0.8-0.2,1.2l-0.2,1.2l-0.8,4.7l-0.3-4.5l-0.5-6.8l-0.1-1.7l-0.1-1.7l-0.2-3.5c-0.1-0.5-0.5-0.9-1.1-0.9c0,0,0,0,0,0
			c-0.5,0-1,0.5-1,1.1l1.5,22.2l0.2,5.2c0.1,0.5,0.4,0.8,0.8,0.9c0.1,0,0.2,0,0.3,0c0.5,0,0.9-0.4,1-0.9c0-0.2,0.1-0.4,0.1-0.6
			c0-0.2,0.1-0.4,0.1-0.6l0.2-1.2l0.2-1.1c0-0.2,0.1-0.4,0.1-0.6c0-0.2,0.1-0.4,0.1-0.6l0.3-2.3c0.1-0.4,0.1-0.8,0.2-1.2L288,93
			c0.1-0.7,0.2-1.5,0.3-2.3l0.1-1c0,0,0,0.1,0,0.1c0,0.1,0,0.2,0,0.3l0,0.6c0,0.2,0.1,0.4,0.1,0.5c0,0.2,0,0.4,0.1,0.6
			c0,0.4,0.1,0.7,0.2,1l0.3,1.3l0.2,1.2l0.9,4.6l0.3,1.1l0.1,0.5l0.1,0.6c0.1,0.4,0.4,0.6,0.8,0.7l0.1,0h0c0.4,0,0.8-0.3,1-0.8
			l0-0.1v-0.1c0.1-0.6,0.2-1.1,0.2-1.7l0-0.4l0-0.5c0-0.3,0-0.5,0-0.8l0.2-3.4l0.4-6.8l0.3-6.8L294,80l0-1.7l0.2-3.4
			c0-0.3-0.1-0.6-0.2-0.8C293.8,74,293.5,73.9,293.3,73.9z"/>
		<path fill="#333333" d="M304,74.8c-0.1-0.6-0.6-1.1-1.2-1.1l-0.1,0c-0.6,0.1-1.1,0.6-1.1,1.2c0,0,0,0.2,0,0.3c0,0.2,0,0.5,0,0.9
			c0,0.2,0,0.4,0,0.6c0,0.2,0,0.5,0,0.8c0,0.3,0,0.5,0,0.8c0,0.3,0,0.6,0,0.9v1.4c0,0.2,0,0.4,0,0.5c0,0.4,0,0.8,0,1.1
			c0,0.4,0,0.8,0,1.2v1.2c0,0.2,0,0.4,0,0.7c0,0.2,0,0.4,0,0.7c0,0.4,0,0.8,0,1.1c0,0.2,0,0.4-0.1,0.6h-0.1c-0.1,0-0.1,0-0.2,0
			c-0.1,0-0.2,0-0.2,0c0,0,0,0,0,0c-0.2,0-0.5,0-0.7,0c-0.1,0-0.2,0-0.3,0c-0.1,0-0.2,0-0.2,0c-0.1,0-0.2,0-0.4,0
			c-0.1,0-0.2,0-0.3,0H298c-0.2,0-0.4,0-0.6,0c-0.2,0-0.3,0-0.4,0c-0.1,0-0.1,0-0.2,0l0-0.3c0-0.4-0.1-0.8,0-1.2c0-0.2,0-0.4,0-0.6
			c0-0.2,0-0.4,0-0.6l0-1.3c0-0.4,0-0.8,0-1.1c0-0.2,0-0.4,0-0.5c0-0.2,0-0.4,0-0.5c0-0.2,0-0.4,0-0.6v-2.4c0-0.2,0-0.3,0-0.4
			c0-0.1,0-0.3,0-0.4c0-0.3,0-0.5,0-0.7c0-0.2,0-0.4,0-0.6c0-0.2,0-0.4,0-0.5c0-0.1,0-0.2,0-0.3c0-0.1,0-0.2,0-0.2c0,0,0,0,0,0
			l0-0.1l0-0.3c-0.1-0.6-0.6-1-1.2-1l-0.1,0c-0.7,0.1-1.1,0.6-1.1,1.3l0,0.2c0,0.2,0,0.5,0.1,0.8l0,0.1c0,0.3,0,0.7,0.1,1.1l0,0.2
			c0,0.3,0,0.6,0,0.8c0,0.1,0,0.3,0,0.5c0,0.1,0,0.3,0,0.4c0,0.2,0,0.3,0,0.5c0,0.2,0,0.3,0,0.5v0.5c0,0.1,0,0.1,0,0.2
			c0,0.1,0,0.2,0,0.3v1.1c0,0.1,0,0.3,0,0.4c0,0.3,0,0.6,0,0.8l0,1.2c0,0.4,0.1,0.8,0.1,1.2c0,0.4,0,0.8,0,1.2
			c0,0.4-0.1,0.9-0.1,1.3c0,0.2,0,0.4,0,0.6c0,0.2,0,0.4,0,0.7l0.1,1.3c0,0.2,0,0.4,0,0.6c0,0.2,0,0.4,0,0.6v9.7c0,0.6,0.5,1,1.1,1
			c0.3,0,0.6-0.1,0.8-0.4c0.2-0.2,0.3-0.5,0.2-0.7l-0.1-4.2c0-0.3,0-0.6,0-1c0-0.3,0-0.7,0-1.1c0-0.7-0.1-1.4-0.1-2.2
			c0-0.2,0-0.4,0-0.6c0-0.2,0-0.4,0-0.6c0-0.4,0-0.8,0-1.2c0-0.4,0-0.8,0.1-1.2c0-0.1,0-0.2,0-0.2c0,0,0.1,0,0.1,0
			c0.2,0,0.3,0,0.5,0c0.2,0,0.4,0,0.5,0c0,0,0.7,0,0.7,0c0.2,0,0.3,0,0.6,0l0.5,0c0.2,0,0.5,0,0.7,0l0.7,0c0.1,0,0.1,0,0.2,0
			c0.1,0,0.2,0,0.3,0h0l0,0.2c0,0.4,0.1,0.8,0.1,1.2c0,0.4,0,0.8,0,1.2l0,1.2c0,0.4,0,0.8,0,1.2c0,0.4,0,0.7,0,1.1c0,0.7,0,1.4,0,2
			l-0.1,4.2c0,0.6,0.5,1.1,1.1,1.1c0.6,0,1.1-0.5,1.1-1.1c0,0,0-1.7,0-4.2c0-0.6,0-1.3,0-2v-3.5c0-0.4,0-0.8,0-1.2l0.1-1.3
			c0-0.4,0-0.9,0-1.3c0-0.3,0-0.7,0-1l0-0.3c0-0.4,0-0.8,0-1.2c0-0.4,0-0.8,0.1-1.2v-2.4c0-0.2,0-0.4,0-0.6c0-0.2,0-0.3,0-0.5
			c0-0.1,0-0.2,0-0.3c0-0.1,0-0.1,0-0.2v-0.5c0-0.3,0-0.6,0-1l0-0.8c0-0.3,0-0.6,0-0.8c0-0.5,0.1-1,0.1-1.3l0-0.2
			c0-0.3,0.1-0.6,0.1-0.8c0,0,0-0.1,0-0.1c0,0,0,0,0,0l0-0.1L304,74.8z"/>
		<path fill="#333333" d="M306.9,76.1c0.3,0,0.5,0,0.8,0c0.2,0,0.5,0,0.8,0l0.7,0l0.8,0l0.7,0l0.9,0c0.3,0,0.6-0.2,0.8-0.5
			c0.2-0.3,0.3-0.6,0.2-0.8c-0.1-0.6-0.6-1-1.2-1c0,0-0.1,0-0.1,0l-0.1,0c-0.2,0-0.4,0.1-0.7,0.1l-0.7,0.1l-1.6,0.2
			c-0.5,0-1,0.1-1.4,0.1l-1.5,0.1h-0.1l0,0c-0.5,0.1-0.8,0.5-0.8,0.9V76c0,0.1,0,0.3,0,0.4c0,0.1,0,0.3,0,0.4c0,0.3,0,0.6,0,0.9
			c0,0.1,0,0.3,0,0.4c0,0.2,0,0.3,0,0.4l0,1.7l0,3.4c0,0.5,0,1.1,0,1.6c0,0.5,0,1.1-0.1,1.6c0,0.6-0.1,1.1-0.1,1.7s0,1.2,0,1.7
			c0,0.3,0,0.6,0,0.8c0,0.3,0,0.5,0,0.8c0,0.5,0,1.1,0,1.6v3.3l-0.1,5.2c0,0.5,0.4,1,0.9,1l6.4,0c0.6,0,1.1-0.5,1.1-1
			c0-0.6-0.5-1.1-1-1.1l-5.4,0.1v-5.9c0-0.5,0-1.1,0-1.7c0-0.3,0-0.5,0-0.8c0-0.3,0-0.6,0-0.8l0.1-1.6c0-0.2,0-0.4,0-0.6l0.1,0
			c0,0,0.1,0,0.1,0c0.1,0,0.1,0,0.2,0c0.1,0,0.2,0,0.4,0c0.1,0,0.3,0,0.4,0c0.1,0,0.3,0,0.4,0c0.3,0,0.6,0,0.8,0h0.7
			c0.4,0,0.7,0,0.7,0c0.3,0,0.6-0.1,0.8-0.4c0.2-0.2,0.3-0.5,0.2-0.7c0-0.6-0.5-1-1.1-1c0,0,0,0,0,0c0,0-0.3,0-0.7,0
			c-0.2,0-0.5,0-0.7,0c-0.1,0-0.3,0-0.4,0c-0.1,0-0.3,0-0.4,0c-0.2,0-0.3,0-0.5,0c-0.1,0-0.2,0-0.3,0h-0.3c-0.1,0-0.2,0-0.3,0
			c0-0.2,0-0.4,0-0.6c0-0.5,0-1.1,0-1.6c0-0.5,0-1.1,0.1-1.7c0-0.3,0-0.5,0-0.8c0-0.3,0-0.6,0-0.8v-4.2c0-0.3,0-0.6,0-0.8v-0.8
			L306.9,76.1z"/>
		<path fill="#333333" d="M320.1,73.9C320.1,73.9,320.1,73.9,320.1,73.9c-0.6,0-1.1,0.5-1.1,1.1l0.3,16.3c0-0.1,0-0.3-0.1-0.4
			c-0.1-0.3-0.1-0.6-0.2-0.9l-0.4-1.7c0-0.1-0.1-0.3-0.1-0.4c0-0.2-0.1-0.3-0.1-0.5l-0.2-0.8c-0.1-0.3-0.1-0.7-0.2-1
			c-0.1-0.2-0.1-0.5-0.2-0.7c-0.2-0.5-0.3-1.1-0.4-1.7l-0.2-0.9l-0.2-0.8l-0.2-0.9l-0.2-0.8l-0.3-1.7l-0.7-3.4
			c-0.1-0.5-0.6-0.9-1.1-0.9c-0.6,0-1.1,0.5-1.1,1.1v1.7c0,0.3,0,0.6,0,0.9c0,0.3,0,0.6,0,0.8v8.5l-0.3,11.9l-0.1,1.7l0,1.7
			c0,0.7,0.5,1.2,1.2,1.2c0.6,0,1.1-0.5,1.1-1.2v-5.1l0-1.7V92l0-3.4l0-1.7c0-0.5,0-1.1,0-1.7l0-0.9c0,0.1,0,0.2,0,0.3
			c0.1,0.3,0.1,0.6,0.2,0.8c0,0.3,0.1,0.6,0.1,0.9c0,0.3,0.1,0.6,0.1,0.9l0.2,0.8l0.2,0.9c0.1,0.5,0.2,0.9,0.3,1.4l0.1,0.3
			c0.1,0.2,0.1,0.5,0.2,0.7c0.1,0.3,0.2,0.6,0.2,1l0.8,3.4c0.1,0.6,0.3,1.1,0.4,1.7l0.2,0.9l0.2,0.8l0.4,1.7c0.1,0.3,0.2,0.7,0.2,1
			c0,0.2,0.1,0.3,0.1,0.5v0.1l0,0.1c0.1,0.4,0.5,0.8,0.9,0.8c0.6,0,1-0.4,1-1.1L321.3,75C321.2,74.4,320.7,73.9,320.1,73.9z"/>
		<path fill="#333333" d="M338.3,79.4l0.1-0.4c0.1-0.5,0.2-0.9,0.3-1.3c0.1-0.3,0.1-0.6,0.2-0.9c0-0.2,0.1-0.3,0.1-0.5l0.1-0.6v-0.1
			c0-0.1,0-0.1,0-0.2c0-0.1,0-0.1,0-0.1c0,0,0,0,0,0c0-0.1,0-0.2,0-0.2l0-0.1l0-0.1c0.1-0.5-0.2-0.9-0.6-1.1l-0.1,0l-0.1,0
			c-0.1,0-0.2,0-0.3,0c-0.4,0-0.8,0.2-1,0.6l-0.1,0v0.2c0,0,0,0.1-0.1,0.2l0,0.1V75c0,0,0,0.1,0,0.1l-0.1,0.1v0.2c0,0,0,0.1,0,0.1
			c0,0.1-0.1,0.2-0.1,0.3l0,0.1c-0.1,0.3-0.3,0.7-0.4,1.2c-0.1,0.3-0.2,0.7-0.3,1.1l-0.1,0.6l-0.2,0.6c-0.1,0.5-0.2,0.9-0.4,1.4
			c-0.2,0.7-0.4,1.5-0.5,2.3c-0.1,0.4-0.2,0.8-0.3,1.2c-0.1-0.2-0.1-0.4-0.2-0.5l-0.2-0.7c-0.2-0.6-0.4-1.2-0.6-1.8
			c0,0-0.2-0.5-0.2-0.7l-0.2-0.6l-0.1-0.3c-0.1-0.3-0.2-0.6-0.3-1l-0.1-0.3c-0.1-0.3-0.2-0.5-0.3-0.8c-0.1-0.3-0.2-0.5-0.2-0.6
			c0-0.1-0.1-0.3-0.2-0.5c-0.1-0.3-0.2-0.6-0.2-0.8c-0.1-0.3-0.2-0.6-0.2-0.7c-0.1-0.3-0.1-0.5-0.1-0.5l0-0.5h-0.2
			c-0.2-0.2-0.5-0.4-0.8-0.4c-0.1,0-0.3,0-0.4,0.1c-0.6,0.2-0.9,0.8-0.6,1.4c0,0,0.1,0.2,0.2,0.6c0.1,0.1,0.1,0.3,0.2,0.7
			c0.1,0.2,0.1,0.3,0.2,0.6l0.1,0.3c0,0.1,0.1,0.1,0.1,0.2c0,0.1,0.1,0.1,0.1,0.2c0,0.1,0.1,0.2,0.1,0.3c0,0.1,0,0.1,0.1,0.3
			l0.4,1.1c0.1,0.4,0.2,0.9,0.4,1.2c0,0.2,0.1,0.5,0.2,0.7c0,0.2,0.1,0.4,0.2,0.6l0,0.1c0.2,0.8,0.5,1.7,0.8,2.5
			c0.1,0.4,0.2,0.8,0.4,1.2l0.4,1c0,0.1,0.1,0.2,0.1,0.3c0.1,0.2,0.1,0.4,0.2,0.5c0,0.2,0.1,0.3,0.1,0.4c0,0.1,0.1,0.2,0.1,0.2
			l0.1,0.2c0,0.1,0.1,0.1,0.1,0.2c0,0,0,0.1,0,0.1l-1.1,4.6c-0.1,0.4-0.2,0.7-0.2,1.1c-0.1,0.4-0.2,0.8-0.3,1.3l-0.2,1.1l-0.2,1
			l-0.4,1.7c-0.2,0.6-0.3,1-0.4,1.4l-0.3,1.2c-0.1,0.6,0.3,1.1,0.9,1.3l0.1,0c0.5,0,1-0.3,1.1-0.9c0,0,0.1-0.4,0.3-1.2l0.4-2
			c0.1-0.4,0.2-0.7,0.3-1.2c0-0.3,0.1-0.6,0.2-1l0.2-1l0.6-2.3c0.3-1.1,0.6-2.2,0.8-3.3l0.4-1.7l0.4-1.3c0.1-0.4,0.2-0.9,0.3-1.2
			l0.6-2.5c0.1-0.5,0.2-0.9,0.4-1.3c0.1-0.3,0.2-0.6,0.2-1C338,80.8,338.2,80.1,338.3,79.4z"/>
		<path fill="#333333" d="M347.6,89.9c0-0.4,0-0.8,0-1.2l0-1.3l0-0.1c0-0.8-0.1-1.5-0.1-2.3v-4.3c0-0.7,0-1.3-0.1-1.9
			c0-0.6-0.1-1.2-0.2-1.7c-0.1-0.6-0.3-1.2-0.6-1.7l-0.1-0.2c-0.1-0.2-0.2-0.3-0.4-0.5c-0.2-0.2-0.4-0.4-0.7-0.5
			c-0.4-0.2-0.7-0.3-1.1-0.4c-0.3,0-0.5,0-0.7,0h-0.4c-0.1,0-0.2,0-0.4,0l-0.2,0c-0.4,0.1-0.8,0.2-1.1,0.4c-0.2,0.1-0.4,0.3-0.7,0.5
			c-0.2,0.2-0.4,0.4-0.5,0.6c-0.3,0.4-0.5,0.9-0.7,1.6c-0.1,0.6-0.2,1.1-0.3,1.7c-0.2,1.4-0.2,2.9-0.2,4c0,1.5,0,3,0,4.6
			c0,1.7,0,3.4,0,5.2c0,0.9,0,1.8,0,2.7c0,0.9,0,1.9,0.1,2.9l0,0.1c0,0.5,0.1,0.9,0.2,1.4c0,0.3,0.1,0.6,0.2,0.8
			c0.1,0.3,0.2,0.6,0.3,0.9c0.1,0.2,0.3,0.6,0.6,0.9c0.1,0.1,0.2,0.2,0.4,0.3c0.1,0.1,0.3,0.2,0.5,0.3c0.2,0.1,0.5,0.2,0.7,0.2
			l0.3,0.1c0.1,0,0.3,0,0.4,0c0.1,0,0.3,0,0.4,0l0.1,0l0.1,0c0.6,0,1.2-0.1,1.8-0.4c0.3-0.1,0.6-0.3,0.9-0.6
			c0.3-0.3,0.4-0.5,0.6-0.8c0.3-0.5,0.4-1.1,0.6-1.6c0.1-0.4,0.2-0.9,0.3-1.3l0-0.2c0-0.2,0-0.5,0.1-0.7c0-0.2,0.1-0.5,0.1-0.8
			c0-0.5,0.1-0.9,0.1-1.3c0-0.3,0-0.5,0-0.8l0-0.6c0-0.5,0-0.9,0-1.4L347.6,89.9z M344.6,100.3c0,0.1,0,0.1-0.1,0.1l0,0l0,0.1
			l-0.1,0l-0.1,0.1c-0.1,0.1-0.2,0.1-0.3,0.2c-0.1,0-0.2,0.1-0.3,0.1c-0.1,0-0.2,0-0.3,0h-0.3c-0.6,0-0.9-0.1-1-0.1c0,0-0.1,0-0.1,0
			c0,0,0,0,0,0l-0.1-0.1l-0.1,0c0,0-0.1,0-0.1-0.1c0,0-0.1-0.1-0.2-0.2l-0.1-0.1c-0.1-0.3-0.3-0.6-0.3-1.1c-0.1-0.3-0.1-0.6-0.2-0.9
			L341,98c-0.1-0.8-0.1-1.7-0.1-2.6l0-0.1v-2.7c0-1.8,0-3.5,0-5.2c0-1.6,0-3.2,0.1-4.6c0-1.6,0.1-2.8,0.3-3.8c0.1-0.5,0.2-1,0.3-1.4
			c0.1-0.4,0.3-0.7,0.4-0.9c0.2-0.2,0.3-0.3,0.5-0.4c0.1-0.1,0.2-0.1,0.3-0.1h0.1l0.1,0c0.1,0,0.2,0,0.3,0h0.3c0.1,0,0.2,0,0.3,0
			l0.1,0h0.1c0.1,0,0.3,0,0.4,0c0.1,0.1,0.2,0.2,0.4,0.3c0.2,0.3,0.3,0.6,0.4,1c0.1,0.4,0.2,0.9,0.2,1.5c0.1,0.5,0.1,1.1,0.2,1.8
			c0,0.3,0,0.7,0,1c0,0.3,0,0.7,0,1l0,2.3c0,0.7,0,1.5,0,2.4c0,0.4,0,0.8,0,1.3v1.3c0,0.9,0,1.7,0,2.6v1.3c0,0.5,0,0.9,0,1.4
			c0,0.9,0,1.8-0.1,2.7c0,0.5-0.1,0.9-0.2,1.2C344.9,99.6,344.8,100,344.6,100.3z"/>
		<path fill="#333333" d="M355.7,73.9c-0.3,0-0.6,0.1-0.8,0.4c-0.2,0.2-0.3,0.6-0.3,0.8v0.6c0,0.2,0,0.4,0,0.7c0,0.3,0,0.7,0,1.2
			c0,0.4,0,0.9,0,1.4c0,0.4,0,0.9,0,1.5c0,0.5,0,1.1,0,1.7c0,0.6,0,1.2,0,1.9c0,0.7,0,1.3,0,2.1c0,0.7,0,1.4,0,2.2
			c0,0.3,0,0.7,0,1.1v1.2c0,0.4,0,0.8,0,1.2c0,0.4,0,0.8,0,1.2c0,0.4,0,0.9,0,1.3c0,0.2,0,0.4,0,0.6c0,0.2,0,0.4,0,0.6
			c0,0.8-0.1,1.7-0.2,2.5l-0.1,0.6c0,0.1,0,0.2-0.1,0.3c0,0.1-0.1,0.2-0.1,0.2c-0.1,0.3-0.3,0.7-0.5,1c-0.1,0.2-0.3,0.4-0.5,0.5
			l-0.3,0.1h-0.3l-0.2,0h-0.1l-0.1-0.1h-0.2c-0.1,0-0.2,0-0.2-0.1l0,0l-0.1,0c-0.2-0.1-0.4-0.3-0.6-0.6c-0.2-0.4-0.3-0.7-0.4-1.1
			c0-0.1-0.1-0.2-0.1-0.3c0-0.1-0.1-0.2-0.1-0.2l-0.1-0.6c-0.1-0.8-0.3-1.6-0.3-2.4c0-0.1,0-0.3,0-0.4c0-0.1,0-0.2,0-0.3
			c0-0.1,0-0.2,0-0.3c0-0.1,0-0.2,0-0.3c0-0.2,0-0.4,0-0.6c0-0.2,0-0.4,0-0.6c0-1.6,0-3.3,0-4.8c0-0.7,0-1.4,0-2.1
			c0-0.8,0-1.5,0-2.2l0.1-6.5c0-1.6,0-2.5,0-2.5c0-0.6-0.5-1.2-1.2-1.2s-1.2,0.5-1.2,1.2c0,0,0,0.9,0,2.5c0,1.5,0,3.8,0,6.5
			c0,0.6,0,1.3,0,2c0,0.7,0,1.5,0,2.3c0,0.5,0,1.1,0,1.6c0,1,0,2.1,0.1,3.3c0,0.2,0,0.4,0,0.6c0,0.2,0,0.4,0,0.6
			c0,0.4,0,0.9,0.1,1.3l0,0.2c0.1,0.8,0.1,1.6,0.3,2.5c0.2,0.9,0.3,1.9,0.8,2.8c0.1,0.3,0.3,0.5,0.5,0.8l0.7,0.7
			c0.2,0.2,0.5,0.3,0.9,0.4c0.1,0.1,0.3,0.1,0.4,0.1l0.1,0h0.1l0.1,0h0.3l0.1,0h0.1l0.2,0l0.1,0l0.5-0.1c0.3-0.1,0.6-0.2,0.9-0.4
			c0.3-0.2,0.6-0.4,0.8-0.6c0.3-0.3,0.4-0.5,0.6-0.7c0.3-0.5,0.4-1,0.6-1.5c0-0.1,0-0.2,0.1-0.2c0-0.1,0.1-0.3,0.1-0.4
			c0-0.1,0-0.2,0.1-0.2c0-0.1,0.1-0.3,0.1-0.4c0.2-1,0.3-1.8,0.4-2.7c0-0.4,0.1-0.9,0.1-1.3c0-0.2,0-0.4,0-0.6c0-0.2,0-0.4,0-0.6
			c0-0.9,0-1.7,0-2.5c0-0.4,0-0.8,0-1.2l0-1.2l0-0.1c0-0.7-0.1-1.4-0.1-2.1v-5.7c0-1.1,0-2.1,0-2.8c0-0.3,0-0.6,0-0.9
			c0-0.3,0-0.6,0-0.9v-0.7C356.9,74.4,356.4,73.9,355.7,73.9z"/>
		<path fill="#333333" d="M373.8,74.8c-0.1-0.6-0.6-1.1-1.2-1.1l-0.1,0c-0.3,0-0.6,0.2-0.8,0.5c-0.2,0.2-0.3,0.5-0.2,0.7
			c0,0,0,0.2,0,0.3c0,0.2,0,0.5,0,0.9c0,0.2,0,0.4,0,0.6c0,0.2,0,0.5,0,0.8c0,0.3,0,0.5,0,0.8c0,0.3,0,0.6,0,0.9v1.4
			c0,0.2,0,0.4,0,0.5c0,0.4,0,0.8,0,1.1c0,0.4,0,0.8,0,1.2v1.2c0,0.2,0,0.4,0,0.7c0,0.2,0,0.4,0,0.7c0,0.4,0,0.8,0,1.1
			c0,0.2,0,0.4-0.1,0.6h-0.1c-0.1,0-0.1,0-0.2,0c-0.1,0-0.2,0-0.2,0c0,0,0,0,0,0c-0.2,0-0.5,0-0.7,0c-0.1,0-0.2,0-0.3,0
			c-0.1,0-0.2,0-0.2,0c-0.1,0-0.2,0-0.4,0c-0.1,0-0.2,0-0.3,0h-1.3c-0.2,0-0.4,0-0.6,0c-0.2,0-0.3,0-0.4,0c-0.1,0-0.1,0-0.2,0l0-0.3
			c0-0.4-0.1-0.8,0-1.2c0-0.2,0-0.4,0-0.6c0-0.2,0-0.4,0-0.6l0-1.3c0-0.4,0-0.8,0-1.1c0-0.2,0-0.4,0-0.5c0-0.2,0-0.4,0-0.5
			c0-0.2,0-0.4,0-0.6v-2.3c0-0.2,0-0.3,0-0.4c0-0.1,0-0.3,0-0.4c0-0.3,0-0.5,0-0.7c0-0.2,0-0.4,0-0.6c0-0.2,0-0.4,0-0.5
			c0-0.1,0-0.2,0-0.3c0-0.1,0-0.2,0-0.2l0-0.1l0-0.3c-0.1-0.6-0.6-1-1.2-1l-0.1,0c-0.7,0.1-1.1,0.6-1.1,1.3l0,0.2
			c0,0.2,0,0.5,0.1,0.8l0,0.1c0,0.3,0,0.7,0.1,1.2l0,0.1c0,0.3,0,0.6,0,0.8c0,0.1,0,0.3,0,0.5c0,0.1,0,0.3,0,0.4c0,0.2,0,0.3,0,0.5
			c0,0.2,0,0.3,0,0.5v0.5c0,0.1,0,0.1,0,0.2c0,0.1,0,0.2,0,0.3v1.1c0,0.1,0,0.3,0,0.4c0,0.3,0,0.6,0,0.8l0,1.2
			c0,0.4,0.1,0.8,0.1,1.2c0,0.4,0,0.8,0,1.2c0,0.4-0.1,0.9-0.1,1.3c0,0.2,0,0.4,0,0.6c0,0.2,0,0.4,0,0.7l0.1,1.3c0,0.2,0,0.4,0,0.6
			c0,0.2,0,0.4,0,0.6v9.7c0,0.6,0.5,1,1.1,1c0.3,0,0.6-0.1,0.8-0.4c0.2-0.2,0.3-0.5,0.2-0.7l-0.1-4.2c0-0.3,0-0.6,0-1
			c0-0.3,0-0.7,0-1.1c0-0.7-0.1-1.4-0.1-2.2c0-0.2,0-0.4,0-0.6c0-0.2,0-0.4,0-0.6c0-0.4,0-0.8,0-1.2c0-0.4,0-0.8,0.1-1.2
			c0-0.1,0-0.2,0-0.2c0,0,0.1,0,0.2,0c0.2,0,0.3,0,0.5,0c0.2,0,0.4,0,0.5,0c0,0,0.7,0,0.7,0c0.2,0,0.3,0,0.6,0l0.5,0
			c0.2,0,0.5,0,0.7,0l0.7,0c0.1,0,0.1,0,0.2,0c0.1,0,0.2,0,0.3,0h0l0,0.3c0,0.4,0.1,0.7,0.1,1.1c0,0.4,0,0.8,0,1.2l0,1.2
			c0,0.4,0,0.8,0,1.1c0,0.4,0,0.8,0,1.2c0,0.7,0,1.4,0,2l-0.1,4.2c0,0.6,0.5,1.1,1.1,1.1c0.6,0,1.1-0.5,1.1-1.1c0,0,0-1.7,0-4.2
			c0-0.6,0-1.3,0-2v-3.5c0-0.4,0-0.8,0-1.2l0.1-1.3c0-0.4,0-0.9,0-1.3c0-0.3,0-0.7,0-1l0-0.3c0-0.4,0-0.8,0-1.2c0-0.4,0-0.8,0.1-1.2
			v-2.4c0-0.2,0-0.4,0-0.6c0-0.2,0-0.3,0-0.5c0-0.1,0-0.2,0-0.3c0-0.1,0-0.1,0-0.2v-0.5c0-0.3,0-0.6,0-1l0-0.8c0-0.3,0-0.6,0-0.9
			c0-0.5,0.1-1,0.1-1.3l0-0.2c0-0.3,0.1-0.6,0.1-0.7c0,0,0-0.1,0-0.1h0l0-0.1L373.8,74.8z"/>
		<path fill="#333333" d="M382.8,91.1c0-0.8,0-1.5,0-2.2c0-1.5,0-3.1-0.1-4.8l-0.1-1.3c-0.1-1.3-0.1-2.7-0.3-4.2
			c-0.1-0.9-0.2-1.8-0.6-2.8c-0.1-0.3-0.2-0.5-0.3-0.8c-0.1-0.2-0.2-0.4-0.3-0.5l-0.2-0.3c-0.3-0.3-0.5-0.5-0.9-0.7
			c-0.3-0.1-0.8-0.2-1.1-0.2h-0.2l-0.1,0l-0.1,0.1h-0.1l-0.1,0c-0.2,0.1-0.4,0.2-0.5,0.2c-0.4,0.2-0.6,0.4-0.9,0.6
			c-0.3,0.4-0.6,0.9-0.9,1.4l-0.3,0.8c-0.1,0.2-0.1,0.4-0.2,0.5l-0.2,0.7c0,0.1,0,0.2-0.1,0.2c0,0.1-0.1,0.3-0.1,0.4
			c-0.1,0.4-0.2,0.9-0.3,1.3c-0.1,0.4-0.2,0.9-0.3,1.4c-0.1,0.9-0.2,1.7-0.3,2.6c0,0.4-0.1,0.8-0.1,1.2c0,0.4-0.1,0.9-0.1,1.3
			c0,0.8-0.1,1.6-0.1,2.4c0,0.4,0,0.8,0,1.2v2.2c0,0.3,0,0.6,0,1c0,0.7,0,1.4,0,2c0,0.6,0,1.1,0,1.7l0,5.5c0.1,0.6,0.6,1.1,1.2,1.1
			h0l0,0c0.6-0.1,1.1-0.6,1.1-1.3l-0.1-0.6c0-0.3,0-0.6-0.1-0.9c0-0.3,0-0.6-0.1-0.9l-0.1-2.8c0-1.1-0.1-2.3-0.1-3.6v-1
			c0-0.3,0-0.7,0-1.1c0-0.2,0-0.3,0-0.5c0-0.2,0-0.4,0-0.5c0-0.1,0-0.2,0-0.3c0,0,0.1,0,0.1,0l1,0c0.3,0,0.6,0,1,0c0,0,0.6,0,0.6,0
			c0.2,0,0.4,0,0.6,0h0.9c0.1,0,0.2,0,0.2,0l0.1,0h0.1l0,0h0.1c0,0,0.1,0,0.1,0v1.4c0,0.4,0,0.7,0,1.1c0,0.3,0,0.7,0,1
			c0,0.7,0,1.3,0,1.9l0,1.7c0,0.6,0,1.1,0,1.5c0,0.5,0,0.9,0,1.3l0,0.5c0,0.6-0.1,1-0.1,1.3c0,0.4,0,0.6,0,0.7
			c0,0.6,0.5,1.1,1.1,1.1c0.6,0,1.1-0.5,1.1-1l0-0.6c0-0.5,0-1,0-1.9c0-0.4,0-0.8,0-1.3l0-3.3c0-0.6,0-1.3,0-2
			C382.8,92.5,382.8,91.8,382.8,91.1z M376.8,80.9c0-0.2,0.1-0.4,0.1-0.6l0.2-1.2c0.1-0.2,0.1-0.4,0.2-0.6c0.1-0.1,0.1-0.3,0.1-0.4
			c0-0.1,0-0.2,0.1-0.3c0.2-0.4,0.3-0.7,0.5-1.1c0.2-0.4,0.4-0.6,0.6-0.8c0.1-0.1,0.1-0.1,0.2-0.2l0.1-0.1l0.2,0c0,0,0.1,0,0.1,0
			c0.1,0,0.1,0.1,0.2,0.2c0.2,0.2,0.3,0.4,0.5,0.8c0.2,0.4,0.3,0.7,0.4,1.2c0.1,0.4,0.2,0.8,0.3,1.2l0.1,0.5c0,0.2,0,0.4,0.1,0.7
			c0,0.4,0.1,0.8,0.1,1.3c0.1,0.6,0.1,1.1,0.1,1.7c0,0.3,0,0.6,0,0.8v2.5c0,0.2,0,0.5,0,0.7c0,0.1,0,0.1,0,0.2h-0.1l0,0l-0.2,0
			c0,0-0.9,0-0.9,0c-0.1,0-0.2,0-0.5,0h-1.1c0,0,0,0,0,0c-0.3,0-0.6,0-1,0c0,0-0.9,0-0.9,0c0.1-1.1,0.2-2.3,0.3-3.4l0.3-2.5
			C376.8,81.3,376.8,81.1,376.8,80.9z"/>
		<path fill="#333333" d="M391,73.7l-0.1,0c-0.6,0-1.1,0.5-1.2,1.1c0,0.3,0,0.6-0.1,0.9c0,0.3-0.1,0.6-0.1,0.9l-0.1,0.8l-0.1,0.9
			l-0.2,1.7c0,0.5-0.1,1.1-0.2,1.7l-0.4,3.4l-0.2,1.7c-0.1,0.6-0.2,1.1-0.3,1.7l-0.7,5.1c-0.1,0.4-0.1,0.8-0.2,1.2
			c-0.1-0.4-0.4-2.8-0.4-2.8l-0.4-3.4c-0.1-1.2-0.2-2.3-0.4-3.4l-0.2-1.7l-0.2-1.7l-0.2-1.7l-0.2-1.7l-0.2-1.7l-0.1-1.8
			c-0.1-0.6-0.6-1-1.2-1l-0.1,0c-0.6,0.1-1.1,0.6-1,1.3c0,0.3,0.1,0.5,0.1,0.8c0,0.3,0.1,0.6,0.1,0.9l0.2,1.7l0.2,1.7l1.4,10.2
			l0.3,1.7l0.3,1.9c0.1,0.5,0.1,1,0.2,1.5l0.2,1.7c0,0.3,0,0.5,0.1,0.8c0,0.3,0.1,0.6,0.1,0.9l0.2,1.7l0.2,1.7c0.1,0.5,0.4,0.9,1,1
			l0.1,0c0.6,0,1.1-0.4,1.2-0.9l0-0.1c0-0.2,0-0.3,0-0.5l0.1-1.3c0-0.3,0-0.6,0.1-0.8c0-0.3,0.1-0.6,0.1-0.8l0.2-1.7
			c0-0.3,0.1-0.6,0.1-0.9c0-0.3,0.1-0.5,0.1-0.8c0.1-0.6,0.2-1.2,0.3-1.7l0.2-1.7l0.4-3.4c0-0.3,0.1-0.6,0.1-0.9
			c0-0.3,0.1-0.6,0.1-0.9c0-0.5,0.1-1.1,0.2-1.7l0.7-5.1l0.3-1.7l0.1-0.8l0.2-0.9c0.1-0.6,0.2-1.2,0.3-1.7c0-0.3-0.1-0.6-0.3-0.9
			C391.6,73.9,391.3,73.7,391,73.7z"/>
		<path fill="#333333" d="M395,76.1c0.3,0,0.5,0,0.8,0c0.2,0,0.5,0,0.8,0l0.7,0l0.8,0l0.7,0l0.9,0c0.3,0,0.6-0.2,0.8-0.5
			c0.2-0.3,0.3-0.6,0.2-0.8c-0.1-0.6-0.6-1-1.2-1c0,0-0.1,0-0.1,0l-0.1,0c-0.2,0-0.4,0.1-0.7,0.1l-0.7,0.1l-1.6,0.2
			c-0.5,0-1,0.1-1.4,0.1l-1.5,0.1h-0.1l0,0c-0.5,0.1-0.8,0.5-0.8,0.9V76c0,0.1,0,0.3,0,0.4c0,0.1,0,0.3,0,0.4c0,0.3,0,0.6,0,0.9
			c0,0.1,0,0.3,0,0.4c0,0.1,0,0.3,0,0.4l0,1.7l0,3.4c0,0.5,0,1.1,0,1.6c0,0.5,0,1.1-0.1,1.6c0,0.6-0.1,1.1-0.1,1.7
			c0,0.6,0,1.2,0,1.7c0,0.3,0,0.6,0,0.8c0,0.3,0,0.5,0,0.8c0,0.5,0,1.1,0,1.6v3.3l-0.1,5.2c0,0.5,0.4,1,0.9,1l6.4,0
			c0.6,0,1.1-0.5,1.1-1c0-0.6-0.5-1.1-1-1.1l-5.4,0.1v-5.9c0-0.5,0-1.1,0-1.7c0-0.3,0-0.5,0-0.8c0-0.3,0-0.6,0-0.8l0.1-1.6
			c0-0.2,0-0.4,0-0.6l0.1,0c0,0,0.1,0,0.1,0c0.1,0,0.1,0,0.2,0c0.1,0,0.2,0,0.4,0c0.1,0,0.3,0,0.4,0c0.1,0,0.3,0,0.4,0
			c0.3,0,0.6,0,0.8,0h0.7c0.4,0,0.7,0,0.7,0c0.3,0,0.6-0.1,0.8-0.3c0.2-0.2,0.3-0.5,0.2-0.7c0-0.6-0.5-1-1.1-1c0,0,0,0,0,0
			c0,0-0.3,0-0.7,0c-0.2,0-0.5,0-0.7,0c-0.1,0-0.3,0-0.4,0c-0.1,0-0.3,0-0.4,0c-0.2,0-0.3,0-0.5,0c-0.1,0-0.2,0-0.3,0h-0.3
			c-0.1,0-0.2,0-0.3,0c0-0.2,0-0.4,0-0.6c0-0.5,0-1.1,0-1.6c0-0.5,0-1.1,0.1-1.7c0-0.3,0-0.5,0-0.8c0-0.3,0-0.6,0-0.8v-4.2
			c0-0.3,0-0.6,0-0.8v-0.8L395,76.1z"/>
		<path fill="#333333" d="M346.5,131.6c0-0.8,0-1.5,0-2.2c0-1.5,0-3.1-0.1-4.7l0-0.2l0-1.1c-0.1-1.3-0.1-2.7-0.3-4.2
			c-0.1-0.9-0.2-1.8-0.6-2.8c-0.1-0.3-0.2-0.5-0.3-0.8c-0.1-0.2-0.2-0.4-0.3-0.5l-0.2-0.3c-0.3-0.3-0.5-0.5-0.9-0.7
			c-0.3-0.1-0.8-0.2-1.1-0.2h-0.2l-0.1,0l-0.1,0.1h-0.1l-0.1,0c-0.2,0.1-0.4,0.2-0.5,0.2c-0.4,0.2-0.6,0.4-0.9,0.6
			c-0.3,0.4-0.6,0.8-0.9,1.4l-0.3,0.8c-0.1,0.2-0.1,0.4-0.2,0.5l-0.2,0.7c0,0.1,0,0.2-0.1,0.2c0,0.1-0.1,0.3-0.1,0.4
			c-0.1,0.4-0.2,0.9-0.3,1.3c-0.1,0.4-0.2,0.9-0.3,1.4c-0.1,0.9-0.2,1.7-0.3,2.6c0,0.4-0.1,0.8-0.1,1.2c0,0.4-0.1,0.9-0.1,1.3
			c0,0.8-0.1,1.6-0.1,2.3c0,0.4,0,0.8,0,1.2v2.2c0,0.3,0,0.6,0,1c0,0.7,0,1.4,0,2c0,0.6,0,1.1,0,1.7l0,5.5c0.1,0.6,0.6,1.1,1.2,1.1
			h0l0,0c0.6-0.1,1.1-0.6,1.1-1.3l-0.1-0.6c0-0.3,0-0.6-0.1-0.9c0-0.3,0-0.6-0.1-0.9l-0.1-2.8c0-1.1-0.1-2.3-0.1-3.6v-1
			c0-0.3,0-0.7,0-1.1c0-0.2,0-0.3,0-0.5c0-0.2,0-0.4,0-0.5c0-0.1,0-0.2,0-0.3c0,0,0.1,0,0.1,0l1,0c0.3,0,0.6,0,1,0c0,0,0.6,0,0.6,0
			c0.2,0,0.4,0,0.6,0h0.9c0.1,0,0.2,0,0.2,0l0.1,0h0.1l0,0h0.1c0,0,0.1,0,0.1,0v1.4c0,0.4,0,0.7,0,1.1c0,0.3,0,0.7,0,1
			c0,0.7,0,1.3,0,1.9l0,1.7c0,0.6,0,1.1,0,1.5c0,0.5,0,0.9,0,1.3l0,0.6c0,0.5,0,1,0,1.3c0,0.4,0,0.6,0,0.7c0,0.6,0.5,1.1,1.1,1.1
			c0.6,0,1.1-0.5,1.1-1l0-0.6c0-0.5,0-1,0-1.9c0-0.4,0-0.8,0-1.3l0-3.3c0-0.6,0-1.3,0-2C346.5,133,346.5,132.3,346.5,131.6z
			 M340.6,121.4c0-0.2,0.1-0.5,0.1-0.6l0.2-1.2c0.1-0.2,0.1-0.4,0.2-0.6c0.1-0.1,0.1-0.3,0.1-0.4c0-0.1,0-0.2,0.1-0.2
			c0.2-0.4,0.3-0.8,0.5-1.1c0.2-0.4,0.4-0.6,0.6-0.8c0,0,0.1-0.1,0.2-0.2l0.1-0.1l0.2,0c0,0,0.1,0,0.1,0c0.1,0.1,0.1,0.1,0.2,0.2
			c0.2,0.2,0.3,0.4,0.5,0.8c0.2,0.4,0.3,0.7,0.4,1.2c0.1,0.4,0.2,0.8,0.3,1.2l0.1,0.5c0,0.2,0,0.4,0.1,0.7c0,0.4,0.1,0.8,0.1,1.3
			c0.1,0.6,0.1,1.1,0.1,1.7c0,0.3,0,0.6,0,0.8v2.5c0,0.2,0,0.5,0,0.7c0,0.1,0,0.1,0,0.2h-0.1l0,0l-0.2,0c0,0-0.9,0-0.9,0
			c-0.1,0-0.2,0-0.5,0h-1.1c0,0,0,0,0,0c-0.3,0-0.6,0-1,0c0,0-0.9,0-0.9,0c0.1-1.1,0.2-2.2,0.3-3.4l0.3-2.5
			C340.5,121.8,340.5,121.6,340.6,121.4z"/>
	</g>
	<g>
		<g>
			<g>
				<path fill="#FFFFFF" d="M362.4,454.9c0.3,0,0.7,0.3,0.7,0.3l-5.7,11.8c-0.6,0-2.1,0.1-2.5,0.1c-0.3,0-0.7-0.3-0.7-0.3l-1.9-11.8
					c1.2,0,2.7-0.1,3.1-0.1c0.3,0,0.7,0.3,0.7,0.3l0.6,5.8c0.1,0.5,0.1,1.2,0,1.9c0.2-0.8,0.4-1.5,0.6-2.1l2.4-5.8
					C360.7,455,362,454.9,362.4,454.9L362.4,454.9z"/>
			</g>
			<g>
				<path fill="#FFFFFF" d="M368.3,460.7c0,1.3-0.7,2.1-2.6,2.5l-1.9,0.4c0.2,0.8,0.7,1.2,1.5,1.2c1.1,0,1.8-0.8,1.8-0.8
					s0.5,0.3,0.5,0.9c0,1.1-1.7,2.2-3.7,2.2c-2,0-3.3-1.2-3.3-3.3c0-2.4,1.7-5.6,4.8-5.6C367.2,458.2,368.3,459.2,368.3,460.7
					L368.3,460.7z M365,461.9c0.4-0.1,0.5-0.5,0.5-0.8c0-0.4-0.1-0.9-0.5-0.9c-0.8,0-1.1,1.2-1.2,2.1L365,461.9z"/>
			</g>
			<g>
				<path fill="#FFFFFF" d="M373.5,458.2c1.6,0,2.7,0.8,2.7,1.9c0,1.3-1.6,1.8-1.6,1.8s-0.5-1.4-1.6-1.4c-0.7,0-1.2,0.7-1.2,2.3
					c0,1.4,0.4,2.1,1.3,2.1c1,0,1.6-0.6,1.6-0.6s0.5,0.3,0.5,0.9c0,1-1.6,2.1-3.5,2.1c-2,0-3.3-1.2-3.3-3.3
					C368.5,461.5,370.3,458.2,373.5,458.2L373.5,458.2z"/>
			</g>
			<g>
				<path fill="#FFFFFF" d="M381,456.3c0.4,0,0.6,0.3,0.6,0.3l-0.3,1.8h2l-0.4,1.4c-0.1,0.4-0.4,0.7-0.8,0.7h-1l-0.6,3.5
					c-0.1,0.6,0,0.8,0.4,0.8c0.4,0,0.7-0.2,0.7-0.2s0.5,0.3,0.5,0.9c0,0.9-1.3,1.7-2.9,1.7c-1.7,0-2.4-1-2.1-2.8l0.6-3.9h-1.1
					l0.5-1.4c0.1-0.4,0.4-0.6,0.8-0.6h0.5l0.6-1.7C379.9,456.6,380.6,456.3,381,456.3L381,456.3z"/>
			</g>
			<g>
				<path fill="#FFFFFF" d="M390.5,460.7c0,1.3-0.7,2.1-2.6,2.5l-1.9,0.4c0.2,0.8,0.7,1.2,1.5,1.2c1.1,0,1.8-0.8,1.8-0.8
					s0.5,0.3,0.5,0.9c0,1.1-1.7,2.2-3.7,2.2c-2,0-3.3-1.2-3.3-3.3c0-2.4,1.7-5.6,4.8-5.6C389.5,458.2,390.5,459.2,390.5,460.7
					L390.5,460.7z M387.3,461.9c0.4-0.1,0.5-0.5,0.5-0.8c0-0.4-0.1-0.9-0.5-0.9c-0.8,0-1.1,1.2-1.2,2.1L387.3,461.9z"/>
			</g>
			<g>
				<path fill="#FFFFFF" d="M398.4,460.7c0,1.3-0.7,2.1-2.6,2.5l-1.9,0.4c0.1,0.8,0.7,1.2,1.5,1.2c1.1,0,1.8-0.8,1.8-0.8
					s0.5,0.3,0.5,0.9c0,1.1-1.7,2.2-3.7,2.2c-2,0-3.3-1.2-3.3-3.3c0-2.4,1.7-5.6,4.8-5.6C397.3,458.2,398.4,459.2,398.4,460.7
					L398.4,460.7z M395.1,461.9c0.4-0.1,0.5-0.5,0.5-0.8c0-0.4-0.1-0.9-0.5-0.9c-0.8,0-1.1,1.2-1.2,2.1L395.1,461.9z"/>
			</g>
			<g>
				<path fill="#FFFFFF" d="M404.8,463.9c0,0,0.7,0.6,0.7,1.6c0,1.3-1.1,1.7-2.1,1.7c-1.3,0-2.2-0.6-3.1-0.9
					c-0.3,0.3-0.5,0.6-0.8,0.9c0,0-1.4,0-1.4-1c0-1.1,2-3.1,4.1-5.3c-0.2,0-0.5-0.1-0.7-0.1c-1.2,0-1.7,0.6-1.7,0.6
					s-0.6-0.7-0.6-1.6c0.1-1.2,1.3-1.6,2.2-1.6c1,0,1.8,0.4,2.5,0.7l0.6-0.7c0,0,1.4,0,1.4,1c0,1.1-1.9,3-3.9,5.2
					c0.4,0.1,0.8,0.2,1.2,0.2C404.3,464.6,404.8,463.9,404.8,463.9L404.8,463.9z"/>
			</g>
			<g>
				<path fill="#FFFFFF" d="M414,466.4c-0.5,3-2.6,4.5-5.3,4.5c-1.7,0-3-0.9-3-1.9c0-0.7,0.6-1,0.6-1s0.6,0.5,1.7,0.5
					c1.1,0,2.5-0.4,2.8-2l0.2-1.2c-0.7,1-1.7,1.8-2.9,1.8c-1.4,0-2-1.1-1.6-3.3l0.4-2.4c0.2-1.5,0.3-2.6,0.3-2.6
					c1-0.2,2.2-0.6,2.7-0.6c0.3,0,0.7,0.3,0.7,0.3l-0.5,3l-0.4,2.8c0,0.3,0,0.4,0.2,0.4c1.1,0,1.8-3.1,1.8-3.1
					c0.2-1.5,0.3-2.6,0.3-2.6c1-0.2,2.2-0.6,2.7-0.6c0.3,0,0.7,0.3,0.7,0.3l-0.5,3L414,466.4z"/>
			</g>
		</g>
		<g>
			<path fill="#FFFFFF" d="M283.2,458.7h3c0.7,0,1.2,0.1,1.6,0.2c0.5,0.1,0.9,0.4,1.2,0.7c0.3,0.4,0.6,0.8,0.8,1.3
				c0.2,0.5,0.3,1.1,0.3,1.9c0,0.7-0.1,1.2-0.3,1.7c-0.2,0.6-0.5,1.1-0.9,1.4c-0.3,0.3-0.7,0.5-1.2,0.6c-0.4,0.1-0.9,0.2-1.5,0.2
				h-3.1V458.7z M284.9,460.1v5.3h1.2c0.5,0,0.8,0,1-0.1c0.3-0.1,0.5-0.2,0.7-0.3c0.2-0.2,0.3-0.4,0.4-0.8c0.1-0.4,0.2-0.8,0.2-1.5
				s-0.1-1.1-0.2-1.4c-0.1-0.3-0.3-0.6-0.5-0.8c-0.2-0.2-0.5-0.3-0.8-0.4c-0.2-0.1-0.7-0.1-1.4-0.1H284.9z"/>
			<path fill="#FFFFFF" d="M294.7,464.9l1.6,0.3c-0.2,0.6-0.5,1-1,1.3c-0.4,0.3-1,0.4-1.6,0.4c-1,0-1.8-0.3-2.3-1
				c-0.4-0.5-0.6-1.2-0.6-2c0-1,0.3-1.7,0.8-2.3s1.2-0.8,2-0.8c0.9,0,1.6,0.3,2.1,0.9c0.5,0.6,0.8,1.4,0.7,2.6h-4
				c0,0.5,0.1,0.8,0.4,1.1c0.2,0.3,0.5,0.4,0.9,0.4c0.2,0,0.5-0.1,0.6-0.2C294.5,465.4,294.7,465.2,294.7,464.9z M294.8,463.3
				c0-0.4-0.1-0.8-0.4-1s-0.5-0.3-0.8-0.3c-0.3,0-0.6,0.1-0.9,0.4s-0.3,0.6-0.3,1H294.8z"/>
			<path fill="#FFFFFF" d="M296.9,465.1l1.6-0.2c0.1,0.3,0.2,0.5,0.4,0.7c0.2,0.2,0.5,0.2,0.9,0.2c0.4,0,0.7-0.1,0.9-0.2
				c0.1-0.1,0.2-0.2,0.2-0.4c0-0.1,0-0.2-0.1-0.3c-0.1-0.1-0.3-0.1-0.5-0.2c-1.3-0.3-2.1-0.5-2.4-0.7c-0.5-0.3-0.7-0.7-0.7-1.3
				c0-0.5,0.2-0.9,0.6-1.3c0.4-0.3,1-0.5,1.9-0.5c0.8,0,1.4,0.1,1.8,0.4c0.4,0.3,0.7,0.6,0.8,1.1l-1.5,0.3c-0.1-0.2-0.2-0.4-0.4-0.5
				c-0.2-0.1-0.4-0.2-0.8-0.2c-0.4,0-0.7,0.1-0.9,0.2c-0.1,0.1-0.2,0.2-0.2,0.3c0,0.1,0.1,0.2,0.2,0.3c0.1,0.1,0.6,0.2,1.5,0.4
				c0.8,0.2,1.4,0.4,1.8,0.7c0.3,0.3,0.5,0.7,0.5,1.1c0,0.5-0.2,1-0.7,1.4c-0.5,0.4-1.1,0.6-2,0.6c-0.8,0-1.5-0.2-1.9-0.5
				C297.4,466,297.1,465.6,296.9,465.1z"/>
			<path fill="#FFFFFF" d="M303.6,460.1v-1.4h1.6v1.4H303.6z M303.6,466.7v-5.8h1.6v5.8H303.6z"/>
			<path fill="#FFFFFF" d="M306.4,467.1l1.8,0.2c0,0.2,0.1,0.3,0.2,0.4c0.2,0.1,0.4,0.2,0.7,0.2c0.4,0,0.7-0.1,0.9-0.2
				c0.1-0.1,0.2-0.2,0.3-0.4c0-0.1,0.1-0.4,0.1-0.7v-0.8c-0.5,0.6-1.1,0.9-1.8,0.9c-0.8,0-1.4-0.3-1.9-1c-0.4-0.5-0.5-1.2-0.5-1.9
				c0-1,0.2-1.7,0.7-2.2c0.5-0.5,1.1-0.8,1.8-0.8c0.7,0,1.3,0.3,1.8,0.9v-0.8h1.5v5.2c0,0.7-0.1,1.2-0.2,1.5
				c-0.1,0.3-0.3,0.6-0.5,0.8c-0.2,0.2-0.5,0.3-0.8,0.5s-0.8,0.2-1.3,0.2c-1,0-1.7-0.2-2.2-0.5c-0.4-0.3-0.6-0.8-0.6-1.3
				C306.4,467.2,306.4,467.2,306.4,467.1z M307.9,463.7c0,0.6,0.1,1.1,0.4,1.4c0.2,0.3,0.5,0.4,0.9,0.4c0.4,0,0.7-0.1,1-0.4
				c0.3-0.3,0.4-0.7,0.4-1.3c0-0.6-0.1-1-0.4-1.3c-0.3-0.3-0.6-0.4-1-0.4c-0.4,0-0.7,0.1-0.9,0.4C308,462.7,307.9,463.1,307.9,463.7
				z"/>
			<path fill="#FFFFFF" d="M318.8,466.7h-1.6v-3c0-0.6,0-1-0.1-1.2c-0.1-0.2-0.2-0.3-0.3-0.4c-0.1-0.1-0.3-0.2-0.5-0.2
				c-0.3,0-0.5,0.1-0.7,0.2c-0.2,0.1-0.4,0.3-0.4,0.6c-0.1,0.2-0.1,0.7-0.1,1.3v2.6h-1.6v-5.8h1.5v0.9c0.5-0.7,1.2-1,2-1
				c0.3,0,0.7,0.1,1,0.2c0.3,0.1,0.5,0.3,0.7,0.5c0.1,0.2,0.3,0.4,0.3,0.6c0.1,0.2,0.1,0.6,0.1,1V466.7z"/>
			<path fill="#FFFFFF" d="M323.6,464.9l1.6,0.3c-0.2,0.6-0.5,1-1,1.3c-0.4,0.3-1,0.4-1.6,0.4c-1,0-1.8-0.3-2.3-1
				c-0.4-0.5-0.6-1.2-0.6-2c0-1,0.3-1.7,0.8-2.3c0.5-0.5,1.2-0.8,2-0.8c0.9,0,1.6,0.3,2.1,0.9c0.5,0.6,0.8,1.4,0.7,2.6h-4
				c0,0.5,0.1,0.8,0.4,1.1c0.2,0.3,0.5,0.4,0.9,0.4c0.2,0,0.5-0.1,0.6-0.2S323.5,465.2,323.6,464.9z M323.7,463.3
				c0-0.4-0.1-0.8-0.4-1c-0.2-0.2-0.5-0.3-0.8-0.3c-0.3,0-0.6,0.1-0.9,0.4s-0.3,0.6-0.3,1H323.7z"/>
			<path fill="#FFFFFF" d="M331.8,466.7h-1.5v-0.9c-0.2,0.3-0.5,0.6-0.9,0.7c-0.3,0.2-0.7,0.2-1,0.2c-0.7,0-1.3-0.3-1.8-0.8
				c-0.5-0.5-0.7-1.3-0.7-2.2c0-1,0.2-1.7,0.7-2.2c0.5-0.5,1.1-0.8,1.8-0.8c0.7,0,1.2,0.3,1.7,0.8v-2.9h1.6V466.7z M327.6,463.7
				c0,0.6,0.1,1.1,0.3,1.3c0.3,0.4,0.6,0.6,1.1,0.6c0.4,0,0.7-0.2,0.9-0.4c0.3-0.3,0.4-0.7,0.4-1.3c0-0.7-0.1-1.1-0.4-1.4
				c-0.2-0.3-0.6-0.4-0.9-0.4c-0.4,0-0.7,0.1-0.9,0.4C327.7,462.7,327.6,463.1,327.6,463.7z"/>
			<path fill="#FFFFFF" d="M336,466.7v-8h1.6v2.9c0.5-0.5,1.1-0.8,1.7-0.8c0.7,0,1.3,0.3,1.8,0.8c0.5,0.5,0.7,1.2,0.7,2.2
				c0,1-0.2,1.8-0.7,2.3c-0.5,0.5-1.1,0.8-1.8,0.8c-0.3,0-0.7-0.1-1-0.2c-0.3-0.2-0.6-0.4-0.9-0.7v0.9H336z M337.6,463.7
				c0,0.6,0.1,1,0.3,1.3c0.3,0.4,0.6,0.6,1.1,0.6c0.3,0,0.6-0.1,0.9-0.4s0.4-0.7,0.4-1.4c0-0.7-0.1-1.1-0.4-1.4
				c-0.2-0.3-0.6-0.4-0.9-0.4c-0.4,0-0.7,0.1-0.9,0.4S337.6,463.1,337.6,463.7z"/>
			<path fill="#FFFFFF" d="M348,460.4c-0.4,0-0.7,0.2-0.9,0.5h-0.5l-1.4,4.1l-1.4-4.1h-1.7l2.3,5.8c-0.1,0.3-0.2,0.6-0.4,0.8
				c-0.2,0.2-0.4,0.3-0.8,0.3c-0.2,0-0.4,0-0.7-0.1l0.1,1.2c0.3,0.1,0.6,0.1,0.9,0.1c0.3,0,0.6,0,0.8-0.1c0.2-0.1,0.4-0.1,0.6-0.3
				s0.3-0.3,0.4-0.4c0.1-0.2,0.3-0.4,0.4-0.8l0.4-1l1.5-4c0.1,0,0.2,0.1,0.3,0.1C349.4,462.6,349.4,460.4,348,460.4z"/>
		</g>
	</g>
	<g>
		<g>
			<path fill="#EB969C" d="M541.2,97.5c-0.2-0.4-0.7-0.6-1.1-0.5c-1.7,0.7-3.1,1.5-4.2,3.1c-0.4,0.6-0.7,2.2-1.2,3.3
				c-2.5-3.4-9-6-10.5-0.6c-1.5,5.4,6.6,8.3,10.3,10.1c0.4,0.2,0.7,0.1,1-0.1c-0.2,0.2-0.3,0.3-0.5,0.5c-1,0.9,0.5,2.3,1.4,1.4
				C541.2,110.4,544.7,103.7,541.2,97.5z"/>
			<path fill="#333333" d="M541.2,97.5c-0.2-0.4-0.7-0.6-1.1-0.5c-1.7,0.7-3.1,1.5-4.2,3.1c-0.4,0.6-0.7,2.2-1.2,3.3
				c-2.5-3.4-9-6-10.5-0.6c-1.5,5.4,6.6,8.3,10.3,10.1c0.4,0.2,0.7,0.1,1-0.1c-0.2,0.2-0.3,0.3-0.5,0.5c-1,0.9,0.5,2.3,1.4,1.4
				C541.2,110.4,544.7,103.7,541.2,97.5z M535.9,112.4c0.3-0.4,0.2-1-0.3-1.3c-3.1-1.5-7.4-3-9.3-6.1c-0.5-0.8-0.1-2.3,0.5-3
				c0.6-0.7,1.7-0.5,2.5-0.3c1.5,0.4,3,1.5,3.9,2.8c-0.6,0.6-0.5,1.8,0.6,1.7c1.3-0.1,2.1-0.6,2.7-1.8c1.1-2.3,1.2-4,3.5-5.2
				C542,104.1,539.3,109,535.9,112.4z"/>
		</g>
		<g>
			<path fill="#EB969C" d="M657,244.9c-0.2-0.4-0.7-0.6-1.1-0.5c-1.7,0.7-3.1,1.5-4.2,3.1c-0.4,0.6-0.7,2.2-1.2,3.3
				c-2.5-3.4-9-6-10.5-0.6c-1.5,5.4,6.6,8.3,10.3,10.1c0.4,0.2,0.7,0.1,1-0.1c-0.2,0.2-0.3,0.3-0.5,0.5c-1,0.9,0.5,2.3,1.4,1.4
				C657,257.8,660.5,251.1,657,244.9z"/>
			<path fill="#333333" d="M657,244.9c-0.2-0.4-0.7-0.6-1.1-0.5c-1.7,0.7-3.1,1.5-4.2,3.1c-0.4,0.6-0.7,2.2-1.2,3.3
				c-2.5-3.4-9-6-10.5-0.6c-1.5,5.4,6.6,8.3,10.3,10.1c0.4,0.2,0.7,0.1,1-0.1c-0.2,0.2-0.3,0.3-0.5,0.5c-1,0.9,0.5,2.3,1.4,1.4
				C657,257.8,660.5,251.1,657,244.9z M651.7,259.9c0.3-0.4,0.2-1-0.3-1.3c-3.1-1.5-7.4-3-9.3-6.1c-0.5-0.8-0.1-2.3,0.5-3
				c0.6-0.7,1.7-0.5,2.5-0.3c1.5,0.4,3,1.5,3.9,2.8c-0.6,0.6-0.5,1.8,0.6,1.7c1.3-0.1,2.1-0.6,2.7-1.8c1.1-2.3,1.2-4,3.5-5.2
				C657.8,251.5,655.1,256.4,651.7,259.9z"/>
		</g>
		<g>
			<path fill="#EB969C" d="M84,346.7c-0.2-0.4-0.7-0.6-1.1-0.5c-1.7,0.7-3.1,1.5-4.2,3.1c-0.4,0.6-0.7,2.2-1.2,3.3
				c-2.5-3.4-9-6-10.5-0.6c-1.5,5.4,6.6,8.3,10.3,10.1c0.4,0.2,0.7,0.1,1-0.1c-0.2,0.2-0.3,0.3-0.5,0.5c-1,0.9,0.5,2.3,1.4,1.4
				C84,359.5,87.4,352.9,84,346.7z"/>
			<path fill="#333333" d="M84,346.7c-0.2-0.4-0.7-0.6-1.1-0.5c-1.7,0.7-3.1,1.5-4.2,3.1c-0.4,0.6-0.7,2.2-1.2,3.3
				c-2.5-3.4-9-6-10.5-0.6c-1.5,5.4,6.6,8.3,10.3,10.1c0.4,0.2,0.7,0.1,1-0.1c-0.2,0.2-0.3,0.3-0.5,0.5c-1,0.9,0.5,2.3,1.4,1.4
				C84,359.5,87.4,352.9,84,346.7z M78.6,361.6c0.3-0.4,0.2-1-0.3-1.3c-3.1-1.5-7.4-3-9.3-6.1c-0.5-0.8-0.1-2.3,0.5-3
				c0.6-0.7,1.7-0.5,2.5-0.3c1.5,0.4,3,1.5,3.9,2.8c-0.6,0.6-0.5,1.8,0.6,1.7c1.3-0.1,2.1-0.6,2.7-1.8c1.1-2.3,1.2-4,3.5-5.2
				C84.8,353.2,82.1,358.1,78.6,361.6z"/>
		</g>
		<g>
			<path fill="#EB969C" d="M197.7,56.4c-0.2-0.4-0.7-0.6-1.1-0.5c-1.7,0.7-3.1,1.5-4.2,3.1c-0.4,0.6-0.7,2.2-1.2,3.3
				c-2.5-3.4-9-6-10.5-0.6c-1.5,5.4,6.6,8.3,10.3,10.1c0.4,0.2,0.7,0.1,1-0.1c-0.2,0.2-0.3,0.3-0.5,0.5c-1,0.9,0.5,2.3,1.4,1.4
				C197.7,69.3,201.1,62.6,197.7,56.4z"/>
			<path fill="#333333" d="M197.7,56.4c-0.2-0.4-0.7-0.6-1.1-0.5c-1.7,0.7-3.1,1.5-4.2,3.1c-0.4,0.6-0.7,2.2-1.2,3.3
				c-2.5-3.4-9-6-10.5-0.6c-1.5,5.4,6.6,8.3,10.3,10.1c0.4,0.2,0.7,0.1,1-0.1c-0.2,0.2-0.3,0.3-0.5,0.5c-1,0.9,0.5,2.3,1.4,1.4
				C197.7,69.3,201.1,62.6,197.7,56.4z M192.3,71.4c0.3-0.4,0.2-1-0.3-1.3c-3.1-1.5-7.4-3-9.3-6.1c-0.5-0.8-0.1-2.3,0.5-3
				c0.6-0.7,1.7-0.5,2.5-0.3c1.5,0.4,3,1.5,3.9,2.8c-0.6,0.6-0.5,1.8,0.6,1.7c1.3-0.1,2.1-0.6,2.7-1.8c1.1-2.3,1.2-4,3.5-5.2
				C198.4,63,195.8,67.9,192.3,71.4z"/>
		</g>
		<path fill="#333333" d="M122,248.4c-0.4-1.1-1.9-0.9-2,0.3c-0.1,1.7-0.7,3.1-1.3,4.6c-1.3-1.8-2.6-3.5-3.4-5.5
			c-0.4-0.9-2.1-1-2,0.3c0.3,2.4-0.1,4.6-0.4,6.9c-1.7-1.8-3.6-3.4-5-5.4c-0.6-0.8-1.8-0.5-1.9,0.5c-0.2,2.9-1.6,5.9-1.5,8.8
			c0,0.3,0.2,0.7,0.5,0.9c0,0,0,0,0,0c0.5,0.2,1.1,0.1,1.4-0.4c0,0,0.1-0.1,0.1-0.1c0.2-0.3,0.2-0.7,0-0.9c0,0,0,0,0,0
			c0.1-0.3,0.1-0.7,0.2-1c0.2-0.9,0.3-1.8,0.5-2.6c0.1-0.7,0.3-1.5,0.4-2.2c1.7,1.8,3.6,3.5,5.1,5.5c0.6,0.8,1.8,0.5,1.9-0.5
			c0.1-1.9,0.5-3.7,0.7-5.5c0.9,1.4,1.9,2.7,2.8,4c0.5,0.7,1.5,0.6,1.8-0.2c0.5-1.3,1-2.5,1.4-3.7c0.6,1.2,1.1,2.4,1.4,3.7
			c0.2,1.3,2.2,0.7,1.9-0.5C124.2,252.8,122.8,250.6,122,248.4z"/>
		<path fill="#333333" d="M87.6,104.7c-0.4-1.1-1.9-0.9-2,0.3c-0.1,1.7-0.7,3.1-1.3,4.6c-1.3-1.8-2.6-3.5-3.4-5.5
			c-0.4-0.9-2.1-1-2,0.3c0.3,2.4-0.1,4.6-0.4,6.9c-1.7-1.8-3.6-3.4-5-5.4c-0.6-0.8-1.8-0.5-1.9,0.5c-0.2,2.9-1.6,5.9-1.5,8.8
			c0,0.3,0.2,0.7,0.5,0.9c0,0,0,0,0,0c0.5,0.2,1.1,0.1,1.4-0.4c0,0,0.1-0.1,0.1-0.1c0.2-0.3,0.2-0.7,0-0.9c0,0,0,0,0,0
			c0.1-0.3,0.1-0.7,0.2-1c0.2-0.9,0.3-1.8,0.5-2.6c0.1-0.7,0.3-1.5,0.4-2.2c1.7,1.8,3.6,3.5,5.1,5.5c0.6,0.8,1.8,0.5,1.9-0.5
			c0.1-1.9,0.5-3.7,0.7-5.5c0.9,1.4,1.9,2.7,2.8,4c0.5,0.7,1.5,0.6,1.8-0.2c0.5-1.3,1-2.5,1.4-3.7c0.6,1.2,1.1,2.4,1.4,3.7
			c0.2,1.3,2.2,0.7,1.9-0.5C89.8,109.1,88.3,106.9,87.6,104.7z"/>
		<path fill="#333333" d="M637.1,347.5c-0.4-1.1-1.9-0.9-2,0.3c-0.1,1.7-0.7,3.1-1.3,4.6c-1.3-1.8-2.6-3.5-3.4-5.5
			c-0.4-0.9-2.1-1-2,0.3c0.3,2.4-0.1,4.6-0.4,6.9c-1.7-1.8-3.6-3.4-5-5.4c-0.6-0.8-1.8-0.5-1.9,0.5c-0.2,2.9-1.6,5.9-1.5,8.8
			c0,0.3,0.2,0.7,0.5,0.9c0,0,0,0,0,0c0.5,0.2,1.1,0.1,1.4-0.4c0,0,0.1-0.1,0.1-0.1c0.2-0.3,0.2-0.7,0-0.9c0,0,0,0,0,0
			c0.1-0.3,0.1-0.7,0.2-1c0.2-0.9,0.3-1.8,0.5-2.6c0.1-0.7,0.3-1.5,0.4-2.2c1.7,1.8,3.6,3.5,5.1,5.5c0.6,0.8,1.8,0.5,1.9-0.5
			c0.1-1.9,0.5-3.7,0.7-5.5c0.9,1.4,1.9,2.7,2.8,4c0.5,0.7,1.5,0.6,1.8-0.2c0.5-1.3,1-2.5,1.4-3.7c0.6,1.2,1.1,2.4,1.4,3.7
			c0.2,1.3,2.2,0.7,1.9-0.5C639.3,351.9,637.9,349.7,637.1,347.5z"/>
		<path fill="#333333" d="M589.5,144.5v4c0,1.3-2,1.3-2,0v-4C587.5,143.2,589.5,143.2,589.5,144.5z M592.5,145.5V141
			c0-1.3-2-1.3-2,0v4.5C590.5,146.8,592.5,146.8,592.5,145.5z M595.5,141v3.5c0,1.3,2,1.3,2,0V141
			C597.5,139.7,595.5,139.7,595.5,141z M591,150v4c0,1.3,2,1.3,2,0v-4C593,148.7,591,148.7,591,150z M595,149v3c0,1.3,2,1.3,2,0v-3
			C597,147.7,595,147.7,595,149z M600,143.5v4c0,1.3,2,1.3,2,0v-4C602,142.2,600,142.2,600,143.5z"/>
		<path fill="#333333" d="M596.8,438.1v4c0,1.3-2,1.3-2,0v-4C594.8,436.8,596.8,436.8,596.8,438.1z M599.8,439.1v-4.5
			c0-1.3-2-1.3-2,0v4.5C597.8,440.4,599.8,440.4,599.8,439.1z M602.8,434.6v3.5c0,1.3,2,1.3,2,0v-3.5
			C604.8,433.3,602.8,433.3,602.8,434.6z M598.2,443.6v4c0,1.3,2,1.3,2,0v-4C600.2,442.3,598.2,442.3,598.2,443.6z M602.2,442.6v3
			c0,1.3,2,1.3,2,0v-3C604.2,441.3,602.2,441.3,602.2,442.6z M607.2,437.1v4c0,1.3,2,1.3,2,0v-4
			C609.2,435.8,607.2,435.8,607.2,437.1z"/>
		<path fill="#333333" d="M169.7,165.5v4c0,1.3-2,1.3-2,0v-4C167.7,164.2,169.7,164.2,169.7,165.5z M172.7,166.5V162
			c0-1.3-2-1.3-2,0v4.5C170.7,167.8,172.7,167.8,172.7,166.5z M175.7,162v3.5c0,1.3,2,1.3,2,0V162
			C177.7,160.7,175.7,160.7,175.7,162z M171.2,171v4c0,1.3,2,1.3,2,0v-4C173.2,169.7,171.2,169.7,171.2,171z M175.2,170v3
			c0,1.3,2,1.3,2,0v-3C177.2,168.7,175.2,168.7,175.2,170z M180.2,164.5v4c0,1.3,2,1.3,2,0v-4C182.2,163.2,180.2,163.2,180.2,164.5z
			"/>
		<path fill="#333333" d="M116.6,424.3v4c0,1.3-2,1.3-2,0v-4C114.6,423.1,116.6,423.1,116.6,424.3z M119.6,425.3v-4.5
			c0-1.3-2-1.3-2,0v4.5C117.6,426.6,119.6,426.6,119.6,425.3z M122.6,420.8v3.5c0,1.3,2,1.3,2,0v-3.5
			C124.6,419.6,122.6,419.6,122.6,420.8z M118.1,429.8v4c0,1.3,2,1.3,2,0v-4C120.1,428.6,118.1,428.6,118.1,429.8z M122.1,428.8v3
			c0,1.3,2,1.3,2,0v-3C124.1,427.6,122.1,427.6,122.1,428.8z M127.1,423.3v4c0,1.3,2,1.3,2,0v-4
			C129.1,422.1,127.1,422.1,127.1,423.3z"/>
		<g>
			<path fill="#333333" d="M531,49.7c-0.3,0-0.6,0.1-0.9,0.2c-0.1,0-0.2,0.1-0.4,0.1c0,0,0,0,0,0c0,0,0,0,0,0c0,0,0,0,0,0
				c0,0,0,0,0,0c-0.4-0.3-1-0.4-1.4,0c-0.4,0.4-0.4,1.1,0,1.4c0.4,0.4,0.9,0.6,1.5,0.6c0.4,0,0.8-0.3,1.2-0.3
				C532.3,51.6,532.3,49.6,531,49.7z"/>
			<path fill="#333333" d="M529.7,50C529.7,49.9,529.7,49.9,529.7,50C529.7,49.9,529.7,49.9,529.7,50L529.7,50z"/>
		</g>
		<path fill="#333333" d="M621,69.7c-1.3,0-1.3,2,0,2S622.3,69.7,621,69.7z"/>
		<path fill="#333333" d="M489.4,150.4c-1,0.3-0.9,1.9,0.3,1.9c0.5,0,0.9,0,1.3-0.4c0.4-0.4,0.4-0.8,0.4-1.3
			C491.3,149.5,489.7,149.4,489.4,150.4z"/>
		<path fill="#333333" d="M478.3,95c-0.5,0-1,0.5-1,1c0,0.4,0.3,0.8,0.7,0.9c0,0,0,0,0,0c0,0.1,0,0.3,0,0.4c0,1.3,2,1.3,2,0
			C480,96.2,479.7,95.1,478.3,95z"/>
		<path fill="#333333" d="M611.7,213c-1.3,0-1.3,2,0,2S613,213,611.7,213z"/>
		<path fill="#333333" d="M655.7,127.7c-1.3,0-1.3,2,0,2S657,127.7,655.7,127.7z"/>
		<path fill="#333333" d="M513.7,265.7c-1.3,0-1.3,2,0,2S515,265.7,513.7,265.7z"/>
		<path fill="#333333" d="M518.7,342v1.3c0,1.3,2,1.3,2,0V342C520.7,340.7,518.7,340.7,518.7,342z"/>
		<path fill="#333333" d="M621,307.3c-0.9-0.9-2.3,0.5-1.4,1.4c0.2,0.2,0.4,0.3,0.4,0.6c0.1,1.3,2.1,1.3,2,0
			C622,308.6,621.6,307.9,621,307.3z"/>
		<path fill="#333333" d="M662.3,390.3h-0.7c-1.3,0-1.3,2,0,2h0.7C663.6,392.3,663.6,390.3,662.3,390.3z"/>
		<path fill="#333333" d="M652.4,458.6l-0.7-0.7c-0.9-0.9-2.3,0.5-1.4,1.4l0.7,0.7C651.9,461,653.3,459.5,652.4,458.6z"/>
		<path fill="#333333" d="M67.7,51.3c-0.8-0.8-1.6-1.6-2.7-1.6c-0.5,0-1,0.5-1,1c0,0.6,0.5,1,1,1c0.5,0,1,0.7,1.3,1
			C67.2,53.6,68.6,52.2,67.7,51.3z"/>
		<path fill="#333333" d="M136.7,106v0.7c0,1.3,2,1.3,2,0V106C138.7,104.7,136.7,104.7,136.7,106z"/>
		<path fill="#333333" d="M48.3,213c-1.3,0-1.3,2,0,2S49.6,213,48.3,213z"/>
		<path fill="#333333" d="M186.3,247c-1.3,0-1.3,2,0,2S187.6,247,186.3,247z"/>
		<path fill="#333333" d="M151.7,334.3c-1.3,0-1.3,2,0,2S153,334.3,151.7,334.3z"/>
		<path fill="#333333" d="M61.7,302.3c-1.3,0-1.3,2,0,2S63,302.3,61.7,302.3z"/>
		<path fill="#333333" d="M57.7,434.3c-0.5,0-0.8,0.3-0.9,0.7c-1,0.3-0.9,2,0.3,1.9c1,0,1.6-0.7,1.7-1.7
			C58.7,434.8,58.2,434.3,57.7,434.3z"/>
		<path fill="#333333" d="M147,468.6c-0.2,0.2-0.4,0.4-0.7,0.7c-0.9,0.9,0.5,2.3,1.4,1.4c0.2-0.2,0.4-0.4,0.7-0.7
			C149.3,469.1,147.9,467.7,147,468.6z"/>
		<path fill="#333333" d="M206.7,114.7v1.3c0,1.3,2,1.3,2,0v-1.3C208.7,113.4,206.7,113.4,206.7,114.7z"/>
		<path fill="#333333" d="M297.7,136.3c-1.3,0-1.3,2,0,2S299,136.3,297.7,136.3z"/>
		<path fill="#333333" d="M399.7,129c-0.5,0-0.9,0.4-1,0.8c-0.1,0.1-0.2,0.1-0.2,0.2c-0.3,0.2-0.6,0.4-0.8,0.7
			c-0.9,0.9,0.5,2.3,1.4,1.4c0.3-0.3,0.7-0.5,1.1-0.8c0.4-0.3,0.5-0.8,0.6-1.3C400.7,129.5,400.2,129,399.7,129z"/>
	</g>
</g>
</svg>
