<svg xmlns="http://www.w3.org/2000/svg" xmlns:se="http://svg-edit.googlecode.com" xmlns:xlink="http://www.w3.org/1999/xlink" xmlns:dc="http://purl.org/dc/elements/1.1/" xmlns:cc="http://creativecommons.org/ns#" xmlns:rdf="http://www.w3.org/1999/02/22-rdf-syntax-ns#" xmlns:inkscape="http://www.inkscape.org/namespaces/inkscape" width="777" height="480" style="">                                    <title>my vector image</title>                                    <!-- Created with Vector Paint - http://www.vectorpaint.yaks.com/ https://chrome.google.com/webstore/detail/hnbpdiengicdefcjecjbnjnoifekhgdo -->                                    <rect id="backgroundrect" width="100%" height="100%" x="0" y="0" fill="#FFFFFF" stroke="none"/>                                <g class="currentLayer" style=""><title>Layer 1</title><polyline fill="#b804b8" stroke="#222222" stroke-width="2" stroke-linejoin="round" stroke-dashoffset="" fill-rule="nonzero" marker-start="" marker-mid="" marker-end="" id="svg_1" points="422.5333295599879,143.7723525167891 417.6552808551434,138.08129569447067 411.1512159153509,128.32519828478186 402.2081266231362,118.56910087509308 394.8910535658696,112.06503593530056 388.3869886260771,107.99999534793021 385.1349561561808,107.18698723045615 382.6959318037586,107.18698723045615 375.378858746492,105.56097099550803 371.3138181591217,104.74796287803397 366.4357694542773,104.74796287803397 355.05365580964036,104.74796287803397 350.98861522227,103.93495476055989 343.6715421650035,106.37397911298208 340.4195096951072,106.37397911298208 336.35446910773686,108.81300346540432 330.6634122854184,113.69105217024868 328.2243879329962,119.38210899256714 327.41137981552214,137.26828757699658 329.03739605047025,142.95934439931506 331.4764204028925,147.83739310415945 339.60650157763314,161.65853110121856 345.2975583999516,172.22763662838142 351.80162333974414,180.35771780312209 364.80975321932914,190.92682333028492 370.50081004164764,194.1788558001812 380.2569074513364,198.24389638755153 385.1349561561808,199.86991262249964 390.82601297849925,201.49592885744778 402.2081266231362,203.93495320986997 408.7121915629287,207.9999937972403 414.4032483852472,208.81300191471436 424.97235391241003,213.69105061955875 428.22438638230625,216.13007497198097 431.4764188522026,218.56909932440317 432.28942696967664,219.38210744187725 433.1024350871507,219.38210744187725 434.7284513220988,221.00812367682536 434.7284513220988,221.00812367682536 435.54145943957286,221.00812367682536 437.980483791995,223.44714802924753 439.60650002694325,224.2601561467216 440.4195081444173,225.0731642641957 441.2325162618914,226.6991804991438 442.0455243793654,226.6991804991438 442.8585324968395,227.51218861661786 444.48454873178764,229.95121296904006 445.2975568492616,230.76422108651414 445.2975568492616,232.39023732146225 445.2975568492616,234.0162535564104 446.92357308420975,235.6422697913585 447.73658120168386,237.2682860263066 447.73658120168386,238.89430226125484 447.73658120168386,238.89430226125484 448.54958931915803,240.52031849620292 448.54958931915803,241.33332661367697 449.362597436632,243.7723509660992 449.362597436632,244.58535908357328 449.362597436632,244.58535908357328 449.362597436632,244.58535908357328 449.362597436632,244.58535908357328 449.362597436632,244.58535908357328 448.54958931915803,243.7723509660992 448.54958931915803,242.9593428486251 447.73658120168386,239.70731037872886 447.73658120168386,238.08129414378075 446.92357308420975,237.2682860263066 446.92357308420975,236.45527790883258 447.73658120168386,234.0162535564104 447.73658120168386,234.0162535564104 449.362597436632,230.76422108651414 450.1756055541061,229.95121296904006 451.80162178905425,228.32519673409195 452.6146299065282,226.6991804991438 455.0536542589504,225.0731642641957 455.8666623764244,224.2601561467216 456.6796704938985,223.44714802924753 459.9317029637948,220.19511555935128 460.7447110812689,219.38210744187725 461.557719198743,216.943083089455 463.99674355116514,212.87804250208472 464.8097516686392,209.62601003218845 467.24877602106153,203.12194509239592 468.8747922560096,199.86991262249964 470.50080849095775,197.43088827007745 473.752840960854,192.55283956523306 475.3788571958021,190.92682333028492 478.6308896656983,189.3008070953368 483.5089383705427,186.04877462544053 488.38698707538714,183.60975027301834 493.26503578023164,180.35771780312209 495.70406013265375,177.91869345069986 496.51706825012786,176.29267721575175 499.7691007200241,173.04064474585547 501.39511695497214,169.78861227595922 502.2081250724463,167.34958792353703 505.46015754234253,158.4064986313223 506.2731656598166,154.34145804395197 507.08617377729064,149.46340933910759 507.89918189476464,146.2113768692113 507.89918189476464,144.5853606342632 507.89918189476464,142.14633628184097 508.71219001223875,140.52032004689286 507.89918189476464,139.70731192941878 507.08617377729064,136.45527945952253 506.2731656598166,134.8292632245744 504.6471494248684,130.76422263720406 503.02113318992036,128.32519828478186 501.39511695497214,126.69918204983374 498.1430844850759,121.82113334498932 494.8910520151797,118.56910087509308 490.8260114278093,116.13007652267089 481.8829221355945,110.43901970035242 478.6308896656983,108.81300346540432 472.1268247259058,106.37397911298208 469.68780037348364,104.74796287803397 467.24877602106153,103.93495476055989 463.18373543369114,101.49593040813771 460.7447110812689,100.68292229066364 456.6796704938985,99.0569060557155 454.24064614147636,97.43088982076738 452.6146299065282,97.43088982076738 446.92357308420975,96.6178817032933 442.8585324968395,97.43088982076738 437.980483791995,98.24389793824145 431.4764188522026,99.0569060557155 430.6634107347285,99.86991417318957 424.97235391241003,104.74796287803397 423.34633767746186,110.43901970035242 420.90731332503964,115.31706840519679 418.46828897261753,121.82113334498932 417.6552808551434,125.07316581488561 417.6552808551434,125.07316581488561 416.84227273766936,129.95121451973 416.84227273766936,131.57723075467814 416.84227273766936,135.64227134204847 416.0292646201953,136.45527945952253 416.0292646201953,137.26828757699658 416.0292646201953,137.26828757699658 416.0292646201953,138.89430381194472 416.0292646201953,139.70731192941878 416.0292646201953,139.70731192941878 415.21625650272125,139.70731192941878 " style="color: rgb(0, 0, 0);"/><path fill="#b804b8" fill-opacity="1" stroke="#222222" stroke-opacity="1" stroke-width="2" stroke-dasharray="none" stroke-linejoin="round" stroke-linecap="butt" stroke-dashoffset="" fill-rule="nonzero" opacity="1" marker-start="" marker-mid="" marker-end="" d="M214.403251486627,373.85364976194967L210.33821089925672,309.6260084814985" id="svg_2"/><path fill="#b804b8" fill-opacity="1" stroke="#222222" stroke-opacity="1" stroke-width="2" stroke-dasharray="none" stroke-linejoin="round" stroke-linecap="butt" stroke-dashoffset="" fill-rule="nonzero" opacity="1" marker-start="" marker-mid="" marker-end="" d="M216.0292677215751,335.6422682406686L245.29755995064153,333.20324388824645" id="svg_4"/><path fill="#b804b8" fill-opacity="1" stroke="#222222" stroke-opacity="1" stroke-width="2" stroke-dasharray="none" stroke-linejoin="round" stroke-linecap="butt" stroke-dashoffset="" fill-rule="nonzero" opacity="1" marker-start="" marker-mid="" marker-end="" d="M246.92357618558964,289.3008055446469L245.29755995064153,367.3495848221572" id="svg_6"/><path fill="#b804b8" fill-opacity="1" stroke="#222222" stroke-opacity="1" stroke-width="2" stroke-dasharray="none" stroke-linejoin="round" stroke-linecap="butt" stroke-dashoffset="" fill-rule="nonzero" opacity="1" marker-start="" marker-mid="" marker-end="" d="M260.74471418264875,313.6910490688689L263.183738535071,361.6585279998387" id="svg_8"/><path fill="#b804b8" fill-opacity="1" stroke="#222222" stroke-opacity="1" stroke-width="2" stroke-dasharray="none" stroke-linejoin="round" stroke-linecap="butt" stroke-dashoffset="" fill-rule="nonzero" opacity="1" marker-start="" marker-mid="" marker-end="" d="M272.93983594475975,360.84551988236467L324.15934734562586,360.0325117648906" id="svg_10"/><path fill="#b804b8" fill-opacity="1" stroke="#222222" stroke-opacity="1" stroke-width="2" stroke-dasharray="none" stroke-linejoin="round" stroke-linecap="butt" stroke-dashoffset="" fill-rule="nonzero" opacity="1" marker-start="" marker-mid="" marker-end="" d="M253.42764112538217,330.76421953582417L287.5739820592929,331.57722765329834" id="svg_12"/><path fill="#b804b8" fill-opacity="1" stroke="#222222" stroke-opacity="1" stroke-width="2" stroke-dasharray="none" stroke-linejoin="round" stroke-linecap="butt" stroke-dashoffset="" fill-rule="nonzero" opacity="1" marker-start="" marker-mid="" marker-end="" d="M260.74471418264875,313.6910490688689L315.21625805341114,311.2520247164466" id="svg_14"/><path fill="#b804b8" fill-opacity="1" stroke="#222222" stroke-opacity="1" stroke-width="2" stroke-dasharray="none" stroke-linejoin="round" stroke-linecap="butt" stroke-dashoffset="" fill-rule="nonzero" opacity="1" marker-start="" marker-mid="" marker-end="" d="M331.4764204028925,303.93495165918L327.41137981552214,360.0325117648906" id="svg_16"/><path fill="#b804b8" fill-opacity="1" stroke="#222222" stroke-opacity="1" stroke-width="2" stroke-dasharray="none" stroke-linejoin="round" stroke-linecap="butt" stroke-dashoffset="" fill-rule="nonzero" opacity="1" marker-start="" marker-mid="" marker-end="" d="M334.72845287278875,359.21950364741656L363.183736984381,357.59348741246833" id="svg_18"/><path fill="#b804b8" fill-opacity="1" stroke="#222222" stroke-opacity="1" stroke-width="2" stroke-dasharray="none" stroke-linejoin="round" stroke-linecap="butt" stroke-dashoffset="" fill-rule="nonzero" opacity="1" marker-start="" marker-mid="" marker-end="" d="M381.8829236862845,312.06503283392067L378.6308912163883,358.4064955299425" id="svg_20"/><path fill="#b804b8" fill-opacity="1" stroke="#222222" stroke-opacity="1" stroke-width="2" stroke-dasharray="none" stroke-linejoin="round" stroke-linecap="butt" stroke-dashoffset="" fill-rule="nonzero" opacity="1" marker-start="" marker-mid="" marker-end="" d="M379.44389933386236,357.59348741246833L418.46828897261753,357.59348741246833" id="svg_22"/><path fill="#b804b8" fill-opacity="1" stroke="#222222" stroke-opacity="1" stroke-width="2" stroke-dasharray="none" stroke-linejoin="round" stroke-linecap="butt" stroke-dashoffset="" fill-rule="nonzero" opacity="1" marker-start="" marker-mid="" marker-end="" d="M433.9154432046247,317.75608965623917L427.4113782648322,355.15446306004617" id="svg_24"/><path fill="#b804b8" fill-opacity="1" stroke="#222222" stroke-opacity="1" stroke-width="2" stroke-dasharray="none" stroke-linejoin="round" stroke-linecap="butt" stroke-dashoffset="" fill-rule="nonzero" opacity="1" marker-start="" marker-mid="" marker-end="" d="M427.4113782648322,355.15446306004617L464.8097516686392,359.21950364741656" id="svg_26"/><path fill="#b804b8" fill-opacity="1" stroke="#222222" stroke-opacity="1" stroke-width="2" stroke-dasharray="none" stroke-linejoin="round" stroke-linecap="butt" stroke-dashoffset="" fill-rule="nonzero" opacity="1" marker-start="" marker-mid="" marker-end="" d="M467.24877602106153,351.0894224726759L466.4357679035874,311.2520247164466" id="svg_28"/><path fill="#b804b8" fill-opacity="1" stroke="#222222" stroke-opacity="1" stroke-width="2" stroke-dasharray="none" stroke-linejoin="round" stroke-linecap="butt" stroke-dashoffset="" fill-rule="nonzero" opacity="1" marker-start="" marker-mid="" marker-end="" d="M440.4195081444173,311.2520247164466L464.8097516686392,310.43901659897256" id="svg_30"/></g></svg>