<svg xmlns="http://www.w3.org/2000/svg" xmlns:se="http://svg-edit.googlecode.com" xmlns:xlink="http://www.w3.org/1999/xlink" xmlns:dc="http://purl.org/dc/elements/1.1/" xmlns:cc="http://creativecommons.org/ns#" xmlns:rdf="http://www.w3.org/1999/02/22-rdf-syntax-ns#" xmlns:inkscape="http://www.inkscape.org/namespaces/inkscape" width="354.8283975986594" height="354.8283975986594">                                    <title>my vector image</title>                                    <!-- Created with Vector Paint - http://www.vectorpaint.yaks.com/ https://chrome.google.com/webstore/detail/hnbpdiengicdefcjecjbnjnoifekhgdo -->                                    <rect id="backgroundrect" width="100%" height="100%" x="0" y="0" fill="#FFFFFF" stroke="none" class="" style=""/>                                <g class="currentLayer" style=""><title>Layer 1</title><path fill="#8ae9e9" fill-opacity="1" stroke="#8ae9e9" stroke-opacity="1" stroke-width="1" stroke-dasharray="none" stroke-linejoin="round" stroke-linecap="butt" stroke-dashoffset="" fill-rule="nonzero" opacity="1" marker-start="" marker-mid="" marker-end="" d="M43.757399614750696,174.18717771303886 C43.757399614750696,101.84210874137977 104.31607839201719,43.24260287433593 179.0798793516055,43.24260287433593 C253.8436803111938,43.24260287433593 314.40235908846034,101.84210874137977 314.40235908846034,174.18717771303886 C314.40235908846034,246.53224668469795 253.8436803111938,305.13175255174184 179.0798793516055,305.13175255174184 C104.31607839201719,305.13175255174184 43.757399614750696,246.53224668469795 43.757399614750696,174.18717771303886 z" id="svg_10" class=""/><path fill="#ecabec" stroke="#8a8ae9" stroke-width="2" stroke-linejoin="round" stroke-dashoffset="" fill-rule="nonzero" marker-start="" marker-mid="" marker-end="" id="svg_1" d="M183.38452810368773,334.800188088752 C176.47567780080018,326.3118189036968 165.73211654041265,325.3438418914789 163.14873181296886,313.2617544027208 C161.12387280703038,306.69008152181704 142.0350797261547,297.8761677177888 153.33274269458178,309.67141935718155 C162.0565385429125,316.7791399579234 172.4209498925948,342.9957819267716 150.9585659768386,334.71261003454146 C134.63481718169712,329.33117811653307 133.9348425972583,312.71381694704405 129.5593019721122,300.27298594728893 C115.33034746602847,291.4051548226667 133.238096346969,272.654772896017 117.91755836727998,261.29273940925697 C104.91476104167384,249.432131814522 113.97039377022605,227.2189690453977 95.39048180570805,218.80914515227795 C86.06460163843674,215.40906736112774 82.02792848788063,238.8850446659075 80.45770262779028,221.71083142399075 C75.34845730473418,204.3408403096027 57.30395858056727,230.15454160126848 45.27138327812168,227.41788314448735 C35.56178570516086,226.65965739798736 61.513024774721515,220.5961284124415 49.12895562412105,218.96437762928352 C41.84806970244899,222.54470252685707 35.111492875227526,228.73530239287484 33.95959933698647,218.48802562017602 C25.20112878852764,213.81541313895798 6.834430359415908,206.35343855710002 7.311542276378905,198.93054866242298 C14.91737796542029,196.78428486616116 40.59381405807036,202.99461503455527 36.14418914258073,194.3655237908486 C28.508903872020547,191.76263828785284 27.12191586691118,184.64748525965135 36.47363466417356,189.42269101702828 C54.90326169562174,189.94201577508107 76.50802710417875,183.33371778198074 91.84265018619399,195.97281845069776 C99.84124261654362,200.39373800545667 107.70573961174443,216.2493505437522 111.9877781144797,200.8406610387804 C125.7910588277187,185.8857040454734 153.64384649548794,184.61896922654637 162.1529342092686,165.25604572402577 C164.21202551398733,155.8880186756084 155.82895044318911,150.5432870533124 148.70726922227493,148.64573032392204 C147.32173994593236,145.56706205843162 144.96313097286526,132.496182464365 139.07397990318196,139.0921611015445 C139.34239795254845,133.3191197360822 144.86672334971914,119.51374016467753 132.63014124259328,125.62538659968098 C131.38901415708992,113.32916572034301 143.09088847466273,101.06158976013353 127.6108827447668,92.10732981502599 C142.11481957965339,94.52423278347341 139.2547068316073,79.6710420476656 136.0956144709028,77.31538142225166 C144.69342158983895,76.21871171374367 154.78335279602715,69.26874760800202 150.0428191032632,60.658924825079424 C159.37980713136648,75.88546615475666 159.70356121942012,42.186313764015296 167.39065527469185,56.71166141340102 C181.53879381589311,58.795189936837474 162.99535007047356,45.3571999806294 176.0081671887355,48.35660334054414 C183.43863259268196,48.58498937742375 181.78835600246651,41.04321286488548 188.4634629561155,46.735249363430796 C197.2978591410608,42.40522667803381 181.69102770624528,29.319192235489446 195.9550993138064,38.41152133523021 C200.75016794011822,42.1535122705712 216.01631446777813,51.9543385920377 213.27721642317678,39.02128112105417 C226.8312697400501,52.00901848828258 237.49760207349786,26.95788210596867 248.76049468745515,21.770036998000627 C253.22794718152733,16.969000333045905 262.9428057434715,11.888012480577629 253.98316215030593,21.05266812153163 C248.03512387436956,32.73477931169002 227.85542885709765,45.372344088604294 233.2843868721224,56.98021692817535 C228.3703242404092,60.99891541939199 243.19924671304616,66.0497224609299 231.3948070238527,64.5282981154534 C224.40151784775992,71.30932486349674 240.77053506175739,83.99621002610394 242.07686254029164,94.6684992078239 C238.32735569076186,101.98091229778959 224.05011965394934,110.28243970812764 218.27461790313018,110.02005998206809 C220.38550603576442,100.60532248997134 215.80939020556758,88.33427734758261 202.44339333131893,93.65588466883436 C209.9307611138534,105.96223384166225 220.05357350119664,117.71868004692868 226.39587507437753,131.1016141893171 C232.59501796320475,144.25767670562416 242.64586241259437,159.45026730812785 255.8691430038358,142.51840275583797 C264.2972832280088,131.72674363366193 288.3743906260488,131.8829642368615 281.76061006445343,149.4086604103467 C278.3796235365196,166.61838175223937 287.4315496591964,189.3317511856583 270.0384809392881,201.18640854222463 C259.5460242917916,219.34830761772986 247.91372655354326,194.43342524519068 256.1570625828284,185.00790428897537 C254.0565768602308,182.31439042917185 252.43162475790422,180.41302082153268 258.57818167046696,176.73116595750892 C257.3090159050342,173.96938546629005 276.2669418849139,163.57884113593815 266.7122206535918,157.20304279202492 C255.845289201509,168.27213982422117 239.94445217999234,181.08466738051854 244.3634796618141,197.5387299559176 C247.95000346395267,208.56494016318442 218.370080939617,227.46837424490957 220.7354574576037,209.16935117895778 C221.2652868755542,202.0577317759482 232.56847388241906,188.27461726541938 229.96662786635346,186.498933013479 C221.71427641503465,200.4079476897484 209.9749055941542,213.7705285806371 192.235520317521,217.90013349664824 C177.47983320291328,218.6856078970018 169.75020883441425,229.35787559771572 176.75740376094257,241.19887103559813 C178.09654067987321,257.9780915718933 168.236442951565,273.1641197276084 165.96640990213695,289.50105712748956 C170.18612959898633,306.82852659402204 195.87694971379236,310.3299732440945 199.36410060808078,328.00531683348765 C205.35610401242022,339.87608494321876 190.36774965995534,338.1217742904779 183.3844922333109,334.800177348249 L183.38452810368773,334.800188088752 zM146.85000858588305,283.106752898442 C144.68713231664424,275.2742095127643 140.23609649956487,303.46751200904873 145.7228058254912,288.50365113948897 L146.54417773075667,285.85995172847475 L146.85000858588305,283.10674215794006 L146.85000858588305,283.106752898442 z" style="color: rgb(0, 0, 0);" class="" stroke-opacity="1" fill-opacity="1"/></g></svg>