<?xml version="1.0" encoding="utf-8"?>
<svg id="master-artboard" viewBox="0 0 300 208" version="1.1" xmlns="http://www.w3.org/2000/svg" x="0px" y="0px" enable-background="new 0 0 1400 980" width="300px" height="208px"><rect id="ee-background" x="0" y="0" width="300" height="208" style="fill: white; fill-opacity: 0; pointer-events: none;"/>
<path fill="#414042" d="M326.7,284.8c1.8-1.6,4.5-2.5,4.5-2.5c0.7,0.6,0.8,2.5,0.8,2.5c0.4-1.1,0.4-3.6,0.4-3.6s3.1-2.4,3.3-6.9&#10;&#9;&#9;c0.1-4.5-2.1-7.1-2.1-7.1s0.4-3.6-0.4-4.2s-9.1-1.1-11.9-1.2c-2.8-0.1-3.4-0.8-4.4-1.5c-1-0.7-14.1-1.8-14.1-1.8l1.1-1.7l-2.6,0.6&#10;&#9;&#9;l-0.1-2.2l-0.9,2.2c0,0-0.2-1.2-1-2.7c-0.8-1.5-2.6-2.2-2.6-2.2l0.4,2.1c0,0-1.5-1.9-6.1-3.8c-4.7-1.9-6-0.8-6-0.8l2.2,1.1&#10;&#9;&#9;c0,0-1.7-0.1-5.9,0c-4.2,0.1-5.3,0.6-5.3,0.6l3.3,1.2c0,0-1,0-3.9,0.6s-7.8,3-7.8,3h3.2c0,0-2.8,1.5-6.7,3.1&#10;&#9;&#9;c-3.9,1.6-6.2,1.5-6.6,1.8c-0.4,0.3,2.4,1.2,2.4,1.2s-4.8,2.2-5.1,2.3s1.4,0.2,1.4,0.2s-0.8,0.8-3.2,2.3c-2.4,1.5-6.3,3.4-6.6,3.6&#10;&#9;&#9;s2.4,0.2,2.4,0.2l-6,1.5l2.5,0.2c-3,2.2-10.7,8.4-10.7,8.4h1.7c0,0-1.8,1.3-4,3.2s-5.6,4.8-6,5.2c-0.4,0.3,2.2-0.3,2.2-0.3&#10;&#9;&#9;s-1,1.2-2.7,2.8c-0.8,0.8-2,1.8-3,2.7c-1.1-0.3-2.4-0.8-3.7-1.4c-5-2.3-7.8-6.3-7.8-6.3s5.5-9.3,21.2-15.2s20.2-5.7,22.6-13.5&#10;&#9;&#9;c2.3-7.8-19.2-23.2-30.7-28.3c-11.5-5.1-25.2-7.3-25.2-7.3l4.2,4.6c0,0-22.5-9.1-27.5-9.3c-4.9-0.2-6.5,0-6.5,0l8,5.2&#10;&#9;&#9;c0,0-13.7-0.4-17.8-0.7c-4.1-0.2-8.3-0.2-8.3-0.2l3.5,2.4c0,0-19.9-1.1-28-1c-8.1,0.1-10.1,0.4-10.1,0.4l11.3,4&#10;&#9;&#9;c0,0-18.1,2.6-31.2,1.2c-13.1-1.4-21.1-6-21.1-6s0.7,6.2,7.7,10.6c7,4.4,20.8,6,20.8,6s-12.1,1.3-25,0.3c-12.9-1-29-6.2-29-6.2&#10;&#9;&#9;s9,9.9,18.9,13.6c9.9,3.7,23.9,5.3,23.9,5.3s-16.5,2.2-26.9,2.7c-10.4,0.5-14.3,0.3-14.3,0.3s4.9,4.5,15.9,6.9&#10;&#9;&#9;c11,2.4,23.8,1.1,23.8,1.1s-5.3,5-9.2,13.1c0,0,26.3-18.8,39.9-22.5c0,0-12.1,5.9-21.6,22.1c0,0,25.4-17.2,48.2-18.3&#10;&#9;&#9;c0,0-11.5,4.5-16.6,9.8c0,0,18.6-4.1,35.7-3.7c0,0-18.3,3.2-26.1,9.3c0,0,18.9-0.9,24.5-0.8l-5.9,3.4l7.3,0.2c0,0-7.3,3-11.5,6.5&#10;&#9;&#9;l12.2-2.3l-5.6,4.9l7.8-0.6l-10.5,7.4l10.9-2.4c0,0-3.2,2.7-3,2.7c0.2,0,9.4-0.7,9.4-0.7l-5.1,4.2c-8.3-1.3-16.4-2.7-24.9-3.3&#10;&#9;&#9;c-14.8-1-24.9,0.2-35.9,7.6c-11,7.4-12.6,23.2-12.8,29c-0.2,5.8-3,26.3-3.9,31.5c-0.9,5.2-1,6.3-5.6,13.8&#10;&#9;&#9;c-4.6,7.5-9.9,10.3-14,11.7c-4.1,1.4-5.6,0.2-8.9,0c-3.4-0.2-5.3-0.3-5.3-0.3l1.3,1c0,0-1.7,0.2-2.6,0.3c-0.9,0.2-2.7,1.2-2.7,1.2&#10;&#9;&#9;l0.6,1.1l-2.1,0.6l1.6,1.7l-1.2,0.2l1.9,1.6l-2.3,0.2c0,0,0.7,0.6,2.5,1.1c1.8,0.6,3.1,0.6,3.1,0.6l-0.5,0.9c0,0,2.4-0.4,4.6-1&#10;&#9;&#9;c2.2-0.6,9.3-4.6,9.3-4.6s15-6.6,20.8-14.3c5.8-7.6,7.9-27.4,9.3-36.1c1.5-8.6,4-13.6,4-13.6s1.7,9.2,1.7,17s0.3,26.6-0.9,32.3&#10;&#9;&#9;c-1.2,5.7-5.8,9.3-6.5,11.5c-0.7,2.3-0.3,4.5,2.3,12.2c2.6,7.7,5.6,16,7,17.7c1.4,1.8,3.5,1.7,6.4,1.9s6.3-0.7,6.3-0.7s2.8,0,4.9,0&#10;&#9;&#9;c2.1,0,3.1-0.8,3.1-0.8s2.7,0.2,3.5-0.2c0.9-0.4,1.6-3.4,0.1-4.8c-1.5-1.5-6.7,0.2-6.7,0.2s-0.6-0.7-2-2.4c-1.4-1.7-2.9-9.5-3-12.3&#10;&#9;&#9;c-0.1-2.8,1.7-6.9,4.2-11.8c2.5-4.8,5-6.8,9.1-14.7s9.2-16.2,13.9-19.7c4.7-3.5,10.6-4,18.2,1.6c7.7,5.6,16.8,12.6,25.2,13.6&#10;&#9;&#9;c8.5,1,19.8,0,19.8,0l6.4,1l-2.3,1.1c0,0,3.2,0.2,6.8,0.2c3.6,0,6.5-0.9,6.5-0.9l-2.1,2.5l4.7-1.9c0,0,0.4,3,1.7,11.7&#10;&#9;&#9;c1.3,8.7,2.5,17.1,3,21.6c0.5,4.5,2.1,7.3,1.4,9.8c-0.7,2.5-1.1,5.5-0.4,7.8s2,2.4,4.2,2.7c2.2,0.3,2.9-0.7,3.6-0.7&#10;&#9;&#9;s0.8,0.5,2.5,0.7c1.6,0.2,3-0.2,4.4-0.5c1.4-0.2,1.5,0,2.8,0s2.7-1.1,2.5-2.8s-1.1-2.1-2.2-2.9c-1.1-0.8-4-7.3-4.3-8.6&#10;&#9;&#9;s0.7-5.3,1-9.2c0.2-4-0.5-24.7-0.5-24.7l0.9,2.5l0.5-2.6c0,0,0.2,2.5,0.4,5.1c0.2,2.7,3.3,17,3.4,19.8c0.2,2.8-0.1,3.1-0.7,5.6&#10;&#9;&#9;c-0.5,2.4,0.1,3.9,1.2,3.7c0.7-0.1,0.9-0.7,0.8-1.2c0.1,0.7,0.2,2.2,0.2,3.6c-0.1,1.8-0.7,6,0.4,8s1.8,1.7,3.8,2.1&#10;&#9;&#9;c2,0.4,6.2,1.1,7.9,1.1c1.7,0,3-0.7,3.4-1s2.2-0.3,3.1-0.8s1.3-1.1,1.2-2.4s-1.2-2.7-3.4-3.6s-5.1-0.7-5.1-0.7s-0.8-3.9-0.4-8.2&#10;&#9;&#9;c0.4-4.3,2.5-12.1,3.9-21.7s3.1-22.1,3.1-22.1l1.3,2.7c0,0,0-4.4,0-5.1s1.3,2.7,1.3,2.9s0.5-3.6,0.5-3.6l1.2,3.9l0.8-3.7l0.8,3&#10;&#9;&#9;c0,0,0.4-2.7,0.4-3.1s0.9,3,0.9,3.1s0.5-3.9,0.5-3.9l1.7,3.6c0,0,0,0,0.1-2c0.1-2,1.1-4.4,1.1-4.4l0.7,2.4l1.1-3.1v1.8&#10;&#9;&#9;c0,0,0,0,1.8-2c1.8-2,1.8-4.9,1.7-5.3s0.5,2.1,0.5,2.1s0.4-0.8,0.8-2.9c0.4-2.1-0.3-5-0.6-5.9s1.8,1.3,1.8,1.3s-0.4-0.7-1.5-2.4&#10;&#9;&#9;s-0.7-5.3-0.7-5.3l1.5,1.1l-0.9-2.1l3.3,2.1c0,0-0.6-0.5-2.1-2.8s-2.1-4-2.1-4l1.8,0.7l-0.8-1.7l2.9,1.2c0,0-0.5-0.4-1.9-2.1&#10;&#9;&#9;c-1.4-1.6-1.5-2.6-1.5-2.6s1,0.8,3,1.9s3.2,1.4,3.2,1.4l-1.7-2.5l2.2,1.3l-1.8-2.1l2.3,1.4l-2.7-2.9c0,0,1.2,0.7,3.3,1.5&#10;&#9;&#9;c2.1,0.8,2.8,0.8,2.8,0.8s-0.8-0.6-1.8-1.6s-0.8-1.8-0.8-1.8l1.7,1l-1.9-4.1l2.2,1c0,0-1-2.2-1-2.4s1.7,1,1.7,1l-1.5-2.8&#10;&#9;&#9;c0,0,1.8,1.3,4.5,2.7c2.8,1.5,3.3,1.1,3.3,1.1l-0.7-1.6l2.4,0.5c0,0,0,0-1.1-1.1c-1.1-1.1-1.2-2.2-1.2-2.2s0.7,0.4,2.2,1.1&#10;&#9;&#9;s3,0.5,3,0.5s0,0-1-1.1s-1.6-3.9-1.6-3.9l2.1,1c0,0-0.9-1.1-1.7-2.5s-0.4-3.3-0.4-3.3l1.3,1.7l-0.4-3.4c0,0,3.6,4.4,5.7,4.7&#10;&#9;&#9;c2.1,0.3,4.4-0.9,5.3-3s-0.4-5.2-0.4-5.2s0.8,0.5,2.2,0.8s4.7,0.1,6.2-0.8s1.6-2.8,0.7-4.1c-0.8-1.3-3.4-1-5.3-1.6s-2.5-2-2.5-2&#10;&#9;&#9;l0.1-2.1l-1,1.5l-1.6-1.3c0,0-0.4-1.6-0.2-2.9C324.8,289.2,324.9,286.4,326.7,284.8z M218.5,297.9l-0.1,0.1c0,0-0.1-0.1-0.1-0.1&#10;&#9;&#9;S218.4,297.9,218.5,297.9z M177.3,297l-0.3,0.3c-1-0.1-1.9-0.3-2.8-0.4L177.3,297z" transform="matrix(0.9999999999999999, 0, 0, 0.9999999999999999, -47.70866308588552, -217.33949279785156)"/>
</svg>