<?xml version="1.0" encoding="utf-8"?>
<!-- Generator: Adobe Illustrator 22.1.0, SVG Export Plug-In . SVG Version: 6.00 Build 0)  -->
<svg version="1.1" id="Layer_1_1_" xmlns="http://www.w3.org/2000/svg" xmlns:xlink="http://www.w3.org/1999/xlink" x="0px" y="0px"
	 viewBox="0 0 2850 1800" enable-background="new 0 0 2850 1800" xml:space="preserve">
<linearGradient id="SVGID_1_" gradientUnits="userSpaceOnUse" x1="1425" y1="1.462587e-05" x2="1425" y2="1342.8145">
	<stop  offset="0.0013" style="stop-color:#001C8C"/>
	<stop  offset="0.1919" style="stop-color:#062090"/>
	<stop  offset="0.4343" style="stop-color:#152A9C"/>
	<stop  offset="0.7046" style="stop-color:#2F3CB0"/>
	<stop  offset="0.9935" style="stop-color:#5355CB"/>
	<stop  offset="0.9982" style="stop-color:#5455CC"/>
</linearGradient>
<rect y="0" fill="url(#SVGID_1_)" width="2850" height="1800"/>
<g>
	<g>
		
			<path fill="none" stroke="#FFFFFF" stroke-width="2.9602" stroke-linecap="round" stroke-linejoin="round" stroke-miterlimit="10" d="
			M2415.972,51.992c0-0.384,0-0.768,0-1.153"/>
		
			<path fill="none" stroke="#FFFFFF" stroke-width="2.9602" stroke-linecap="round" stroke-linejoin="round" stroke-miterlimit="10" d="
			M2445.563,117.691"/>
		
			<path fill="none" stroke="#FFFFFF" stroke-width="2.9602" stroke-linecap="round" stroke-linejoin="round" stroke-miterlimit="10" d="
			M2355.693,177.627c-0.365,0.384-0.731,0.768-1.096,1.153"/>
		
			<path fill="none" stroke="#FFFFFF" stroke-width="2.9602" stroke-linecap="round" stroke-linejoin="round" stroke-miterlimit="10" d="
			M2341.446,69.281"/>
		
			<path fill="none" stroke="#FFFFFF" stroke-width="2.9602" stroke-linecap="round" stroke-linejoin="round" stroke-miterlimit="10" d="
			M2262.535,26.634"/>
		
			<path fill="none" stroke="#FFFFFF" stroke-width="2.9602" stroke-linecap="round" stroke-linejoin="round" stroke-miterlimit="10" d="
			M2208.833,93.486c-0.365,0-0.731,0-1.096,0"/>
		
			<path fill="none" stroke="#FFFFFF" stroke-width="2.9602" stroke-linecap="round" stroke-linejoin="round" stroke-miterlimit="10" d="
			M2251.576,211.052c0-0.384,0-0.768,0-1.153"/>
		
			<path fill="none" stroke="#FFFFFF" stroke-width="2.9602" stroke-linecap="round" stroke-linejoin="round" stroke-miterlimit="10" d="
			M2327.391,333.265c-0.094,0.563,1.027,0.521,0.895-0.034"/>
		
			<path fill="none" stroke="#FFFFFF" stroke-width="2.9602" stroke-linecap="round" stroke-linejoin="round" stroke-miterlimit="10" d="
			M2181.433,294.04c0,0.384,0,0.769,0,1.153"/>
		
			<path fill="none" stroke="#FFFFFF" stroke-width="2.9602" stroke-linecap="round" stroke-linejoin="round" stroke-miterlimit="10" d="
			M2123.346,265.225"/>
		
			<path fill="none" stroke="#FFFFFF" stroke-width="2.9602" stroke-linecap="round" stroke-linejoin="round" stroke-miterlimit="10" d="
			M2149.65,408.149"/>
		
			<path fill="none" stroke="#FFFFFF" stroke-width="2.9602" stroke-linecap="round" stroke-linejoin="round" stroke-miterlimit="10" d="
			M2254.864,484.222c0.365-0.384,0.731-0.768,1.096-1.153"/>
		
			<path fill="none" stroke="#FFFFFF" stroke-width="2.9602" stroke-linecap="round" stroke-linejoin="round" stroke-miterlimit="10" d="
			M2571.601,318.245c0-0.384,0-0.768,0-1.153"/>
		
			<path fill="none" stroke="#FFFFFF" stroke-width="2.9602" stroke-linecap="round" stroke-linejoin="round" stroke-miterlimit="10" d="
			M2620.919,393.165"/>
		
			<path fill="none" stroke="#FFFFFF" stroke-width="2.9602" stroke-linecap="round" stroke-linejoin="round" stroke-miterlimit="10" d="
			M2775.452,345.908c0.365-0.384,0.731-0.768,1.096-1.153"/>
		
			<path fill="none" stroke="#FFFFFF" stroke-width="2.9602" stroke-linecap="round" stroke-linejoin="round" stroke-miterlimit="10" d="
			M2802.852,359.74"/>
		
			<path fill="none" stroke="#FFFFFF" stroke-width="2.9602" stroke-linecap="round" stroke-linejoin="round" stroke-miterlimit="10" d="
			M2715.173,253.699c0,0.384,0,0.768,0,1.153"/>
		
			<path fill="none" stroke="#FFFFFF" stroke-width="2.9602" stroke-linecap="round" stroke-linejoin="round" stroke-miterlimit="10" d="
			M2764.492,105.012c0-0.384,0-0.768,0-1.153"/>
		
			<path fill="none" stroke="#FFFFFF" stroke-width="2.9602" stroke-linecap="round" stroke-linejoin="round" stroke-miterlimit="10" d="
			M2796.276,71.586c0.365-0.768,0.731-1.537,1.096-2.305"/>
		
			<path fill="none" stroke="#FFFFFF" stroke-width="2.9602" stroke-linecap="round" stroke-linejoin="round" stroke-miterlimit="10" d="
			M2824.771,115.386c0-0.384,0-0.768,0-1.153"/>
		
			<path fill="none" stroke="#FFFFFF" stroke-width="2.9602" stroke-linecap="round" stroke-linejoin="round" stroke-miterlimit="10" d="
			M2668.046,93.486c-0.365,0-0.73,0-1.096,0"/>
		
			<path fill="none" stroke="#FFFFFF" stroke-width="2.9602" stroke-linecap="round" stroke-linejoin="round" stroke-miterlimit="10" d="
			M2654.895,42.771"/>
		
			<path fill="none" stroke="#FFFFFF" stroke-width="2.9602" stroke-linecap="round" stroke-linejoin="round" stroke-miterlimit="10" d="
			M2698.149,386.068c0-0.681,0-1.361,0-2.042"/>
		
			<path fill="none" stroke="#FFFFFF" stroke-width="2.9602" stroke-linecap="round" stroke-linejoin="round" stroke-miterlimit="10" d="
			M2820.47,678.066"/>
		
			<path fill="none" stroke="#FFFFFF" stroke-width="2.9602" stroke-linecap="round" stroke-linejoin="round" stroke-miterlimit="10" d="
			M2649.609,684.192"/>
		
			<path fill="none" stroke="#FFFFFF" stroke-width="2.9602" stroke-linecap="round" stroke-linejoin="round" stroke-miterlimit="10" d="
			M2624.369,582.095c0-0.681,0-1.361,0-2.042"/>
		
			<path fill="none" stroke="#FFFFFF" stroke-width="2.9602" stroke-linecap="round" stroke-linejoin="round" stroke-miterlimit="10" d="
			M2463.216,865.924"/>
		
			<path fill="none" stroke="#FFFFFF" stroke-width="2.9602" stroke-linecap="round" stroke-linejoin="round" stroke-miterlimit="10" d="
			M2558.354,941.476c-0.647,0-1.294,0-1.941,0"/>
		
			<path fill="none" stroke="#FFFFFF" stroke-width="2.9602" stroke-linecap="round" stroke-linejoin="round" stroke-miterlimit="10" d="
			M2399.143,994.567c0.647,0,1.294,0,1.942,0"/>
		
			<path fill="none" stroke="#FFFFFF" stroke-width="2.9602" stroke-linecap="round" stroke-linejoin="round" stroke-miterlimit="10" d="
			M2338.953,919.015c1.294,0,2.589,0,3.883,0"/>
		
			<path fill="none" stroke="#FFFFFF" stroke-width="2.9602" stroke-linecap="round" stroke-linejoin="round" stroke-miterlimit="10" d="
			M2717.565,919.015c0-0.681,0-1.361,0-2.042"/>
		
			<path fill="none" stroke="#FFFFFF" stroke-width="2.9602" stroke-linecap="round" stroke-linejoin="round" stroke-miterlimit="10" d="
			M2729.215,947.602c0,0.681,0,1.361,0,2.042"/>
		
			<path fill="none" stroke="#FFFFFF" stroke-width="2.9602" stroke-linecap="round" stroke-linejoin="round" stroke-miterlimit="10" d="
			M2806.879,933.308"/>
		
			<path fill="none" stroke="#FFFFFF" stroke-width="2.9602" stroke-linecap="round" stroke-linejoin="round" stroke-miterlimit="10" d="
			M2696.208,1159.964c-0.647-0.681-1.294-1.361-1.942-2.042"/>
		
			<path fill="none" stroke="#FFFFFF" stroke-width="2.9602" stroke-linecap="round" stroke-linejoin="round" stroke-miterlimit="10" d="
			M2711.741,1194.677"/>
		
			<path fill="none" stroke="#FFFFFF" stroke-width="2.9602" stroke-linecap="round" stroke-linejoin="round" stroke-miterlimit="10" d="
			M2558.354,1192.635"/>
		
			<path fill="none" stroke="#FFFFFF" stroke-width="2.9602" stroke-linecap="round" stroke-linejoin="round" stroke-miterlimit="10" d="
			M2797.171,1188.551c0,0.681,0,1.361,0,2.042"/>
		
			<path fill="none" stroke="#FFFFFF" stroke-width="2.9602" stroke-linecap="round" stroke-linejoin="round" stroke-miterlimit="10" d="
			M2208.865,1172.215"/>
		
			<path fill="none" stroke="#FFFFFF" stroke-width="2.9602" stroke-linecap="round" stroke-linejoin="round" stroke-miterlimit="10" d="
			M2104.019,1266.145"/>
		
			<path fill="none" stroke="#FFFFFF" stroke-width="2.9602" stroke-linecap="round" stroke-linejoin="round" stroke-miterlimit="10" d="
			M2076.836,1182.425"/>
		
			<path fill="none" stroke="#FFFFFF" stroke-width="2.9602" stroke-linecap="round" stroke-linejoin="round" stroke-miterlimit="10" d="
			M1993.348,951.686"/>
		
			<path fill="none" stroke="#FFFFFF" stroke-width="2.9602" stroke-linecap="round" stroke-linejoin="round" stroke-miterlimit="10" d="
			M1905.975,965.979"/>
		
			<path fill="none" stroke="#FFFFFF" stroke-width="2.9602" stroke-linecap="round" stroke-linejoin="round" stroke-miterlimit="10" d="
			M1843.844,927.183c-0.647,0-1.294,0-1.942,0"/>
		
			<path fill="none" stroke="#FFFFFF" stroke-width="2.9602" stroke-linecap="round" stroke-linejoin="round" stroke-miterlimit="10" d="
			M2043.829,594.346c0-0.681,0-1.361,0-2.042"/>
		
			<path fill="none" stroke="#FFFFFF" stroke-width="2.9602" stroke-linecap="round" stroke-linejoin="round" stroke-miterlimit="10" d="
			M2171.975,641.311c-0.647,0-1.294,0-1.942,0"/>
		
			<path fill="none" stroke="#FFFFFF" stroke-width="2.9602" stroke-linecap="round" stroke-linejoin="round" stroke-miterlimit="10" d="
			M1911.8,678.066"/>
		
			<path fill="none" stroke="#FFFFFF" stroke-width="2.9602" stroke-linecap="round" stroke-linejoin="round" stroke-miterlimit="10" d="
			M1921.508,138.994c-0.647,0.681-1.294,1.361-1.942,2.042"/>
		
			<path fill="none" stroke="#FFFFFF" stroke-width="2.9602" stroke-linecap="round" stroke-linejoin="round" stroke-miterlimit="10" d="
			M2061.304,4.225"/>
		
			<path fill="none" stroke="#FFFFFF" stroke-width="2.9602" stroke-linecap="round" stroke-linejoin="round" stroke-miterlimit="10" d="
			M1843.844,83.861c0-0.681,0-1.361,0-2.042"/>
		
			<path fill="none" stroke="#FFFFFF" stroke-width="2.9602" stroke-linecap="round" stroke-linejoin="round" stroke-miterlimit="10" d="
			M1775.888,316.642c-0.647,0-1.294,0-1.942,0"/>
		
			<path fill="none" stroke="#FFFFFF" stroke-width="2.9602" stroke-linecap="round" stroke-linejoin="round" stroke-miterlimit="10" d="
			M1731.231,420.781c0.647,0,1.294,0,1.942,0"/>
		
			<path fill="none" stroke="#FFFFFF" stroke-width="2.9602" stroke-linecap="round" stroke-linejoin="round" stroke-miterlimit="10" d="
			M1589.494,257.426"/>
		
			<path fill="none" stroke="#FFFFFF" stroke-width="2.9602" stroke-linecap="round" stroke-linejoin="round" stroke-miterlimit="10" d="
			M1453.582,339.104"/>
		
			<path fill="none" stroke="#FFFFFF" stroke-width="2.9602" stroke-linecap="round" stroke-linejoin="round" stroke-miterlimit="10" d="
			M1684.633,269.678"/>
		
			<path fill="none" stroke="#FFFFFF" stroke-width="2.9602" stroke-linecap="round" stroke-linejoin="round" stroke-miterlimit="10" d="
			M1484.647,181.874c1.942,0,3.883,0,5.825,0"/>
		
			<path fill="none" stroke="#FFFFFF" stroke-width="2.9602" stroke-linecap="round" stroke-linejoin="round" stroke-miterlimit="10" d="
			M1647.742,169.623c-0.647,0-1.294,0-1.942,0"/>
		
			<path fill="none" stroke="#FFFFFF" stroke-width="2.9602" stroke-linecap="round" stroke-linejoin="round" stroke-miterlimit="10" d="
			M1271.071,108.364"/>
		
			<path fill="none" stroke="#FFFFFF" stroke-width="2.9602" stroke-linecap="round" stroke-linejoin="round" stroke-miterlimit="10" d="
			M1175.933,110.406"/>
		
			<path fill="none" stroke="#FFFFFF" stroke-width="2.9602" stroke-linecap="round" stroke-linejoin="round" stroke-miterlimit="10" d="
			M1337.086,316.642"/>
		
			<path fill="none" stroke="#FFFFFF" stroke-width="2.9602" stroke-linecap="round" stroke-linejoin="round" stroke-miterlimit="10" d="
			M1179.816,310.517c0.647-0.681,1.294-1.361,1.942-2.042"/>
		
			<path fill="none" stroke="#FFFFFF" stroke-width="2.9602" stroke-linecap="round" stroke-linejoin="round" stroke-miterlimit="10" d="
			M1059.436,277.846"/>
		
			<path fill="none" stroke="#FFFFFF" stroke-width="2.9602" stroke-linecap="round" stroke-linejoin="round" stroke-miterlimit="10" d="
			M1067.203,179.832c0.647,0.681,1.294,1.361,1.942,2.042"/>
		
			<path fill="none" stroke="#FFFFFF" stroke-width="2.9602" stroke-linecap="round" stroke-linejoin="round" stroke-miterlimit="10" d="
			M975.947,326.852"/>
		
			<path fill="none" stroke="#FFFFFF" stroke-width="2.9602" stroke-linecap="round" stroke-linejoin="round" stroke-miterlimit="10" d="
			M1036.137,24.645"/>
		
			<path fill="none" stroke="#FFFFFF" stroke-width="2.9602" stroke-linecap="round" stroke-linejoin="round" stroke-miterlimit="10" d="
			M814.794,535.13c0-0.681,0-1.361,0-2.042"/>
		
			<path fill="none" stroke="#FFFFFF" stroke-width="2.9602" stroke-linecap="round" stroke-linejoin="round" stroke-miterlimit="10" d="
			M735.189,555.549c-0.647,0-1.294,0-1.942,0"/>
		
			<path fill="none" stroke="#FFFFFF" stroke-width="2.9602" stroke-linecap="round" stroke-linejoin="round" stroke-miterlimit="10" d="
			M845.86,633.143c0.647,0,1.294,0,1.942,0"/>
		
			<path fill="none" stroke="#FFFFFF" stroke-width="2.9602" stroke-linecap="round" stroke-linejoin="round" stroke-miterlimit="10" d="
			M754.605,716.863c0-0.681,0-1.361,0-2.042"/>
		
			<path fill="none" stroke="#FFFFFF" stroke-width="2.9602" stroke-linecap="round" stroke-linejoin="round" stroke-miterlimit="10" d="
			M838.094,1008.86C836.491,1008.86,836.491,1008.86,838.094,1008.86"/>
		
			<path fill="none" stroke="#FFFFFF" stroke-width="2.9602" stroke-linecap="round" stroke-linejoin="round" stroke-miterlimit="10" d="
			M911.875,976.189C910.272,976.189,910.272,976.189,911.875,976.189"/>
		
			<path fill="none" stroke="#FFFFFF" stroke-width="2.9602" stroke-linecap="round" stroke-linejoin="round" stroke-miterlimit="10" d="
			M995.363,845.505C995.363,843.819,995.363,843.819,995.363,845.505"/>
		
			<path fill="none" stroke="#FFFFFF" stroke-width="2.9602" stroke-linecap="round" stroke-linejoin="round" stroke-miterlimit="10" d="
			M1073.028,1192.635"/>
		
			<path fill="none" stroke="#FFFFFF" stroke-width="2.9602" stroke-linecap="round" stroke-linejoin="round" stroke-miterlimit="10" d="
			M836.152,1282.48c0.647,0,1.294,0,1.942,0"/>
		
			<path fill="none" stroke="#FFFFFF" stroke-width="2.9602" stroke-linecap="round" stroke-linejoin="round" stroke-miterlimit="10" d="
			M715.773,1059.909c0.647,0,1.294,0,1.942,0"/>
		
			<path fill="none" stroke="#FFFFFF" stroke-width="2.9602" stroke-linecap="round" stroke-linejoin="round" stroke-miterlimit="10" d="
			M616.751,1186.509"/>
		
			<path fill="none" stroke="#FFFFFF" stroke-width="2.9602" stroke-linecap="round" stroke-linejoin="round" stroke-miterlimit="10" d="
			M564.328,1166.09"/>
		
			<path fill="none" stroke="#FFFFFF" stroke-width="2.9602" stroke-linecap="round" stroke-linejoin="round" stroke-miterlimit="10" d="
			M527.437,1012.944c0-0.681,0-1.361,0-2.042"/>
		
			<path fill="none" stroke="#FFFFFF" stroke-width="2.9602" stroke-linecap="round" stroke-linejoin="round" stroke-miterlimit="10" d="
			M354.634,992.525"/>
		
			<path fill="none" stroke="#FFFFFF" stroke-width="2.9602" stroke-linecap="round" stroke-linejoin="round" stroke-miterlimit="10" d="
			M294.445,890.428"/>
		
			<path fill="none" stroke="#FFFFFF" stroke-width="2.9602" stroke-linecap="round" stroke-linejoin="round" stroke-miterlimit="10" d="
			M261.437,998.651"/>
		
			<path fill="none" stroke="#FFFFFF" stroke-width="2.9602" stroke-linecap="round" stroke-linejoin="round" stroke-miterlimit="10" d="
			M216.781,1190.593"/>
		
			<path fill="none" stroke="#FFFFFF" stroke-width="2.9602" stroke-linecap="round" stroke-linejoin="round" stroke-miterlimit="10" d="
			M158.533,1284.522c0.647,0,1.294,0,1.942,0"/>
		
			<path fill="none" stroke="#FFFFFF" stroke-width="2.9602" stroke-linecap="round" stroke-linejoin="round" stroke-miterlimit="10" d="
			M86.693,1131.377c0-0.681,0-1.361,0-2.042"/>
		
			<path fill="none" stroke="#FFFFFF" stroke-width="2.9602" stroke-linecap="round" stroke-linejoin="round" stroke-miterlimit="10" d="
			M18.737,1180.383c0,0.681,0,1.361,0,2.042"/>
		
			<path fill="none" stroke="#FFFFFF" stroke-width="2.9602" stroke-linecap="round" stroke-linejoin="round" stroke-miterlimit="10" d="
			M55.627,949.644"/>
		
			<path fill="none" stroke="#FFFFFF" stroke-width="2.9602" stroke-linecap="round" stroke-linejoin="round" stroke-miterlimit="10" d="
			M131.35,965.979c-0.647-0.681-1.294-1.361-1.942-2.042"/>
		
			<path fill="none" stroke="#FFFFFF" stroke-width="2.9602" stroke-linecap="round" stroke-linejoin="round" stroke-miterlimit="10" d="
			M86.693,867.966c-0.647,0-1.294,0-1.942,0"/>
		
			<path fill="none" stroke="#FFFFFF" stroke-width="2.9602" stroke-linecap="round" stroke-linejoin="round" stroke-miterlimit="10" d="
			M370.167,596.388c1.294,0,2.589,0,3.883,0"/>
		
			<path fill="none" stroke="#FFFFFF" stroke-width="2.9602" stroke-linecap="round" stroke-linejoin="round" stroke-miterlimit="10" d="
			M445.89,714.821"/>
		
			<path fill="none" stroke="#FFFFFF" stroke-width="2.9602" stroke-linecap="round" stroke-linejoin="round" stroke-miterlimit="10" d="
			M546.853,586.179c0.647-0.681,1.294-1.361,1.942-2.042"/>
		
			<path fill="none" stroke="#FFFFFF" stroke-width="2.9602" stroke-linecap="round" stroke-linejoin="round" stroke-miterlimit="10" d="
			M589.568,682.15c0.647,0.681,1.294,1.361,1.942,2.042"/>
		
			<path fill="none" stroke="#FFFFFF" stroke-width="2.9602" stroke-linecap="round" stroke-linejoin="round" stroke-miterlimit="10" d="
			M515.787,694.401"/>
		
			<path fill="none" stroke="#FFFFFF" stroke-width="2.9602" stroke-linecap="round" stroke-linejoin="round" stroke-miterlimit="10" d="
			M463.364,522.878"/>
		
			<path fill="none" stroke="#FFFFFF" stroke-width="2.9602" stroke-linecap="round" stroke-linejoin="round" stroke-miterlimit="10" d="
			M226.489,529.004c0.647,0,1.294,0,1.942,0"/>
		
			<path fill="none" stroke="#FFFFFF" stroke-width="2.9602" stroke-linecap="round" stroke-linejoin="round" stroke-miterlimit="10" d="
			M139.116,657.646"/>
		
			<path fill="none" stroke="#FFFFFF" stroke-width="2.9602" stroke-linecap="round" stroke-linejoin="round" stroke-miterlimit="10" d="
			M294.445,486.124c0.647,0,1.294,0,1.942,0"/>
		
			<path fill="none" stroke="#FFFFFF" stroke-width="2.9602" stroke-linecap="round" stroke-linejoin="round" stroke-miterlimit="10" d="
			M121.642,412.614c0.647,0,1.294,0,1.942,0"/>
		
			<path fill="none" stroke="#FFFFFF" stroke-width="2.9602" stroke-linecap="round" stroke-linejoin="round" stroke-miterlimit="10" d="
			M325.51,314.6"/>
		
			<path fill="none" stroke="#FFFFFF" stroke-width="2.9602" stroke-linecap="round" stroke-linejoin="round" stroke-miterlimit="10" d="
			M275.029,204.336"/>
		
			<path fill="none" stroke="#FFFFFF" stroke-width="2.9602" stroke-linecap="round" stroke-linejoin="round" stroke-miterlimit="10" d="
			M407.058,171.665"/>
		
			<path fill="none" stroke="#FFFFFF" stroke-width="2.9602" stroke-linecap="round" stroke-linejoin="round" stroke-miterlimit="10" d="
			M674.999,379.943C674.999,378.257,674.999,378.257,674.999,379.943"/>
		
			<path fill="none" stroke="#FFFFFF" stroke-width="2.9602" stroke-linecap="round" stroke-linejoin="round" stroke-miterlimit="10" d="
			M542.97,310.517"/>
		
			<path fill="none" stroke="#FFFFFF" stroke-width="2.9602" stroke-linecap="round" stroke-linejoin="round" stroke-miterlimit="10" d="
			M552.678,136.952c0.647,0,1.294,0,1.942,0"/>
		
			<path fill="none" stroke="#FFFFFF" stroke-width="2.9602" stroke-linecap="round" stroke-linejoin="round" stroke-miterlimit="10" d="
			M711.889,65.484c0,0.681,0,1.361,0,2.042"/>
		
			<path fill="none" stroke="#FFFFFF" stroke-width="2.9602" stroke-linecap="round" stroke-linejoin="round" stroke-miterlimit="10" d="
			M469.189,40.98c0.647,0.681,1.294,1.361,1.942,2.042"/>
		
			<path fill="none" stroke="#FFFFFF" stroke-width="2.9602" stroke-linecap="round" stroke-linejoin="round" stroke-miterlimit="10" d="
			M317.744,22.603c0-0.681,0-1.361,0-2.042"/>
		
			<path fill="none" stroke="#FFFFFF" stroke-width="2.9602" stroke-linecap="round" stroke-linejoin="round" stroke-miterlimit="10" d="
			M65.336,116.532c-0.647,0-1.294,0-1.942,0"/>
		
			<path fill="none" stroke="#FFFFFF" stroke-width="2.9602" stroke-linecap="round" stroke-linejoin="round" stroke-miterlimit="10" d="
			M36.211,245.174"/>
		
			<path fill="none" stroke="#FFFFFF" stroke-width="2.9602" stroke-linecap="round" stroke-linejoin="round" stroke-miterlimit="10" d="
			M131.35,18.519c0.647-0.681,1.294-1.361,1.942-2.042"/>
	</g>
	<g opacity="0.4">
		
			<path fill="none" stroke="#FFFFFF" stroke-width="2.7185" stroke-linecap="round" stroke-linejoin="round" stroke-miterlimit="10" d="
			M508.713,1188.389c0,0.353,0,0.706,0,1.058"/>
		
			<path fill="none" stroke="#FFFFFF" stroke-width="2.7185" stroke-linecap="round" stroke-linejoin="round" stroke-miterlimit="10" d="
			M481.538,1128.054"/>
		
			<path fill="none" stroke="#FFFFFF" stroke-width="2.7185" stroke-linecap="round" stroke-linejoin="round" stroke-miterlimit="10" d="
			M564.07,1073.012c0.335-0.353,0.671-0.706,1.006-1.059"/>
		
			<path fill="none" stroke="#FFFFFF" stroke-width="2.7185" stroke-linecap="round" stroke-linejoin="round" stroke-miterlimit="10" d="
			M577.154,1172.511"/>
		
			<path fill="none" stroke="#FFFFFF" stroke-width="2.7185" stroke-linecap="round" stroke-linejoin="round" stroke-miterlimit="10" d="
			M649.622,1211.676"/>
		
			<path fill="none" stroke="#FFFFFF" stroke-width="2.7185" stroke-linecap="round" stroke-linejoin="round" stroke-miterlimit="10" d="
			M698.94,1150.283c0.336,0,0.671,0,1.006,0"/>
		
			<path fill="none" stroke="#FFFFFF" stroke-width="2.7185" stroke-linecap="round" stroke-linejoin="round" stroke-miterlimit="10" d="
			M659.686,1042.315c0,0.353,0,0.706,0,1.058"/>
		
			<path fill="none" stroke="#FFFFFF" stroke-width="2.7185" stroke-linecap="round" stroke-linejoin="round" stroke-miterlimit="10" d="
			M590.061,930.081c0.087-0.517-0.943-0.478-0.822,0.031"/>
		
			<path fill="none" stroke="#FFFFFF" stroke-width="2.7185" stroke-linecap="round" stroke-linejoin="round" stroke-miterlimit="10" d="
			M724.102,966.103c0-0.353,0-0.706,0-1.059"/>
		
			<path fill="none" stroke="#FFFFFF" stroke-width="2.7185" stroke-linecap="round" stroke-linejoin="round" stroke-miterlimit="10" d="
			M777.446,992.565"/>
		
			<path fill="none" stroke="#FFFFFF" stroke-width="2.7185" stroke-linecap="round" stroke-linejoin="round" stroke-miterlimit="10" d="
			M753.29,861.311"/>
		
			<path fill="none" stroke="#FFFFFF" stroke-width="2.7185" stroke-linecap="round" stroke-linejoin="round" stroke-miterlimit="10" d="
			M656.667,791.45c-0.335,0.353-0.671,0.706-1.006,1.058"/>
		
			<path fill="none" stroke="#FFFFFF" stroke-width="2.7185" stroke-linecap="round" stroke-linejoin="round" stroke-miterlimit="10" d="
			M365.791,943.874c0,0.353,0,0.706,0,1.058"/>
		
			<path fill="none" stroke="#FFFFFF" stroke-width="2.7185" stroke-linecap="round" stroke-linejoin="round" stroke-miterlimit="10" d="
			M320.499,875.071"/>
		
			<path fill="none" stroke="#FFFFFF" stroke-width="2.7185" stroke-linecap="round" stroke-linejoin="round" stroke-miterlimit="10" d="
			M178.584,918.47c-0.335,0.353-0.671,0.706-1.006,1.058"/>
		
			<path fill="none" stroke="#FFFFFF" stroke-width="2.7185" stroke-linecap="round" stroke-linejoin="round" stroke-miterlimit="10" d="
			M153.421,905.768"/>
		
			<path fill="none" stroke="#FFFFFF" stroke-width="2.7185" stroke-linecap="round" stroke-linejoin="round" stroke-miterlimit="10" d="
			M233.941,1003.151c0-0.353,0-0.706,0-1.059"/>
		
			<path fill="none" stroke="#FFFFFF" stroke-width="2.7185" stroke-linecap="round" stroke-linejoin="round" stroke-miterlimit="10" d="
			M188.649,1139.698c0,0.353,0,0.706,0,1.058"/>
		
			<path fill="none" stroke="#FFFFFF" stroke-width="2.7185" stroke-linecap="round" stroke-linejoin="round" stroke-miterlimit="10" d="
			M159.46,1170.394c-0.336,0.706-0.671,1.411-1.007,2.117"/>
		
			<path fill="none" stroke="#FFFFFF" stroke-width="2.7185" stroke-linecap="round" stroke-linejoin="round" stroke-miterlimit="10" d="
			M133.292,1130.171c0,0.353,0,0.706,0,1.058"/>
		
			<path fill="none" stroke="#FFFFFF" stroke-width="2.7185" stroke-linecap="round" stroke-linejoin="round" stroke-miterlimit="10" d="
			M277.22,1150.283c0.335,0,0.671,0,1.006,0"/>
		
			<path fill="none" stroke="#FFFFFF" stroke-width="2.7185" stroke-linecap="round" stroke-linejoin="round" stroke-miterlimit="10" d="
			M289.298,1196.857"/>
		
			<path fill="none" stroke="#FFFFFF" stroke-width="2.7185" stroke-linecap="round" stroke-linejoin="round" stroke-miterlimit="10" d="
			M249.575,881.589c0,0.625,0,1.25,0,1.875"/>
		
			<path fill="none" stroke="#FFFFFF" stroke-width="2.7185" stroke-linecap="round" stroke-linejoin="round" stroke-miterlimit="10" d="
			M137.241,613.433"/>
		
			<path fill="none" stroke="#FFFFFF" stroke-width="2.7185" stroke-linecap="round" stroke-linejoin="round" stroke-miterlimit="10" d="
			M294.151,607.807"/>
		
			<path fill="none" stroke="#FFFFFF" stroke-width="2.7185" stroke-linecap="round" stroke-linejoin="round" stroke-miterlimit="10" d="
			M317.332,701.568c0,0.625,0,1.25,0,1.875"/>
		
			<path fill="none" stroke="#FFFFFF" stroke-width="2.7185" stroke-linecap="round" stroke-linejoin="round" stroke-miterlimit="10" d="
			M465.327,440.913"/>
		
			<path fill="none" stroke="#FFFFFF" stroke-width="2.7185" stroke-linecap="round" stroke-linejoin="round" stroke-miterlimit="10" d="
			M377.956,371.53c0.594,0,1.189,0,1.783,0"/>
		
			<path fill="none" stroke="#FFFFFF" stroke-width="2.7185" stroke-linecap="round" stroke-linejoin="round" stroke-miterlimit="10" d="
			M524.168,322.774c-0.594,0-1.189,0-1.783,0"/>
		
			<path fill="none" stroke="#FFFFFF" stroke-width="2.7185" stroke-linecap="round" stroke-linejoin="round" stroke-miterlimit="10" d="
			M579.443,392.157c-1.189,0-2.377,0-3.566,0"/>
		
			<path fill="none" stroke="#FFFFFF" stroke-width="2.7185" stroke-linecap="round" stroke-linejoin="round" stroke-miterlimit="10" d="
			M231.744,392.157c0,0.625,0,1.25,0,1.875"/>
		
			<path fill="none" stroke="#FFFFFF" stroke-width="2.7185" stroke-linecap="round" stroke-linejoin="round" stroke-miterlimit="10" d="
			M221.046,365.904c0-0.625,0-1.25,0-1.875"/>
		
			<path fill="none" stroke="#FFFFFF" stroke-width="2.7185" stroke-linecap="round" stroke-linejoin="round" stroke-miterlimit="10" d="
			M149.723,379.03"/>
		
			<path fill="none" stroke="#FFFFFF" stroke-width="2.7185" stroke-linecap="round" stroke-linejoin="round" stroke-miterlimit="10" d="
			M251.358,170.881c0.594,0.625,1.189,1.25,1.783,1.875"/>
		
			<path fill="none" stroke="#FFFFFF" stroke-width="2.7185" stroke-linecap="round" stroke-linejoin="round" stroke-miterlimit="10" d="
			M237.093,139.002"/>
		
			<path fill="none" stroke="#FFFFFF" stroke-width="2.7185" stroke-linecap="round" stroke-linejoin="round" stroke-miterlimit="10" d="
			M377.956,140.878"/>
		
			<path fill="none" stroke="#FFFFFF" stroke-width="2.7185" stroke-linecap="round" stroke-linejoin="round" stroke-miterlimit="10" d="
			M158.638,144.628c0-0.625,0-1.25,0-1.875"/>
		
			<path fill="none" stroke="#FFFFFF" stroke-width="2.7185" stroke-linecap="round" stroke-linejoin="round" stroke-miterlimit="10" d="
			M698.909,159.63"/>
		
			<path fill="none" stroke="#FFFFFF" stroke-width="2.7185" stroke-linecap="round" stroke-linejoin="round" stroke-miterlimit="10" d="
			M795.195,73.37"/>
		
			<path fill="none" stroke="#FFFFFF" stroke-width="2.7185" stroke-linecap="round" stroke-linejoin="round" stroke-miterlimit="10" d="
			M820.158,150.254"/>
		
			<path fill="none" stroke="#FFFFFF" stroke-width="2.7185" stroke-linecap="round" stroke-linejoin="round" stroke-miterlimit="10" d="
			M896.83,362.153"/>
		
			<path fill="none" stroke="#FFFFFF" stroke-width="2.7185" stroke-linecap="round" stroke-linejoin="round" stroke-miterlimit="10" d="
			M977.069,349.027"/>
		
			<path fill="none" stroke="#FFFFFF" stroke-width="2.7185" stroke-linecap="round" stroke-linejoin="round" stroke-miterlimit="10" d="
			M1034.127,384.656c0.594,0,1.189,0,1.783,0"/>
		
			<path fill="none" stroke="#FFFFFF" stroke-width="2.7185" stroke-linecap="round" stroke-linejoin="round" stroke-miterlimit="10" d="
			M850.471,690.317c0,0.625,0,1.25,0,1.875"/>
		
			<path fill="none" stroke="#FFFFFF" stroke-width="2.7185" stroke-linecap="round" stroke-linejoin="round" stroke-miterlimit="10" d="
			M732.788,647.187c0.594,0,1.189,0,1.783,0"/>
		
			<path fill="none" stroke="#FFFFFF" stroke-width="2.7185" stroke-linecap="round" stroke-linejoin="round" stroke-miterlimit="10" d="
			M971.719,613.433"/>
		
			<path fill="none" stroke="#FFFFFF" stroke-width="2.7185" stroke-linecap="round" stroke-linejoin="round" stroke-miterlimit="10" d="
			M962.804,1108.49c0.594-0.625,1.189-1.25,1.783-1.875"/>
		
			<path fill="none" stroke="#FFFFFF" stroke-width="2.7185" stroke-linecap="round" stroke-linejoin="round" stroke-miterlimit="10" d="
			M834.423,1232.255"/>
		
			<path fill="none" stroke="#FFFFFF" stroke-width="2.7185" stroke-linecap="round" stroke-linejoin="round" stroke-miterlimit="10" d="
			M1034.127,1159.121c0,0.625,0,1.25,0,1.875"/>
		
			<path fill="none" stroke="#FFFFFF" stroke-width="2.7185" stroke-linecap="round" stroke-linejoin="round" stroke-miterlimit="10" d="
			M1096.535,945.346c0.594,0,1.189,0,1.783,0"/>
		
			<path fill="none" stroke="#FFFFFF" stroke-width="2.7185" stroke-linecap="round" stroke-linejoin="round" stroke-miterlimit="10" d="
			M1137.545,849.71c-0.594,0-1.189,0-1.783,0"/>
		
			<path fill="none" stroke="#FFFFFF" stroke-width="2.7185" stroke-linecap="round" stroke-linejoin="round" stroke-miterlimit="10" d="
			M1267.71,999.728"/>
		
			<path fill="none" stroke="#FFFFFF" stroke-width="2.7185" stroke-linecap="round" stroke-linejoin="round" stroke-miterlimit="10" d="
			M1392.525,924.719"/>
		
			<path fill="none" stroke="#FFFFFF" stroke-width="2.7185" stroke-linecap="round" stroke-linejoin="round" stroke-miterlimit="10" d="
			M1180.339,988.477"/>
		
			<path fill="none" stroke="#FFFFFF" stroke-width="2.7185" stroke-linecap="round" stroke-linejoin="round" stroke-miterlimit="10" d="
			M1363.996,1069.111c-1.783,0-3.566,0-5.349,0"/>
		
			<path fill="none" stroke="#FFFFFF" stroke-width="2.7185" stroke-linecap="round" stroke-linejoin="round" stroke-miterlimit="10" d="
			M1214.218,1080.362c0.594,0,1.189,0,1.783,0"/>
		
			<path fill="none" stroke="#FFFFFF" stroke-width="2.7185" stroke-linecap="round" stroke-linejoin="round" stroke-miterlimit="10" d="
			M1560.134,1136.619"/>
		
			<path fill="none" stroke="#FFFFFF" stroke-width="2.7185" stroke-linecap="round" stroke-linejoin="round" stroke-miterlimit="10" d="
			M1647.505,1134.744"/>
		
			<path fill="none" stroke="#FFFFFF" stroke-width="2.7185" stroke-linecap="round" stroke-linejoin="round" stroke-miterlimit="10" d="
			M1499.509,945.346"/>
		
			<path fill="none" stroke="#FFFFFF" stroke-width="2.7185" stroke-linecap="round" stroke-linejoin="round" stroke-miterlimit="10" d="
			M1643.938,950.972c-0.594,0.625-1.189,1.25-1.783,1.875"/>
		
			<path fill="none" stroke="#FFFFFF" stroke-width="2.7185" stroke-linecap="round" stroke-linejoin="round" stroke-miterlimit="10" d="
			M1754.489,980.976"/>
		
			<path fill="none" stroke="#FFFFFF" stroke-width="2.7185" stroke-linecap="round" stroke-linejoin="round" stroke-miterlimit="10" d="
			M1747.357,1070.986c-0.594-0.625-1.189-1.25-1.783-1.875"/>
		
			<path fill="none" stroke="#FFFFFF" stroke-width="2.7185" stroke-linecap="round" stroke-linejoin="round" stroke-miterlimit="10" d="
			M1831.161,935.97"/>
		
			<path fill="none" stroke="#FFFFFF" stroke-width="2.7185" stroke-linecap="round" stroke-linejoin="round" stroke-miterlimit="10" d="
			M1775.886,1213.503"/>
		
			<path fill="none" stroke="#FFFFFF" stroke-width="2.7185" stroke-linecap="round" stroke-linejoin="round" stroke-miterlimit="10" d="
			M1979.156,744.698c0,0.625,0,1.25,0,1.875"/>
		
			<path fill="none" stroke="#FFFFFF" stroke-width="2.7185" stroke-linecap="round" stroke-linejoin="round" stroke-miterlimit="10" d="
			M2052.262,725.946c0.594,0,1.189,0,1.783,0"/>
		
			<path fill="none" stroke="#FFFFFF" stroke-width="2.7185" stroke-linecap="round" stroke-linejoin="round" stroke-miterlimit="10" d="
			M1950.627,654.688c-0.594,0-1.189,0-1.783,0"/>
		
			<path fill="none" stroke="#FFFFFF" stroke-width="2.7185" stroke-linecap="round" stroke-linejoin="round" stroke-miterlimit="10" d="
			M2034.432,577.804c0,0.625,0,1.25,0,1.875"/>
		
			<path fill="none" stroke="#FFFFFF" stroke-width="2.7185" stroke-linecap="round" stroke-linejoin="round" stroke-miterlimit="10" d="
			M1957.759,309.647C1959.231,309.647,1959.231,309.647,1957.759,309.647"/>
		
			<path fill="none" stroke="#FFFFFF" stroke-width="2.7185" stroke-linecap="round" stroke-linejoin="round" stroke-miterlimit="10" d="
			M1890.002,339.651C1891.474,339.651,1891.474,339.651,1890.002,339.651"/>
		
			<path fill="none" stroke="#FFFFFF" stroke-width="2.7185" stroke-linecap="round" stroke-linejoin="round" stroke-miterlimit="10" d="
			M1813.33,459.665C1813.33,461.213,1813.33,461.213,1813.33,459.665"/>
		
			<path fill="none" stroke="#FFFFFF" stroke-width="2.7185" stroke-linecap="round" stroke-linejoin="round" stroke-miterlimit="10" d="
			M1742.007,140.878"/>
		
			<path fill="none" stroke="#FFFFFF" stroke-width="2.7185" stroke-linecap="round" stroke-linejoin="round" stroke-miterlimit="10" d="
			M1959.542,58.368c-0.594,0-1.189,0-1.783,0"/>
		
			<path fill="none" stroke="#FFFFFF" stroke-width="2.7185" stroke-linecap="round" stroke-linejoin="round" stroke-miterlimit="10" d="
			M2070.093,262.767c-0.594,0-1.189,0-1.783,0"/>
		
			<path fill="none" stroke="#FFFFFF" stroke-width="2.7185" stroke-linecap="round" stroke-linejoin="round" stroke-miterlimit="10" d="
			M2161.03,146.503"/>
		
			<path fill="none" stroke="#FFFFFF" stroke-width="2.7185" stroke-linecap="round" stroke-linejoin="round" stroke-miterlimit="10" d="
			M2209.173,165.256"/>
		
			<path fill="none" stroke="#FFFFFF" stroke-width="2.7185" stroke-linecap="round" stroke-linejoin="round" stroke-miterlimit="10" d="
			M2243.051,305.897c0,0.625,0,1.25,0,1.875"/>
		
			<path fill="none" stroke="#FFFFFF" stroke-width="2.7185" stroke-linecap="round" stroke-linejoin="round" stroke-miterlimit="10" d="
			M2401.745,324.649"/>
		
			<path fill="none" stroke="#FFFFFF" stroke-width="2.7185" stroke-linecap="round" stroke-linejoin="round" stroke-miterlimit="10" d="
			M2457.02,418.41"/>
		
			<path fill="none" stroke="#FFFFFF" stroke-width="2.7185" stroke-linecap="round" stroke-linejoin="round" stroke-miterlimit="10" d="
			M2487.332,319.023"/>
		
			<path fill="none" stroke="#FFFFFF" stroke-width="2.7185" stroke-linecap="round" stroke-linejoin="round" stroke-miterlimit="10" d="
			M2528.343,142.753"/>
		
			<path fill="none" stroke="#FFFFFF" stroke-width="2.7185" stroke-linecap="round" stroke-linejoin="round" stroke-miterlimit="10" d="
			M2581.835,56.493c-0.594,0-1.189,0-1.783,0"/>
		
			<path fill="none" stroke="#FFFFFF" stroke-width="2.7185" stroke-linecap="round" stroke-linejoin="round" stroke-miterlimit="10" d="
			M2647.809,197.134c0,0.625,0,1.25,0,1.875"/>
		
			<path fill="none" stroke="#FFFFFF" stroke-width="2.7185" stroke-linecap="round" stroke-linejoin="round" stroke-miterlimit="10" d="
			M2710.216,152.129c0-0.625,0-1.25,0-1.875"/>
		
			<path fill="none" stroke="#FFFFFF" stroke-width="2.7185" stroke-linecap="round" stroke-linejoin="round" stroke-miterlimit="10" d="
			M2676.338,364.029"/>
		
			<path fill="none" stroke="#FFFFFF" stroke-width="2.7185" stroke-linecap="round" stroke-linejoin="round" stroke-miterlimit="10" d="
			M2606.798,349.027c0.594,0.625,1.189,1.25,1.783,1.875"/>
		
			<path fill="none" stroke="#FFFFFF" stroke-width="2.7185" stroke-linecap="round" stroke-linejoin="round" stroke-miterlimit="10" d="
			M2647.809,439.037c0.594,0,1.189,0,1.783,0"/>
		
			<path fill="none" stroke="#FFFFFF" stroke-width="2.7185" stroke-linecap="round" stroke-linejoin="round" stroke-miterlimit="10" d="
			M2387.48,688.442c-1.188,0-2.377,0-3.566,0"/>
		
			<path fill="none" stroke="#FFFFFF" stroke-width="2.7185" stroke-linecap="round" stroke-linejoin="round" stroke-miterlimit="10" d="
			M2317.94,579.679"/>
		
			<path fill="none" stroke="#FFFFFF" stroke-width="2.7185" stroke-linecap="round" stroke-linejoin="round" stroke-miterlimit="10" d="
			M2225.22,697.818c-0.594,0.625-1.189,1.25-1.783,1.875"/>
		
			<path fill="none" stroke="#FFFFFF" stroke-width="2.7185" stroke-linecap="round" stroke-linejoin="round" stroke-miterlimit="10" d="
			M2185.993,609.682c-0.594-0.625-1.189-1.25-1.783-1.875"/>
		
			<path fill="none" stroke="#FFFFFF" stroke-width="2.7185" stroke-linecap="round" stroke-linejoin="round" stroke-miterlimit="10" d="
			M2253.75,598.431"/>
		
			<path fill="none" stroke="#FFFFFF" stroke-width="2.7185" stroke-linecap="round" stroke-linejoin="round" stroke-miterlimit="10" d="
			M2301.893,755.949"/>
		
			<path fill="none" stroke="#FFFFFF" stroke-width="2.7185" stroke-linecap="round" stroke-linejoin="round" stroke-miterlimit="10" d="
			M2519.427,750.324c-0.594,0-1.189,0-1.783,0"/>
		
			<path fill="none" stroke="#FFFFFF" stroke-width="2.7185" stroke-linecap="round" stroke-linejoin="round" stroke-miterlimit="10" d="
			M2599.666,632.185"/>
		
			<path fill="none" stroke="#FFFFFF" stroke-width="2.7185" stroke-linecap="round" stroke-linejoin="round" stroke-miterlimit="10" d="
			M2457.02,789.703c-0.594,0-1.189,0-1.783,0"/>
		
			<path fill="none" stroke="#FFFFFF" stroke-width="2.7185" stroke-linecap="round" stroke-linejoin="round" stroke-miterlimit="10" d="
			M2615.713,857.211c-0.594,0-1.188,0-1.783,0"/>
		
			<path fill="none" stroke="#FFFFFF" stroke-width="2.7185" stroke-linecap="round" stroke-linejoin="round" stroke-miterlimit="10" d="
			M2428.491,947.222"/>
		
			<path fill="none" stroke="#FFFFFF" stroke-width="2.7185" stroke-linecap="round" stroke-linejoin="round" stroke-miterlimit="10" d="
			M2474.851,1048.484"/>
		
			<path fill="none" stroke="#FFFFFF" stroke-width="2.7185" stroke-linecap="round" stroke-linejoin="round" stroke-miterlimit="10" d="
			M2353.602,1078.487"/>
		
			<path fill="none" stroke="#FFFFFF" stroke-width="2.7185" stroke-linecap="round" stroke-linejoin="round" stroke-miterlimit="10" d="
			M2107.538,887.215C2107.538,888.763,2107.538,888.763,2107.538,887.215"/>
		
			<path fill="none" stroke="#FFFFFF" stroke-width="2.7185" stroke-linecap="round" stroke-linejoin="round" stroke-miterlimit="10" d="
			M2228.787,950.972"/>
		
			<path fill="none" stroke="#FFFFFF" stroke-width="2.7185" stroke-linecap="round" stroke-linejoin="round" stroke-miterlimit="10" d="
			M2219.871,1110.366c-0.594,0-1.189,0-1.783,0"/>
		
			<path fill="none" stroke="#FFFFFF" stroke-width="2.7185" stroke-linecap="round" stroke-linejoin="round" stroke-miterlimit="10" d="
			M2073.659,1175.998c0-0.625,0-1.25,0-1.875"/>
		
			<path fill="none" stroke="#FFFFFF" stroke-width="2.7185" stroke-linecap="round" stroke-linejoin="round" stroke-miterlimit="10" d="
			M2296.543,1198.501c-0.594-0.625-1.189-1.25-1.783-1.875"/>
		
			<path fill="none" stroke="#FFFFFF" stroke-width="2.7185" stroke-linecap="round" stroke-linejoin="round" stroke-miterlimit="10" d="
			M2435.623,1215.378c0,0.625,0,1.25,0,1.875"/>
		
			<path fill="none" stroke="#FFFFFF" stroke-width="2.7185" stroke-linecap="round" stroke-linejoin="round" stroke-miterlimit="10" d="
			M2667.423,1129.118c0.594,0,1.189,0,1.783,0"/>
		
			<path fill="none" stroke="#FFFFFF" stroke-width="2.7185" stroke-linecap="round" stroke-linejoin="round" stroke-miterlimit="10" d="
			M2694.169,1010.979"/>
		
			<path fill="none" stroke="#FFFFFF" stroke-width="2.7185" stroke-linecap="round" stroke-linejoin="round" stroke-miterlimit="10" d="
			M2606.798,1219.128c-0.594,0.625-1.189,1.25-1.783,1.875"/>
	</g>
</g>
<g>
	<path opacity="0.05" fill="#E5EDD4" d="M318.441,1796.84h1557.18c446.928-265.893,746.4-753.734,746.4-1311.524
		c0-169.671-27.716-332.867-78.855-485.316H0v1544.62C94.178,1642.131,201.241,1727.114,318.441,1796.84z"/>
	<path opacity="0.05" fill="#E5EDD4" d="M2175.987,0H18.072C11.782,13.961,5.757,28.067,0,42.309v885.989
		c175.326,433.765,600.429,739.815,1097.029,739.815c653.241,0,1182.798-529.557,1182.798-1182.798
		C2279.827,312.361,2242.697,148.081,2175.987,0z"/>
	<path opacity="0.05" fill="#E5EDD4" d="M296.89,0c-93.46,145.352-147.68,318.33-147.68,503.975
		c0,515.337,417.763,933.099,933.099,933.099s933.1-417.763,933.1-933.099c0-185.645-54.22-358.624-147.68-503.975H296.89z"/>
	<path opacity="0.05" fill="#E5EDD4" d="M521.636,0C401.519,133.543,328.416,310.219,328.416,503.975
		c0,416.364,337.53,753.894,753.894,753.894s753.894-337.53,753.894-753.894c0-193.757-73.103-370.432-193.221-503.975H521.636z"/>
	<g>
		<g>
			<path fill="#EBEBEC" d="M1528.405,0h-892.19c-139.2,123.305-226.947,303.392-226.947,503.975
				c0,371.711,301.331,673.042,673.042,673.042s673.042-301.331,673.042-673.042C1755.352,303.392,1667.605,123.305,1528.405,0z"/>
		</g>
		<g>
			<g>
				<g>
					<path fill="#DFDFE0" d="M1114.645,653.011c35.887-14.122,81.532,8.44,92.108,45.527c8.287,29.062-2.75,61.715,8.672,89.694
						c8.363,20.485,27.903,34.938,49.035,41.493c19.961,6.192,42.864,6.824,58.476,20.717
						c16.776,14.929,19.127,41.579,10.275,62.217c-8.852,20.639-26.725,36.075-45.682,48.114
						c-35.293,22.414-77.08,35.639-118.826,33.356c-41.746-2.283-83.144-20.963-109.436-53.469
						c-37.589-46.472-39.646-112.755-27.15-171.205c8.766-41.007,27.046-84.41,64.824-102.61"/>
				</g>
				<g>
					<path fill="#DFDFE0" d="M1294.718,447.715c-5.838,5.012-11.643,10.254-15.711,16.785c-4.068,6.531-6.248,14.604-4.241,22.032
						c1.052,3.893,3.188,7.42,5.693,10.58c10.032,12.66,27.342,19.837,42.999,15.865c15.657-3.971,27.887-20.126,25.516-36.103
						c-1.827-12.307-11.46-22.475-22.82-27.55c-11.36-5.075-24.225-5.712-36.629-4.736"/>
				</g>
				<g>
					<path fill="#DFDFE0" d="M1339.255,733.874c-1.56-2.786-5.733-0.16-7.553,2.463c-9.251,13.331-18.787,27.393-20.624,43.515
						c-0.435,3.817-0.398,7.81,1.127,11.336c4.157,9.612,17.866,11.56,27.162,6.738c9.296-4.822,15.239-14.126,21.008-22.866
						c5.47-8.286,11.277-16.67,13.567-26.331c2.29-9.661,0.211-21.095-7.737-27.044c-7.948-5.95-21.885-2.906-24.266,6.733"/>
				</g>
				<g>
					<path fill="#DFDFE0" d="M834.851,949.567c-13.467-17.169-25.596-36.315-29.069-57.858
						c-3.472-21.543,3.475-45.918,21.596-58.073c9.302-6.239,20.569-8.78,31.655-10.378c15.894-2.291,32.44-2.842,47.689,2.19
						c15.249,5.032,29.072,16.448,33.653,31.839c4.008,13.468,0.66,27.855-0.256,41.877c-0.883,13.506,0.549,27.16,4.215,40.189
						c3.651,12.976,8.613,29.273-1.629,38.038c-4.809,4.116-11.571,4.895-17.896,5.16
						C885.811,984.184,857.612,980.172,834.851,949.567"/>
				</g>
				<g>
					<path fill="#DFDFE0" d="M634.267,538.688c-6.24,21.99-30.624,34.715-53.478,35.12c-4.977,0.088-9.988-0.284-14.809-1.523
						c-16.588-4.265-29.594-19.336-32.284-36.252c-2.69-16.915,4.608-34.836,17.77-45.797c9.87-8.22,22.317-12.552,34.467-16.72
						c12.114-4.156,25.525-8.298,37.39-3.478c7.639,3.103,13.385,9.49,18.775,15.728c4.272,4.944,8.758,10.662,8.282,17.179
						c-0.427,5.847-4.726,10.536-8.038,15.374c-3.311,4.838-5.729,11.514-2.392,16.334"/>
				</g>
				<g>
					<path fill="#DFDFE0" d="M790.886,578.689c-8.778,7.717-16.091,17.096-21.435,27.491c-4.602,8.952-7.783,18.96-6.883,28.985
						c0.9,10.025,6.48,20.006,15.614,24.234c14.013,6.487,30.488-2.141,41.503-12.964c9.479-9.313,17.389-21.047,18.774-34.263
						c1.385-13.216-5.26-27.826-17.663-32.596c-7.267-2.794-15.354-2.006-23.095-1.176"/>
				</g>
				<g>
					<path fill="#DFDFE0" d="M720.551,379.119c-38.631,3.561-76.277-24.452-89.162-61.045
						c-12.885-36.592-3.237-78.828,19.74-110.087c22.977-31.258,57.831-52.319,94.702-64.383
						c36.792-12.038,82.421-13.654,108.901,14.583c19.909,21.231,22.96,53.71,17.165,82.233
						c-5.795,28.523-19.085,54.897-28.228,82.529c-3.473,10.497-6.424,21.351-12.381,30.665
						c-10.497,16.414-29.385,26.105-48.608,29.281c-19.223,3.177-38.922,0.553-58.045-3.179"/>
				</g>
				<g>
					<path fill="#DFDFE0" d="M1005.308,190.05c-22.715,13.771-40.484,35.519-49.449,60.523c-4.885,13.625-6.796,30.037,1.947,41.572
						c6.166,8.135,16.417,12.101,26.445,14.007c32.11,6.104,65.426-5.267,92.855-23.043c14.92-9.669,29.117-21.938,35.732-38.44
						c2.124-5.298,3.419-11.046,2.796-16.72c-0.708-6.454-3.844-12.412-7.627-17.689c-21.243-29.63-66.221-38.932-97.474-20.16"/>
				</g>
				<g>
					<path fill="#DFDFE0" d="M748.593,0.021c0.944,4.788,3.758,9.546,7.364,12.909c8.266,7.71,19.973,11.244,31.255,10.539
						c11.282-0.705,22.103-5.408,31.093-12.26c3.969-3.026,7.734-6.731,9.785-11.188H748.593z"/>
				</g>
				<g>
					<path fill="#DFDFE0" d="M1125.532,0.021c-6.288,17.245-7.417,36.401-1.308,53.618c7.644,21.547,25.383,37.923,44.023,51.162
						c9.819,6.974,20.148,13.382,31.405,17.663c43.423,16.512,97.731-5.156,117.862-47.024c11.272-23.443,10.9-51.297,1.371-75.419
						H1125.532z"/>
				</g>
				<g>
					<path fill="#DFDFE0" d="M1464.045,207.117c-16.254,9.417-22.762,29.379-26.281,47.831c-1.686,8.844-2.982,18.064-0.679,26.768
						c3.699,13.98,16.032,24.069,29.023,30.423c9.455,4.625,20.859,7.746,30.305,3.104c12.107-5.95,15.448-21.586,15.524-35.076
						c0.075-13.389-1.637-26.787-5.076-39.727c-2.288-8.61-5.473-17.249-11.405-23.896c-5.932-6.648-15.111-10.975-23.822-9.108"/>
				</g>
				<g>
					<path fill="#DFDFE0" d="M1678.645,494.03c-11.364-8.535-24.88-10.834-38.927-12.995c-13.427-2.065-27.344-3.135-40.442,0.468
						c-13.098,3.603-25.347,12.63-29.711,25.494c-2.646,7.801-2.242,16.276-1.508,24.481c2.748,30.737,7.179,49.254,29.602,70.456
						c17.841,16.87,55.313,22.05,55.313,22.05C1661.698,599.462,1675.721,536.444,1678.645,494.03"/>
				</g>
			</g>
		</g>
		<path fill="#DFDFE0" d="M1630.317,113.163c36.427,82.83,56.654,174.395,56.654,270.686c0,371.711-301.331,673.042-673.042,673.042
			c-225.982,0-425.946-111.378-548.007-282.229c104.193,236.919,340.968,402.357,616.388,402.357
			c371.711,0,673.042-301.331,673.042-673.042C1755.352,358.247,1709.031,223.339,1630.317,113.163z"/>
	</g>
</g>
<g>
	<g>
		<g>
			<polygon fill="#4080C0" points="608.924,1405.402 812.95,1492.783 926.843,1449.092 998.238,1537.721 1071.979,1523.172 
				1106.152,1529.256 1197.282,1462.336 1358.83,1553.59 1457.209,1491.233 1514.165,1479.496 1553.517,1454.731 1608.402,1524.693 
				1694.354,1564.237 1740.954,1597.697 1845.546,1524.693 1872.471,1535.339 1972.921,1488.191 2043.339,1549.027 
				2186.248,1486.67 2236.99,1483.628 2272.199,1456.252 2332.262,1501.549 2431.677,1526.214 2559.051,1430.397 2654.323,1530.777 
				2697.817,1501.549 2741.311,1507.963 2797.231,1441.043 2850,1512.526 2850,1792.569 608.924,1792.569 			"/>
		</g>
		<polygon fill="#40B1DF" points="2797.231,1441.043 2741.311,1507.963 2697.817,1501.549 2654.323,1530.777 2559.051,1430.396 
			2431.677,1526.214 2332.262,1501.549 2272.199,1456.252 2236.99,1483.629 2186.248,1486.67 2043.339,1549.027 1972.921,1488.191 
			1872.471,1535.339 1845.546,1524.693 1740.954,1597.696 1694.354,1564.237 1608.402,1524.693 1553.517,1454.731 
			1514.165,1479.496 1457.209,1491.233 1358.83,1553.59 1197.282,1462.336 1106.152,1529.256 1071.979,1523.172 998.238,1537.721 
			926.843,1449.092 812.95,1492.783 608.924,1405.402 608.924,1426.399 692.661,1468.631 747.621,1540.178 758.239,1523.667 
			813.824,1598.985 783.221,1504.405 923.746,1464.962 906.259,1509.501 935.613,1472.3 956.848,1498.901 951.851,1509.501 
			931.865,1521.833 961.22,1516.329 967.465,1509.501 989.949,1542.013 934.988,1564.944 1070.517,1533.757 1081.134,1560.358 
			1071.766,1588.793 1096.748,1566.779 1093.001,1542.93 1116.109,1553.937 1105.492,1588.793 1196.677,1478.721 1332.206,1565.862 
			1277.869,1598.985 1458.99,1505.322 1510.204,1494.315 1551.425,1466.797 1605.137,1532.84 1655.012,1569.276 1658.46,1561.399 
			1679.916,1608.103 1679.916,1570.402 1695.241,1577.154 1732.788,1605.289 1681.065,1636.238 1789.875,1581.656 
			1785.661,1598.985 1818.227,1557.46 1815.928,1570.402 1846.196,1538.328 1863.437,1542.83 1835.851,1565.338 1918.225,1528.127 
			1918.225,1543.955 1951.175,1508.505 1951.175,1528.127 1968.799,1508.505 1982.975,1523.698 1982.975,1501.753 
			2036.997,1552.958 2006.729,1576.592 2184.886,1492.749 2230.479,1503.441 2271.475,1464.614 2271.475,1488.81 2278.587,1471.915 
			2280.826,1482.438 2286.647,1477.615 2328.895,1505.878 2427.471,1528.752 2405.293,1546.912 2553.801,1443.381 
			2647.729,1533.181 2622.384,1551.642 2664.42,1529.853 2668.954,1533.787 2680.287,1520.82 2682.554,1526.523 2697.39,1507.76 
			2733.106,1515.24 2714.482,1549.196 2770.355,1486.001 2767.786,1507.695 2787.695,1470.91 2788.337,1488.831 2802.466,1467.137 
			2850,1512.526 		"/>
	</g>
	<g>
		<g>
			<polygon fill="#356FBA" points="2850,1564.367 2645.974,1617.547 2532.081,1590.957 2460.686,1644.897 2386.945,1636.043 
				2352.771,1639.745 2261.642,1599.017 2100.094,1654.555 2001.715,1616.604 1944.759,1609.461 1905.407,1594.389 
				1850.522,1636.968 1764.57,1661.035 1717.97,1681.399 1613.378,1636.968 1586.453,1643.448 1486.003,1614.753 1415.584,1651.779 
				1272.676,1613.828 1221.934,1611.976 1186.724,1595.315 1126.661,1622.883 1027.247,1637.894 899.873,1579.579 804.601,1640.671 
				761.107,1622.883 717.613,1626.786 661.693,1586.058 608.924,1629.563 608.924,1800 2850,1800 			"/>
		</g>
		<polygon fill="#4087E3" points="661.693,1586.058 717.613,1626.786 761.107,1622.883 804.601,1640.671 899.873,1579.579 
			1027.247,1637.894 1126.661,1622.883 1186.724,1595.315 1221.934,1611.976 1272.676,1613.827 1415.584,1651.778 
			1486.003,1614.753 1586.453,1643.448 1613.377,1636.968 1717.97,1681.399 1764.57,1661.035 1850.522,1636.968 1905.407,1594.389 
			1944.759,1609.461 2001.715,1616.604 2100.094,1654.555 2261.642,1599.017 2352.771,1639.745 2386.945,1636.043 
			2460.685,1644.897 2532.081,1590.957 2645.974,1617.547 2850,1564.367 2850,1577.146 2766.263,1602.849 2711.302,1646.393 
			2700.685,1636.344 2645.099,1682.183 2675.703,1624.621 2535.178,1600.616 2552.665,1627.722 2523.311,1605.082 
			2502.076,1621.271 2507.073,1627.722 2527.058,1635.228 2497.704,1631.878 2491.459,1627.722 2468.975,1647.509 
			2523.936,1661.466 2388.407,1642.485 2377.79,1658.675 2387.158,1675.981 2362.176,1662.582 2365.923,1648.068 2342.814,1654.767 
			2353.432,1675.981 2262.247,1608.99 2126.718,1662.024 2181.054,1682.183 1999.933,1625.179 1948.72,1618.48 1907.499,1601.732 
			1853.787,1641.927 1803.912,1664.102 1800.464,1659.308 1779.008,1687.732 1779.008,1664.787 1763.683,1668.897 1726.136,1686.02 
			1777.859,1704.855 1669.049,1671.637 1673.263,1682.183 1640.697,1656.911 1642.996,1664.787 1612.728,1645.267 
			1595.487,1648.006 1623.073,1661.705 1540.699,1639.058 1540.699,1648.692 1507.749,1627.116 1507.749,1639.058 
			1490.125,1627.116 1475.949,1636.363 1475.949,1623.007 1421.927,1654.171 1452.195,1668.554 1274.037,1617.527 
			1228.444,1624.034 1187.449,1600.404 1187.449,1615.13 1180.337,1604.848 1178.098,1611.252 1172.277,1608.316 1130.029,1625.517 
			1031.453,1639.439 1053.631,1650.491 905.123,1587.481 811.194,1642.135 836.54,1653.37 794.503,1640.109 789.97,1642.503 
			778.637,1634.611 776.37,1638.082 761.534,1626.663 725.817,1631.215 744.441,1651.881 688.569,1613.42 691.138,1626.623 
			671.229,1604.235 670.587,1615.142 656.458,1601.939 608.924,1629.563 		"/>
	</g>
	<g>
		<polygon fill="#19529C" points="608.924,1704.855 725.876,1682.183 832.84,1728.698 892.514,1728.698 921.789,1752.09 
			1015.583,1724.274 1085.049,1773.533 1208.902,1773.533 1386.8,1744.293 1569.202,1773.533 1729.462,1800 1891.219,1771.584 
			1995.931,1775.482 2066.865,1741.092 2185.088,1741.092 2262.778,1769.634 2325.83,1741.092 2385.758,1754.039 2481.209,1794.976 
			2641.438,1757.979 2704.502,1800 608.924,1800 		"/>
		<g>
			<polygon fill="#3B7BCF" points="1891.219,1784.953 1995.931,1788.852 2066.865,1754.461 2185.088,1754.461 2262.778,1783.004 
				2325.831,1754.461 2385.758,1767.409 2461.751,1800 2517.351,1800 2641.438,1771.348 2684.438,1800 2704.502,1800 
				2641.438,1757.979 2481.209,1794.976 2385.758,1754.039 2325.831,1741.092 2262.778,1769.634 2185.088,1741.092 
				2066.865,1741.092 1995.931,1775.482 1891.219,1771.583 1729.462,1800 1805.565,1800 			"/>
			<polygon fill="#3B7BCF" points="608.924,1709.833 725.876,1695.553 833.125,1735.503 892.514,1742.067 922.224,1757.77 
				1014.955,1735.814 1085.173,1778.975 1209.284,1778.147 1386.8,1757.662 1569.42,1778.975 1648.51,1800 1729.462,1800 
				1569.202,1773.533 1386.8,1744.293 1208.902,1773.533 1085.049,1773.533 1015.583,1724.274 921.789,1752.09 892.514,1728.698 
				832.84,1728.698 725.876,1682.183 608.924,1704.855 608.924,1800 608.924,1800 			"/>
		</g>
	</g>
</g>
<g>
	<polygon fill="#4067C0" points="1358.646,744.698 1332.218,780.562 1294.988,786.849 1273.186,826.756 806.137,958.728 
		795.832,1126.892 762.768,1145.591 778.572,1220.566 669.7,1562.299 849.921,1800 0,1800 0,853.404 	"/>
	<polygon fill="#130046" points="1345.11,756.652 1280.579,767.723 1295.297,779.717 1289.636,789.258 1023.051,854.428 
		457.165,890.428 590.061,930.081 188.649,998.651 0,998.651 0,1136.039 233.941,1119.378 806.137,958.728 1273.186,826.756 
		1294.988,786.849 1332.218,780.562 1358.646,744.698 	"/>
	<polygon fill="#130046" points="897.432,930.057 233.941,1119.378 0,1130.277 0,1800 849.921,1800 608.924,1554.002 
		529.996,1564.911 603.858,1542.634 683.004,1486.29 696.904,1456.941 550.13,1503.732 383.47,1518.192 538.944,1493.721 
		692.364,1441.412 529.996,1461.463 203.389,1493.721 526.641,1451.451 703.82,1411.032 754.71,1245.293 778.488,1219.913 
		775.967,1208.023 617.133,1249.736 762.381,1203.209 771.082,1184.975 694.667,1213.083 369.176,1296.562 261.25,1305.08 
		632.995,1207.972 139.619,1318.71 732.355,1163.677 391.447,1228.416 762.636,1145.125 795.8,1126.472 799.12,1073.766 
		630.088,1107.043 800.064,1058.763 801.067,1042.844 669.756,1069.005 801.814,1030.985 802.951,1012.944 890.595,962.07 	"/>
	<polygon fill="#4067C0" points="0,831.876 864.354,744.698 1358.646,744.698 1345.11,756.652 1280.579,767.723 1295.297,779.717 
		1289.636,789.258 1023.051,854.428 444.363,887.732 705.908,909.856 901.937,900 898.668,914.654 233.941,1119.378 0,1130.277 	"/>
	<g>
		<polygon fill="#4067C0" points="386.878,1516.997 735.072,1439.73 872.388,1447.724 883.831,1463.71 772.67,1501.011 
			517.655,1532.984 		"/>
		<polygon fill="#130046" points="883.831,1463.71 830.025,1521.311 748.409,1560.981 693.297,1650.872 625.966,1686.775 
			513.734,1571.2 517.655,1532.984 772.67,1501.011 		"/>
		<linearGradient id="SVGID_2_" gradientUnits="userSpaceOnUse" x1="564.4693" y1="1531.4972" x2="597.5837" y2="1682.6311">
			<stop  offset="0.0013" style="stop-color:#1B005E"/>
			<stop  offset="1" style="stop-color:#140045"/>
		</linearGradient>
		<polygon fill="url(#SVGID_2_)" points="399.461,1759.114 635.354,1654.85 772.67,1501.011 517.655,1532.984 		"/>
		<linearGradient id="SVGID_3_" gradientUnits="userSpaceOnUse" x1="452.8831" y1="1522.5776" x2="378.6216" y2="1756.6626">
			<stop  offset="5.268895e-04" style="stop-color:#1F0062"/>
			<stop  offset="1" style="stop-color:#140045"/>
		</linearGradient>
		<polygon fill="url(#SVGID_3_)" points="386.878,1516.057 365.791,1758.174 399.461,1758.174 517.655,1532.984 		"/>
	</g>
	<g>
		<polygon fill="#4067C0" points="221.521,1386.699 104.475,1472.974 158.609,1482.513 386.545,1405.402 		"/>
		<linearGradient id="SVGID_4_" gradientUnits="userSpaceOnUse" x1="127.2472" y1="1485.7261" x2="69.9812" y2="1592.1735">
			<stop  offset="5.268895e-04" style="stop-color:#1F0062"/>
			<stop  offset="1" style="stop-color:#140045"/>
		</linearGradient>
		<polygon fill="url(#SVGID_4_)" points="104.475,1472.974 55.546,1599.359 158.609,1482.513 		"/>
		<linearGradient id="SVGID_5_" gradientUnits="userSpaceOnUse" x1="273.0707" y1="1431.9396" x2="267.0073" y2="1579.4839">
			<stop  offset="5.268895e-04" style="stop-color:#1F0062"/>
			<stop  offset="1" style="stop-color:#140045"/>
		</linearGradient>
		<polygon fill="url(#SVGID_5_)" points="158.609,1482.513 224.566,1554.527 339.568,1615.324 386.545,1405.402 		"/>
		<polygon fill="#130046" points="158.609,1482.513 55.546,1599.359 224.566,1554.527 242.757,1454.045 		"/>
	</g>
</g>
<g>
	<ellipse fill="#3040A3" cx="962.403" cy="775.122" rx="109.5" ry="12.918"/>
	<g>
		<g>
			<path fill="#130046" d="M1070.816,621.842c0.631-12.883-0.447-25.848-3.198-38.449c-2.128-9.749,1.042-20.53,3.62-30.169
				c0.92-3.439,2.124-6.796,3.428-10.109c0.545-1.385,1.117-2.894,0.7-4.322c-0.509-1.746-2.355-2.845-2.879-4.586
				c-2.172,2.985-4.344,5.97-6.516,8.955c0.691-3.738,1.844-7.391,3.427-10.848c0.197-0.43,0.405-0.88,0.375-1.352
				c-0.03-0.474-0.297-0.897-0.559-1.293c-1.135-1.711-2.355-3.367-3.653-4.958c-0.531-0.651-1.115-1.319-1.911-1.586
				s-0.905-0.454-1.422,0.208c-5.318,6.813-10.636,13.626-15.954,20.439c-0.939,1.203-1.928,2.448-3.305,3.108
				c-1.54,0.739-3.407,0.663-4.857,1.567c-1.228,0.766-1.955,2.107-2.627,3.388c-2.605,4.964-5.21,9.928-7.815,14.892
				c-0.549,1.045-1.104,2.101-1.873,2.997c-0.767,0.894-1.723,1.601-2.636,2.345c-3.986,3.249-7.284,7.339-9.612,11.924
				c4.136-0.636,8.191-1.801,12.034-3.458c-3.548,6.667-8.546,12.558-14.547,17.145c-0.978,0.747-2.012,1.494-2.614,2.568
				c-0.283,0.504-0.467,1.076-0.862,1.499c-0.289,0.31-0.669,0.516-1.043,0.716c-4.186,2.246-8.371,4.492-12.557,6.738
				c0.632,0.474,1.264,0.948,1.896,1.422c-5.753,2.187-11.506,4.374-17.26,6.561c-5.09,1.935-8.805,5.694-14.007,7.3
				c-1.001,0.309-2.002,0.618-3.003,0.927c-7.791,2.406-15.581,4.811-23.372,7.217c-16.232,5.012-32.673,10.118-47.07,19.137
				c0.915,0.613,1.831,1.226,2.746,1.839c-4.194,2.514-7.351,6.406-10.376,10.248c-6.985,8.873-14.135,18.234-24.3,23.151
				c-11.956,5.783-26.085,4.428-39.055,1.567c4.005,7.157,11.429,12.297,19.538,13.526c-1.151,0.439-2.302,0.879-3.453,1.318
				c2.363,1.341,4.889,2.393,7.503,3.135c0.344-0.216,0.862-0.201,0.818,0.225c-0.274-0.07-0.546-0.147-0.818-0.225
				c-0.193,0.121-0.332,0.313-0.286,0.549c0.129,0.655,0.907,0.921,1.562,1.049c5.229,1.017,10.681,0.867,15.846-0.436
				c-0.924,0.855-1.849,1.71-2.774,2.565c4.891-0.531,9.66-2.162,13.851-4.739c-0.526,0.985-1.053,1.97-1.579,2.954
				c6.311-2.952,12.466-6.236,18.442-9.819c-0.92,8.127-1.546,15.765-1.595,21.44c0,0,0.76-2.908,1.393-4.064
				c-0.119,2.929-0.362,4.452-0.495,7.237c-0.189,3.991-0.98,7.925-2.304,11.629c-1.326,3.711-2.362,7.207-3.234,11.092
				c-0.549,2.447-1.718,6.49-1.585,8.997c0.014,0.256,0.028,0.505,0.042,0.753c0.531-0.09,0.531-0.09,0,0
				c0.292,5.071,0.734,8.603,0.811,13.85c0.008,0.518,0.053,1.064,0.125,1.62c0.465,3.619,2.071,7.692,2.071,7.692
				s4.584,0.619,8.126,0.895c0.992,0.077,1.992,0.011,2.988,0.016c0.31,0.002,0.646-0.006,0.898-0.234
				c0.308-0.279,0.783-0.794,0.837-1.249c0.255-2.169,0.112-4.328,0.367-6.497c0.115-0.978,0.227-1.998-0.036-2.92
				c-0.262-0.92-1.46-2.704-2.119-3.259c-0.763-0.643-1.099-1.494-1.199-2.541c-0.184-1.928,0.437-4.521,0.685-7.71
				c0.267-3.435,4.384-6.959,6.488-9.358c0.212-0.242,0.43-0.499,0.654-0.769c-0.359,0.368-0.724,0.726-1.096,1.074
				c0.371-0.348,0.737-0.706,1.096-1.074c1.886-1.991,4.061-5.036,6.365-8.765c-0.466,0.968-0.972,1.905-1.558,2.78
				c1.666-0.13,3.309-0.897,4.634-2.164l-1.814,4.223l2.006-1.542c-0.988,2.072-2.173,4.013-3.523,5.769
				c0.591-0.479,1.414-1.078,2.005-1.557l-0.132,1.584c-0.464,2.305-0.929,4.611-1.393,6.916c-0.045,0.224-0.089,0.466-0.015,0.675
				c0.062,0.174,0.195,0.291,0.32,0.406c2.157,1.996,2.971,5.43,3.526,8.667c0.159,0.929,0.313,1.875,0.493,2.811
				c0.446,2.323,1.052,4.582,2.315,6.354c2.335,3.278,6.283,4.342,6.283,4.342s7.91,0.877,9.936-0.051
				c0.383-0.175,0.776-0.417,0.988-0.841c0.18-0.361,0.202-0.797,0.218-1.214c0.051-1.291,0.102-2.582,0.153-3.873
				c0.019-0.479,0.034-0.983-0.144-1.405c-0.288-0.683-0.971-0.936-1.574-1.187c-2.072-0.861-3.925-2.423-5.296-4.466
				c-0.565-0.841-1.059-1.791-1.22-2.866c-0.143-0.954-0.014-1.949-0.12-2.912c-0.183-1.656-1.437-4.221-1.27-5.208
				c-0.002,0.004-0.003,0.008-0.005,0.012c0.021-0.091,0.044-0.183,0.063-0.272c0.233-1.093,0.514-2.16,0.965-3.156
				c2.238-4.95,4.523-9.979,5.512-15.452l-1.529,0.946c0.069-0.057,0.136-0.114,0.205-0.171c1.176-0.973,2.743-1.823,4.063-2.455
				c2.632-1.259,5.424-1.484,7.956-3.026c2.905-1.769,5.643-4.611,7.574-7.78c0.877-1.439,1.602-2.934,2.255-4.471
				c1.695-2.974,3.053-5.094,4.368-5.407c9.577-2.285,17.831-1.643,30.746-9.973c-0.001,0.009,1.474-0.196,3.198-0.439
				c-0.925,8.5-2.227,20.865-3.136,25.765c-0.531-0.816-0.966-1.75-1.285-2.76c-0.261,2.379-0.186,5.359,0.271,7.633
				c-0.496-0.379-1.095-1.042-1.258-1.792c0.109,2.007,0.596,3.458,0.959,5.392c-0.354-0.457-0.707-0.914-1.061-1.371
				c0.079,1.808,0.55,3.554,1.34,4.964c0.346,0.617,0.764,1.207,0.875,1.981c0.128,0.894-0.418,2.963-0.553,3.873
				c-0.376,2.536,0.809,2.967,1.448,5.333c0.697,2.579,0.809,5.873,0.874,9.053c0.038,1.856,0.061,3.674,0.174,5.288
				c0.307,4.382,1.406,8.347,3.405,11.694c0.448,0.751,2.184,1.883,2.907,1.939c1.283,0.1,8.739,0.68,10.243,0.797
				c2.432,0.189,3.797-7.495,1.966-10.861c-1.423-2.616-2.953-4.457-3.898-7.469c-1.232-3.928-0.904-8.497-0.506-12.839
				c0.082-0.896,0.167-1.795,0.257-2.693c0.626-6.271,1.496-12.554,3.462-18.352c0.435-1.282,0.923-2.539,1.538-3.684
				c0.649-1.208,1.429-2.275,2.139-3.419c1.472-2.372,2.621-5.047,3.575-7.856c0.178,0.165,0.359,0.326,0.543,0.483
				c-1.56,6.638-3.939,15.034-5.308,17.872c-0.234-0.669-0.808-1.553-0.716-2.304c-0.408,1.739-0.662,3.535-0.755,5.337
				c-0.214-0.281-0.317-0.713-0.269-1.126c-0.126,1.184-0.178,2.378-0.154,3.564c-0.319-0.221-0.542-0.669-0.579-1.163
				c-0.749,2.771,1.688,5.27,1.454,8.174c-0.065,0.81-0.341,1.614-0.255,2.409c0.078,0.72,0.437,1.294,0.749,1.869
				c1.236,2.275,1.885,5.004,2.401,7.807c0.24,1.303,0.451,2.622,0.679,3.919c0.718,4.084,0.666,6.962,3.106,9.436
				c1.288,1.305,4.212,3.512,4.908,3.799c0.182,0.076,0.37,0.12,0.562,0.135c1.287,0.102,6.722,0.502,8.947,0.148
				c0.612-0.097,1.285-0.264,1.691-0.919c0.207-0.335,0.316-0.757,0.412-1.17c0.347-1.499,0.584-3.039,0.707-4.587
				c0.038-0.48,0.063-0.978-0.061-1.419c-0.166-0.593-0.57-0.978-0.954-1.33c-1.949-1.787-3.688-2.905-5.637-4.692
				c-0.427-0.391-1.074-1.467-1.343-2.066c-0.199-0.444-0.316-0.956-0.381-1.476c-0.278-2.223-0.232-3.719-1.077-6.154
				c-0.157-0.454-0.237-0.951-0.284-1.461c-0.04-0.439-0.056-0.888-0.072-1.327c-0.135-3.698,1.611-7.078,2.949-10.4
				c1.679-4.17,2.797-8.679,3.906-13.16c0.698-2.82,1.396-5.64,2.094-8.46c8.1-11.414,12.12-34.786,13.581-37.485
				c0.718-1.325,1.499-2.718,2.808-3.465c1.309-0.747,3.301-0.505,3.916,0.872c2.609-3.839,4.785-7.973,6.474-12.297
				c-0.095,1.066,0.293,2.166,1.035,2.937c2.375-3.783,3.984-8.045,4.704-12.453c0.437,1.152,0.875,2.304,1.312,3.456
				c1.904-5.864,3.103-11.957,3.563-18.106c0.595,1.416,1.19,2.833,1.784,4.249c0.626-7.226,0.912-14.482,0.857-21.735
				C1069.814,619.581,1070.315,620.711,1070.816,621.842z"/>
		</g>
	</g>
</g>
<g>
	<polygon fill="#4067C0" points="2850,1002.571 2644.101,988.477 2539.827,1038.702 2155.567,1056.559 2155.567,1091.653 
		2572.026,1164.272 2850,1177.965 	"/>
	<polygon fill="#130046" points="2850,1800 2850,1177.965 2572.026,1164.272 2155.567,1091.653 2218.062,1202.523 
		2291.248,1246.212 2355.693,1578.077 2218.062,1800 	"/>
	<polygon fill="#4067C0" points="2459.707,1229.246 2670.048,1229.886 2457.589,1238.659 2333.062,1233.631 2474.123,1262.393 
		2670.048,1262.393 2474.069,1272.219 2313.043,1254.24 2457.531,1296.931 2547.25,1296.931 2460.326,1309.121 2322.164,1282.99 
		2375.651,1553.117 2422.615,1564.367 2461.969,1566.836 2421.157,1570.809 2384.199,1570.444 2419.212,1576.894 2538.291,1579.363 
		2414.784,1594.12 2391.34,1591.442 2292.153,1745.333 2368.221,1758.486 2283.808,1765.225 2278.723,1778.703 2351.949,1778.703 
		2273.638,1800 2218.062,1800 2355.693,1578.077 2291.248,1246.212 2218.062,1202.523 	"/>
	<g>
		<polygon fill="#4067C0" points="2474.375,1484.673 2591.421,1570.948 2537.288,1580.487 2309.351,1503.376 		"/>
		
			<linearGradient id="SVGID_6_" gradientUnits="userSpaceOnUse" x1="2547.2014" y1="1583.7004" x2="2489.9355" y2="1690.1479" gradientTransform="matrix(-1 0 0 1 5115.8506 0)">
			<stop  offset="0.0069" style="stop-color:#22005E"/>
			<stop  offset="1" style="stop-color:#140045"/>
		</linearGradient>
		<polygon fill="url(#SVGID_6_)" points="2591.421,1570.948 2640.35,1697.334 2537.288,1580.487 		"/>
		
			<linearGradient id="SVGID_7_" gradientUnits="userSpaceOnUse" x1="2693.0249" y1="1529.9139" x2="2686.9617" y2="1677.4583" gradientTransform="matrix(-1 0 0 1 5115.8506 0)">
			<stop  offset="0.0054" style="stop-color:#220062"/>
			<stop  offset="1" style="stop-color:#140045"/>
		</linearGradient>
		<polygon fill="url(#SVGID_7_)" points="2537.288,1580.487 2471.331,1652.501 2356.328,1713.298 2309.351,1503.376 		"/>
		<polygon fill="#130046" points="2537.288,1580.487 2640.35,1697.334 2471.331,1652.501 2453.139,1552.02 		"/>
	</g>
</g>
<g>
	<g>
		<path fill="#130046" d="M2622.733,984.761l-8.443-8.279l16.091-46.921l-5.901-56.629l-6.005-2.798l2.321,61.887l-17.657,33.527
			l-20.183-19.791c0,0-0.692-3.192-1.78-8.277c-3.855-18.265-11.684-55.867-13.463-67.346l-5.884,25.611
			c1.431,10.919,4.436,31.222,6.705,46.337l-57.278-16.401l-14.866-48.479h-3.812l12.198,58.319l66.5,24.69l31.199,31.515
			l0.414,85.431l31.224-3.929L2622.733,984.761z"/>
		<g>
			<path fill="#4067C0" d="M2570.847,942.081c-2.27-15.115-5.274-35.418-6.705-46.337l4.561-19.852
				c-0.418-2.296-0.757-4.256-0.99-5.758l-5.884,25.611c1.409,10.755,4.344,30.606,6.601,45.645L2570.847,942.081z"/>
			<polygon fill="#4067C0" points="2603.927,964.052 2605.452,965.547 2623.109,932.021 2620.829,871.23 2618.476,870.134 
				2620.797,932.021 			"/>
			<polygon fill="#4067C0" points="2604.788,991.725 2573.589,960.21 2507.089,935.52 2494.892,877.201 2492.579,877.201 
				2504.777,935.52 2571.277,960.21 2602.476,991.725 2602.889,1077.156 2605.2,1076.866 			"/>
		</g>
	</g>
	<g>
		<path fill="#130046" d="M2602.42,1083.205c-15.639-6.858-28.29-20.249-34.249-36.252c10.168,0.228,18.358,8.021,25.45,15.311
			c-4.619-9.282-9.157-18.605-13.612-27.967c-1.09-2.291-2.204-4.785-1.721-7.276c3.879,1.472,6.855,4.649,9.316,7.989
			c6.68,9.065,10.531,19.851,14.293,30.464c-0.529-8.052-1.007-16.107-1.434-24.166c8.888,11.124,13.325,25.706,12.138,39.895"/>
	</g>
	<g>
		<path fill="#130046" d="M2623.788,1074.527c2.168-12.715,11.69-36.56,20.397-46.076c-2.752,8.615-5.505,17.229-8.257,25.844
			c6.246-14.386,16.316-27.091,28.897-36.456c-7.469,8.878-13.791,18.719-18.762,29.202c-1.763,3.717-3.371,7.566-3.975,11.635
			c3.236-5.965,8.312-10.914,14.357-13.998c-4.659,5.529-8.531,11.719-11.464,18.328c3.67-3.876,7.987-7.138,12.718-9.611
			c-4.914,7.071-9.421,14.425-13.492,22.013"/>
	</g>
	<g>
		<path fill="#130046" d="M2743.562,842.476c-1.795-0.661-3.675-1.593-4.5-3.319c-0.925-1.936-0.235-4.209,0.295-6.288
			c3.467-13.594-1.195-28.94-11.637-38.309c-1.792-1.608-3.782-3.106-4.933-5.221c-2.624-4.822,0.072-10.87,3.687-15.001
			c3.615-4.131,8.259-7.582,10.433-12.624c4.911-11.389-6.28-24.48-18.541-26.346c-10.555-1.606-20.933,2.366-30.684,7.059
			c-2.345,1.129-5.117-0.289-5.59-2.849c-4.13-22.376-10.865-45.116-26.942-60.99c-11.464-11.32-26.7-18.067-42.161-22.596
			c-30.379-8.899-63.203-9.999-93.761-1.736c-30.558,8.263-58.688,26.062-78.127,51.046c-8.086,10.393-14.787,22.323-16.495,35.38
			c-1.44,11.011,1.186,22.913,8.163,31.366c1.722,2.087,0.962,5.223-1.551,6.226c-15.59,6.218-27.714,20.876-30.411,37.504
			c-2.43,14.983,2.906,30.868,13.369,41.786c2.323,2.424,0.728,6.474-2.624,6.66c-7.599,0.421-15.122,2.246-22.05,5.398
			c-4.497,2.045-9.046,4.989-10.728,9.634c-0.747,2.064-0.59,4.469,0.248,6.509c1.006,2.448-0.455,5.181-3.085,5.473
			c-7.992,0.887-15.961,1.978-23.898,3.271c-4.419,0.72-4.387,7.079,0.029,7.821c33.174,5.578,67.932,1.744,99-11.194
			c5.008-2.086,10.721-4.408,15.629-2.097c2.51,1.182,4.365,3.423,6.752,4.837c4.652,2.755,10.53,1.987,15.789,0.732
			c12.276-2.931,24.02-8.071,34.507-15.092c1.417-0.949,3.293-0.842,4.626,0.221c25.054,19.988,65.459,17.305,87.709-5.737
			c1.3-1.346,3.358-1.624,4.939-0.622c8.554,5.417,19.523,6.542,29.57,4.707c11.121-2.031,21.363-7.306,31.182-12.911
			c2.651-1.513,5.412-3.096,8.459-3.285c2.518-0.156,4.981,0.657,7.397,1.385c26.466,7.974,55.701,6.394,81.156-4.378
			c0.212-0.09,0.428-0.159,0.654-0.209c0.015-0.003,0.03-0.007,0.045-0.01c3.557-0.79,4.232-5.562,1.05-7.337
			C2770.082,845.51,2755.419,846.845,2743.562,842.476z"/>
	</g>
	<g>
		<path fill="#4067C0" d="M2479.257,887.033c-4.841-1.902-8.835-7.383-8.195-13.278c-11.169,5.671-23.6,10.287-34.752,3.112
			c-3.786-3.164-6.414-6.432-4.512-11.273c2.957-6.103,9.492-11.359,17.704-10.927c-22.321-1.504-28.078-26.678-22.684-44.676
			c5.394-17.998,22.459-23.029,38.676-24.482c-20.419-6.345-36.394-28.268-28.994-49.949
			c25.937-68.388,106.846-91.574,175.908-79.729c-30.216-8.744-62.815-9.786-93.179-1.576
			c-30.558,8.263-58.688,26.062-78.127,51.046c-8.086,10.393-14.787,22.323-16.495,35.38c-1.44,11.011,1.186,22.913,8.163,31.366
			c1.722,2.087,0.962,5.223-1.551,6.226c-15.59,6.218-27.714,20.876-30.411,37.504c-2.43,14.983,2.906,30.868,13.369,41.786
			c2.323,2.424,0.728,6.474-2.624,6.66c-7.599,0.421-15.122,2.246-22.05,5.398c-4.497,2.045-9.046,4.989-10.728,9.634
			c-0.747,2.064-0.59,4.469,0.248,6.509c1.006,2.448-0.454,5.181-3.085,5.473c-7.992,0.887-15.961,1.978-23.898,3.271
			c-4.419,0.72-4.387,7.079,0.029,7.821c33.174,5.578,67.932,1.744,99-11.194c5.008-2.086,10.721-4.408,15.629-2.097
			c2.51,1.182,4.365,3.423,6.752,4.837c4.652,2.755,10.53,1.987,15.789,0.732c12.276-2.931,24.02-8.071,34.507-15.092
			c1.417-0.949,3.293-0.842,4.626,0.221c4.223,3.369,8.888,6.078,13.823,8.17c-6.098-5.951-11.379-12.707-15.531-19.13
			C2514.959,881.5,2497.358,893.585,2479.257,887.033z"/>
	</g>
</g>
</svg>
