<svg height="512pt" viewBox="0 0 512 512.00148" width="512pt" xmlns="http://www.w3.org/2000/svg"><path d="m116 452c-5.519531 0-10 4.480469-10 10 0 5.523438 4.480469 10 10 10s10-4.476562 10-10c0-5.519531-4.480469-10-10-10zm0 0"/><path d="m502 120.003906c-5.523438 0-10 4.476563-10 10v10h-21.71875c-4.128906-11.640625-15.246094-20-28.28125-20h-198c-5.523438 0-10 4.476563-10 10 0 5.519532 4.476562 10 10 10h198c5.515625 0 10 4.484375 10 10 0 5.511719-4.484375 10-10 10h-372c-5.511719 0-10-4.488281-10-10 0-5.515625 4.488281-10 10-10h94c5.523438 0 10-4.480468 10-10 0-5.523437-4.476562-10-10-10h-94c-13.035156 0-24.152344 8.359375-28.28125 20h-21.71875v-10c0-5.523437-4.476562-10-10-10s-10 4.476563-10 10v40c0 5.519532 4.476562 10 10 10s10-4.480468 10-10v-10h21.71875c4.128906 11.636719 15.246094 20 28.28125 20h16.96875c5.769531 54.542969 36.992188 100.738282 80.984375 127.429688l-57.183594 104.84375c-25.121093 2.621094-44.769531 23.921875-44.769531 49.722656 0 27.570312 22.429688 50 50 50s50-22.429688 50-50c0-6.488281-1.28125-12.914062-3.707031-18.871094l16.976562-31.128906h153.460938l46.015625 84.351562c11.023437 20.246094 40.171875 21.128907 52.144531.957032 5.457031-9.199219 5.660156-20.292969.539063-29.675782l-87.378907-160.203124c44.003907-26.695313 75.214844-72.898438 80.984375-127.429688h16.964844c13.035156 0 24.152344-8.359375 28.28125-20h21.71875v10c0 5.523438 4.476562 10 10 10s10-4.476562 10-10v-40c0-5.519531-4.476562-9.996094-10-9.996094zm-214.511719 209.0625 12.515625 22.933594h-88.003906l12.511719-22.933594c10.347656 1.9375 20.90625 2.933594 31.488281 2.933594 10.585938 0 21.140625-.996094 31.488281-2.933594zm-138.027343 95.820313c-5.007813-4.503907-10.882813-7.953125-17.253907-10.144531l53.425781-97.964844c6.132813 2.792968 12.429688 5.207031 18.84375 7.246094-10.546874 19.335937-35.496093 65.082031-55.015624 100.863281zm-33.460938 67.113281c-16.542969 0-30-13.457031-30-30 0-15.941406 12.503906-29.015625 28.214844-29.941406 1.582031.402344 2.976562.390625 4.496094.070312 15.183593 1.378906 27.289062 14.128906 27.289062 29.871094 0 16.542969-13.457031 30-30 30zm74.179688-100 10.910156-20h109.824218l10.90625 20zm223.511718 95.101562c-4.070312 6.851563-13.769531 6.320313-17.382812-.320312-11.878906-21.777344-74.851563-137.210938-88.785156-162.757812 6.414062-2.039063 12.710937-4.453126 18.84375-7.246094l87.503906 160.433594c2.460937 4.503906.691406 8.417968-.179688 9.890624zm-158.691406-175.121093c-76.648438-.5-138.992188-58.28125-147.910156-131.988281h297.820312c-9.03125 74.644531-72.605468 132.492187-149.910156 131.988281zm0 0"/><path d="m180.957031 41.679688c-9.492187 6.324218-15.160156 16.914062-15.160156 28.320312 0 11.410156 5.667969 22 15.160156 28.324219 4.574219 3.046875 10.789063 1.835937 13.867188-2.777344 3.0625-4.597656 1.816406-10.804687-2.777344-13.867187-3.972656-2.644532-6.25-6.902344-6.25-11.679688s2.277344-9.03125 6.25-11.679688c9.492187-6.324218 15.15625-16.910156 15.15625-28.320312s-5.667969-21.996094-15.15625-28.320312c-4.597656-3.0625-10.804687-1.820313-13.867187 2.777343-3.0625 4.59375-1.820313 10.800781 2.777343 13.867188 3.96875 2.644531 6.246094 6.902343 6.246094 11.675781 0 4.777344-2.277344 9.035156-6.246094 11.679688zm0 0"/><path d="m250.953125 41.679688c-9.488281 6.324218-15.15625 16.914062-15.15625 28.320312 0 11.410156 5.667969 22 15.15625 28.324219 4.578125 3.046875 10.792969 1.839843 13.867187-2.777344 3.0625-4.59375 1.820313-10.804687-2.773437-13.867187-3.972656-2.644532-6.25-6.902344-6.25-11.679688 0-4.773438 2.277344-9.03125 6.25-11.675781 9.488281-6.328125 15.15625-16.914063 15.15625-28.324219 0-11.40625-5.667969-21.996094-15.15625-28.320312-4.59375-3.058594-10.804687-1.820313-13.867187 2.777343-3.0625 4.59375-1.820313 10.804688 2.773437 13.867188 3.972656 2.644531 6.25 6.902343 6.25 11.675781 0 4.777344-2.277344 9.035156-6.25 11.679688zm0 0"/><path d="m320.953125 41.679688c-9.488281 6.324218-15.15625 16.914062-15.15625 28.320312 0 17.414062 13.386719 30.003906 20.695313 30.003906 3.230468 0 6.402343-1.566406 8.328124-4.457031 3.0625-4.59375 1.820313-10.804687-2.773437-13.867187-3.972656-2.644532-6.25-6.902344-6.25-11.679688 0-4.773438 2.277344-9.03125 6.25-11.675781 9.488281-6.328125 15.15625-16.914063 15.15625-28.324219 0-11.40625-5.667969-21.996094-15.15625-28.320312-4.597656-3.058594-10.804687-1.820313-13.867187 2.777343-3.0625 4.59375-1.820313 10.804688 2.773437 13.867188 3.972656 2.644531 6.25 6.902343 6.25 11.675781 0 4.777344-2.277344 9.035156-6.25 11.679688zm0 0"/><path d="m194 130.003906c0 5.519532 4.480469 10 10 10s10-4.480468 10-10c0-5.523437-4.480469-10-10-10s-10 4.476563-10 10zm0 0"/></svg>