<?xml version="1.0" encoding="iso-8859-1"?>
<!-- Generator: Adobe Illustrator 17.1.0, SVG Export Plug-In . SVG Version: 6.00 Build 0)  -->
<!DOCTYPE svg PUBLIC "-//W3C//DTD SVG 1.1//EN" "http://www.w3.org/Graphics/SVG/1.1/DTD/svg11.dtd">
<svg version="1.1" id="Capa_1" xmlns="http://www.w3.org/2000/svg" xmlns:xlink="http://www.w3.org/1999/xlink" x="0px" y="0px"
	 viewBox="0 0 290.479 290.479" style="enable-background:new 0 0 290.479 290.479;" xml:space="preserve">
<g>
	<path d="M282.479,35.636H8c-4.418,0-8,3.582-8,8v203.207c0,4.418,3.582,8,8,8h274.479c4.418,0,8-3.582,8-8V43.636
		C290.479,39.218,286.897,35.636,282.479,35.636z M264.418,53.225c4.942,0,8.95,4.008,8.95,8.951c0,4.943-4.008,8.951-8.95,8.951
		c-4.944,0-8.952-4.008-8.952-8.951C255.466,57.233,259.474,53.225,264.418,53.225z M238.967,53.225
		c4.944,0,8.951,4.008,8.951,8.951c0,4.943-4.007,8.951-8.951,8.951c-4.943,0-8.951-4.008-8.951-8.951
		C230.016,57.233,234.023,53.225,238.967,53.225z M213.516,53.225c4.943,0,8.951,4.008,8.951,8.951c0,4.943-4.008,8.951-8.951,8.951
		c-4.943,0-8.951-4.008-8.951-8.951C204.565,57.233,208.573,53.225,213.516,53.225z M274.479,238.843H16V89.427h258.479V238.843z"/>
	<path d="M43.358,156.159h139.038c4.419,0,8-3.582,8-8c0-4.418-3.581-8-8-8H43.358c-4.418,0-8,3.582-8,8
		C35.358,152.577,38.94,156.159,43.358,156.159z"/>
	<path d="M43.358,124.473H247.12c4.418,0,8-3.582,8-8c0-4.418-3.582-8-8-8H43.358c-4.418,0-8,3.582-8,8
		C35.358,120.892,38.94,124.473,43.358,124.473z"/>
	<path d="M43.358,187.844h139.038h37.156c4.418,0,8-3.581,8-8c0-4.418-3.582-8-8-8h-37.156H43.358c-4.418,0-8,3.582-8,8
		C35.358,184.263,38.94,187.844,43.358,187.844z"/>
	<path d="M43.358,219.53h116.264c4.419,0,8-3.582,8-8c0-4.419-3.581-8-8-8H43.358c-4.418,0-8,3.581-8,8
		C35.358,215.948,38.94,219.53,43.358,219.53z"/>
</g>
<g>
</g>
<g>
</g>
<g>
</g>
<g>
</g>
<g>
</g>
<g>
</g>
<g>
</g>
<g>
</g>
<g>
</g>
<g>
</g>
<g>
</g>
<g>
</g>
<g>
</g>
<g>
</g>
<g>
</g>
</svg>
