<svg height="512pt" viewBox="0 -23 512 512" width="512pt" xmlns="http://www.w3.org/2000/svg"><path d="m484.230469 0h-456.460938c-15.3125 0-27.769531 12.457031-27.769531 27.769531v100.546875c0 4.179688 3.390625 7.574219 7.574219 7.574219 4.183593 0 7.574219-3.394531 7.574219-7.574219v-100.546875c0-6.957031 5.664062-12.621093 12.621093-12.621093h456.460938c6.960937 0 12.621093 5.664062 12.621093 12.621093v302.960938c0 6.960937-5.664062 12.621093-12.621093 12.621093h-156.808594c.511719-3.460937.78125-7 .78125-10.605468 0-3.601563-.269531-7.140625-.78125-10.601563h98.234375c4.183594 0 7.574219-3.390625 7.574219-7.574219 0-19.210937 15.628906-34.839843 34.839843-34.839843 4.183594 0 7.574219-3.390625 7.574219-7.574219v-128.839844c0-4.183594-3.390625-7.574218-7.574219-7.574218-4.183593 0-7.574218 3.390624-7.574218 7.574218v121.839844c-21.511719 3.285156-38.558594 20.328125-41.839844 41.839844h-95.214844c-10.394531-27.128906-36.699218-46.453125-67.441406-46.453125s-57.046875 19.324219-67.441406 46.453125h-95.214844c-3.28125-21.511719-20.328125-38.554688-41.839844-41.839844v-171.8125c21.511719-3.285156 38.558594-20.328125 41.839844-41.839844h325.3125c3.285156 21.511719 20.328125 38.554688 41.839844 41.839844v14.648438c0 4.183593 3.394531 7.574218 7.574218 7.574218 4.183594 0 7.574219-3.390625 7.574219-7.574218v-21.648438c0-4.183594-3.390625-7.574219-7.574219-7.574219-19.210937 0-34.839843-15.628906-34.839843-34.839843 0-4.183594-3.390625-7.574219-7.574219-7.574219h-339.3125c-4.183594 0-7.574219 3.390625-7.574219 7.574219 0 19.210937-15.628906 34.839843-34.839843 34.839843-4.183594 0-7.574219 3.390625-7.574219 7.574219v185.8125c0 4.183594 3.390625 7.574219 7.574219 7.574219 19.210937 0 34.839843 15.628906 34.839843 34.839843 0 4.183594 3.390625 7.574219 7.574219 7.574219h98.234375c-.511719 3.464844-.78125 7.003907-.78125 10.605469s.269531 7.140625.78125 10.605469h-156.808594c-6.960937 0-12.621093-5.664063-12.621093-12.625v-167.195313c0-4.183594-3.390626-7.574218-7.574219-7.574218-4.183594 0-7.574219 3.390624-7.574219 7.574218v167.195313c0 15.3125 12.457031 27.769531 27.769531 27.769531h160.789063c2.554687 6.671875 6.074218 12.867188 10.382812 18.421875v81.050781c0 2.523438 1.257813 4.878906 3.351563 6.285156s4.75 1.679688 7.085937.726563l46.621094-19.03125 46.621094 19.03125c.921875.375 1.894531.5625 2.859375.5625 1.484375 0 2.960937-.4375 4.226562-1.289063 2.09375-1.40625 3.351563-3.761718 3.351563-6.285156v-21.664062c0-4.183594-3.394532-7.574219-7.574219-7.574219-4.183594 0-7.574219 3.390625-7.574219 7.574219v10.390625l-39.046875-15.9375c-1.835937-.746094-3.890625-.746094-5.726562 0l-39.046875 15.9375v-55.207031c11.828125 8.460937 26.292968 13.460937 41.910156 13.460937s30.082031-5 41.910156-13.460937v9.421874c0 4.183594 3.390625 7.574219 7.574219 7.574219 4.179687 0 7.574219-3.390625 7.574219-7.574219v-23.992187c4.308594-5.554687 7.828125-11.75 10.382812-18.421875h160.789063c15.3125 0 27.769531-12.457031 27.769531-27.769531v-302.960938c0-15.3125-12.457031-27.769531-27.769531-27.769531zm-228.230469 389.804688c-31.460938 0-57.058594-25.59375-57.058594-57.054688s25.597656-57.058594 57.058594-57.058594 57.058594 25.597656 57.058594 57.058594-25.597656 57.054688-57.058594 57.054688zm0 0"/><path d="m322.652344 99.976562c4.183594 0 7.574218-3.390624 7.574218-7.574218s-3.390624-7.574219-7.574218-7.574219h-133.304688c-4.183594 0-7.574218 3.390625-7.574218 7.574219s3.390624 7.574218 7.574218 7.574218zm0 0"/><path d="m373.144531 125.222656h-234.289062c-4.183594 0-7.574219 3.390625-7.574219 7.574219s3.390625 7.574219 7.574219 7.574219h234.289062c4.183594 0 7.574219-3.390625 7.574219-7.574219s-3.390625-7.574219-7.574219-7.574219zm0 0"/><path d="m373.144531 165.617188h-234.289062c-4.183594 0-7.574219 3.390624-7.574219 7.574218s3.390625 7.574219 7.574219 7.574219h234.289062c4.183594 0 7.574219-3.390625 7.574219-7.574219s-3.390625-7.574218-7.574219-7.574218zm0 0"/><path d="m373.144531 212.070312h-36.355469c-4.183593 0-7.574218 3.390626-7.574218 7.574219 0 4.183594 3.390625 7.574219 7.574218 7.574219h36.355469c4.183594 0 7.574219-3.390625 7.574219-7.574219 0-4.183593-3.390625-7.574219-7.574219-7.574219zm0 0"/><path d="m138.855469 212.070312c-4.183594 0-7.574219 3.390626-7.574219 7.574219 0 4.183594 3.390625 7.574219 7.574219 7.574219h36.355469c4.183593 0 7.574218-3.390625 7.574218-7.574219 0-4.183593-3.390625-7.574219-7.574218-7.574219zm0 0"/><path d="m256 292.859375c-21.996094 0-39.890625 17.894531-39.890625 39.890625s17.894531 39.890625 39.890625 39.890625 39.890625-17.894531 39.890625-39.890625-17.894531-39.890625-39.890625-39.890625zm0 64.632813c-13.644531 0-24.742188-11.101563-24.742188-24.742188 0-13.644531 11.097657-24.742188 24.742188-24.742188s24.742188 11.097657 24.742188 24.742188c0 13.640625-11.097657 24.742188-24.742188 24.742188zm0 0"/><path d="m230.25 219.644531c0 14.199219 11.550781 25.75 25.75 25.75s25.75-11.550781 25.75-25.75-11.550781-25.75-25.75-25.75-25.75 11.550781-25.75 25.75zm36.355469 0c0 5.847657-4.757813 10.605469-10.605469 10.605469s-10.605469-4.757812-10.605469-10.605469c0-5.847656 4.757813-10.605469 10.605469-10.605469s10.605469 4.757813 10.605469 10.605469zm0 0"/></svg>