<svg height="512pt" viewBox="-42 0 512 512" width="512pt" xmlns="http://www.w3.org/2000/svg"><path d="m419.597656 441.75c4.183594 0 7.574219-3.390625 7.574219-7.574219v-14.769531c0-39.554688-26.609375-74.566406-64.710937-85.140625l-82.933594-23.039063-22.011719-22.011718v-32.515625c27.980469-13.328125 49.007813-38.96875 56.03125-69.875h10.117187c15.3125 0 27.769532-12.457031 27.769532-27.769531v-14.140626c0-8.125-3.507813-15.445312-9.089844-20.527343v-32.996094c0-15.3125-12.457031-27.769531-27.769531-27.769531h-6.058594c-.03125 0-.0625.003906-.089844.003906-15.347656-37.296875-52.074219-63.625-94.839843-63.625-16.988282 0-33.816407 4.242188-48.675782 12.273438-3.675781 1.988281-5.046875 6.585937-3.058594 10.265624 1.988282 3.679688 6.582032 5.050782 10.261719 3.058594 12.652344-6.835937 26.992188-10.449218 41.472657-10.449218 48.167968 0 87.351562 39.1875 87.351562 87.351562v61.601562c0 48.167969-39.183594 87.355469-87.351562 87.355469-48.167969 0-87.351563-39.1875-87.351563-87.355469v-61.601562c0-20.601562 7.304687-40.601562 20.574219-56.316406 2.695312-3.195313 2.292968-7.972656-.902344-10.671875s-7.972656-2.292969-10.671875.898437c-6.925781 8.203125-12.457031 17.40625-16.476563 27.214844-.035156 0-.066406-.003906-.097656-.003906h-6.058594c-15.316406 0-27.773437 12.457031-27.773437 27.769531v32.992187c-5.582031 5.085938-9.089844 12.40625-9.089844 20.53125v14.136719c0 15.3125 12.460938 27.769531 27.773438 27.769531h10.117187c7.019532 30.90625 28.046875 56.550782 56.027344 69.878907v32.515625l-22.007812 22.007812-82.933594 23.042969c-38.101563 10.574219-64.714844 45.582031-64.714844 85.136719v14.773437c0 4.183594 3.390625 7.574219 7.574219 7.574219 4.183593 0 7.574219-3.390625 7.574219-7.574219v-14.773437c0-32.773438 22.046874-61.78125 53.621093-70.542969l79.679688-22.136719 19.300781 43.863282c.121094.277343.261719.550781.414062.8125.042969.074218.089844.140624.132813.207031.105469.167969.21875.335937.339844.496093.0625.085938.128906.167969.195312.25.050781.0625.097657.132813.152344.195313l17.535156 20.234375-11.050781 104.066406h-83.570312v-23.726562c0-4.183594-3.390626-7.574219-7.574219-7.574219-4.183594 0-7.574219 3.390625-7.574219 7.574219v23.730468h-61.601562v-27.265624c0-4.183594-3.390626-7.574219-7.574219-7.574219-4.183594 0-7.574219 3.390625-7.574219 7.574219v34.839843c0 4.183594 3.390625 7.574219 7.574219 7.574219h174.707031.007812.011719 62.570313.011718.007813 174.707031c4.179688 0 7.574219-3.390625 7.574219-7.574219v-34.839843c0-4.183594-3.394531-7.574219-7.574219-7.574219-4.183594 0-7.574218 3.390625-7.574218 7.574219v27.265624h-61.601563v-23.730468c0-4.183594-3.394531-7.574219-7.574219-7.574219-4.183594 0-7.574218 3.390625-7.574218 7.574219v23.730468h-83.570313l-11.050781-104.066406 17.535156-20.234375c.054688-.0625.101562-.128906.152344-.195312.066406-.082031.132812-.164063.195312-.25.121094-.160157.234375-.328125.339844-.496094.042969-.066406.089844-.132813.128906-.207031.15625-.265625.296875-.535156.417969-.8125l19.300781-43.863282 79.679688 22.136719c31.570312 8.761719 53.621094 37.769531 53.621094 70.542969v14.773438c0 4.179687 3.390624 7.570312 7.574218 7.570312zm-83.3125-282.695312c0 6.960937-5.664062 12.621093-12.625 12.621093h-7.570312v-39.386719h7.570312c6.960938 0 12.625 5.664063 12.625 12.625zm-21.710937-80.285157c6.960937 0 12.621093 5.664063 12.621093 12.621094v25.984375c-1.160156-.148438-2.335937-.230469-3.535156-.230469h-7.570312v-14.644531c0-8.167969-.96875-16.113281-2.78125-23.730469zm-214.597657 12.621094c0-6.960937 5.664063-12.621094 12.625-12.621094h1.296876c-1.84375 7.726563-2.8125 15.6875-2.8125 23.730469v14.644531h-7.574219c-1.199219 0-2.375.085938-3.535157.234375zm11.109376 80.285156h-7.574219c-6.960938 0-12.621094-5.664062-12.621094-12.621093v-14.140626c0-6.960937 5.660156-12.621093 12.621094-12.621093h7.574219zm102.5 94.925781c9.988281 0 19.648437-1.441406 28.78125-4.117187v26.734375l-28.78125 28.777344-28.78125-28.777344v-26.734375c9.136718 2.675781 18.792968 4.117187 28.78125 4.117187zm15.730468 116.136719h-31.457031l-12.808594-14.78125 28.535157-28.535156 28.539062 28.535156zm-52.085937-79.671875 25.644531 25.644532-25.695312 25.695312-15.671876-35.617188zm13.472656 193.785156 10.507813-98.964843h24.75l10.511718 98.964843zm59.289063-142.445312-25.695313-25.695312 25.644531-25.644532 15.722656 15.722656zm0 0"/><path d="m172.6875 160.0625c16.449219 0 30.023438-12.550781 31.648438-28.582031 1.882812-1.703125 5.332031-4.238281 9.25-4.238281 3.691406 0 7.179687 2.367187 9.253906 4.230468 1.617187 16.035156 15.191406 28.589844 31.644531 28.589844 17.542969 0 31.8125-14.269531 31.8125-31.808594 0-17.542968-14.269531-31.8125-31.8125-31.8125-12.835937 0-23.910156 7.648438-28.933594 18.621094-3.347656-1.695312-7.382812-2.96875-11.964843-2.96875-4.582032 0-8.617188 1.273438-11.964844 2.96875-5.019532-10.972656-16.097656-18.621094-28.933594-18.621094-17.542969 0-31.8125 14.269532-31.8125 31.8125 0 17.539063 14.273438 31.808594 31.8125 31.808594zm81.796875-48.472656c9.1875 0 16.664063 7.476562 16.664063 16.664062s-7.472657 16.660156-16.664063 16.660156c-9.183594 0-16.660156-7.472656-16.660156-16.660156 0-9.191406 7.476562-16.664062 16.660156-16.664062zm-81.796875 0c9.1875 0 16.664062 7.476562 16.664062 16.664062s-7.476562 16.660156-16.664062 16.660156-16.664062-7.472656-16.664062-16.660156c0-9.191406 7.476562-16.664062 16.664062-16.664062zm0 0"/></svg>