<svg height="512pt" viewBox="0 -30 512 512" width="512pt" xmlns="http://www.w3.org/2000/svg"><path d="m88.363281 419.09375c4.183594 0 7.574219-3.390625 7.574219-7.574219v-371.628906c0-4.183594-3.390625-7.574219-7.574219-7.574219h-48.472656c-4.183594 0-7.574219 3.390625-7.574219 7.574219v371.628906c0 4.179688 3.390625 7.574219 7.574219 7.574219zm-40.898437-371.628906h33.324218v356.480468h-33.324218zm0 0"/><path d="m504.425781 372.640625c4.183594 0 7.574219-3.394531 7.574219-7.574219v-30.296875c0-4.183593-3.390625-7.574219-7.574219-7.574219h-83.316406c26.925781-22.464843 46.609375-67.113281 46.609375-114.75 0-15.828124-5.035156-31.621093-13.816406-43.328124-8.109375-10.808594-23.566406-23.695313-51.074219-23.695313-.027344 0-.117187 0-.148437 0-2.234376 0-21.527344.402344-37.433594 13.519531-.898438-9.8125-1.148438-26.582031 4.644531-42.78125 1.410156-3.9375-.640625-8.273437-4.578125-9.679687-3.941406-1.410157-8.273438.640625-9.683594 4.578125-6.085937 17.011718-6.515625 34.121094-5.777344 45.640625-15.261718-10.925781-32.425781-11.277344-34.582031-11.277344-27.59375 0-43.050781 12.886719-51.160156 23.695313-8.78125 11.707031-13.816406 27.5-13.816406 43.332031 0 47.632812 19.683593 92.28125 46.609375 114.746093h-28.785156c-18.746094 0-35.5625 8.359376-46.960938 21.53125v-91.335937c0-4.183594-3.390625-7.574219-7.570312-7.574219-4.183594 0-7.574219 3.390625-7.574219 7.574219v98.082031h-77.761719v-148.449218h77.761719v15.316406c0 4.183594 3.390625 7.574218 7.574219 7.574218 4.179687 0 7.570312-3.390624 7.570312-7.574218v-103.679688c0-4.183594-3.390625-7.574218-7.570312-7.574218h-85.335938v-103.511719c0-4.183594-3.390625-7.574219-7.574219-7.574219h-113.101562c-4.183594 0-7.574219 3.390625-7.574219 7.574219v32.863281c0 4.179688 3.390625 7.574219 7.574219 7.574219 4.183593 0 7.574219-3.394531 7.574219-7.574219v-25.289062h97.957031v421.113281h-97.957031v-360.394531c0-4.183594-3.390626-7.574219-7.574219-7.574219-4.183594 0-7.574219 3.390625-7.574219 7.574219v367.96875c0 4.179687 3.390625 7.570312 7.574219 7.570312h206.011719c4.183593 0 7.574218-3.390625 7.574218-7.570312v-13.914063c.976563 1.121094 1.980469 2.226563 3.042969 3.289063 11.722656 11.734374 27.320313 18.195312 43.914063 18.195312h107.582031c4.183593 0 7.574219-3.390625 7.574219-7.570312 0-4.183594-3.390626-7.574219-7.574219-7.574219h-52.542969v-15.148438h173.695312v15.148438h-85.742187c-4.183594 0-7.574219 3.390625-7.574219 7.574219 0 4.179687 3.390625 7.570312 7.574219 7.570312h93.316406c4.183594 0 7.574219-3.390625 7.574219-7.570312v-30.296876c0-4.183593-3.390625-7.574218-7.574219-7.574218h-12.621093v-33.324219zm-216.492187-79.074219c-14.292969-22.625-22.492188-52.191406-22.492188-81.121094 0-5.308593 1.398438-51.878906 49.890625-51.878906.6875 0 17.050781.128906 29.292969 11.347656 3.9375 3.609376 9.046875 5.601563 14.382812 5.601563 5.335938 0 10.441407-1.992187 14.382813-5.601563 12.230469-11.207031 28.574219-11.347656 29.351563-11.347656 48.429687 0 49.828124 46.570313 49.828124 51.878906 0 28.929688-8.195312 58.496094-22.488281 81.121094-13.503906 21.371094-30.441406 33.628906-46.472656 33.628906-3.886719 0-9.410156-1.023437-13.675781-5.902343-2.769532-3.164063-6.75-4.976563-10.925782-4.976563-4.175781 0-8.160156 1.8125-10.925781 4.976563-4.265625 4.878906-9.792969 5.902343-13.675781 5.902343-16.035156 0-32.972656-12.257812-46.472656-33.628906zm-81.921875 77.050782v21.207031h-77.757813v-21.207031zm-77.757813-178.742188v-21.207031h77.757813v21.207031zm77.757813-65.640625v29.285156h-77.757813v-29.285156zm-77.757813 310.027344v-29.289063h77.757813v29.289063zm92.90625-46.960938c0-25.890625 21.066406-46.957031 46.957032-46.957031h228.734374v15.148438h-228.734374c-17.539063 0-31.808594 14.269531-31.808594 31.808593 0 14.929688 10.339844 27.484375 24.234375 30.894531v15.449219c-9.664063-1.558593-18.574219-6.082031-25.628907-13.144531-8.871093-8.859375-13.753906-20.652344-13.753906-33.199219zm86.847656 40.960938-12.632812-5.492188c-1.890625-.820312-4.03125-.835937-5.933594-.042969l-13.75 5.726563v-33.578125h32.316406zm168.648438-24.296875h-153.5v-16.664063c0-4.183593-3.390625-7.574219-7.574219-7.574219h-47.464843c-4.183594 0-7.574219 3.390626-7.574219 7.574219v14.824219c-5.386719-2.765625-9.089844-8.363281-9.089844-14.824219 0-9.1875 7.476563-16.664062 16.664063-16.664062h208.535156v33.328125zm0 0"/></svg>