<svg height="511pt" viewBox="-30 0 511 511.998" width="511pt" xmlns="http://www.w3.org/2000/svg"><path d="m451.90625 261.210938v-.160157c0-.0625-.007812-.125-.007812-.1875-.003907-.167969-.011719-.339843-.027344-.507812-.007813-.105469-.023438-.210938-.039063-.3125-.019531-.140625-.035156-.277344-.0625-.414063-.027343-.140625-.058593-.273437-.09375-.410156-.027343-.101562-.046875-.203125-.078125-.304688-.046875-.164062-.105468-.324218-.164062-.484374-.023438-.058594-.039063-.117188-.0625-.171876l-.058594-.152343s0-.003907 0-.007813l-46.320312-116.714844h39.339843c4.183594 0 7.574219-3.394531 7.574219-7.574218v-31.308594c0-4.183594-3.390625-7.574219-7.574219-7.574219h-65.910156l-40.511719-40.511719c-4.480468-4.480468-10.441406-6.949218-16.78125-6.949218h-62.167968c-1.992188-2.867188-4.351563-5.457032-7.007813-7.707032v-32.183593c0-4.183594-3.390625-7.574219-7.574219-7.574219h-36.355468c-4.179688 0-7.574219 3.390625-7.574219 7.574219v32.183593c-2.652344 2.25-5.011719 4.839844-7.003907 7.707032h-18.242187c-4.183594 0-7.574219 3.390625-7.574219 7.570312 0 4.183594 3.390625 7.574219 7.574219 7.574219h11.839844c-.472657 2.457031-.730469 4.984375-.730469 7.574219 0 2.949218.332031 5.820312.941406 8.585937h-49.285156c-2.007812 0-3.9375.796875-5.355469 2.21875l-42.734375 42.730469c-1.621094 1.621094-3.773437 2.511719-6.066406 2.511719h-25.070312c-.015626 0-.027344 0-.042969 0h-.285157c-.007812 0-.015624 0-.019531 0h-42.746093v-16.15625h61.472656c2.007812 0 3.933594-.796875 5.355468-2.21875l42.730469-42.730469c1.621094-1.621094 3.777344-2.515625 6.070313-2.515625h8.5c4.183594 0 7.574218-3.390625 7.574218-7.574219 0-4.179687-3.390624-7.570312-7.574218-7.570312h-8.5c-6.339844 0-12.300782 2.46875-16.78125 6.949218l-40.511719 40.511719h-65.910156c-4.183594 0-7.574219 3.390625-7.574219 7.574219v31.308594c0 4.179687 3.390625 7.574218 7.574219 7.574218h39.335937l-46.316406 116.714844v.007813l-.0625.152343c-.019531.054688-.035156.113282-.058594.171876-.058594.160156-.117187.320312-.164062.484374-.03125.101563-.050782.203126-.078125.304688-.035157.136719-.066407.269531-.09375.410156-.027344.136719-.042969.273438-.0625.414063-.015625.101562-.03125.207031-.039063.3125-.015625.167969-.023437.339843-.027344.507812 0 .0625-.007812.125-.007812.1875v.160157.007812 18.007812c0 26.449219 21.519531 47.96875 47.96875 47.96875h20.195312c26.449219 0 47.96875-21.519531 47.96875-47.96875v-18.007812c0-.003906 0-.003906 0-.007812v-.160157c0-.0625-.007812-.125-.011718-.1875-.003906-.167969-.007813-.339843-.023438-.507812-.011718-.105469-.027344-.210938-.039062-.3125-.019532-.140625-.039063-.277344-.066406-.414063-.023438-.140625-.058594-.273437-.09375-.410156-.023438-.101562-.046876-.203125-.078126-.304688-.046874-.164062-.105468-.324218-.164062-.484374-.019531-.058594-.035156-.117188-.058594-.171876l-.058594-.152343s-.003906-.003907-.003906-.007813l-46.316406-116.714844h14.09375c6.339844 0 12.300781-2.472656 16.78125-6.953124l40.511719-40.511719h53.058593c1.832032 2.46875 3.945313 4.714843 6.289063 6.695312v28.648438c0 4.183593 3.390625 7.574219 7.574219 7.574219s7.574218-3.390626 7.574218-7.574219v-20.628907c3.378907.933594 6.929688 1.441407 10.601563 1.441407 3.675781 0 7.226563-.507813 10.605469-1.441407v172.109376c0 4.183593 3.390625 7.574218 7.574218 7.574218 4.183594 0 7.574219-3.390625 7.574219-7.574218v-180.128907c2.34375-1.984375 4.457031-4.230469 6.289063-6.695312h53.054687l40.511719 40.511719c4.484375 4.480468 10.445312 6.953124 16.78125 6.953124h14.09375l-46.316406 116.714844c0 .003906-.003906.007813-.003906.007813l-.058594.152343c-.023438.054688-.039063.113282-.058594.171876-.058594.160156-.117188.320312-.164062.484374-.03125.101563-.054688.203126-.078126.304688-.035156.136719-.070312.269531-.09375.410156-.027343.136719-.046874.273438-.0625.414063-.015624.101562-.03125.207031-.042968.3125-.015625.167969-.019532.339843-.023438.507812-.003906.0625-.011718.125-.011718.1875v.160157.007812 18.007812c0 26.449219 21.519531 47.96875 47.96875 47.96875h20.199218c26.449219 0 47.964844-21.519531 47.964844-47.96875v-18.007812c0-.003906 0-.003906 0-.007812zm-393.339844-106.871094 39.339844 99.136718h-78.679688zm42.917969 124.886718c0 18.097657-14.722656 32.820313-32.820313 32.820313h-20.195312c-18.097656 0-32.824219-14.722656-32.824219-32.820313v-10.605468h85.839844zm331.695313-25.75h-78.679688l39.339844-99.136718zm-217.582032-238.328124h21.207032v16.589843c-3.378907-.933593-6.929688-1.441406-10.601563-1.441406s-7.226563.507813-10.605469 1.441406zm-14.136718 55.035156c0-13.640625 11.097656-24.742188 24.742187-24.742188s24.742187 11.101563 24.742187 24.742188c0 13.644531-11.097656 24.742187-24.742187 24.742187s-24.742187-11.097656-24.742187-24.742187zm161.0625 53.535156-42.730469-42.730469c-1.421875-1.421875-3.347657-2.21875-5.355469-2.21875h-49.285156c.609375-2.765625.941406-5.636719.941406-8.582031 0-2.589844-.257812-5.121094-.730469-7.574219h55.765625c2.292969 0 4.449219.890625 6.070313 2.511719l42.730469 42.730469c1.421874 1.421875 3.347656 2.21875 5.355468 2.21875h61.476563v16.160156h-42.742188c-.015625 0-.03125 0-.046875 0h-.28125c-.007812 0-.015625 0-.023437 0h-25.074219c-2.292969 0-4.449219-.894531-6.070312-2.515625zm74.234374 155.507812c0 18.097657-14.722656 32.820313-32.820312 32.820313h-20.195312c-18.097657 0-32.820313-14.722656-32.820313-32.820313v-10.605468h85.835937zm0 0"/><path d="m311.535156 450.519531v-18.804687c0-15.3125-12.457031-27.769532-27.769531-27.769532h-31.8125v-87.773437c0-4.183594-3.390625-7.574219-7.574219-7.574219s-7.574218 3.390625-7.574218 7.574219v87.773437h-21.207032v-239.339843c0-4.179688-3.390625-7.574219-7.574218-7.574219-4.179688 0-7.574219 3.394531-7.574219 7.574219v239.339843h-31.808594c-15.3125 0-27.773437 12.457032-27.773437 27.769532v18.726562c-14.609376.789063-26.253907 12.921875-26.253907 27.726563v26.257812c0 4.179688 3.390625 7.570313 7.574219 7.570313h207.023438c4.179687 0 7.570312-3.390625 7.570312-7.570313v-26.253906c0-14.464844-11.109375-26.371094-25.246094-27.652344zm-155.515625-18.804687c0-6.960938 5.660157-12.621094 12.621094-12.621094h115.125c6.960937 0 12.625 5.664062 12.625 12.621094v18.683594h-140.371094zm165.617188 65.136718h-191.875v-18.679687c0-6.960937 5.664062-12.625 12.621093-12.625h166.628907c6.960937 0 12.621093 5.664063 12.621093 12.625v18.679687zm0 0"/></svg>