<svg version="1.1" xmlns="http://www.w3.org/2000/svg" width="120px" height="120px">
<path fill="#FEBE34" d="M60,0C26.86,0,0,26.86,0,60c0,33.14,26.86,60,60,60c33.14,0,60-26.86,60-60C120,26.86,93.14,0,60,0z M60,79.77c-10.92,0-19.77-8.85-19.77-19.77c0-10.92,8.85-19.76,19.77-19.76c10.92,0,19.77,8.85,19.77,19.76C79.77,70.92,70.92,79.77,60,79.77z"/>
<path fill-rule="evenodd" clip-rule="evenodd" fill="#FE4DD1" d="M112.57,47.48c-1.41-1.25-0.51-2.77-0.32-4.21c0.71-5.64-1.16-9.56-6.13-11.84c-1.86-0.85-2.79-1.99-3.64-3.72c-4.51-9.18-13.93-13.24-21.01-19.75c-0.84-0.77-2.57-0.53-3.83-0.91c-7.06-2.11-14.3-0.02-21.69-1.71c-9.83-2.25-18.71,3.67-27.04,8.89c-0.13,0.08-0.24,0.24-0.31,0.38c-1.72,3.61-4.99,5.16-8.47,6.51c-2.5,0.97-5.55,2.12-5.76,4.98c-0.48,6.59-3.52,11.81-7.21,16.96c-1.52,2.13-2.03,4.91-1.86,7.64c0.12,1.86,0.13,3.74-0.73,5.39c-1.64,3.14-0.95,6.19,0.34,9.09c0.77,1.74,1.15,3.43,1.25,5.27c0.28,4.99,2.15,9.14,5.84,12.69c2.96,2.85,5.8,5.99,7.95,9.47c3.71,6,6.99,12.07,15.37,12.11c1.09,0.01,2.24,1.3,3.24,2.14c5.31,4.44,10.6,8.45,18.32,6.07c3.28-1.01,6.58,0.25,9.47,2.18c3.06,0.12,6.1-0.01,9.08-0.83c1.93-0.96,3.97-1.74,5.77-2.91c3.13-2.05,7.66-2.47,9.09-6.48c1.4-3.93,4.11-6.39,7.45-8.31c4.56-2.62,6.9-6.7,9.34-11.23c3.24-6.02,5.54-12.29,7.04-18.79C115.56,60.19,119.18,53.34,112.57,47.48z M82.52,55.61c-0.09,1.39-0.7,2.71-1.44,4.02c-0.12,0.4-0.33,0.68-0.59,0.73l-1.38,5.39c3.1,4.5,2.95,12.27-2.39,15.05c-4.27,2.22-8.65,1.16-13,1.12c-0.03,0.03-0.06,0.06-0.08,0.06c-0.21,0.07-0.43,0.12-0.64,0.18c-0.06,0.17-0.13,0.28-0.2,0.28c-5.31,1.63-10.93,2.51-16.2,1.23c-6.16-1.51-11.28-10.8-10.78-17.64c0.28-3.82,0.2-7.77,1.21-11.4c1.65-5.97,4.22-11.36,9.77-14.21c1.28-0.76,2.72-1.38,4.37-1.81c4.41-1.17,8.32-2.86,13.42-2.29C73.66,37.31,79.85,47.26,82,50.95c0.54,0.45,0.91,1.49,0.91,2.69C82.92,54.4,82.76,55.09,82.52,55.61z"/>
<path fill-rule="evenodd" clip-rule="evenodd" fill="#62A643" d="M84.78,96.3c-0.39,2.46-1.54,4.3-4.1,4.93c-1.29,0.32-2.83,0.62-3.56-0.71c-1.03-1.89,0.92-2.09,1.98-2.51c1.37-0.55,1.99-1.44,2.27-2.85c0.21-1.03,1-1.74,2.18-1.29C84.63,94.28,84.82,95.26,84.78,96.3z M32.66,96.03c-0.09,1.26,0.81,1.82,1.85,1.73c1.43-0.13,2.46,0.21,3.38,1.37c0.71,0.9,1.45,2.71,2.97,1.18c1.07-1.08,0.34-2.47-0.33-3.62c-1.33-2.27-3.42-2.85-5.89-2.53C33.64,94.42,32.75,94.87,32.66,96.03z M14.66,65.57c1.14-0.55,1.17-1.61,0.57-2.47c-0.83-1.17-1.05-2.23-0.51-3.61c0.42-1.06,1.62-2.61-0.46-3.16c-1.47-0.39-2.31,0.94-2.96,2.09c-1.3,2.29-0.76,4.39,0.76,6.36C12.78,65.53,13.62,66.07,14.66,65.57z M36.18,24.93c1.08,0.64,1.99,0.08,2.37-0.89c0.52-1.34,1.28-2.11,2.73-2.42c1.12-0.24,3.07-0.09,2.38-2.13c-0.49-1.44-2.06-1.4-3.39-1.31c-2.63,0.18-4.08,1.8-4.88,4.15C35.17,23.34,35.18,24.34,36.18,24.93z M79.7,27.46c0.06,1.26,1.03,1.71,2.05,1.48c1.41-0.31,2.47-0.1,3.52,0.94c0.81,0.8,1.77,2.51,3.09,0.81c0.93-1.2,0.03-2.5-0.77-3.55c-1.6-2.09-3.75-2.41-6.16-1.79C80.47,25.75,79.64,26.31,79.7,27.46z M103.96,67.07c1.14-0.54,1.18-1.61,0.58-2.47c-0.83-1.18-1.05-2.24-0.49-3.61c0.43-1.06,1.63-2.6-0.45-3.17c-1.47-0.39-2.32,0.94-2.97,2.08c-1.31,2.28-0.77,4.39,0.73,6.37C102.07,67.03,102.91,67.57,103.96,67.07z"/>
<path fill-rule="evenodd" clip-rule="evenodd" fill="#FFFFFF" d="M54.74,22.02c-0.05-2.49,0.76-4.5,3.17-5.57c1.21-0.54,2.68-1.11,3.63,0.07c1.35,1.68-0.53,2.22-1.5,2.82c-1.26,0.78-1.7,1.77-1.73,3.2c-0.02,1.05-0.68,1.89-1.92,1.65C55.24,23.99,54.89,23.05,54.74,22.02z M89.35,45.36c-0.06,1.26,0.86,1.8,1.9,1.67c1.43-0.17,2.46,0.13,3.42,1.27c0.73,0.88,1.53,2.67,3,1.1c1.04-1.11,0.27-2.48-0.43-3.61c-1.39-2.23-3.5-2.75-5.96-2.36C90.28,43.72,89.41,44.2,89.35,45.36z M94.48,90.54c1.15-0.52,1.21-1.58,0.63-2.45c-0.8-1.2-0.99-2.26-0.41-3.62c0.45-1.05,1.7-2.57-0.38-3.18c-1.46-0.43-2.34,0.88-3.02,2.01c-1.37,2.25-0.88,4.37,0.58,6.38C92.59,90.44,93.42,91.01,94.48,90.54z M29.82,84.57c0.78-1,0.33-1.97-0.59-2.46c-1.27-0.68-1.94-1.53-2.06-3.01c-0.09-1.14,0.29-3.06-1.82-2.63c-1.49,0.3-1.65,1.87-1.72,3.2c-0.15,2.63,1.27,4.27,3.51,5.37C28.11,85.37,29.1,85.48,29.82,84.57z M22.21,37.67c-0.18,1.25,0.69,1.87,1.74,1.84c1.44-0.04,2.44,0.37,3.28,1.59c0.65,0.94,1.27,2.8,2.89,1.38c1.14-1,0.5-2.45-0.09-3.63c-1.18-2.36-3.23-3.07-5.71-2.92C23.29,36.13,22.37,36.52,22.21,37.67z"/>
</svg>
