<?xml version="1.0" encoding="utf-8"?>
<!-- Generator: Adobe Illustrator 16.0.0, SVG Export Plug-In . SVG Version: 6.00 Build 0)  -->
<!DOCTYPE svg PUBLIC "-//W3C//DTD SVG 1.1//EN" "http://www.w3.org/Graphics/SVG/1.1/DTD/svg11.dtd">
<svg version="1.1" id="Layer_1" xmlns="http://www.w3.org/2000/svg" xmlns:xlink="http://www.w3.org/1999/xlink" x="0px" y="0px"
	 width="126px" height="126px" viewBox="0 0 126 126" enable-background="new 0 0 126 126" xml:space="preserve">
<g>
	<path d="M60.246,9.492c-29.395,0-53.225,23.83-53.225,53.226s23.83,53.226,53.225,53.226c29.396,0,53.227-23.83,53.227-53.226
		S89.643,9.492,60.246,9.492z M60.246,109.747c-25.932,0-47.029-21.097-47.029-47.029c0-25.932,21.098-47.029,47.029-47.029
		s47.029,21.098,47.029,47.029C107.275,88.65,86.178,109.747,60.246,109.747z"/>
	<path d="M48.795,30.814c0.527,0.316,1.092,0.382,1.693,0.195c0.605-0.187,1.031-0.557,1.285-1.11
		c0.252-0.554,0.244-1.265-0.023-2.134c-0.266-0.857-0.652-1.441-1.16-1.746c-0.506-0.307-1.072-0.363-1.695-0.171
		s-1.059,0.562-1.309,1.107c-0.25,0.545-0.24,1.249,0.025,2.11C47.873,29.915,48.268,30.498,48.795,30.814z"/>
	<path d="M60.246,40.801c9.529,0,17.635,6.084,20.652,14.578h24.613c-3.523-21.808-22.479-38.517-45.266-38.517
		S18.504,33.572,14.98,55.379h24.613C42.611,46.885,50.717,40.801,60.246,40.801z M93.336,40.398l0.758,1.341l-2.973,5.373
		l4.555-2.58l0.725,1.279l-6.822,3.864l-0.783-1.383l2.893-5.27l-4.449,2.52l-0.725-1.279L93.336,40.398z M85.826,34.634
		c0.416-0.139,0.844-0.201,1.287-0.188c0.441,0.013,0.844,0.104,1.205,0.271c0.482,0.222,0.938,0.566,1.369,1.037
		c0.779,0.853,1.141,1.776,1.08,2.772c-0.061,0.994-0.561,1.924-1.502,2.785c-0.934,0.855-1.896,1.271-2.891,1.245
		c-0.99-0.024-1.875-0.462-2.652-1.312c-0.789-0.859-1.152-1.783-1.092-2.771s0.551-1.904,1.471-2.746
		C84.691,35.189,85.266,34.824,85.826,34.634z M83.139,30.033l-0.678,1.14l-3.635-2.165L77.938,30.5l3.381,2.016l-0.676,1.135
		l-3.383-2.016l-1.09,1.834l3.762,2.242l-0.678,1.135l-5.121-3.053l4.012-6.736L83.139,30.033z M68.775,23.667l2.258,0.721
		l-0.271,5.527l2.967-4.666l2.262,0.722l-2.385,7.47l-1.4-0.447l1.877-5.881l-3.361,5.406l-1.451-0.463l0.398-6.352l-1.875,5.879
		l-1.4-0.447L68.775,23.667z M55.307,23.074l1.369,5.341l1.244-5.433l1.881-0.066l1.566,5.426l1.01-5.516l1.594-0.055l-1.629,7.902
		l-1.678,0.059l-1.766-5.804l-1.352,5.913l-1.715,0.06l-2.146-7.771L55.307,23.074z M45.818,27.572
		c0.051-0.434,0.178-0.848,0.379-1.242c0.199-0.395,0.455-0.719,0.76-0.974c0.406-0.343,0.914-0.607,1.521-0.796
		c1.105-0.342,2.096-0.271,2.969,0.209c0.873,0.479,1.5,1.33,1.875,2.549c0.375,1.209,0.338,2.258-0.107,3.144
		c-0.447,0.886-1.221,1.499-2.32,1.839c-1.113,0.345-2.105,0.279-2.973-0.197c-0.867-0.478-1.484-1.312-1.854-2.504
		C45.832,28.835,45.75,28.161,45.818,27.572z M40.096,28.469l3.146,5.636l3.438-1.919l0.645,1.153l-4.82,2.691l-3.791-6.79
		L40.096,28.469z M30.51,50.742l-7.02-3.495l2.396-4.812l1.188,0.592l-1.691,3.395l1.662,0.827l1.459-2.931l1.188,0.592l-1.459,2.93
		l2.982,1.486L30.51,50.742z M35.35,42.904c-0.727,0.912-1.582,1.416-2.566,1.512c-0.986,0.096-1.967-0.245-2.943-1.021
		c-0.625-0.498-1.074-1.008-1.35-1.533c-0.201-0.389-0.33-0.802-0.387-1.24c-0.057-0.439-0.031-0.85,0.078-1.233
		c0.143-0.511,0.412-1.016,0.811-1.516c0.719-0.903,1.576-1.403,2.568-1.5s1.988,0.253,2.986,1.048
		c0.99,0.788,1.551,1.674,1.682,2.657S36.066,42.002,35.35,42.904z M33.008,33.695l1.219-1.008l4.111,4.977l3.035-2.508l0.842,1.018
		l-4.256,3.517L33.008,33.695z"/>
	<path d="M86.268,41.013c0.609-0.008,1.25-0.319,1.92-0.934c0.662-0.607,1.023-1.205,1.084-1.794s-0.129-1.124-0.57-1.605
		s-0.961-0.718-1.561-0.71s-1.232,0.315-1.898,0.925c-0.654,0.6-1.012,1.205-1.072,1.817c-0.063,0.611,0.121,1.15,0.547,1.615
		C85.143,40.794,85.66,41.023,86.268,41.013z"/>
	<path d="M33.498,38.676c-0.703-0.56-1.35-0.823-1.941-0.79c-0.59,0.033-1.09,0.305-1.496,0.816
		c-0.406,0.51-0.559,1.061-0.457,1.652c0.102,0.591,0.504,1.167,1.211,1.729c0.695,0.553,1.35,0.812,1.963,0.775
		c0.613-0.035,1.117-0.3,1.51-0.793c0.395-0.494,0.539-1.041,0.436-1.641S34.211,39.243,33.498,38.676z"/>
	<path d="M46.406,89.078c-0.633-0.333-1.258-0.384-1.873-0.154c-0.615,0.23-1.152,0.783-1.613,1.657
		c-0.453,0.86-0.598,1.618-0.434,2.271s0.553,1.142,1.164,1.463c0.611,0.322,1.229,0.366,1.854,0.132s1.168-0.793,1.633-1.674
		c0.457-0.871,0.609-1.621,0.451-2.252C47.432,89.892,47.037,89.411,46.406,89.078z"/>
	<path d="M60.246,84.634c-9.529,0-17.635-6.085-20.652-14.579H14.98c3.523,21.809,22.479,38.518,45.266,38.518
		s41.742-16.709,45.266-38.518H80.898C77.881,78.549,69.775,84.634,60.246,84.634z M34.945,89.756l-1.232-1.211l2.533-2.579
		l1.238-5.754l1.451,1.424l-0.938,3.842l3.793-1.038l1.426,1.399l-5.746,1.347L34.945,89.756z M48.703,93.644
		c-0.645,1.227-1.484,2.012-2.516,2.354c-1.031,0.343-2.105,0.22-3.223-0.367c-1.131-0.596-1.848-1.413-2.152-2.454
		s-0.139-2.165,0.498-3.376c0.408-0.774,0.865-1.363,1.373-1.767c0.377-0.296,0.795-0.52,1.258-0.67
		c0.461-0.15,0.908-0.206,1.342-0.167c0.578,0.048,1.178,0.235,1.797,0.562c1.121,0.589,1.834,1.407,2.141,2.456
		S49.355,92.406,48.703,93.644z M57.549,95.718c-0.188,1.014-0.365,1.722-0.537,2.123c-0.17,0.401-0.404,0.724-0.705,0.966
		c-0.303,0.241-0.676,0.41-1.123,0.504c-0.445,0.094-1.002,0.079-1.672-0.045c-0.805-0.149-1.4-0.356-1.783-0.62
		c-0.381-0.263-0.666-0.566-0.854-0.908c-0.186-0.343-0.287-0.685-0.303-1.025c-0.021-0.505,0.055-1.229,0.229-2.175l0.836-4.505
		l1.705,0.316l-0.848,4.574c-0.135,0.726-0.201,1.201-0.197,1.424c0.008,0.359,0.129,0.668,0.365,0.93
		c0.236,0.26,0.592,0.434,1.068,0.522c0.484,0.089,0.867,0.059,1.15-0.094c0.281-0.152,0.475-0.368,0.578-0.647
		c0.104-0.278,0.217-0.752,0.342-1.42l0.865-4.672l1.705,0.315L57.549,95.718z M64.273,99.535l-1.729,0.146l-0.602-7.111
		l-2.541,0.216l-0.123-1.448l6.803-0.576l0.123,1.447l-2.535,0.215L64.273,99.535z M75.391,95.716
		c-0.133,0.362-0.367,0.698-0.701,1.009c-0.336,0.31-0.822,0.583-1.459,0.82c-0.768,0.286-1.385,0.414-1.848,0.385
		c-0.463-0.03-0.863-0.144-1.199-0.342c-0.336-0.197-0.6-0.438-0.789-0.723c-0.277-0.421-0.584-1.082-0.918-1.983l-1.6-4.294
		l1.627-0.605l1.623,4.36c0.256,0.691,0.443,1.133,0.561,1.322c0.191,0.305,0.455,0.507,0.793,0.609
		c0.334,0.102,0.73,0.068,1.184-0.1c0.461-0.172,0.773-0.396,0.938-0.672c0.164-0.275,0.221-0.56,0.164-0.853
		c-0.053-0.292-0.199-0.757-0.438-1.394l-1.656-4.453l1.625-0.605l1.574,4.229c0.359,0.966,0.57,1.666,0.631,2.098
		S75.525,95.353,75.391,95.716z M84.924,77.217l1.16,0.874l-2.789,3.702l1.521,1.146l2.596-3.443l1.154,0.871l-2.594,3.443
		l1.865,1.407l2.889-3.832l1.156,0.87l-3.932,5.218l-6.861-5.17L84.924,77.217z M81.299,85.157c0.242,0.322,0.377,0.683,0.406,1.081
		c0.027,0.398-0.055,0.776-0.252,1.134c0.512-0.192,0.988-0.228,1.434-0.104c0.447,0.125,0.818,0.385,1.117,0.781
		c0.234,0.313,0.391,0.67,0.467,1.074c0.078,0.404,0.057,0.789-0.063,1.154c-0.119,0.366-0.348,0.708-0.684,1.025
		c-0.213,0.198-0.758,0.634-1.637,1.305l-2.336,1.759l-5.166-6.863l2.744-2.065c0.543-0.408,0.965-0.69,1.266-0.847
		c0.301-0.154,0.609-0.24,0.93-0.255c0.318-0.016,0.639,0.044,0.957,0.177C80.803,84.646,81.074,84.861,81.299,85.157z"/>
	<path d="M78.887,90.332l1.381,1.836l1.283-0.966c0.498-0.376,0.805-0.629,0.918-0.758c0.178-0.192,0.277-0.41,0.297-0.652
		c0.02-0.243-0.061-0.485-0.244-0.729c-0.154-0.206-0.336-0.343-0.545-0.411c-0.207-0.068-0.43-0.064-0.668,0.013
		c-0.24,0.076-0.674,0.352-1.303,0.826L78.887,90.332z"/>
	<path d="M79.924,87.724c0.215-0.206,0.34-0.428,0.373-0.666c0.035-0.238-0.031-0.468-0.199-0.689
		c-0.16-0.212-0.348-0.341-0.564-0.386c-0.217-0.044-0.451,0.007-0.703,0.152c-0.15,0.088-0.551,0.378-1.203,0.868l-0.795,0.6
		l1.193,1.587l0.908-0.685C79.475,88.1,79.805,87.839,79.924,87.724z"/>
	<polygon points="93.449,66.964 95.209,68.724 96.967,66.964 99.455,66.964 99.455,64.477 101.215,62.717 99.455,60.958 
		99.455,58.47 96.967,58.47 95.209,56.71 93.449,58.47 90.961,58.47 90.961,60.958 89.201,62.717 90.961,64.477 90.961,66.964 	"/>
	<polygon points="22.824,66.964 24.584,68.724 26.342,66.964 28.83,66.964 28.83,64.477 30.59,62.717 28.83,60.958 28.83,58.47 
		26.342,58.47 24.584,56.71 22.824,58.47 20.336,58.47 20.336,60.958 18.576,62.717 20.336,64.477 20.336,66.964 	"/>
</g>
<g>
	<polygon fill="#231F20" points="53.707,59.337 55.66,59.337 55.66,54.568 57.93,47.84 55.947,47.84 54.74,52.437 54.617,52.437 
		53.35,47.84 51.385,47.84 53.707,54.783 	"/>
	<path fill="#231F20" d="M65.713,59.462c0.324,0,0.66-0.093,1.006-0.271c0.348-0.181,0.678-0.446,0.996-0.792v0.938h1.734v-8.48
		h-1.734v6.438c-0.16,0.185-0.338,0.335-0.533,0.456c-0.195,0.119-0.357,0.178-0.484,0.178c-0.16,0-0.279-0.044-0.352-0.136
		c-0.072-0.089-0.111-0.233-0.111-0.434v-6.503h-1.73v7.089c0,0.505,0.102,0.884,0.303,1.134
		C65.012,59.333,65.311,59.462,65.713,59.462z"/>
	<path fill="#231F20" d="M60.572,59.552c0.787,0,1.402-0.207,1.855-0.619c0.445-0.415,0.67-0.98,0.67-1.707v-4.382
		c0-0.646-0.229-1.177-0.684-1.587c-0.459-0.408-1.047-0.615-1.764-0.615c-0.787,0-1.416,0.195-1.881,0.584
		c-0.467,0.39-0.699,0.91-0.699,1.57v4.396c0,0.721,0.227,1.291,0.682,1.719C59.207,59.337,59.813,59.552,60.572,59.552z
		 M59.854,52.732c0-0.185,0.064-0.333,0.195-0.45c0.135-0.114,0.307-0.17,0.516-0.17c0.23,0,0.416,0.056,0.557,0.17
		c0.141,0.117,0.213,0.266,0.213,0.45v4.621c0,0.227-0.07,0.404-0.209,0.535s-0.326,0.195-0.561,0.195
		c-0.227,0-0.404-0.062-0.527-0.192c-0.123-0.128-0.184-0.306-0.184-0.538V52.732z"/>
	<path fill="#231F20" d="M63.664,67.839c-0.109,0-0.221,0.023-0.326,0.074c-0.107,0.049-0.213,0.13-0.316,0.236v4.795
		c0.123,0.125,0.246,0.221,0.363,0.273c0.119,0.054,0.242,0.084,0.371,0.084c0.189,0,0.326-0.055,0.416-0.165
		c0.088-0.109,0.133-0.284,0.133-0.53V68.63c0-0.262-0.053-0.457-0.162-0.592C64.031,67.906,63.869,67.839,63.664,67.839z"/>
	<path fill="#231F20" d="M68.969,67.865c-0.244,0-0.418,0.07-0.525,0.213c-0.109,0.135-0.16,0.367-0.16,0.691v0.777h1.361v-0.777
		c0-0.324-0.055-0.557-0.162-0.691C69.379,67.935,69.203,67.865,68.969,67.865z"/>
	<path fill="#231F20" d="M70.486,62.013H51.18c-3.066,0-5.555,2.49-5.555,5.559v4.466c0,3.068,2.488,5.557,5.555,5.557h19.307
		c3.068,0,5.559-2.488,5.559-5.557v-4.466C76.045,64.503,73.555,62.013,70.486,62.013z M55.236,65.49h-1.795v8.918h-1.734V65.49
		h-1.793v-1.518h5.322V65.49z M60.309,74.408H58.77v-0.844c-0.287,0.313-0.58,0.551-0.891,0.711
		c-0.305,0.168-0.602,0.248-0.893,0.248c-0.357,0-0.623-0.115-0.803-0.346s-0.271-0.57-0.271-1.031v-6.438h1.539v5.906
		c0,0.184,0.033,0.314,0.096,0.396c0.066,0.083,0.172,0.122,0.314,0.122c0.111,0,0.256-0.053,0.43-0.161
		c0.174-0.109,0.334-0.247,0.479-0.413v-5.85h1.539V74.408z M65.891,72.818c0,0.545-0.121,0.963-0.361,1.254
		c-0.24,0.292-0.592,0.436-1.045,0.436c-0.305,0-0.572-0.055-0.807-0.168c-0.236-0.11-0.457-0.283-0.656-0.521v0.59h-1.557V63.972
		h1.557v3.361c0.207-0.232,0.428-0.413,0.658-0.534c0.234-0.123,0.471-0.183,0.711-0.183c0.486,0,0.857,0.162,1.115,0.49
		c0.258,0.327,0.385,0.809,0.385,1.439V72.818z M71.229,70.744h-2.945v1.451c0,0.404,0.049,0.686,0.15,0.844
		c0.104,0.156,0.275,0.233,0.521,0.233c0.258,0,0.434-0.067,0.537-0.2c0.098-0.133,0.152-0.424,0.152-0.877v-0.352h1.584v0.396
		c0,0.789-0.191,1.385-0.582,1.786c-0.383,0.396-0.957,0.594-1.727,0.594c-0.689,0-1.232-0.211-1.627-0.635
		c-0.396-0.42-0.596-1.002-0.596-1.745V68.78c0-0.665,0.217-1.212,0.654-1.632c0.436-0.42,0.994-0.63,1.684-0.63
		c0.705,0,1.246,0.194,1.627,0.583c0.375,0.391,0.566,0.949,0.566,1.679V70.744z"/>
</g>
</svg>
