<?xml version="1.0" encoding="utf-8"?>
<!-- Generator: Adobe Illustrator 16.0.0, SVG Export Plug-In . SVG Version: 6.00 Build 0)  -->
<!DOCTYPE svg PUBLIC "-//W3C//DTD SVG 1.1//EN" "http://www.w3.org/Graphics/SVG/1.1/DTD/svg11.dtd">
<svg version="1.1" id="Layer_1" xmlns="http://www.w3.org/2000/svg" xmlns:xlink="http://www.w3.org/1999/xlink" x="0px" y="0px"
	 width="126px" height="126px" viewBox="0 0 126 126" enable-background="new 0 0 126 126" xml:space="preserve">
<g>
	<path d="M113.523,57.52l-8.535-11.359l-2.541-13.979c-0.789-4.338-4.252-7.67-8.619-8.29L79.76,21.896l-11.68-8.088
		c-2.936-2.032-6.641-2.391-9.91-0.961c-0.723,0.316-1.41,0.717-2.045,1.194l-11.359,8.536l-13.98,2.541
		c-0.779,0.142-1.541,0.375-2.266,0.691c-3.221,1.408-5.529,4.446-6.023,7.927l-1.994,14.067l-8.09,11.683
		c-2.51,3.625-2.418,8.43,0.232,11.955l8.537,11.358l2.539,13.979c0.789,4.339,4.252,7.67,8.619,8.29l14.068,1.996l11.68,8.088
		c2.891,2.001,6.688,2.371,9.91,0.962c0.725-0.316,1.414-0.719,2.047-1.194l11.357-8.537l13.982-2.541
		c0.777-0.142,1.541-0.375,2.264-0.691c3.221-1.408,5.529-4.445,6.023-7.928l1.994-14.067l8.09-11.682
		C116.266,65.848,116.172,61.044,113.523,57.52z M63.084,101.827c-20.598,0-37.355-16.757-37.355-37.355
		s16.758-37.355,37.355-37.355s37.355,16.757,37.355,37.355S83.682,101.827,63.084,101.827z"/>
	<path d="M67.676,69.506c-0.311,0-0.615,0.077-0.916,0.236c-0.299,0.157-0.584,0.39-0.852,0.689v-4.339h-2.01v13.474h2.01v-0.761
		c0.258,0.307,0.543,0.53,0.848,0.674c0.303,0.146,0.648,0.215,1.041,0.215c0.586,0,1.041-0.185,1.35-0.562
		c0.311-0.376,0.467-0.916,0.467-1.619v-5.517c0-0.813-0.164-1.436-0.496-1.858C68.785,69.715,68.305,69.506,67.676,69.506z
		 M67.566,77.242c0,0.318-0.059,0.543-0.172,0.685c-0.115,0.142-0.293,0.212-0.537,0.212c-0.168,0-0.326-0.038-0.479-0.107
		c-0.152-0.069-0.313-0.192-0.471-0.354v-6.192c0.135-0.136,0.27-0.241,0.408-0.305c0.139-0.065,0.281-0.095,0.422-0.095
		c0.266,0,0.475,0.086,0.619,0.256c0.141,0.174,0.209,0.428,0.209,0.765V77.242z"/>
	<path d="M60.418,77.178c-0.188,0.215-0.393,0.393-0.619,0.534c-0.223,0.14-0.408,0.208-0.553,0.208
		c-0.186,0-0.322-0.049-0.408-0.157c-0.08-0.105-0.121-0.274-0.121-0.51v-7.626h-1.988v8.313c0,0.594,0.119,1.034,0.35,1.331
		c0.234,0.297,0.576,0.446,1.037,0.446c0.375,0,0.758-0.102,1.154-0.319c0.4-0.208,0.779-0.515,1.148-0.919v1.089h1.986v-9.941
		h-1.986V77.178z"/>
	<polygon points="48.984,68.052 51.299,68.052 51.299,79.566 53.539,79.566 53.539,68.052 55.855,68.052 55.855,66.092 
		48.984,66.092 	"/>
	<path d="M62.736,58.488c0.303,0,0.545-0.083,0.725-0.251c0.178-0.169,0.268-0.399,0.268-0.692v-5.967
		c0-0.239-0.092-0.431-0.273-0.582c-0.182-0.147-0.42-0.219-0.719-0.219c-0.271,0-0.492,0.072-0.666,0.219
		c-0.168,0.151-0.254,0.343-0.254,0.582v5.967c0,0.3,0.08,0.53,0.238,0.695C62.215,58.408,62.443,58.488,62.736,58.488z"/>
	<path d="M63.084,30.639c-18.654,0-33.832,15.177-33.832,33.833c0,18.655,15.178,33.833,33.832,33.833
		c18.656,0,33.832-15.178,33.832-33.833C96.916,45.816,81.74,30.639,63.084,30.639z M67.822,49.155h2.234v8.398
		c0,0.258,0.053,0.445,0.145,0.56c0.092,0.118,0.246,0.176,0.455,0.176c0.162,0,0.373-0.077,0.625-0.231
		c0.25-0.155,0.48-0.35,0.689-0.588v-8.314h2.236v10.952h-2.236v-1.212c-0.412,0.446-0.84,0.79-1.289,1.023
		c-0.445,0.23-0.879,0.35-1.297,0.35c-0.52,0-0.906-0.167-1.17-0.494c-0.26-0.324-0.393-0.812-0.393-1.464V49.155z M59.516,51.66
		c0-0.851,0.299-1.524,0.902-2.027c0.602-0.502,1.412-0.753,2.428-0.753c0.928,0,1.686,0.267,2.277,0.794
		c0.588,0.529,0.885,1.216,0.885,2.049v5.658c0,0.938-0.289,1.668-0.867,2.205c-0.582,0.533-1.379,0.799-2.395,0.799
		c-0.98,0-1.764-0.277-2.352-0.827c-0.586-0.552-0.879-1.29-0.879-2.221V51.66z M53.42,45.261l1.637,5.935h0.158l1.559-5.935h2.561
		l-2.932,8.688v6.159h-2.521v-5.882l-2.998-8.964H53.42z M82.725,76.506c0,3.962-3.215,7.175-7.178,7.175H50.619
		c-3.963,0-7.176-3.213-7.176-7.175v-5.767c0-3.962,3.213-7.178,7.176-7.178h24.928c3.963,0,7.178,3.215,7.178,7.178V76.506z"/>
	<path d="M73.676,69.379c-0.891,0-1.613,0.271-2.176,0.813c-0.564,0.542-0.846,1.25-0.846,2.108v4.466
		c0,0.959,0.26,1.711,0.77,2.254c0.51,0.546,1.213,0.819,2.102,0.819c0.992,0,1.736-0.256,2.23-0.768
		c0.502-0.518,0.75-1.287,0.75-2.306v-0.51h-2.045v0.452c0,0.586-0.07,0.961-0.197,1.134c-0.133,0.17-0.361,0.258-0.691,0.258
		c-0.318,0-0.541-0.1-0.676-0.302c-0.131-0.203-0.193-0.566-0.193-1.09v-1.874h3.803V72.3c0-0.941-0.246-1.663-0.732-2.167
		C75.283,69.631,74.584,69.379,73.676,69.379z M74.461,73.29h-1.758v-1.004c0-0.418,0.066-0.718,0.207-0.892
		c0.139-0.185,0.363-0.274,0.68-0.274c0.303,0,0.527,0.09,0.66,0.274c0.139,0.174,0.211,0.474,0.211,0.892V73.29z"/>
</g>
</svg>
