<svg width="24" height="24" xmlns="http://www.w3.org/2000/svg" fill-rule="evenodd" clip-rule="evenodd"><path d="M5.25 17.322l-2.25-1.221 2.234-3.067-2.234-1.96 4.713-2.562c.204.231.41.504.604.807l-3.584 1.948 1.181 1.037 3.058-1.686c.119.314.216.641.282.977l-3.261 1.801 6.018 3.109 5.989-3.105-3.152-1.745c.061-.347.144-.667.248-.968l2.933 1.615 1.234-1.095-3.5-1.855c.183-.275.388-.54.614-.803l4.623 2.449-2.261 2.008.011.006 2.25 3.081-2.25 1.224v3.087l-6.75 3.596-6.75-3.596v-3.082zm7.246-.094v5.377l5.255-2.799v-1.946l-3.501 1.905-1.754-2.537zm-6.247.636v1.942l5.248 2.796v-5.373l-1.747 2.536-3.501-1.901zm-1.772-2.096l4.96 2.692 1.099-1.594-4.983-2.575-1.076 1.477zm8.988 1.107l1.096 1.585 4.961-2.698-1.073-1.471-4.984 2.584zm-1.192-2.915h-.521c-.136 0-.268-.046-.358-.127l-.692-.455h2.621l-.692.455c-.089.081-.221.127-.358.127zm1.075-1.164h-2.655c-.161 0-.291-.129-.291-.29 0-.161.13-.291.291-.291h2.655c.161 0 .291.13.291.291 0 .161-.13.29-.291.29zm.287-1.163h-3.245c0-2.297-1.872-3.291-1.872-5.367 0-2.166 1.746-3.358 3.493-3.358 1.748 0 3.497 1.194 3.497 3.358 0 2.076-1.872 3.038-1.873 5.367zm-.901-.997c.188-.954.624-1.689 1.018-2.356.424-.714.757-1.279.757-2.014 0-1.55-1.257-2.361-2.498-2.361-1.239 0-2.495.811-2.495 2.361 0 .739.337 1.312.763 2.035.392.664.822 1.396 1.012 2.335h1.443zm-5.357-4.321h-1.772v-.997h1.818c-.039.219-.059.445-.059.674l.013.323zm11.043 0h-1.761l.014-.323c0-.229-.02-.455-.06-.674h1.807v.997zm-9.983-3.011c-.227.247-.424.518-.584.809l-1.439-1.021.578-.813 1.445 1.025zm7.159-.005l1.437-1.02.578.813-1.43 1.015c-.161-.29-.358-.561-.585-.808zm-5.3-1.22c-.318.115-.619.261-.899.433l-.772-1.575.897-.438.774 1.58zm3.435-.004l.773-1.576.896.438-.769 1.57c-.28-.172-.581-.318-.9-.432zm-1.219-.271c-.162-.016-.327-.024-.494-.024-.17 0-.339.009-.505.025v-1.805h.999v1.804z"/></svg>