<svg height="418pt" viewBox="0 -10 418 418" width="418pt" xmlns="http://www.w3.org/2000/svg"><path d="m357 8c29.269531 0 53 23.726562 53 53v8.109375c0 29.273437-23.730469 53-53 53h-53v-61.109375c0-29.273438 23.730469-53 53-53zm0 0" fill="#787d82"/><path d="m114 122.109375h-53c-29.269531 0-53-23.726563-53-53v-8.109375c0-29.273438 23.730469-53 53-53s53 23.726562 53 53zm0 0" fill="#787d82"/><path d="m338.390625 100.597656h-.054687c-2.125-.015625-4.152344-.871094-5.644532-2.382812-1.488281-1.515625-2.316406-3.558594-2.300781-5.679688.082031-9.96875.066406-21.640625 0-26.214844-.289063-9.726562 4.710937-18.84375 13.066406-23.828124 8.355469-4.980469 18.753907-5.046876 27.171875-.167969 8.417969 4.875 13.53125 13.929687 13.363282 23.660156v4c0 4.417969-3.582032 8-8 8-4.417969 0-8-3.582031-8-8v-4c.125-3.957031-1.921876-7.667969-5.339844-9.667969-3.414063-2.003906-7.652344-1.976562-11.042969.066406-3.390625 2.046876-5.390625 5.78125-5.21875 9.734376.066406 4.625.082031 16.441406 0 26.539062-.03125 4.394531-3.601563 7.941406-8 7.941406zm0 0" fill="#62666a"/><path d="m79.601562 100.597656c-4.398437 0-7.972656-3.546875-8-7.941406-.082031-10.097656-.066406-21.914062 0-26.546875.171876-3.953125-1.832031-7.6875-5.222656-9.730469-3.390625-2.042968-7.628906-2.070312-11.042968-.066406-3.414063 2.003906-5.464844 5.714844-5.335938 9.671875v4c0 4.417969-3.582031 8-8 8s-8-3.582031-8-8v-4c.019531-14.796875 12.011719-26.789063 26.808594-26.800781 7.164062.003906 14.027344 2.875 19.058594 7.972656 5.035156 5.09375 7.820312 11.992188 7.742187 19.15625-.066406 4.582031-.082031 16.253906 0 26.222656.015625 2.121094-.8125 4.164063-2.300781 5.679688-1.492188 1.511718-3.519532 2.367187-5.644532 2.382812zm0 0" fill="#62666a"/><path d="m298.953125 368.269531-49.601563 15.457031c-25.644531 7.992188-53.113281 7.992188-78.757812 0l-49.601562-15.457031c-40.820313-12.742187-73.019532-44.339843-86.535157-84.910156-11.757812-35.277344-8.207031-73.859375 9.78125-106.402344l7.082031-12.796875c3.289063-5.945312 5.726563-12.316406 7.246094-18.9375 13.136719-57.160156 57.339844-102.058594 114.289063-116.078125 24.394531-6.011719 49.878906-6.011719 74.273437 0 56.949219 14.011719 101.15625 58.898438 114.304688 116.054688 1.519531 6.617187 3.957031 12.992187 7.246094 18.9375l7.082031 12.796875c17.988281 32.539062 21.539062 71.125 9.78125 106.402344-13.519531 40.589843-45.746094 72.199218-86.589844 84.933593zm0 0" fill="#ebebeb"/><path d="m174 205.992188-24.382812 22.804687c-7.171876 6.726563-16.632813 10.46875-26.464844 10.464844-21.371094 0-38.699219-17.324219-38.703125-38.695313 0-17.1875 8.09375-33.371094 21.847656-43.679687l16.261719-12.167969c12.265625-9.203125 28.707031-10.601562 42.34375-3.59375 13.636718 7.007812 22.078125 21.183594 21.738281 36.515625-.230469 10.765625-4.785156 20.984375-12.640625 28.351563zm0 0" fill="#6f7478"/><path d="m241.113281 205.992188 24.375 22.804687c7.171875 6.726563 16.632813 10.46875 26.464844 10.464844 21.371094 0 38.699219-17.324219 38.703125-38.695313-.003906-17.1875-8.097656-33.371094-21.847656-43.679687l-16.265625-12.167969c-12.261719-9.203125-28.703125-10.601562-42.339844-3.59375-13.640625 7.007812-22.082031 21.183594-21.738281 36.515625.230468 10.765625 4.789062 20.984375 12.648437 28.351563zm0 0" fill="#6f7478"/><path d="m237.832031 318.207031c-9.785156.011719-19.398437-2.597656-27.832031-7.558593-16.59375 9-36.671875 8.746093-53.03125-.683594l-2.96875-1.6875c-3.832031-2.207032-5.148438-7.105469-2.941406-10.9375 2.210937-3.832032 7.109375-5.148438 10.941406-2.941406l2.953125 1.695312c12.703125 7.320312 28.464844 6.773438 40.632813-1.40625 2.558593-1.707031 5.871093-1.796875 8.519531-.226562l4 2.402343c11.796875 6.957031 26.390625 7.179688 38.398437.589844l5.601563-3.101563c3.859375-2.058593 8.652343-.632812 10.765625 3.195313 2.113281 3.828125.757812 8.644531-3.039063 10.8125l-5.601562 3.101563c-8.089844 4.441406-17.171875 6.761718-26.398438 6.746093zm0 0" fill="#62666a"/><path d="m210 309.335938c-4.417969 0-8-3.582032-8-8v-22.9375c0-4.417969 3.582031-8 8-8s8 3.582031 8 8v22.96875c-.019531 4.40625-3.59375 7.96875-8 7.96875zm0 0" fill="#62666a"/><path d="m210 355.277344c-8.878906-.003906-17.429688-3.355469-23.953125-9.382813l-5.453125-5c-3.257812-2.988281-3.476562-8.046875-.488281-11.304687 2.984375-3.253906 8.046875-3.472656 11.300781-.488282l5.457031 5c7.414063 6.871094 18.867188 6.871094 26.28125 0l5.449219-4.992187c3.253906-2.984375 8.316406-2.765625 11.300781.488281 2.988281 3.257813 2.769531 8.316406-.488281 11.304688l-5.445312 5c-6.527344 6.019531-15.082032 9.367187-23.960938 9.375zm0 0" fill="#d8d8d8"/><path d="m158.839844 178.078125c0 9.054687-7.339844 16.394531-16.390625 16.394531-9.054688 0-16.394531-7.339844-16.394531-16.394531 0-9.050781 7.339843-16.390625 16.394531-16.390625 9.050781 0 16.390625 7.339844 16.390625 16.390625zm0 0" fill="#62666a"/><path d="m289.046875 178.078125c0 9.054687-7.335937 16.394531-16.390625 16.394531s-16.390625-7.339844-16.390625-16.394531c0-9.050781 7.335937-16.390625 16.390625-16.390625s16.390625 7.339844 16.390625 16.390625zm0 0" fill="#62666a"/><path d="m186.800781 240.796875h46.398438c3.148437 0 6.003906 1.84375 7.296875 4.710937 1.292968 2.867188.785156 6.230469-1.296875 8.585938l-16.640625 18.855469c-2.976563 3.378906-7.238282 5.34375-11.738282 5.414062-4.5.074219-8.824218-1.75-11.910156-5.027343l-17.941406-19.074219c-2.175781-2.324219-2.765625-5.71875-1.5-8.644531 1.265625-2.921876 4.144531-4.8125 7.332031-4.820313zm0 0" fill="#6f7478"/><path d="m172.105469 242.4375c-2.59375 5.855469-1.390625 12.691406 3.039062 17.3125l17.933594 19.066406c2.492187 2.605469 5.542969 4.617188 8.921875 5.878906v12c-11.648438 6.164063-25.640625 5.925782-37.070312-.632812l-2.929688-1.664062c-3.832031-2.207032-8.730469-.890626-10.941406 2.941406-2.207032 3.832031-.890625 8.730468 2.941406 10.9375l2.96875 1.6875c16.359375 9.429687 36.4375 9.683594 53.03125.683594 16.671875 9.792968 37.261719 10.09375 54.214844.796874l5.601562-3.101562c3.796875-2.167969 5.152344-6.984375 3.039063-10.8125s-6.910157-5.253906-10.765625-3.195312l-5.601563 3.101562c-12.007812 6.589844-26.601562 6.367188-38.398437-.589844l-.089844-.050781v-11.75c4.0625-1.285156 7.707031-3.632813 10.558594-6.800781l16.648437-18.878906c4.152344-4.71875 5.15625-11.429688 2.566407-17.15625-2.585938-5.730469-8.289063-9.410157-14.574219-9.414063h-46.398438c-6.402343-.0625-12.207031 3.746094-14.695312 9.640625zm44.453125 25.226562c-1.480469 1.695313-3.617188 2.675782-5.871094 2.703126-2.238281-.027344-4.375-.933594-5.953125-2.519532l-18.015625-19.050781h46.480469zm0 0"/><path d="m142.457031 202.480469c13.476563 0 24.398438-10.925781 24.398438-24.402344s-10.921875-24.398437-24.398438-24.398437c-13.476562 0-24.402343 10.921874-24.402343 24.398437.011718 13.472656 10.929687 24.390625 24.402343 24.402344zm0-32.800781c4.640625 0 8.402344 3.761718 8.398438 8.402343 0 4.640625-3.765625 8.398438-8.40625 8.398438-4.640625-.003907-8.398438-3.769531-8.394531-8.410157.011718-4.632812 3.769531-8.382812 8.402343-8.382812zm0 0"/><path d="m76.457031 200.597656c0 18.613282 11.054688 35.445313 28.132813 42.84375 17.078125 7.398438 36.917968 3.949219 50.5-8.777344l24.375-22.839843c9.40625-8.851563 14.878906-21.097657 15.199218-34.007813.402344-18.390625-9.726562-35.394531-26.085937-43.800781-16.359375-8.402344-36.082031-6.734375-50.792969 4.304687l-16.265625 12.199219c-15.734375 11.847657-25.011719 30.382813-25.0625 50.078125zm34.640625-37.277344 16.261719-12.203124c5.488281-4.199219 12.199219-6.492188 19.113281-6.527344 5.144532.027344 10.210938 1.28125 14.773438 3.65625 11.019531 5.492187 17.820312 16.914062 17.394531 29.214844-.207031 8.613281-3.855469 16.785156-10.128906 22.691406l-24.359375 22.839844c-8.925782 8.371093-21.972656 10.640624-33.203125 5.777343-11.230469-4.867187-18.496094-15.941406-18.492188-28.179687.035157-14.65625 6.933594-28.449219 18.640625-37.269532zm0 0"/><path d="m272.65625 202.480469c13.476562.003906 24.40625-10.917969 24.40625-24.394531.003906-13.480469-10.917969-24.40625-24.394531-24.40625-13.476563-.003907-24.402344 10.921874-24.402344 24.398437.011719 13.46875 10.921875 24.382813 24.390625 24.402344zm0-32.800781c4.640625-.003907 8.40625 3.753906 8.40625 8.394531.003906 4.644531-3.761719 8.40625-8.402344 8.40625-4.640625-.003907-8.402344-3.769531-8.394531-8.410157.011719-4.628906 3.761719-8.375 8.390625-8.382812zm0 0"/><path d="m260.015625 234.664062c13.578125 12.734376 33.421875 16.1875 50.503906 8.789063 17.082031-7.402344 28.136719-24.238281 28.136719-42.855469-.046875-19.691406-9.3125-38.226562-25.039062-50.078125l-16.273438-12.199219c-14.714844-11.039062-34.433594-12.707031-50.796875-4.304687-16.359375 8.40625-26.484375 25.410156-26.082031 43.800781.316406 12.914063 5.792968 25.160156 15.199218 34.015625zm-6.160156-86.402343c4.566406-2.375 9.628906-3.628907 14.777343-3.65625 6.910157.035156 13.621094 2.324219 19.109376 6.519531l16.265624 12.210938c11.710938 8.820312 18.609376 22.617187 18.648438 37.277343-.003906 12.238281-7.269531 23.304688-18.496094 28.167969-11.226562 4.863281-24.269531 2.597656-33.199218-5.765625l-24.367188-22.847656c-6.269531-5.90625-9.914062-14.078125-10.121094-22.6875-.433594-12.308594 6.363282-23.738281 17.382813-29.234375zm0 0"/><path d="m54.609375 129.742188c-1.441406 4.480468-2.769531 9.015624-3.832031 13.664062-1.359375 5.890625-3.535156 11.566406-6.457032 16.855469l-7.082031 12.800781c-20.507812 37.089844-23.246093 81.433594-7.457031 120.765625 15.785156 39.328125 48.429688 69.472656 88.890625 82.082031l49.601563 15.449219c27.183593 8.523437 56.324218 8.523437 83.511718 0l49.597656-15.449219c40.460938-12.613281 73.097657-42.757812 88.882813-82.085937 15.785156-39.332031 13.042969-83.675781-7.464844-120.761719l-7.082031-12.800781c-2.921875-5.292969-5.09375-10.96875-6.453125-16.863281-1.089844-4.75-2.449219-9.382813-3.929687-13.960938 30.140624-4.15625 52.609374-29.890625 52.664062-60.320312v-8.160157c.007812-30.128906-22.003906-55.742187-51.792969-60.265625-29.789062-4.523437-58.410156 13.398438-67.351562 42.171875-54.695313-35.308593-125.105469-34.90625-179.390625 1.03125-8.496094-29.117187-37.105469-47.554687-67.132813-43.265625-30.023437 4.289063-52.32812475 30-52.332031 60.328125v8.160157c.0390625 31.195312 23.589844 57.339843 54.609375 60.625zm302.429687-113.742188c24.820313.023438 44.933594 20.140625 44.960938 44.957031v8.160157c-.042969 23.886718-18.746094 43.574218-42.601562 44.839843-3.648438-8.347656-7.996094-16.375-12.992188-24 .058594-9.429687 0-19.636719 0-23.863281-.171875-3.953125 1.828125-7.6875 5.21875-9.734375 3.390625-2.042969 7.628906-2.070313 11.042969-.066406 3.417969 2 5.464843 5.707031 5.339843 9.664062v4c0 4.421875 3.582032 8 8 8 4.417969 0 8-3.578125 8-8v-4c-.039062-14.78125-12.027343-26.746093-26.808593-26.757812-7.164063.003906-14.027344 2.878906-19.0625 7.976562-5.035157 5.09375-7.820313 11.996094-7.738281 19.160157v3.199218c-5.410157-5.90625-11.253907-11.402344-17.476563-16.441406 3.832031-21.386719 22.390625-36.988281 44.117187-37.09375zm-182.238281 20.910156c38.335938-9.4375 78.855469-3.097656 112.476563 17.59375 33.625 20.695313 57.539062 54.011719 66.386718 92.488282 1.679688 7.339843 4.378907 14.410156 8.015626 21.007812l7.082031 12.796875c18.183593 32.882813 20.617187 72.199219 6.617187 107.070313-13.996094 34.867187-42.9375 61.59375-78.8125 72.773437l-49.597656 15.445313c-24.089844 7.542968-49.910156 7.542968-74 0l-49.601562-15.445313c-35.859376-11.195313-64.785157-37.925781-78.769532-72.792969-13.984375-34.867187-11.546875-74.175781 6.640625-107.050781l7.089844-12.796875c3.632813-6.597656 6.324219-13.667969 8-21.007812 12.320313-54.316407 54.34375-96.960938 108.472656-110.082032zm-158.800781 24.046875c-.070312-23.578125 18.128906-43.1875 41.648438-44.875 23.519531-1.683593 44.328124 15.128907 47.625 38.476563-6.320313 5.261718-12.226563 11-17.671876 17.160156 0-2.222656 0-4.121094 0-5.40625.289063-9.726562-4.714843-18.84375-13.070312-23.824219-8.355469-4.984375-18.753906-5.046875-27.171875-.167969-8.417969 4.878907-13.53125 13.933594-13.359375 23.664063v4c0 4.417969 3.582031 8 8 8s8-3.582031 8-8v-4c-.128906-3.957031 1.921875-7.667969 5.335938-9.671875 3.414062-2.003906 7.652343-1.976562 11.042968.066406 3.390625 2.042969 5.394532 5.777344 5.222656 9.730469-.066406 4.632813-.082031 16.449219 0 26.546875 0 .117188.054688.214844.0625.328125-4.210937 6.742187-7.925781 13.785156-11.113281 21.070313-24.652343-.242188-44.519531-20.28125-44.550781-44.9375zm0 0"/><path d="m228.59375 329.101562-5.449219 4.992188c-7.414062 6.871094-18.867187 6.871094-26.28125 0l-5.457031-5c-3.253906-2.984375-8.316406-2.765625-11.300781.488281-2.988281 3.257813-2.769531 8.316407.488281 11.304688l5.453125 5c13.523437 12.511719 34.394531 12.511719 47.914063 0l5.445312-5c3.257812-2.988281 3.476562-8.046875.488281-11.304688-2.984375-3.253906-8.046875-3.472656-11.300781-.488281zm0 0"/></svg>